<svg xmlns="http://www.w3.org/2000/svg" viewBox="0 0 251.12 417.2"><defs><style>.cls-1{fill:#af996e;}.cls-1,.cls-2{fill-rule:evenodd;}.cls-2{fill:#02549f;}.cls-3{fill:#8ac8ee;}.cls-4{fill:#fff;}</style></defs><g id="Capa_2" data-name="Capa 2"><g id="Capa_1-2" data-name="Capa 1"><path class="cls-1" d="M125,374.05c-6.56-5.26-13.33-10-19.91-13s-11.47-3.38-16.56-4a171.18,171.18,0,0,1-22-4.33c-7.19-2.08-13.76-4.7-18.85-9.65s-6.93-11.1-6.93-14.28V181.1L13.67,181l-.11-23.19,16.89,0-.12-8.2-16.82.18.1-24.17H40.75V108.52H209.31v17.06h27.13l0,24.1-17.89,0,.05,8.09,17.83.13,0,23.13-27.08.11V328.72c0,3.18-1.85,9.34-6.94,14.28s-11.65,7.57-18.84,9.65a171.18,171.18,0,0,1-22,4.33c-5.09.66-10,1-16.56,4s-13.35,7.77-19.91,13"/><path class="cls-2" d="M112.64,288.79l-7.17-.12-6.65-21.85-7.9-24.7c-2.35-7-4.53-14.71-5.45-17.58s-5.73-1.29-6.33.15L68.72,262.27,61,289.08,55.44,289l0,9.91H77.77l.17-9.92-7.74-.08a22.79,22.79,0,0,1,2-10.4H94.37L97,288.92l-8,.14,0,9.85H112.9ZM74.86,269.51l8-30.3,8.5,30.3Z"/><path class="cls-2" d="M199.81,288.79l-7.17-.12L186,266.82l-7.89-24.7c-2.35-7-4.53-14.71-5.46-17.58s-5.72-1.29-6.32.15l-10.43,37.58-7.76,26.81-5.51-.12,0,9.91h22.35l.17-9.92-7.74-.08a22.91,22.91,0,0,1,1.95-10.4h22.21l2.6,10.45-8,.14,0,9.85h23.93ZM162,269.51l8-30.3,8.5,30.3Z"/><path class="cls-2" d="M126.1,255.08l13,0,.41,13.17,7.13,0,.06-34.74-7.85.07.09,12.74-12.76-.21V210c0-1,10.53-2.9,11.9-3.13a28.74,28.74,0,0,1,17.45,2c3.17,1.51,16.45,10.74,19.72,8.75,9.48-5.77-1.14-20.49-7.65-25.69-7.38-5.9-15.87-1.76-23.58.86a85.27,85.27,0,0,1-29.08,4.48c-9.47-.17-27.17-1.8-34-9.65-1.7-2-4-1.06-2.33,3.51,5,14,25.68,21.34,39.2,19.92v91.37c-.36,2.18-1.33,2-5.83,4.35s-8.27,8.57-5.91,9.39c4.5,1.57,10.22-3.63,15.39-2.94,4.48.62,8.4,3.31,12.1,5.75,9.13,6,19.85,10.31,26.94-.74.35-.57,1.22-4.27-1.72-4.83-1.06-.2-3.09,2.14-4.46,2.27-5.88.55-9.19-3.23-13.72-6.14s-9.87-3.85-14.56-6.34c0-20.55,0-27.57,0-48.12"/><rect class="cls-3" x="18.43" y="163.5" width="212.41" height="13.49"/><rect class="cls-3" x="18.43" y="130.32" width="212.41" height="13.48"/><rect class="cls-4" x="37.62" y="144.19" width="174.48" height="19.32"/><polygon class="cls-1" points="57.87 25.9 65.37 47.11 87.86 47.69 70 61.37 76.41 82.94 57.87 70.18 39.34 82.94 45.74 61.37 27.89 47.69 50.38 47.11 57.87 25.9"/><polygon class="cls-1" points="190.46 25.9 197.96 47.11 220.44 47.69 202.59 61.37 208.99 82.94 190.46 70.18 171.93 82.94 178.33 61.37 160.47 47.69 182.96 47.11 190.46 25.9"/><path class="cls-1" d="M238.29,338.74a75.38,75.38,0,0,0-1.69-22.12c14-12.3,15.54-27.6,14.07-44.74-4.78,2.09-8,5.19-9.65,9.27a73.88,73.88,0,0,0-4.6-17.72c14-12.31,15.57-27.62,14.1-44.77-4.67,2-7.83,5.05-9.53,9a75.54,75.54,0,0,0-6.94-22.85,67.37,67.37,0,0,0-7.1,23.26,22.12,22.12,0,0,0-9.65-9.4c-1.46,17.2.1,32.55,14.23,44.87a68.44,68.44,0,0,0-4.61,18,22.18,22.18,0,0,0-9.77-9.63c-1.52,17.78.2,33.58,15.7,46.11l.12.26a66.43,66.43,0,0,0-8.19,16.35,23.08,23.08,0,0,0-7.6-11.36c-4.61,15.81-6.15,30.57,3.78,45.15A57.22,57.22,0,0,0,205,369.82a23.75,23.75,0,0,0,5-12.45c-15.8,4-29,10.57-35.36,28.94a58.14,58.14,0,0,0-13.77-3.1,22.66,22.66,0,0,0,8.73-10.69c-15.26-1-28.89.82-39.75,14-.65-1.77-2.34-4.49-4.39-4.49-2.25,0-3.54,1.49-4.09,4.71-10.88-13.39-24.58-15.25-39.93-14.23a22.61,22.61,0,0,0,8.73,10.69,58.14,58.14,0,0,0-13.77,3.1c-6.4-18.37-19.56-24.9-35.37-28.94a23.84,23.84,0,0,0,5,12.45,57.26,57.26,0,0,0-15.93-1.43c9.93-14.58,8.38-29.34,3.78-45.15a23.06,23.06,0,0,0-7.6,11.37,66,66,0,0,0-8.2-16.36,2.1,2.1,0,0,0,.13-.26c15.49-12.53,17.22-28.33,15.7-46.11a22.2,22.2,0,0,0-9.78,9.63,68.43,68.43,0,0,0-4.6-18c14.13-12.32,15.69-27.67,14.22-44.87a22.15,22.15,0,0,0-9.64,9.4,67.37,67.37,0,0,0-7.1-23.26,75,75,0,0,0-6.94,22.85c-1.7-3.94-4.86-7-9.54-9-1.46,17.15.09,32.46,14.11,44.77a73.42,73.42,0,0,0-4.6,17.72Q7.6,275,.44,271.88C-1,289,.52,304.32,14.51,316.62a76.07,76.07,0,0,0-1.69,22.12c-2.43-3.48-6.11-5.72-11.07-6.67,2,17.62,6.7,32.62,24,41.45-.26.59-.42.91-.42.91.24-.26.46-.52.69-.78l1.1.54a66.5,66.5,0,0,0,11.92,8.75q-6.51.36-11.78,6.83c14.13,6.68,27.65,10,42.31,1.33a63.59,63.59,0,0,0,19.2,7c-3.64,1.73-6.47,5-8.48,9.81,13.44,1.73,25.71,1.15,36.36-7.66-2.85,5.64-9.74,11.28-9.74,16.92h7.22c0-5.92,5.5-11.85,7.33-17.78a3.65,3.65,0,0,0,2.79,1.49,5.25,5.25,0,0,0,5.43-4.39c0-.22,0-.48.05-.75a40.27,40.27,0,0,0,7.71,6.79c2.35,4.88,6.08,9.76,6.08,14.64h7.23c0-3.59-2.8-7.18-5.57-10.77,7.89,2.79,16.46,2.68,25.57,1.51-2-4.83-4.84-8.08-8.48-9.81a63.79,63.79,0,0,0,19.2-7c14.66,8.7,28.18,5.35,42.31-1.33q-5.26-6.48-11.78-6.83A66.5,66.5,0,0,0,224,374.19l1.1-.54c.23.26.45.52.69.78,0,0-.16-.32-.42-.91,17.34-8.83,22.06-23.83,24-41.45C244.4,333,240.72,335.26,238.29,338.74Z"/><polygon class="cls-1" points="124.63 0 133.65 25.52 160.7 26.21 139.22 42.67 146.92 68.62 124.63 53.28 102.33 68.62 110.04 42.67 88.55 26.21 115.61 25.52 124.63 0"/></g></g></svg>