<svg xmlns="http://www.w3.org/2000/svg" viewBox="0 0 320.37 403.9"><defs><style>.cls-1{fill:#fff03e;}.cls-2{fill:#e73c32;}.cls-3{fill:#007261;}.cls-4{fill:#f9b036;}.cls-23,.cls-5{fill:#fff;}.cls-11,.cls-6{fill:#31332f;}.cls-12,.cls-7{fill:#c7c7c9;}.cls-8{fill:#d6d7d7;}.cls-9{fill:#c9c9cc;}.cls-10{fill:gray;}.cls-10,.cls-11,.cls-12,.cls-13,.cls-14,.cls-16,.cls-18,.cls-19,.cls-23,.cls-25{fill-rule:evenodd;}.cls-13{fill:#060108;}.cls-14{fill:#cc9867;}.cls-15{fill:#806421;}.cls-16{fill:#de8878;}.cls-17{fill:#b16e77;}.cls-18{fill:#d7bc44;}.cls-19{fill:#a52c2f;}.cls-20{fill:#7f2d23;}.cls-21,.cls-25{fill:#4d4d4d;}.cls-22{fill:#1f1813;}.cls-24{fill:#686667;}</style></defs><g id="Capa_2" data-name="Capa 2"><g id="Capa_1-2" data-name="Capa 1"><g id="Fondo"><path class="cls-1" d="M32.26,202.28c0,19.14,3.41,47.61,19.67,74.52a121.37,121.37,0,0,0,18.92,23.94L286.33,176.33c-2.09-11-5.3-20.14-8.45-29.11-4.63-13.21-9-25.69-9-41.45,0-23.27,11.48-44,19.53-55.74l0-.05L32.33,197.8C32.28,199.26,32.26,200.75,32.26,202.28Z"/><path class="cls-2" d="M288.35,50l-24-24.28c-9.35,9.71-25.51,20.6-51,20.6s-42.63-12.54-52.89-23.68C150.23,33.76,133.05,46.3,107.6,46.3S66,35.41,56.61,25.7L32.57,50c8,11.71,19.52,32.47,19.52,55.74,0,15.76-4.37,28.24-9,41.45C38.1,161.44,33,176.1,32.33,197.8Z"/><path class="cls-3" d="M135.59,336.9a56.47,56.47,0,0,1,24.89,14.85,56.49,56.49,0,0,1,24.9-14.85c38.16-11.15,66.31-31.36,83.66-60.1,16.25-26.91,19.66-55.38,19.66-74.52a136.7,136.7,0,0,0-2.37-25.95L70.85,300.74C87.42,317,109.09,329.16,135.59,336.9Z"/><path class="cls-4" d="M65.73,314.12c.89.81,1.79,1.6,2.71,2.39s1.59,1.35,2.41,2q3.8,3.12,8,6.08c1.66,1.18,3.35,2.34,5.1,3.48s3.38,2.14,5.13,3.19c.79.47,1.59.94,2.41,1.4q4.34,2.51,9,4.82,3.54,1.75,7.29,3.39a199.56,199.56,0,0,0,24.32,8.78,40.61,40.61,0,0,1,7.18,2.82c.42.21.85.43,1.29.67s.68.36,1,.56c8.26,4.67,18.93,14,18.93,31h0c0-27.76,28.42-35.06,28.42-35.06,35-10.18,59.59-26.75,76.73-46q3.21-3.62,6.08-7.34c1.28-1.65,2.5-3.33,3.68-5,.59-.84,1.17-1.69,1.74-2.54q2.53-3.81,4.77-7.71c.5-.86,1-1.73,1.46-2.6q2.13-3.9,4-7.86c.41-.88.81-1.75,1.2-2.63.78-1.76,1.52-3.53,2.22-5.29s1.36-3.53,2-5.3q1.29-3.66,2.38-7.31l.39-1.37c.69-2.38,1.32-4.76,1.88-7.12a166.63,166.63,0,0,0,4-25.31c.39-4.84.57-9.53.57-14a157.42,157.42,0,0,0-.85-16.56c-.14-1.28-.29-2.54-.45-3.77s-.34-2.45-.53-3.64-.39-2.37-.6-3.52q-.48-2.58-1-5c-.24-1.09-.49-2.17-.75-3.23-5.82-23.86-15.62-39.36-15.62-60.74,0-30.41,23.8-56.85,23.8-56.85L282.05,24.76,262.9,5.38h0s-6.18,13.68-22.73,21.8c-.79.39-1.61.77-2.45,1.13-.64.27-1.28.54-1.95.79a54,54,0,0,1-6.44,2l-.62.16a65.34,65.34,0,0,1-15.34,1.75c-37,0-52.88-33-52.89-33h0a64,64,0,0,1-11.76,15.75l-.82.8c-.52.5-1.05,1-1.6,1.49a1.07,1.07,0,0,0-.16.14q-2,1.79-4.29,3.5l-.52.39-1.45,1a58.89,58.89,0,0,1-7.16,4.21,56.22,56.22,0,0,1-25.12,5.75A65.28,65.28,0,0,1,92.26,31.3l-.55-.14a55.91,55.91,0,0,1-7.47-2.43C65.11,21,58.06,5.38,58.06,5.38h0L15.31,48.66l-.26.26a96.28,96.28,0,0,1,7.53,10c1.05,1.56,2.15,3.28,3.26,5.14l.55,1q1.13,1.9,2.23,4c.55,1,1.1,2.11,1.64,3.21.18.37.36.74.53,1.11.53,1.12,1.05,2.27,1.56,3.44.84,2,1.63,4,2.35,6.07a79.49,79.49,0,0,1,2.59,9.09c.29,1.34.55,2.7.77,4.07.14.92.27,1.84.38,2.76a63.24,63.24,0,0,1,.41,7h0c0,2.37-.12,4.68-.34,6.93L38.36,114c-.26,2.23-.62,4.41-1.07,6.56-.08.43-.18.86-.27,1.29-4.91,22.25-18,41.72-18,80.39C19,235.36,28.61,280.53,65.73,314.12ZM43.08,147.22c4.64-13.21,9-25.69,9-41.45,0-23.27-11.47-44-19.52-55.74l24-24.33c9.35,9.71,25.51,20.6,51,20.6s42.63-12.54,52.88-23.68c10.26,11.14,27.44,23.68,52.89,23.68s41.64-10.89,51-20.6l24,24.28,0,.05c-8,11.71-19.53,32.47-19.53,55.74,0,15.76,4.38,28.24,9,41.45,3.15,9,6.36,18.13,8.45,29.11a136.7,136.7,0,0,1,2.37,25.95c0,19.14-3.41,47.61-19.66,74.52-17.35,28.74-45.5,48.95-83.66,60.1a56.49,56.49,0,0,0-24.9,14.85,56.47,56.47,0,0,0-24.89-14.85c-26.5-7.74-48.17-19.86-64.74-36.16A121.37,121.37,0,0,1,51.93,276.8c-16.26-26.91-19.67-55.38-19.67-74.52,0-1.53,0-3,.07-4.48C33,176.1,38.1,161.44,43.08,147.22Z"/></g><g id="Balón"><circle class="cls-5" cx="160.48" cy="319.09" r="83.43" transform="translate(-178.63 206.94) rotate(-45)"/><path class="cls-6" d="M160.49,403.21a84.12,84.12,0,1,1,84.11-84.12A84.22,84.22,0,0,1,160.49,403.21Zm0-166.85a82.73,82.73,0,1,0,82.73,82.73A82.83,82.83,0,0,0,160.49,236.36Z"/><path class="cls-7" d="M162.73,394.38c-5.67,0-14.78-.93-28.56-4.67-27.57-7.48-42.12-38.27-42.72-39.58-.37-.83-8.92-20.3-5-42.19s20.37-43.15,21.07-44.05c1.32-1.09,27.07-21.31,40.3-22,13-.66,41.93,6.43,43.16,6.74l.45.2L203,256.66c.72.51,17.41,12.3,23.72,22.12s10,45.1,10.15,46.6l0,.36-.15.34c-.63,1.44-15.65,35.4-24.2,46.5-8.71,11.31-33.61,19.1-34.66,19.43l-.15,0-7.16,1.39S168.34,394.38,162.73,394.38ZM109.51,265.83c.06,0-16.47,21.49-20.29,42.6S93.89,348.79,94,349s14.61,30.91,40.93,38c26.17,7.1,34.83,3.79,34.91,3.76l7.36-1.45c1.44-.46,25.24-8.11,33.21-18.45s22.1-42,23.71-45.59c-.4-3.81-4-36.21-9.68-45-6-9.36-22.8-21.22-23-21.33l-11.33-7.71c-2.84-.69-30.08-7.26-42.1-6.6-12.36.66-38.24,21-38.5,21.19Z"/><polygon class="cls-8" points="154.62 377.97 151.88 377.51 159.88 329.5 187.22 321.94 187.73 322.27 220.99 343.5 220.72 349.15 217.96 349.02 218.14 344.97 186.76 324.94 162.32 331.7 154.62 377.97"/><polygon class="cls-8" points="102.08 327.78 101.36 325.11 135.21 315.95 154 297.6 151.29 288 128.09 255.62 130.35 254 153.89 287.01 157.12 298.44 136.63 318.44 102.08 327.78"/><rect class="cls-9" x="175.57" y="284.04" width="33.93" height="2.78" transform="translate(-151.58 274.22) rotate(-54.13)"/><path class="cls-10" d="M106.4,256.44s13.58-13.81,38.25-18.55l12.33,6L135.36,264,105.82,267Z"/><path class="cls-11" d="M107,254.84s-2.16,13,18.44,10l-19.92,2.59V255.64Z"/><path class="cls-10" d="M202.58,247.59a101.47,101.47,0,0,1,24.68,22l.23,15L199,275.9l-12.11-27.17Z"/><path class="cls-11" d="M187.2,249.19S199,268.55,202.14,270.8,226.92,284,226.92,284l-28.07-8.27Z"/><polygon class="cls-10" points="129.88 318.2 158.68 346.81 190.4 325.46 186.27 295.65 151.63 284.25 129.88 318.2"/><path class="cls-12" d="M97.19,331.65c-3.43-9.82-10.76,49.91,47.33,57.31,54.67,7,65.34-14.68,73-24.39l9,5.55s-22.88,31.42-55.92,31.42-51.53-6.24-68.86-23.11-24.49-40.9-23.34-45.29S97.19,331.65,97.19,331.65Z"/><path class="cls-10" d="M132.05,397.5l-7.8-13.35,29.29-9.7,26.69,15.08-14.39,13.34s-14,.35-20.1-1.39C140.51,400,132.05,397.5,132.05,397.5Z"/><path class="cls-10" d="M241.16,338.26l-6.1-16.19L214.59,342l-4.42,30.91,13.12.22s9.26-11.76,12.09-17.65S241.16,338.26,241.16,338.26Z"/><path class="cls-11" d="M214.7,344.71s-1.13,22.29,0,23.76,9.06,4.53,9.06,4.53l-13.7-.11Z"/><path class="cls-10" d="M81.1,346.55l15.59,10.74,9.36-31.54L89.24,301.14l-13,17.68s.87,11.95,1.56,15.59S81.1,346.55,81.1,346.55Z"/><path class="cls-11" d="M77.63,317.43s-.17,19.24,6.76,26.34,12.48,13.69,12.48,13.69L81.44,347.24s-5.72-16.81-5.54-27.9Z"/><path class="cls-6" d="M160.49,403.9a84.81,84.81,0,1,1,84.81-84.81A84.91,84.91,0,0,1,160.49,403.9Zm0-166.85a82,82,0,1,0,82,82A82.14,82.14,0,0,0,160.49,237.05Z"/><path class="cls-11" d="M125.67,384.19s15.68,9.47,24.68,11.28c10.5,2.13,23.71-.19,23.71-.19L167.18,402s-17.21,1.33-25.82-1.33-9-3.43-9-3.43l-8.72-13.64Z"/></g><g id="FBF"><path class="cls-13" d="M121.69,349l-6.61-6.61V292.23s6.22-13.82,22.27-13.82v13.24s-10.5,0-15.66,4.18v16.44h14.89v12.46L121.89,323Z"/><path class="cls-5" d="M123.05,352.28l-9.36-9.36.13-51.26c.06-.14,6.78-14.63,23.53-14.63h1.39v16h-1.39c-.09,0-9.39.06-14.27,3.49v14.37H138v15.4l-14.7-1.75Zm-6.58-10.51,3.86,3.86.19-24.21,14.67,1.75v-9.51H120.3V295.17l.52-.42c4.37-3.54,12-4.29,15.15-4.45V279.84c-13,.69-18.6,10.9-19.5,12.71Z"/><path class="cls-13" d="M182.7,357.62V276.47s18.78,5.93,22.76,18v5s-6.62-6.72-15-6.72v20l13.32,1.06v8.89l-12.74,1.92v27Z"/><path class="cls-5" d="M181.31,360.35V274.57l1.8.57c.8.26,19.51,6.3,23.67,18.89l.07.44v8.32l-2.37-2.39c-.06-.06-5.59-5.56-12.61-6.23v17.21l13.31,1.06V323.8l-12.73,1.93v26.46Zm2.78-81.91v76.44l5.58-4.1V323.34l12.74-1.92V315l-13.32-1.07V291.33h1.39c5.84,0,10.82,3,13.6,5.09V294.7C201,285.71,188.73,280.23,184.09,278.44Z"/><path d="M145.41,275.7l3-.2c5.79-.37,11.58-.77,17.38-1.07A11,11,0,0,1,177,283.32a13.39,13.39,0,0,1,.19,2.83c-.14,5.46-.26,10.92-.5,16.38-.16,3.63-.56,7.26-2.28,10.56-.69,1.34-1.53,2.6-2.31,3.92,2.95,2.77,3.84,6.6,4.44,10.48a55.9,55.9,0,0,1,0,17.7,21.52,21.52,0,0,1-6.19,13.34,1.32,1.32,0,0,1-.9.34q-11.85-.28-23.7-.61a3.79,3.79,0,0,1-.39-.05Zm8,74.51a2.9,2.9,0,0,0,.38,0H165a1.63,1.63,0,0,0,.5-.07,5.63,5.63,0,0,0,3.76-4.95q.06-8.93,0-17.85a6.22,6.22,0,0,0-1.69-4.4,2.17,2.17,0,0,0-1.67-.71c-3.93,0-7.85,0-11.78,0h-.76Zm0-63.88v25.31h.83c3,0,6-.14,8.92,0a5,5,0,0,0,4.42-2c.24-.28.48-.55.71-.84a4.88,4.88,0,0,0,1-3.11c0-4.69-.06-9.37,0-14a6.06,6.06,0,0,0-1.44-3.94,3.6,3.6,0,0,0-3-1.46c-3.59,0-7.17,0-10.76,0Z"/><path class="cls-5" d="M169.52,360.2h-.05q-10.72-.26-21.45-.55l-2.25-.06-.44,0-1.13-.17-.11-1.16V274.47l2.28-.16,2-.14,5.1-.32c4.1-.27,8.19-.53,12.29-.74a12.27,12.27,0,0,1,12.58,10,14.46,14.46,0,0,1,.22,3.12l-.06,2c-.11,4.71-.24,9.57-.45,14.36-.16,3.66-.57,7.54-2.43,11.11-.49,1-1.06,1.88-1.61,2.78l-.21.34c2.73,3.05,3.55,7,4.09,10.47a57.9,57.9,0,0,1,0,18.11,26.81,26.81,0,0,1-3.84,10.77,22.36,22.36,0,0,1-2.23,2.74l-.45.5A2.6,2.6,0,0,1,169.52,360.2Zm-.11-2.56Zm.12-.09ZM146.74,357l1.35,0q10.71.28,21.41.55l.37-.42a19.47,19.47,0,0,0,2-2.41,24.45,24.45,0,0,0,3.45-9.74,55.34,55.34,0,0,0,0-17.28c-.55-3.52-1.31-7.17-4-9.73l-.78-.73.55-.91.75-1.24c.55-.89,1.07-1.74,1.52-2.61,1.62-3.12,2-6.65,2.13-10,.21-4.76.34-9.61.46-14.31l0-2a11.86,11.86,0,0,0-.18-2.56,9.58,9.58,0,0,0-9.83-7.8c-4.09.2-8.18.47-12.26.73l-5.1.33-1.78.12Zm12.62-5.38h-5.62l-.4,0-1.2-.11-.1-1.22V321h5.09c2.92,0,5.84,0,8.76,0h0a3.45,3.45,0,0,1,2.6,1.11,7.43,7.43,0,0,1,2.06,5.31c0,5.21,0,10.89,0,17.87a7,7,0,0,1-4.68,6.2,2.86,2.86,0,0,1-.91.13Zm-4.67-2.66H165a4.28,4.28,0,0,0,2.94-3.7c0-7,0-12.63,0-17.82a4.88,4.88,0,0,0-1.3-3.49,1,1,0,0,0-.72-.31c-2.93,0-5.86,0-8.78,0h-2.44Zm8.85-35.9H163c-2-.13-4.14-.1-6.17-.07l-2.67,0H152V285h5.09c2.56,0,5.13,0,7.69,0h.06a4.87,4.87,0,0,1,4,2,7.24,7.24,0,0,1,1.72,4.77c-.07,4.62,0,9.26,0,14a6.16,6.16,0,0,1-1.32,3.93l-.53.63-.21.25A6.21,6.21,0,0,1,163.54,313Zm-4-2.76c1.23,0,2.47,0,3.7.1a3.65,3.65,0,0,0,3.33-1.49l.24-.28c.14-.17.29-.34.43-.52a3.52,3.52,0,0,0,.77-2.29c0-4.77-.06-9.44,0-14.08a4.66,4.66,0,0,0-1.16-3.1,2.26,2.26,0,0,0-1.94-1h0q-3.85,0-7.73,0h-2.43v22.65l2.14,0C157.71,310.28,158.6,310.26,159.5,310.26Z"/></g><g id="Condor"><path class="cls-14" d="M135.58,230.65c.63,0,6-.11,6-.11l.61,9.34s1.91,4.47,4.44,4.49a53.54,53.54,0,0,1,10.85,1.76c2.32.73,10.07,5,8.91,10.24l-1.68-3.43s-7.76-4.92-12.46-5.13c0,0,7.12,6.28,5.86,12.15l-1.58-3.37s-5.72-7.09-8.25-7.51-2.84.8-2.53,2.7,1.83,7.3-1.12,10.56l.21-4.39s-2-10-8.28-8.77-6.85,1.86-8.08,2.91l-2.07,2.53s0-4.39,2.39-6.18,8.81-2.49,9.23-4a15.72,15.72,0,0,0-.1-9.45C136.42,231.07,135.58,230.65,135.58,230.65Z"/><path class="cls-15" d="M144,263.77l.27-5.84h0s-1.17-5.53-4.26-7.58a4.33,4.33,0,0,0-3.4-.66c-6,1.2-6.65,1.77-7.74,2.72l-3,3.65,0-1.43c0-.19,0-4.68,2.6-6.6a18.26,18.26,0,0,1,5.18-2.08c1.48-.44,3.72-1.11,3.86-1.61a15,15,0,0,0-.09-9.12c-1.31-3.54-2.07-4.11-2.1-4.13l.27-1c.63,0,6-.11,6-.11h.5l.63,9.75c.54,1.21,2.18,4.07,3.93,4.09a54.46,54.46,0,0,1,11,1.78c2.79.89,10.49,5.29,9.26,10.86l-.32,1.45-2.27-4.64c-.89-.55-6.42-3.89-10.58-4.76,2,2.11,5.89,6.88,4.88,11.53l-.32,1.5L156,256.81c-1.49-1.83-5.95-6.9-7.87-7.22a2.25,2.25,0,0,0-1.75.19c-.28.28-.34.91-.18,1.91,0,.21.09.45.15.73.45,2.33,1.41,7.17-1.39,10.27Zm-6.42-15.22a5.34,5.34,0,0,1,3,.93c3.47,2.31,4.66,8.13,4.71,8.37l-.11,2.62c1.18-2.62.52-5.92.14-7.85,0-.29-.1-.55-.14-.76a3.19,3.19,0,0,1,.47-2.81,2.89,2.89,0,0,1,2.66-.49c2.65.44,8,7,8.56,7.7l.78,1.65c-.43-4.9-5.75-9.65-5.81-9.71l-1.1-1,1.47.06c4.79.22,12.39,5,12.72,5.21l.12.08.67,1.35c-1.16-3.78-6.7-6.75-8.46-7.31a53.62,53.62,0,0,0-10.7-1.74c-2.83,0-4.83-4.6-4.91-4.79l0-.17-.58-8.85-4.38.08a20.26,20.26,0,0,1,1.7,3.7,16.07,16.07,0,0,1,.12,9.77c-.28,1-1.84,1.51-4.56,2.32a18.08,18.08,0,0,0-4.86,1.92,6.42,6.42,0,0,0-2,4.13l1.16-1.37c1.22-1.05,2-1.69,8.22-3A6,6,0,0,1,137.6,248.55Z"/><path class="cls-14" d="M162.53,225.84l6.18-.74,7.75,10.36a6.45,6.45,0,0,0,4.39,2.73c2.74.22,15.27-.31,17.59,8.88L195,243.74s-4.81-3-7.66-2.74-3.16,1.27-2.21,2.53,6.22,3.86,4.43,10.25L188.08,250s-2.28-4.17-5.65-5-5.86-.52-4.6,2.39c1.34,3.07,1.9,8.88.21,10.67v-4s-3.16-9.33-6.81-9-8.56,1.12-10.14,6c0,0,0-6,4.07-7.93s9.34-1.86,8-4.81a41.11,41.11,0,0,0-8.5-10.67Z"/><path class="cls-15" d="M177.52,259.37v-5.19c-.85-2.5-3.51-8.6-6.1-8.6h-.14c-4,.35-8.28,1.29-9.69,5.61l-1-.16c0-.26.05-6.39,4.38-8.4a27.64,27.64,0,0,1,4.06-1.41c1.75-.51,3.41-1,3.76-1.73a1.1,1.1,0,0,0-.11-1A40.86,40.86,0,0,0,164.31,228l-3-2.57,7.66-.91.18.24,7.76,10.35a5.9,5.9,0,0,0,4,2.53l1.06.06c4.05.15,14.81.55,17,9.22l.45,1.77-4.75-4.61h0s-4.32-2.6-7-2.6h-.28c-1.78.13-2.12.58-2.18.72s.16.73.35,1a6.09,6.09,0,0,0,.87.81c1.81,1.54,5.17,4.41,3.64,9.89l-.42,1.49-2-5.2h0s-2.2-3.93-5.3-4.7c-2.11-.52-3.66-.52-4.12,0-.32.38-.11,1.11.13,1.65,1.36,3.13,2,9.23.11,11.24Zm-6.1-14.82c3.83,0,6.79,8.4,7.12,9.38l0,.17v.42a17.32,17.32,0,0,0-1.21-6.92c-.52-1.19-.51-2.11,0-2.74.77-.9,2.5-1,5.17-.36,3.55.89,5.88,5.1,6,5.28l.84,2.13c.31-3.73-2.11-5.79-3.64-7.09a7.13,7.13,0,0,1-1-1,2,2,0,0,1-.45-2c.34-.77,1.34-1.2,3-1.33,3-.17,7.77,2.7,8,2.82l1.85,1.78c-3.12-5.86-11.75-6.18-15.21-6.32-.45,0-.82,0-1.1,0a6.91,6.91,0,0,1-4.78-3l-7.56-10.09-4.69.56,1.19,1a41.62,41.62,0,0,1,8.63,10.85,2.14,2.14,0,0,1,.11,1.85c-.54,1.18-2.25,1.68-4.41,2.3a28,28,0,0,0-3.92,1.35,6.8,6.8,0,0,0-3.36,4.63c2.17-2.65,5.77-3.36,9.17-3.66Z"/><path class="cls-16" d="M219.09,196.09s-8-3.24-8.29-13.43,10.76-10.84,10.76-10.84,2.42,2.08,4.64,2.08,9.42,1.11,12.41-.9,6-3.74,9.69-3.82a22.32,22.32,0,0,1,11,2.64c3,1.76,4.89,3.45,5.3,5.21a12.15,12.15,0,0,1-.16,6.21c-.66,1.51-6.51,6.4-13,6.4a35.86,35.86,0,0,1-12.68-1.85,13.19,13.19,0,0,0-11.43,1.4A87.16,87.16,0,0,0,219.09,196.09Z"/><path class="cls-17" d="M219.17,196.49l-.21-.08a15.28,15.28,0,0,1-8.5-13.74c-.34-10.4,11-11.19,11.08-11.2h.14l.11.09s2.35,2,4.41,2c.48,0,1.18.05,2,.11,3,.21,8,.56,10.22-1,2.73-1.83,6-3.79,9.87-3.87a22.55,22.55,0,0,1,11.2,2.68c3.31,1.95,5.05,3.67,5.46,5.43a12.49,12.49,0,0,1-.18,6.42c-.7,1.6-6.7,6.61-13.31,6.61a36.29,36.29,0,0,1-12.78-1.85,12.8,12.8,0,0,0-11.13,1.35,90.68,90.68,0,0,0-8.22,6.86Zm2.27-24.32c-1.29.11-10.59,1.23-10.29,10.48a14.63,14.63,0,0,0,7.88,13,83.85,83.85,0,0,1,8.13-6.77,13.51,13.51,0,0,1,11.72-1.45,35.46,35.46,0,0,0,12.58,1.83c6.35,0,12.09-4.87,12.67-6.19a11.8,11.8,0,0,0,.14-6c-.36-1.54-2-3.17-5.14-5a21.81,21.81,0,0,0-10.37-2.59h-.45c-3.72.08-6.86,2-9.51,3.76-2.46,1.65-7.38,1.3-10.65,1.07-.8-.06-1.49-.11-2-.11C224.13,174.25,222,172.59,221.44,172.17Z"/><path class="cls-18" d="M259.56,182.33c.33-1,1.48-3.86,7.11-3.86s8.79.82,10.07,1.89c1.64,1.36.61,7.24-3.21,8.26,0,0,1.48-2.72-1.89-2.39s-10.35.94-11.59-.66A2.67,2.67,0,0,1,259.56,182.33Z"/><path class="cls-15" d="M272.84,189.16l.39-.71c.14-.26.45-1,.16-1.49s-.82-.47-1.71-.38c-7.28.71-10.94.45-11.9-.79-1.24-1.6-.95-2.44-.64-3.31l.09-.26c.9-2.68,3.47-4.1,7.44-4.1,5.19,0,8.74.68,10.29,2,.82.68,1.09,2.28.7,4.06s-1.71,4.18-4,4.8Zm-.67-3.3a2,2,0,0,1,1.79.72,1.82,1.82,0,0,1,.16,1.45,5.76,5.76,0,0,0,2.86-4c.33-1.49.14-2.87-.46-3.38-.81-.67-3.17-1.81-9.85-1.81-2.54,0-5.78.63-6.78,3.63l-.09.27c-.29.81-.48,1.35.53,2.65.77,1,4.57,1.19,11.27.53Z"/><path class="cls-15" d="M274,186.88l-.49-.48c.3-.31.86-1.09.71-1.51-.1-.26-.52-.43-1.18-.49s-1.31-.12-2.13-.19a74.67,74.67,0,0,0-11.37-.55l-.06-.69a73.42,73.42,0,0,1,11.5.55c.81.08,1.54.15,2.12.19,1,.09,1.56.4,1.77.94C275.19,185.6,274.1,186.76,274,186.88Z"/><path class="cls-19" d="M256.51,171.24c.25-.17-.41-2,1.57-2.22s3.4-.74,4.64,1.48,1.89,3.32,3,3.65a3.47,3.47,0,0,1,2.5,2c.33,1-1.72,3.37-4.64,1.56a26.42,26.42,0,0,1-5.3-4.61S256.27,171.4,256.51,171.24Z"/><path class="cls-20" d="M265.72,178.69a4.35,4.35,0,0,1-2.28-.7,26.83,26.83,0,0,1-5.38-4.68c-1.94-1.57-1.92-1.9-1.91-2.05v-.18l.07-.06a1.21,1.21,0,0,0,0-.2,1.91,1.91,0,0,1,1.8-2.15l.61-.08c1.69-.25,3.15-.46,4.37,1.74s1.81,3.2,2.84,3.49a3.76,3.76,0,0,1,2.74,2.2,2,2,0,0,1-.92,2A3.1,3.1,0,0,1,265.72,178.69Zm-8.84-7.4a14.59,14.59,0,0,0,1.66,1.52,27,27,0,0,0,5.26,4.59,2.85,2.85,0,0,0,3.45.07,1.45,1.45,0,0,0,.69-1.23,3.14,3.14,0,0,0-2.27-1.75c-1.29-.37-2-1.57-3.25-3.82-1-1.78-2-1.63-3.67-1.39l-.62.08c-1.17.15-1.18.89-1.19,1.48A1.53,1.53,0,0,1,256.88,171.29Zm-.56-.34,0,0Z"/><path class="cls-17" d="M259.27,179.65l-1.39-.07a3.4,3.4,0,0,0-1.27-2.72,14,14,0,0,0-1.27-.78c-1.29-.75-2.62-1.54-3.06-3.09l1.33-.38c.29,1,1.28,1.6,2.43,2.27.45.26.92.53,1.36.84A4.8,4.8,0,0,1,259.27,179.65Z"/><circle class="cls-21" cx="255.83" cy="176.28" r="1.48"/><path class="cls-21" d="M255.83,178.19a1.91,1.91,0,1,1,1.9-1.91A1.92,1.92,0,0,1,255.83,178.19Zm0-3a1.06,1.06,0,1,0,1,1.05A1.05,1.05,0,0,0,255.83,175.23Z"/><path class="cls-22" d="M319.61,40.12c-3.42-2.81-14.16,2.46-17.72,6.52l-.77.9c-3.51,4-9.38,10.79-14.58,13-5.48,2.3-18.06,5.41-26.93,6.67s-27.31,7.28-38.44,18l-3.32,3.19c-9.9,9.49-17.72,17-20.07,21.38l-.51.94a87.72,87.72,0,0,0-7.22,16.62c-2.58,7.95-19.4,23.64-21.57,25.64-1.53-1.37-10.16-9.21-12.73-14.17l-.34-.66c-3-5.81-9.16-17.89-31.22-22.42-7.86-1.62-14.84-3.33-21.58-5-12.87-3.15-24-5.86-37-7C45.92,102,4.71,99.64,4.15,99.62c-.91-.06-2.94,1.23-3.84,2.78a3.76,3.76,0,0,0-.31.68,24.31,24.31,0,0,0,3.75,6.06c.21.25.42.51.64.75,4.57,4.53,9.39,8,14,13.06l.74.57c4,3,8.52,4.75,14.46,3.16l.52-.08.53-.1.77-.16a1.09,1.09,0,0,1,.49.34,1.79,1.79,0,0,1,.31.65,5.17,5.17,0,0,1,.28.82c0,2.79,1.58,4.33,3.21,5.67l.63.49c3.79,3.54,9.31-4,10.56,1.79,0,.23.1.47.17.71.59,2.15,2,4.47,6.21,4.69a32.36,32.36,0,0,0,9.3-.71c.72.2,5.38,1.72,5.64,6.64.28,5.48,1.75,6.43,5.15,6.59l.76,0a70.51,70.51,0,0,0,8-.72c.38.25,1.8,1.45.74,4.79-.48,1.52-.46,2.62,0,3.37.68,1,2,1.09,3.11,1.16l.39,0a7,7,0,0,0,1.59-.13c1.71-.25,3.46-.51,4.53,1.8,1.59,3.4,5.59,7.88,5.76,8.08,0,0,2.62,2.66,5.26,1,1.54-1,4.88-1,6.88,0,.55.26,1.22.71,1.3,1.35a8.58,8.58,0,0,0,.51,1.79c.75,2.08,1.53,4.23-2.45,5.84l-7.17,2.91c-7.74,3.15-18.34,7.47-21,8.46C82,195.12,61.86,204.6,61,205a19.35,19.35,0,0,1-8.11,2.76l-1.12.07c-3.62.22-5.12.31-7.3,2.17s-4.79,6.17-4.89,6.33-1.49,2.28-.81,3.69a2.25,2.25,0,0,0,2,1.1c3.94.32,6.49,1.21,7.58,2.66a3.07,3.07,0,0,1,.52,2.62c-.86,4.4-1.86,9.22-1.86,9.25,0,.2-.26,2,.73,2.75a2.1,2.1,0,0,0,2.2-.09l.9-.45c2.42-1.22,6.47-3.24,8.18-2.3a1.7,1.7,0,0,1,.8,1.46c.43,4.34,1,11.45,1,11.47S60.68,251,62,252a2.4,2.4,0,0,0,1.56.53,3.87,3.87,0,0,0,1.08-.16c3.76-1,14.09-7.15,18.47-10.14,4.75-3.25,12.78-11.18,15-15.47a27.74,27.74,0,0,0,1.58-4c1.22-3.61,2.48-7.33,6.92-8.64,5.74-1.7,12.81,5.51,16.22,9l.74.74c.7.71,1.42,1.46,2.14,2.21,2.64,2.77,5.38,5.63,8.1,6.86s8.23,1.63,10.34.26a1.84,1.84,0,0,0,1-1.59c0-.53-.07-1.17-.14-1.86-.35-3-.77-6.8,3.53-7.45,5.41-.8,8.85,3.92,8.91,4,.27.29,6.48,7.13,10.57,3.71,3.67-3.06,3.5-9.3,3.44-10.48l14.24-11.59c.07-.08,6.5-7.32,19-7.32.72,0,1.45,0,2.2.08l.6,0-.27-.54c-.08-.17-8.24-16.77-1-23.36s12.18-8.91,12.23-8.93l.31-.14-.12-.31c-.37-.91-1.2-3.56-.64-4.72a.91.91,0,0,1,.56-.51c2.07-.63,12.79-.21,12.93-.22.84.18,3.61.69,4.2-.38.41-.75-.41-1.7-1.07-2.36-2.3-2.3-5.78-5.78-5.41-7.06,0-.08.1-.35.7-.49a83.48,83.48,0,0,1,8.76-1.08,5,5,0,0,0,3.42-.75,5.21,5.21,0,0,0,2.05-3.56c.17-.93.27-1.73.35-2.44.35-2.87.47-3.83,4.38-4.93,1.79-.5,2.9-1.23,3.4-2.21a3.93,3.93,0,0,0-.16-3.22c-.08-.2-.14-.38-.19-.53s-.09-.32-.16-.54c-.55-1.6-1.7-4.94,2.61-7.8A34.23,34.23,0,0,0,262.5,117a31,31,0,0,0,2.47-7.65c.68-3.87,5.94-7.13,8.89-7.13s10.5-1.77,12.39-4.7c1.51-2.35,2-6.17,2.17-7.27,1.06-.08,4.59-.48,6-2.31a2.81,2.81,0,0,0,.46-2.5,25.92,25.92,0,0,0-1.33-3.76c-.63-1.49-1.21-2.9-.86-3.42.14-.21.47-.32,1-.32s1,0,1.52.07c2.8.17,6,.37,8.17-4.74,1.48-3.5,5.19-12,7.66-15.12C313,55.68,323.21,43.1,319.61,40.12Z"/><path class="cls-23" d="M219.23,195.91s-2,6.63-5.72,7.69-9.7.15-13.47-5.85-4.34-17.09-1.66-22.49,12.14-9.13,16.63-9.73,7.21,6.33,6.45,7.05S210.37,175,211,183.07,219.23,195.91,219.23,195.91Z"/><path class="cls-24" d="M210.64,204.5a13,13,0,0,1-11-6.48c-3.7-5.87-4.54-17.26-1.69-23s12.67-9.43,17-10c3-.43,5.24,2.08,6.42,4.53.3.62,1.21,2.7.46,3.41a4.48,4.48,0,0,1-1.51.66c-3,1.06-9.27,3.27-8.82,9.41.58,7.71,7.95,12.39,8,12.44l.34.21-.12.38c-.08.28-2.12,6.91-6.08,8A11.28,11.28,0,0,1,210.64,204.5ZM215.57,166l-.48,0c-4.45.6-13.67,4.27-16.25,9.45-2.71,5.47-1.9,16.35,1.64,22,3.41,5.43,8.92,6.75,12.88,5.62,2.94-.82,4.79-5.6,5.26-7-1.54-1.06-7.61-5.66-8.16-13-.52-6.94,6.51-9.41,9.51-10.47a10.77,10.77,0,0,0,1.15-.44,8.28,8.28,0,0,0-1.9-4.1A4.92,4.92,0,0,0,215.57,166Z"/><path class="cls-25" d="M106.51,162.81s-2.71,3.74-2.11,5.1,3,2,4.64.9,6.18-2.79,8-2.07,5.54,1.77,5.85,3.73-1.06,9.17,3.43,6.15,8.71-4.94,8-6.9-1.77-5.7-5.85-5.25-7.81,2.38-8.26-.45.34-5.39-3.13-4.64-5.4-.49-5.25-1.81-.9-2.57-2.11-.45S106.51,162.81,106.51,162.81Z"/><path class="cls-25" d="M152.5,188.77c.3-1.66.49-5,3.17-4.23s6.56,1.1,7.62-2.22.49-6,3.77-4.64,6.87,1,6.72-1.66-.3-11.81,1.81-10.19,5.51,11.24,9.73,10.79,8.87-1.32,7.81.6-2.86,2.23-2,4.34,1.24,3.74-1.92,4.19-7.85-1.47-9.47,1.81-3.7,6.45-7.17,6.45-4.79.57-5.85,2.53-2.87,7.17-3.62,4.19-2-6.3-4.49-5.25-13.2,3-11.24.91S152.2,190.43,152.5,188.77Z"/><path class="cls-25" d="M55.84,128.52a33.62,33.62,0,0,0,5.25-1.66c1.92-.91,5.81-2,8.22-.45s5.7,5.09,7.06,6.15,4.34,2.26,4.19,5.39-3.78,2.26-6.3.91-5.1-2.57-8.53-1.66-8.56.56-11.85-1.51-4.22-5.7-1.66-6.3Z"/><path class="cls-25" d="M25.13,123.29c1.75.78,3.13.78,5.22-1.51a1.74,1.74,0,0,0,.28-.64,1.77,1.77,0,0,0-.35-1.44c-1.47-2-3.13-6.56-7.21-6.29s-5.08-2.11-1.85-2.76,5.73-.29,6.66-2.32,2.49-3.6-3.15-3.14S13.3,104,6.92,103.08a9.38,9.38,0,0,0-1-.09c-1.12-.29-3.18,1.09-2.49,1.78,1.37,2.06,3.44,4.82,6.68,6.11.26.15.51.31.76.47a44,44,0,0,1,7,6.12l.64.65c2.11,1.12,3.49,3.88,6.21,4.9Z"/><path class="cls-25" d="M38.14,128.21s.57,3.23,1.57,3.32,1.47-4.15,1.47-4.15-.82-2.69,2.69-3,6-2,5.82-3-3.33-.18-6.93-1.11-5.55-.93-5.46.83S38.14,128.21,38.14,128.21Z"/><path class="cls-22" d="M51.19,234.34a1.25,1.25,0,0,1-1-.35c-.4-.45-.2-1.18.16-2.5a35.88,35.88,0,0,0,.85-3.71c.72-4.22.44-4.44-.43-5.09-.2-.15-.43-.33-.69-.56-1.18-1.1-3.87-1.34-6.73-1.6l-1.14-.1a2.42,2.42,0,0,1-2.12-1.14c-.41-.86-.12-2.06.91-3.68a30.23,30.23,0,0,1,7.14-6.39c2-1.27,4.9-1.31,7.69-1.35a32.31,32.31,0,0,0,4.47-.28c3.53-.58,4.79,1.66,5.59,3.14.15.27.28.51.41.7,1.21,1.82-4.48,6.27-6.06,7.36a1.54,1.54,0,0,0-.82,1.43c.13,1.5,2.48,3.32,4.73,4.36a1.77,1.77,0,0,1,1.24,1.48c.1,1.72-2.93,3.62-3.27,3.83s-6.7,3.94-9.9,4.37A7.83,7.83,0,0,1,51.19,234.34Zm-8.95-14.6,1.13.1c3,.27,5.79.52,7.15,1.78a7.77,7.77,0,0,0,.63.52c1.13.85,1.45,1.33.69,5.76a36,36,0,0,1-.86,3.77c-.25.91-.46,1.69-.31,1.87s.59.14,1.42,0c3.06-.41,9.56-4.24,9.63-4.28,1.17-.71,3-2.2,2.94-3.19q0-.53-.84-.9c-2.44-1.11-5-3.06-5.13-4.92a2.19,2.19,0,0,1,1.11-2.06c3.38-2.33,6.4-5.62,5.88-6.4-.14-.21-.28-.47-.43-.75-.75-1.39-1.8-3.28-4.88-2.79a34,34,0,0,1-4.57.28c-2.7,0-5.48.08-7.34,1.25A29.39,29.39,0,0,0,41.55,216c-1.09,1.71-1.08,2.57-.88,3s.73.68,1.57.76Z"/><path class="cls-25" d="M42.2,220.08c3.27.32,6.64.46,8.08,1.79s2.13.64,1.22,6-2.52,6.5.64,6.07,9.76-4.32,9.76-4.32,5.29-3.22,2.07-4.7-6.67-4.53-4-6.39,6.81-5.61,6-6.88-1.69-4.32-5.65-3.68-9-.32-12,1.58a29.37,29.37,0,0,0-7,6.28C40.52,217,38.94,219.77,42.2,220.08Z"/><path class="cls-25" d="M64.18,238.09c.1-.53.73-2.91,5.54-4.7s7-2.85,10.25-3.37,5.65-1.55,6.71-3.34,3.47-3.9,3.26-1.16a15.83,15.83,0,0,1-4,9.41c-2.7,2.84-9.41,7.27-10.46,9.23s-7.3,6.18-9.83,6.18-4-2.17-3-5.44A42.32,42.32,0,0,0,64.18,238.09Z"/><path class="cls-22" d="M65.65,250.69a3.5,3.5,0,0,1-2.93-1.38,5,5,0,0,1-.35-4.52,39,39,0,0,0,1.38-6.22c0-.26.07-.45.09-.55.18-.91,1.11-3.23,5.76-5l2.91-1.1a35.16,35.16,0,0,1,7.4-2.29c3.42-.55,5.54-1.58,6.47-3.16.73-1.24,2.24-2.93,3.26-2.61.5.15.72.71.65,1.65a16.44,16.44,0,0,1-4.1,9.62,55.49,55.49,0,0,1-5.12,4.37c-2.33,1.84-4.73,3.75-5.29,4.79C74.64,246.46,68.29,250.69,65.65,250.69Zm23.71-26.14c-.47,0-1.64,1-2.38,2.31-1,1.77-3.32,2.91-7,3.5a33.48,33.48,0,0,0-7.27,2.24c-.86.34-1.82.7-2.91,1.11-4.45,1.66-5.21,3.82-5.33,4.45,0,.09,0,.27-.08.51A39.37,39.37,0,0,1,63,245a4.3,4.3,0,0,0,.26,3.89A2.79,2.79,0,0,0,65.65,250c2.35,0,8.5-4.08,9.52-6,.63-1.16,3-3,5.47-5a54.13,54.13,0,0,0,5-4.31,15.67,15.67,0,0,0,3.92-9.19c.05-.69-.09-.92-.17-.94Z"/><path class="cls-23" d="M59.9,209.83c4.8-2.63,7-3.75,7-3.75s3.26-2,5.86-1.48,2.87,1.12,1,3.44a18.51,18.51,0,0,1-4.17,3.76A29,29,0,0,1,61.48,213C56.35,213.06,55.09,212.47,59.9,209.83Z"/><path class="cls-25" d="M175.77,153.25s-1.11,5.83,8.59,6.1,13.59,2.22,18.3,0,5.27-7.48,10-8,10.53,3.89,12.75-3.6,1.66-15.25,6.1-15.81,8.87,4.72,9.71-2.22-2.78-11.64,5.26-16.08,17.75-8.32,18.86-14.42-4.16-17.74,3.05-18,10.26,1.39,11.37-5,4.16-.28,7.49-2.5,5.54-6.93,5.54-6.93.28-4.44,3.88-3.61,5.27.28,8.6-3.05,10.2-13.73,10.2-13.73S317,40.12,312,42.89s-13.95,13-17.28,15a206.55,206.55,0,0,1-19.41,9.7c-7.21,3.05-14.42,5.82-14.42,5.82L228.73,87,211,104.73l-15.25,16.64-9.43,18.85Z"/><path class="cls-23" d="M41.83,106.39a72.48,72.48,0,0,1-8.87.28c-2.22-.28-4.44,2.22-.28,4.44a17.84,17.84,0,0,0,9.15,1.66s5.55-1.11,8.6,1.66,6.65,2.5,9.7.28,7.21-6.65-2.77-6.93A102.37,102.37,0,0,1,41.83,106.39Z"/><circle class="cls-21" cx="51.4" cy="114.57" r="4.02"/><path class="cls-23" d="M102,120.26s3.33-1.39,4.72,2.77,5,3.6,6.65,2.5,3.89-3.61,5.27,0,1.67,4.15,5.83,3.32,6.65-.55,6.65,3.33,3,9.43,5.82,9.43,7.77-.56,9.71,2.49,0,7.21,3.33,6.38,4.43,1.11,5,4.72,11.92,11.09,18.85,9.15,11.37-.56,2.5-4.16S157.19,143.83,155,139.67s-10.82-15-22.74-20.24-46.59-10.82-46.59-10.82-12.75-1.11-15.8-.28-4.72,6.94-2.22,9.43,6.38,4.44,14.7,3.88S102,120.26,102,120.26Z"/><circle class="cls-21" cx="163.7" cy="159.22" r="4.3" transform="translate(-0.49 0.5) rotate(-0.18)"/><path class="cls-25" d="M127.24,129.55a5.13,5.13,0,1,1,5.13,5.13A5.13,5.13,0,0,1,127.24,129.55Z"/><path class="cls-25" d="M111.43,123.45A4.58,4.58,0,1,1,116,128,4.58,4.58,0,0,1,111.43,123.45Z"/><path class="cls-25" d="M69.56,117.48a4.72,4.72,0,1,1,4.72,4.72A4.71,4.71,0,0,1,69.56,117.48Z"/><path class="cls-23" d="M197.12,151.59c1.11-1.66,2.21-17.47,9.7-16.08s10.54.55,9.15-3.33-1.11-7.49-5.82-11.65-.83-4.71,4.44-4.71,16.08,1.39,16.91-2.22,4.44-11.09,3.61-14.42,1.11-11.92,7.21-11.09,11.36,1.66,12.47-1.11,2.78-6.38,6.1-6.38,5-.83,5-2.77,0-6.65,3.88-6.38,3.32-3.88-1.11-3.6-17.19,2.77-23,5.27-25.23,13-28.28,17.47-15.81,15-17.75,18.58a82.86,82.86,0,0,0-6.1,13.86c-1.66,5.27-8,15-11.37,18.58s-4.71,6.38-3.6,10.81,1.94,1.39,3.6-1.66,3.05-3.33,4.44-.28,3,4.16,4.16.83,3.6-2.77,3.6-1.38S196,153.25,197.12,151.59Z"/><circle class="cls-21" cx="200.58" cy="135.65" r="4.02" transform="translate(64.27 335.78) rotate(-89.81)"/><path class="cls-25" d="M202.38,130.52a4.44,4.44,0,1,1,4.44,4.43A4.44,4.44,0,0,1,202.38,130.52Z"/><path class="cls-25" d="M222.35,108.89a3.88,3.88,0,1,1,3.88,3.88A3.88,3.88,0,0,1,222.35,108.89Z"/><path class="cls-25" d="M229.84,98.63a3.88,3.88,0,1,1,3.88,3.88A3.88,3.88,0,0,1,229.84,98.63Z"/><path class="cls-25" d="M250.5,82.41a4.44,4.44,0,1,1,4.43,4.43A4.43,4.43,0,0,1,250.5,82.41Z"/></g></g></g></svg>