<svg xmlns="http://www.w3.org/2000/svg" viewBox="0 0 274.77 390.81"><defs><style>.cls-1,.cls-5{fill:#00a032;}.cls-1{fill-rule:evenodd;}.cls-2{fill:#005fe6;}.cls-3{fill:#fff;}.cls-4{fill:#001e73;}.cls-6{fill:#ffcd00;}</style></defs><g id="Capa_2" data-name="Capa 2"><g id="Capa_1-2" data-name="Capa 1"><polygon class="cls-1" points="151.2 43.17 146.02 26.92 159.21 16.94 159.21 16.25 142.72 16.25 137.54 0 136.96 0 131.91 16.25 115.42 16.25 115.42 16.95 128.48 26.92 123.43 43.17 124.37 43.17 137.25 33.53 150.25 43.17 151.2 43.17"/><polygon class="cls-1" points="88.31 60.37 83.13 44.13 96.32 34.15 96.32 33.45 79.83 33.45 74.65 17.21 74.07 17.21 69.02 33.45 52.52 33.45 52.52 34.15 65.59 44.13 60.53 60.37 61.48 60.37 74.36 50.74 87.36 60.37 88.31 60.37"/><polygon class="cls-1" points="186.46 60.37 191.63 44.13 178.44 34.15 178.44 33.45 194.93 33.45 200.11 17.21 200.69 17.21 205.74 33.45 222.24 33.45 222.24 34.15 209.17 44.13 214.22 60.37 213.28 60.37 200.4 50.74 187.4 60.37 186.46 60.37"/><polygon class="cls-1" points="35.8 98.88 30.62 82.64 43.81 72.65 43.81 71.96 27.32 71.96 22.14 55.72 21.56 55.72 16.51 71.96 0.01 71.96 0.01 72.66 13.08 82.64 8.03 98.88 8.97 98.88 21.85 89.25 34.85 98.88 35.8 98.88"/><polygon class="cls-1" points="266.6 98.88 261.42 82.64 274.62 72.65 274.62 71.96 258.12 71.96 252.94 55.72 252.37 55.72 247.31 71.96 230.81 71.96 230.81 72.66 243.88 82.64 238.83 98.88 239.77 98.88 252.65 89.25 265.65 98.88 266.6 98.88"/><path class="cls-2" d="M137.38,367.08c-17.28-15.46-34.18-22.29-48.3-28-16.31-6.59-28.1-11.36-37.65-27.24a70.11,70.11,0,0,1-9.81-36.23V181.84a84.19,84.19,0,0,0-8.42-36.91c-.87-1.79-1.8-3.56-2.8-5.28,19.83-7,33.83-18.77,46.63-29.53,17.91-15,32.05-26.91,60.36-26.91s43.05,12.42,58.74,25.57l1.58,1.33c12.8,10.76,26.8,22.51,46.64,29.53a84.74,84.74,0,0,0-11.2,42.2v93.77a70.31,70.31,0,0,1-9.81,36.24c-9.11,15.12-19.42,19.85-36.87,26.92l-.83.33C171.53,344.81,154.65,351.63,137.38,367.08Z"/><path class="cls-3" d="M207.28,168.92v91.69h-.81l-18.35-18.43a13.75,13.75,0,0,0-9.71-4H160.84v17.59a13.78,13.78,0,0,0,4,9.69l18.42,18.41v.81H91.6v-.81L110,265.44a13.75,13.75,0,0,0,4-9.69V238.17H96.36a13.72,13.72,0,0,0-9.7,4L68.3,260.61h-.81V168.92h.81l18.36,18.42a13.72,13.72,0,0,0,9.7,4H114V173.77a13.74,13.74,0,0,0-4-9.68L91.6,145.68v-.81h91.66v.81l-18.42,18.41a13.78,13.78,0,0,0-4,9.68v17.6h17.57a13.75,13.75,0,0,0,9.71-4l18.35-18.43Z"/><path class="cls-4" d="M101.82,216.94a18.31,18.31,0,0,0,.29,3.57,4.33,4.33,0,0,0,1.06,2.2,4.26,4.26,0,0,0,2.13,1.11,15.77,15.77,0,0,0,3.47.31H113c.69,0,1.5,0,2.42,0l3.3-.07L117.25,232l-2.77.08-2,0h-4.31a31,31,0,0,1-7.43-.77,11.19,11.19,0,0,1-4.95-2.54A10.11,10.11,0,0,1,93,224.09a25.44,25.44,0,0,1-.87-7.2V212.6a24.53,24.53,0,0,1,.87-7,10.28,10.28,0,0,1,2.8-4.69,11.59,11.59,0,0,1,4.95-2.6,28.21,28.21,0,0,1,7.36-.82h4.35l2.54,0,3.42.07L117,205.5c-1.55-.06-2.85-.1-3.92-.1h-4.33a15.69,15.69,0,0,0-3.47.32,4.26,4.26,0,0,0-2.13,1.11,4.16,4.16,0,0,0-1,2.19,19.55,19.55,0,0,0-.27,3.58Z"/><path class="cls-4" d="M123.47,197.58H141c3.67,0,6.34.72,8,2.15s2.49,3.57,2.49,6.4v.63q0,5-4,7a7.64,7.64,0,0,1,3.72,2.82,8.69,8.69,0,0,1,1.3,5v.87q0,5.06-3,7.31c-2,1.5-5.07,2.24-9.12,2.24H123.47Zm19.1,9.9a2.77,2.77,0,0,0-.77-2.2,4.21,4.21,0,0,0-2.66-.65h-7V211H139a4.26,4.26,0,0,0,2.77-.7,2.94,2.94,0,0,0,.8-2.3Zm-10.46,17.43h7.37a5.37,5.37,0,0,0,3.14-.7,3.16,3.16,0,0,0,.91-2.63V221a3.24,3.24,0,0,0-.94-2.73,5.6,5.6,0,0,0-3.26-.7h-7.22Z"/><polygon class="cls-4" points="182.65 197.58 181.25 205.11 165.76 205.11 165.76 211.78 180.42 211.78 179.07 219.06 165.76 219.06 165.76 231.95 156.69 231.95 156.69 197.58 182.65 197.58"/><rect class="cls-5" x="44.98" y="192.26" width="23.41" height="21.62" transform="translate(259.75 146.38) rotate(90)"/><rect class="cls-5" x="206.39" y="215.66" width="23.41" height="21.62" transform="translate(-8.38 444.56) rotate(-90)"/><path class="cls-6" d="M249.79,191.36H233.14v-9.52a85,85,0,0,1,11.19-42.2c-19.82-7-33.81-18.77-46.6-29.51-17.9-15-32-26.92-60.34-26.92h0V66.57A95.39,95.39,0,0,0,114,69.33V86.59C99.65,91.16,89.21,99.91,77,110.13c-12.79,10.74-26.8,22.5-46.62,29.51a84.76,84.76,0,0,1,11.19,42.2v32.93H25v23.41H41.61v37.43a70.22,70.22,0,0,0,9.81,36.22c9.56,15.89,21.34,20.65,37.66,27.23,14.12,5.72,31,12.54,48.3,28V390.8h0a114.37,114.37,0,0,1,23.39-20.87V350.47a218.42,218.42,0,0,1,24.9-11.41c16.31-6.58,28.11-11.34,37.66-27.23a70.12,70.12,0,0,0,9.8-36.22V214.77h16.65Zm-20.9,84.25a65.81,65.81,0,0,1-9.2,34c-8.82,14.66-19.47,19-35.6,25.49a232.75,232.75,0,0,0-23.31,10.51v-61h-23.4v76.76c-16.85-14.23-33.32-20.89-46.68-26.29-16.15-6.53-26.8-10.83-35.62-25.49a65.81,65.81,0,0,1-9.2-34V238.18H67.49V214.77H45.88V181.84a89.5,89.5,0,0,0-9.41-39.94c18.14-7.39,31.45-18.56,43.32-28.52S101.18,95.45,114,91.06v53.81h23.4V87.46h0c26.74,0,39.69,10.88,57.59,25.92,11.87,10,25.18,21.15,43.33,28.52a89.11,89.11,0,0,0-9.42,39.94v9.52H207.28v23.41h21.61Z"/><path class="cls-5" d="M160.78,91.06a70.84,70.84,0,0,0-23.39-3.6h0v57.41h23.4Z"/><path class="cls-5" d="M114,345.63a133,133,0,0,1,23.4,15.79V284.66H114Z"/><path class="cls-4" d="M137.39,83.21c28.29,0,42.44,11.88,60.34,26.92,12.79,10.74,26.78,22.5,46.6,29.51a85,85,0,0,0-11.19,42.2v9.52h16.65v-9.52a68.23,68.23,0,0,1,25-52.82c-32.39-2.36-50-18-68-33s-36.07-29.46-69.42-29.46h0V83.22Z"/><path class="cls-4" d="M41.61,181.84a84.76,84.76,0,0,0-11.19-42.2c19.82-7,33.83-18.77,46.62-29.51,12.17-10.22,22.61-19,36.94-23.54V69.33C68.12,80.85,56.24,124.91,0,129a68.9,68.9,0,0,1,18.22,23.14A68.13,68.13,0,0,1,25,181.84v32.93H41.61Z"/><path class="cls-4" d="M89.08,339.06c-16.32-6.58-28.1-11.34-37.66-27.23a70.22,70.22,0,0,1-9.81-36.22V238.17H25v37.44a86.76,86.76,0,0,0,12.19,44.8c24.46,40.67,61.8,25.94,100.17,70.35V367C120.07,351.59,103.19,344.77,89.08,339.06Z"/><path class="cls-4" d="M233.14,275.61a70.12,70.12,0,0,1-9.8,36.22c-9.55,15.89-21.35,20.65-37.66,27.23a218.39,218.39,0,0,0-24.94,11.44V370c11.06-7.38,21.82-11.68,32-15.78,17.19-7,32.65-13.44,44.89-33.78a87,87,0,0,0,12.19-44.8V214.76H233.14Z"/></g></g></svg>