<svg xmlns="http://www.w3.org/2000/svg" viewBox="0 0 326.56 326.57"><defs><style>.cls-1{fill:#fff;}.cls-2{fill:#e10614;}.cls-3{fill:#005090;}</style></defs><g id="Capa_2" data-name="Capa 2"><g id="Capa_1-2" data-name="Capa 1"><path class="cls-1" d="M245,219.28a114.13,114.13,0,0,0,20.71-15.91A180.47,180.47,0,0,0,245,219.28"/><path class="cls-2" d="M326.56,163.28A163.28,163.28,0,1,1,163.28,0,163.28,163.28,0,0,1,326.56,163.28"/><path class="cls-3" d="M320.76,163.28A157.48,157.48,0,1,1,163.28,5.8,157.48,157.48,0,0,1,320.76,163.28"/><path class="cls-1" d="M277,163.28A113.67,113.67,0,1,1,163.28,49.62,113.67,113.67,0,0,1,277,163.28"/><path class="cls-1" d="M114,276.34a5.85,5.85,0,0,0-1.93-2.92,36.32,36.32,0,0,0-6.62-4l-5.24-2.69L86.34,293.67l7,3.6,2.72-4.44-.38-.17,9.1-17.72a3.84,3.84,0,0,1,1.43,1,1.25,1.25,0,0,1,.15,1,15.82,15.82,0,0,1-1.09,2.4l-5.36,10.46A10.22,10.22,0,0,1,97.88,293c-.39.24-1,.19-1.8-.18l-2.72,4.44,1.81.93a20.64,20.64,0,0,0,3.9,1.65,5.48,5.48,0,0,0,2.59.11,4,4,0,0,0,2.17-1.3,24.43,24.43,0,0,0,2.83-4.67l4.84-9.43a39.86,39.86,0,0,0,2.4-5.25,5.44,5.44,0,0,0,0-3"/><polygon class="cls-1" points="119.71 276.2 132.19 280.27 130.31 286.03 125.31 284.4 123.54 289.86 128.22 291.39 126.43 296.86 121.75 295.34 119.69 301.67 125.19 303.45 123.3 309.22 110.33 304.99 119.71 276.2"/><path class="cls-1" d="M173.08,297.29H165.2V292a9.45,9.45,0,0,0-.26-2.88,1.1,1.1,0,0,0-1.12-.56,1.15,1.15,0,0,0-1.23.7,10.41,10.41,0,0,0-.25,3l0,14a9.45,9.45,0,0,0,.27,2.88,1.1,1.1,0,0,0,1.17.67,1.12,1.12,0,0,0,1.16-.67,11.18,11.18,0,0,0,.26-3.16v-3.8l7.87,0v1.18a23.22,23.22,0,0,1-.64,6.66,6.82,6.82,0,0,1-2.93,3.44,10,10,0,0,1-5.6,1.49,11.57,11.57,0,0,1-5.7-1.23,6.09,6.09,0,0,1-3-3.46,22.45,22.45,0,0,1-.75-6.66l0-8.85a42.15,42.15,0,0,1,.21-4.91,7,7,0,0,1,1.33-3.15,7.47,7.47,0,0,1,3.08-2.39,12.64,12.64,0,0,1,10.28.45,6.45,6.45,0,0,1,3,3.35,20.2,20.2,0,0,1,.72,6.24Z"/><polygon class="cls-1" points="192.58 280.88 197.64 310.74 189.88 312.06 187.75 299.52 185.43 299.91 187.56 312.45 179.79 313.77 174.72 283.91 182.49 282.59 184.3 293.27 186.62 292.88 184.81 282.19 192.58 280.88"/><rect class="cls-1" x="199.7" y="278.01" width="7.88" height="30.29" transform="translate(-77.8 73.61) rotate(-17.26)"/><polygon class="cls-1" points="213.57 273.21 223.27 295.39 227.66 293.48 230.08 299.03 218.48 304.1 206.36 276.36 213.57 273.21"/><polygon class="cls-1" points="219.65 270.37 230.92 263.63 234.03 268.83 229.52 271.53 232.46 276.46 236.68 273.94 239.64 278.88 235.42 281.41 238.83 287.12 243.79 284.16 246.9 289.36 235.18 296.36 219.65 270.37"/><polygon class="cls-1" points="12.59 159.57 13.44 146.27 19.49 146.66 19.14 152.1 24.87 152.47 25.18 147.62 30.93 147.99 30.62 152.84 43.31 153.65 42.8 161.51 12.59 159.57"/><polygon class="cls-1" points="39.62 136.97 33.09 135.67 34.05 130.85 28.4 129.72 27.43 134.54 21.8 133.42 22.84 128.26 16.89 127.08 14.32 139.96 44.02 145.88 46.69 132.49 40.75 131.3 39.62 136.97"/><path class="cls-1" d="M45.49,119.44a4.49,4.49,0,0,1-.31,1.21l-18.67-6.93a3.82,3.82,0,0,1,.87-1.55,1.24,1.24,0,0,1,1-.27,15,15,0,0,1,2.52.8l11,4.09a10.16,10.16,0,0,1,3.34,1.66,1.32,1.32,0,0,1,.22,1l4.92,2,.34-.93a21.73,21.73,0,0,0,1.19-4.07,5.66,5.66,0,0,0-.2-2.59,4.11,4.11,0,0,0-1.55-2,24.83,24.83,0,0,0-5-2.26l-9.94-3.69a40.81,40.81,0,0,0-5.51-1.77,5.47,5.47,0,0,0-2.95.31,5.93,5.93,0,0,0-2.68,2.26,36.9,36.9,0,0,0-3.18,7l-2.05,5.53L47.3,129.84l3.11-8.38Z"/><polygon class="cls-1" points="28.91 94.89 35.36 83.46 40.64 86.44 38.06 91.02 43.05 93.84 45.47 89.55 50.49 92.38 48.07 96.67 53.87 99.94 56.71 94.91 61.98 97.89 55.28 109.78 28.91 94.89"/><path class="cls-1" d="M64.41,74.2a4.52,4.52,0,0,0-2-.33,5.88,5.88,0,0,0-3.17,1.51c.94-1.46,1.27-2.66,1-3.63S58.88,69.58,57,68.12c-2-1.6-3.76-2.45-5.2-2.53a5.17,5.17,0,0,0-3.72,1.17,27.37,27.37,0,0,0-3.24,3.46l4.3,3a2.11,2.11,0,0,1,.93-.55,2.56,2.56,0,0,1,1.8.77l1.31,1c1,.82,1.55,1.45,1.52,1.88A3.37,3.37,0,0,1,53.87,78l-5.28-4.18a5.61,5.61,0,0,1,.59-.65l-4.3-3c-.55.65-1.14,1.38-1.78,2.19l-3.46,4.38L63.41,95.57l4.88-6.18L57.58,80.92c.67-.85,1.24-1.25,1.7-1.22a7.06,7.06,0,0,1,2.6,1.57l7.9,6.25,4.53-5.74-6.26-5a28.09,28.09,0,0,0-3.64-2.62"/><path class="cls-1" d="M75.55,65.8l-1,.92q-2.46-3.19-7.38-10.44,5.51,5.2,9.39,8.63l-1,.89,3.62,4,1.12-1,3.93,3.78,6-5.39L66.6,47.65l-8.47,7.62L75.42,80.46,81.48,75l-3.29-4.36,1-.88Z"/><path class="cls-1" d="M104.42,53.07a23,23,0,0,0-3-6l-.62-1-6.67,4.19,2,3.21a10.66,10.66,0,0,1,1.45,2.82A1.09,1.09,0,0,1,97,57.48a1.12,1.12,0,0,1-1.36.06,9.64,9.64,0,0,1-1.75-2.3l-7.48-11.9a10.39,10.39,0,0,1-1.37-2.68,1.16,1.16,0,0,1,.68-1.24A1.09,1.09,0,0,1,87,39.31a9.68,9.68,0,0,1,1.74,2.3l2.81,4.46,6.66-4.19-1.53-2.43a20.3,20.3,0,0,0-3.93-4.92,6.48,6.48,0,0,0-4.3-1.26,11.07,11.07,0,0,0-5.58,1.91,11.2,11.2,0,0,0-3.38,3.15A7.49,7.49,0,0,0,78.12,42a6.81,6.81,0,0,0,.54,3.38,39.74,39.74,0,0,0,2.43,4.28l4.7,7.48A22.83,22.83,0,0,0,90,62.39a6.1,6.1,0,0,0,4.36,1.36,11.65,11.65,0,0,0,5.5-2,10.06,10.06,0,0,0,4-4.24,6.73,6.73,0,0,0,.66-4.47"/><rect class="cls-1" x="103.75" y="24.56" width="7.87" height="30.28" transform="translate(-6.8 47.73) rotate(-24.25)"/><path class="cls-1" d="M127.87,43.54a.91.91,0,0,1-1-.34,14.22,14.22,0,0,1-1.12-3.06l-4-13.56a7.05,7.05,0,0,1-.49-2.8,1.07,1.07,0,0,1,.78-.72.94.94,0,0,1,1.09.29,9.37,9.37,0,0,1,1,2.53l3.93,13.35a15.12,15.12,0,0,1,.74,3.31,1,1,0,0,1-.79,1l-.13,0,1.29,5,.31-.08a11.27,11.27,0,0,0,4.06-2.08,7.21,7.21,0,0,0,2.57-6.88c-.22-1.26-.76-3.34-1.61-6.26l-1.46-5A63.85,63.85,0,0,0,131,22a7.23,7.23,0,0,0-6-4.33,11.41,11.41,0,0,0-4.41.46,11.08,11.08,0,0,0-4.07,2.08,7.19,7.19,0,0,0-2.57,6.88c.22,1.26.76,3.34,1.61,6.26l1.46,5a62.06,62.06,0,0,0,2.07,6.22,7.15,7.15,0,0,0,2.32,2.93,7.26,7.26,0,0,0,3.66,1.41,11.34,11.34,0,0,0,4.11-.39Z"/><polygon class="cls-1" points="158.84 42.71 155.56 12.6 149.01 13.31 150.48 26.87 144.62 13.79 138.08 14.51 141.35 44.61 147.9 43.9 146.41 30.21 151.97 43.45 158.84 42.71"/><path class="cls-1" d="M208.18,21.64a6,6,0,0,0-2.52-2.44,37.28,37.28,0,0,0-7.34-2.45l-5.69-1.49L185,44.55l8.88,2.32,1.31-5.16a4.53,4.53,0,0,1-1.26-.18l5-19.27a3.94,3.94,0,0,1,1.63.7,1.3,1.3,0,0,1,.37,1,16.67,16.67,0,0,1-.55,2.59l-3,11.37a10,10,0,0,1-1.32,3.5,1.31,1.31,0,0,1-.93.31l-1.31,5.16.73.19a21,21,0,0,0,4.17.76,5.51,5.51,0,0,0,2.55-.45,4.08,4.08,0,0,0,1.83-1.74,24.34,24.34,0,0,0,1.75-5.18l2.67-10.26a40.58,40.58,0,0,0,1.2-5.65,5.36,5.36,0,0,0-.59-2.9"/><polygon class="cls-1" points="217.94 22.76 229.96 28.03 227.52 33.59 222.71 31.47 220.41 36.73 224.91 38.7 222.59 43.98 218.09 42 215.41 48.1 220.7 50.42 218.27 55.97 205.77 50.48 217.94 22.76"/><polygon class="cls-1" points="256.18 44.56 266.34 53.2 262.42 57.82 258.26 54.28 254.54 58.66 258.24 61.81 254.51 66.19 250.8 63.05 242.57 72.74 236.57 67.64 256.18 44.56"/><path class="cls-1" d="M283.11,71.57,267.8,84.82a34.11,34.11,0,0,1-3.8,3,6.68,6.68,0,0,1-3,.87,7,7,0,0,1-3.59-.74A10.93,10.93,0,0,1,254,85.21,12,12,0,0,1,251.57,81a7.18,7.18,0,0,1-.26-3.87,6.42,6.42,0,0,1,1.5-2.92q1.09-1.18,5-4.54L271.32,58l5.16,6L259.3,78.76a9.43,9.43,0,0,0-1.77,1.82.84.84,0,0,0,.15,1,.92.92,0,0,0,1.09.34,11.84,11.84,0,0,0,2.31-1.72L278,65.62Z"/><polygon class="cls-1" points="296.25 91.99 291.09 95.15 288.64 91.17 268 103.83 263.88 97.11 284.53 84.46 282.1 80.49 287.26 77.32 296.25 91.99"/><path class="cls-1" d="M302.94,106.84l-5,1.61a3.83,3.83,0,0,1,.19.83,1.27,1.27,0,0,1-.41.89,5.22,5.22,0,0,1-1.75,1,9.37,9.37,0,0,1-3.14.94c-.44-.06-.8-.45-1.09-1.16-.07-.17-.17-.42-.31-.72l6.24-2.53c.11.29.19.53.27.76l5-1.61-.43-1.11-2.95-7.28-28.07,11.36,2.56,6.32,5.3-.74c0-.07-.07-.14-.1-.23L287.1,112a3.64,3.64,0,0,1,.38,2.18c-.15.36-.83.78-2,1.27l-2.61,1.06a3.81,3.81,0,0,1-2.31.44,3.15,3.15,0,0,1-1.18-1.55l-5.3.74.86,2.13a23.22,23.22,0,0,0,2.86,5.62,3.84,3.84,0,0,0,2.71,1.31,11.21,11.21,0,0,0,4.48-1.06l2.6-1a7.92,7.92,0,0,0,3.7-2.55,5.79,5.79,0,0,0,.5-4.2,5.85,5.85,0,0,0,2.73,2.44,6.1,6.1,0,0,0,3.74-.62c2.43-1,4-2.05,4.84-3.23a5.59,5.59,0,0,0,1-3.74,17.83,17.83,0,0,0-1.14-4.34"/><path class="cls-1" d="M311.38,132.37a11.14,11.14,0,0,0-1.74-4.23A7.26,7.26,0,0,0,303,125q-1.91.18-6.37,1.11l-5.08,1.05a65,65,0,0,0-6.36,1.56,7.14,7.14,0,0,0-3.1,2.07,7.25,7.25,0,0,0-1.71,3.54,11.18,11.18,0,0,0,0,3.87l5.1-1a.89.89,0,0,1,.42-.62,13.15,13.15,0,0,1,3.14-.87l13.85-2.88a6.93,6.93,0,0,1,2.82-.26,1.09,1.09,0,0,1,.66.83.93.93,0,0,1-.38,1.07,9.56,9.56,0,0,1-2.6.78l-13.62,2.83a15.25,15.25,0,0,1-3.36.47,1,1,0,0,1-.91-.86,1.65,1.65,0,0,1,0-.49l-5.1,1c0,.19.07.38.11.57a11,11,0,0,0,1.73,4.22,7.23,7.23,0,0,0,6.66,3.12,63.94,63.94,0,0,0,6.37-1.11l5.08-1.05c3.05-.64,5.17-1.15,6.36-1.55a7.16,7.16,0,0,0,3.11-2.08,7.29,7.29,0,0,0,1.7-3.54,11.68,11.68,0,0,0-.11-4.43"/><polygon class="cls-1" points="313.79 157.19 313.37 149.33 283.13 150.97 283.81 163.61 289.87 163.28 289.61 158.5 313.79 157.19"/><path class="cls-1" d="M83,271a4.36,4.36,0,1,1-4.35-4.35A4.36,4.36,0,0,1,83,271"/><path class="cls-1" d="M254.81,263.79a4.36,4.36,0,1,1-4.36-4.36,4.36,4.36,0,0,1,4.36,4.36"/><path class="cls-2" d="M239.38,166.66H87.19A40.78,40.78,0,0,0,83,185c0,19.73,14.56,40.15,45.84,50.78,30.76,10.44,34.46,15.81,34.46,15.81s3.7-5.37,34.46-15.81c31.28-10.63,45.85-31,45.85-50.78a40.78,40.78,0,0,0-4.21-18.35"/><path class="cls-3" d="M231.54,144.67c0-14.94,8.85-27.56,8.85-27.56L219.93,92.73c-39,17.7-39.39,1-56.65,1s-17.63,16.68-56.65-1L86.17,117.11S95,129.73,95,144.67c0,7.34-2.9,12.44-5.85,18.07H237.4c-3-5.63-5.86-10.73-5.86-18.07"/><polygon class="cls-1" points="163.24 191.54 196.98 213.74 186.24 176.16 214.96 152.51 177.24 152.51 163.24 114.93 149.24 152.51 111.52 152.51 140.25 176.16 129.51 213.74 163.24 191.54"/></g></g></svg>