<svg xmlns="http://www.w3.org/2000/svg" viewBox="0 0 315.66 315.66"><defs><style>.cls-1{fill:#fff;}.cls-2{fill:#dbad02;}.cls-3{fill:#e00d1a;}.cls-4{fill:#fdc90d;}.cls-5{fill:#13224e;}</style></defs><g id="Capa_2" data-name="Capa 2"><g id="Capa_1-2" data-name="Capa 1"><circle class="cls-1" cx="157.83" cy="157.83" r="157.83" transform="translate(-65.38 157.83) rotate(-45)"/><path class="cls-1" d="M146.77,9.2A151.72,151.72,0,0,1,183.57,11,149,149,0,0,1,306.82,154.35c0,4.77.06,9.54-.35,14.3A149,149,0,0,1,182.62,304.8a150.93,150.93,0,0,1-42.18,1.05A149,149,0,0,1,146.77,9.2Zm5.38,30.14c1.25,0,2.51.06,3.77.06q.12-5.82.26-11.65a49.7,49.7,0,0,1,.27-5.59,46.07,46.07,0,0,0,.57,5.12l1.68,12.19c1.4,0,2.81.06,4.21.05,1.08-5.69,2.39-11.33,3.33-17,.07.9.09,1.8.07,2.7-.13,4.79-.2,9.59-.34,14.39,1.4.06,2.81.07,4.22.09q.21-10.27.46-20.54c-2.29,0-4.59-.07-6.88-.12-.91,4.8-1.74,9.62-2.7,14.42-.48-4.83-.94-9.67-1.43-14.51-2.34,0-4.68-.1-7-.09C152.46,25.66,152.33,32.51,152.15,39.34ZM141.83,19.5a5.75,5.75,0,0,0-4.11,2.36,5.63,5.63,0,0,0-.71,3.9c.4,3.49.83,7,1.23,10.47a4.86,4.86,0,0,0,1.41,3.3,6.56,6.56,0,0,0,5.58,1.28A6.17,6.17,0,0,0,149,39a6.08,6.08,0,0,0,1.14-4.71c-.38-3.27-.77-6.54-1.15-9.81a5.92,5.92,0,0,0-1.53-3.82C146,19.18,143.74,19.21,141.83,19.5Zm33,.27c-1.19,6.75-2.45,13.48-3.66,20.22,2.38.41,4.74.88,7.13,1.24,1.7.23,3.89.16,4.78-1.61,1-2.08,1.82-4.54,1.17-6.84a3.15,3.15,0,0,0-2.69-2c1.2-.15,2.61-.23,3.36-1.34a7.2,7.2,0,0,0,1-5.59c-.52-1.74-2.39-2.5-4-2.85C179.61,20.57,177.24,20.16,174.87,19.77Zm-51.15,3.79q2.27,10,4.52,20L138,41.33c-.23-1-.47-2.06-.7-3.08l-5.07,1.16Q130.31,31,128.4,22.48C126.84,22.83,125.28,23.2,123.72,23.56Zm65.38-1.21c-1.53,6.68-3.14,13.34-4.7,20,1.55.37,3.11.72,4.67,1.08q2.35-10,4.72-20C192.23,23.05,190.67,22.67,189.1,22.35Zm-72.87,3c-2,.42-4.2,1.3-5.2,3.23a5.45,5.45,0,0,0-.14,4.25c1.08,3.4,2.17,6.78,3.25,10.18a4.63,4.63,0,0,0,2.12,3c2.43,1.34,5.48.55,7.67-.94,1.9-1.26,2.31-3.87,1.66-5.93-1-3.26-2.08-6.5-3.11-9.75A6.1,6.1,0,0,0,120.41,26,5.24,5.24,0,0,0,116.23,25.37ZM190,43.76c1.29.42,2.57.85,3.87,1.25q1.13-2.3,2.29-4.57,1.24.42,2.49.81c-.39,1.65-.77,3.3-1.16,4.94,1.52.51,3,1,4.56,1.49q2-10.18,3.91-20.38l-6.25-2Zm21-14.35q-4.23,9.37-8.45,18.77c1.13.52,2.28,1,3.43,1.54,2.31-5.07,4.52-10.17,6.89-15.21-1.21,5.55-2.45,11.09-3.68,16.64l5.74,2.56c2.81-6.26,5.61-12.51,8.45-18.75-1.17-.59-2.38-1.09-3.57-1.63q-3,6.64-6,13.28c1-4.85,2.12-9.69,3.18-14.53C215,31.19,213,30.29,211,29.41ZM101.47,31c-1.5.64-3.13,1.37-4,2.83-1.09,1.49-.76,3.49-.15,5.1,1.13,2.66,2.33,5.29,3.48,7.95.7,1.61,1.45,3.41,3.06,4.32a6.26,6.26,0,0,0,5.81-.28,5.77,5.77,0,0,0,3.55-4.06c.37-2.23-1-4.2-1.76-6.19l-4.54,2a36.52,36.52,0,0,1,1.73,4.21c.1.76-.74,1.16-1.38,1.13-.79-.25-1-1.11-1.33-1.76-1.48-3.49-3.11-6.91-4.52-10.42-.62-1.12,1.2-2.24,1.9-1.2s1,2.22,1.53,3.33c1.51-.67,3-1.35,4.54-2-.81-1.69-1.29-3.71-3-4.8C105,30.07,103,30.37,101.47,31ZM215.61,54.23c1.16.71,2.29,1.46,3.46,2.13,1.08-1.3,2.2-2.58,3.3-3.87l2.21,1.38c-.74,1.52-1.55,3-2.31,4.54,1.36.83,2.7,1.69,4.06,2.54q4.36-9.44,8.72-18.87-2.79-1.72-5.56-3.48Q222.55,46.42,215.61,54.23ZM82,42.14c2.7,4,5.5,7.84,8.16,11.82q-5.36-5-10.65-10c-1.86,1.2-3.63,2.51-5.45,3.76,3.89,5.62,7.81,11.23,11.7,16.84l3.1-2.17c-3.18-4.59-6.4-9.15-9.55-13.76,4.13,3.93,8.3,7.82,12.43,11.75,1.73-1.18,3.43-2.41,5.17-3.57-3.85-5.66-7.8-11.24-11.69-16.87C84.15,40.64,83.09,41.4,82,42.14Zm50.28,10.55a89.6,89.6,0,0,0-12.34,4c-2.53,6.65-5,13.35-7.46,20q8.1,13,16.19,26c22.9,0,45.81,0,68.71,0,4.86-7.28,9.7-14.58,14.64-21.81-1.59-6.66-3.32-13.28-4.95-19.93A107.83,107.83,0,0,0,132.29,52.69Zm100,12.74,4.9,4.13A5.86,5.86,0,0,0,242.3,71a5.93,5.93,0,0,0,3.12-2.15c2-2.41,4.07-4.8,6.09-7.22A5.56,5.56,0,0,0,252.88,57a7.07,7.07,0,0,0-2.46-3.26l-4.8-4Q239,57.54,232.32,65.43ZM69.8,51.7a8.83,8.83,0,0,0-5.25,4.78,5.21,5.21,0,0,0,1.35,5.18q3.16,3.81,6.34,7.63c.9,1.12,2,2.32,3.55,2.39,2.77.28,5.28-1.61,6.72-3.82,1.25-1.92.63-4.49-.79-6.13-2.36-2.82-4.67-5.7-7.1-8.47A4.55,4.55,0,0,0,69.8,51.7Zm20.57,22c6.27,0,12.54,0,18.81,0,2-5,3.88-10,5.8-15.06A109.06,109.06,0,0,0,90.37,73.68ZM57,63.38c4.94,4.73,9.8,9.55,14.75,14.26,1.09-1.17,2.24-2.29,3.33-3.46q-7.35-7.12-14.7-14.27C59.26,61.06,58.14,62.22,57,63.38Zm185.09,11c2.3,2.41,4.61,4.8,6.9,7.2l2.31-2.19q-1.8-1.87-3.59-3.76c1.6-1.49,3.13-3.07,4.75-4.53,1.27,1.08,2.35,2.39,3.53,3.57l2.29-2.21c-1.16-1.22-2.33-2.42-3.49-3.64,1.07-1,2.12-2,3.2-3,1.15,1.22,2.32,2.42,3.48,3.63.75-.73,1.51-1.47,2.29-2.17-2.24-2.4-4.53-4.76-6.82-7.12Q249.54,67.29,242.11,74.42Zm-27.35-9.18c1.25,4.94,2.57,9.86,3.83,14.8h15.18A108,108,0,0,0,214.76,65.24ZM51,69.49c-1.06,1.26-2.18,2.65-2.29,4.36-.28,1.85,1,3.5,2.28,4.65,2.43,2,4.89,4,7.34,6,1.26,1,2.75,2,4.43,1.85a6.49,6.49,0,0,0,4.68-3,5.74,5.74,0,0,0,1.26-5.15c-.68-2.16-2.78-3.3-4.38-4.69-1.05,1.27-2.09,2.56-3.13,3.84,1.09,1,2.33,1.78,3.34,2.83.86.91-.66,2.34-1.57,1.57-2.87-2.21-5.63-4.56-8.46-6.82a7.46,7.46,0,0,1-1.65-1.57c-.51-.82.64-2,1.48-1.5,1,.66,1.9,1.51,2.87,2.25,1-1.28,2.09-2.56,3.13-3.85-1.53-1.17-2.94-2.81-5-2.93C53.62,67.11,52.09,68.25,51,69.49Zm202.26,18c.92,1.31,1.87,2.59,2.8,3.89,2.66-1.9,5.31-3.84,8-5.76,1,1.36,2,2.73,2.95,4.09l2.45-1.78-2.94-4.08c1.22-.91,2.46-1.79,3.69-2.68l2.95,4.08c.86-.61,1.72-1.24,2.58-1.86-1.92-2.66-3.83-5.33-5.76-8ZM84.55,78.72a110.89,110.89,0,0,0-19.43,24A107.79,107.79,0,0,0,49.94,163c1,1.22,2.32,2.2,3.45,3.33Q61.19,173.69,69,181q15.72-5.06,31.42-10.15,11.13-32.37,22.29-64.72a1.17,1.17,0,0,0-.1-1.2q-7.68-13.38-15.35-26.78H85.54C85.12,78.1,84.84,78.49,84.55,78.72Zm-40.85.91c-1.21,1.84-2.42,3.67-3.62,5.52,5.11,4.68,10.2,9.38,15.3,14,.76-1.12,1.52-2.26,2.23-3.42-1.29-1.09-2.53-2.23-3.8-3.35l1.44-2.21c1.48.81,3,1.58,4.46,2.39.88-1.35,1.79-2.69,2.63-4.06C56.12,85.6,49.92,82.6,43.7,79.63Zm171.77,4.66c-5.37,8.07-10.8,16.1-16.19,24.16,5.76,22.4,11.44,44.81,17.19,67.2q15.36,6.32,30.71,12.67,8.65-5.61,17.31-11.21a109.45,109.45,0,0,0,1.68-26,107.41,107.41,0,0,0-26.83-65.23c-.68-.6-1.12-1.8-2.21-1.61C229.91,84.29,222.69,84.25,215.47,84.29ZM264,93.91a5.87,5.87,0,0,0-3,2.91,6.79,6.79,0,0,0,.91,5.6,5.93,5.93,0,0,0,3.39,3,6.4,6.4,0,0,0,4.4-.87c4.5-2.38,9-4.77,13.48-7.14-.71-1.43-1.47-2.84-2.22-4.25q-6.88,3.62-13.75,7.29a4.4,4.4,0,0,1-1.61.55,1.37,1.37,0,0,1-1.08-1.47c.26-.63.93-.92,1.48-1.25,4.61-2.43,9.2-4.88,13.81-7.31l-2.23-4.25ZM34.72,95.45q-1.61,3-3.2,6c6,3.23,12.07,6.43,18.09,9.66.77-1.42,1.53-2.83,2.28-4.25l-8.26-4.41c.38-.62.82-1.41,1.64-1.48,2.89.51,5.08,2.8,8,3.36.85-1.49,1.62-3,2.45-4.51-3.16,0-5.45-2.77-8.44-3.41-1.57-.33-2.76,1-3.48,2.18a5.63,5.63,0,0,0,.32-2.63,4.07,4.07,0,0,0-2.24-2.72,5,5,0,0,0-4-.78A6,6,0,0,0,34.72,95.45Zm247.17,5.81c.41,1.06.84,2.12,1.26,3.18L267,110.94q.87,2.24,1.77,4.46,8.09-3.24,16.16-6.51c.4,1,.8,2,1.21,3l2.94-1.18c-1.4-3.55-2.84-7.1-4.25-10.66ZM30.48,104q-1.86,4.57-3.74,9.14l19,7.7c1.26-3.1,2.54-6.18,3.78-9.29-1-.38-1.95-.78-2.92-1.18l-2,4.83c-2-.85-4.12-1.63-6.14-2.52.66-1.55,1.28-3.11,1.92-4.66l-2.94-1.18q-.95,2.34-1.91,4.68L31.5,109.9c.63-1.56,1.28-3.12,1.91-4.68Zm97.37,3.42c-7.48,21.42-15,42.83-22.49,64.26Q131.19,190,157,208.32q27.13-15.62,54.24-31.28-8.3-34.8-16.56-69.6Q161.26,107.46,127.85,107.45Zm142.31,12c.7,2.39,1.3,4.82,2.07,7.2.53,1.58,1.62,3.37,3.52,3.34,2.24-.09,4.78-.37,6.52-1.95a3.19,3.19,0,0,0,.63-3.36c.66,1,1.3,2.23,2.6,2.44a7.15,7.15,0,0,0,5.44-1.46c1.39-1.16,1.35-3.2,1-4.82-.58-2.37-1.33-4.69-1.93-7C283.35,115.68,276.76,117.6,270.16,119.5Zm-242.9-1.59a5.11,5.11,0,0,0-2.87,3.47c-.7,2.26-1.33,4.54-2,6.8l19.73,5.67q.87-3,1.75-6a7.14,7.14,0,0,0,.07-4,5.16,5.16,0,0,0-3.54-3.24c-3-.89-6.06-1.74-9.08-2.62A7,7,0,0,0,27.26,117.91Zm260.66,11.66-8.25,1.61c-1.44.29-3.05.43-4.17,1.49a6.15,6.15,0,0,0-1.41,5.43c.31,1.83,1.05,3.84,2.83,4.7,2,1,4.34.36,6.44,0,3-.62,6-1.06,8.89-1.81a4.53,4.53,0,0,0,3.3-4.43c0-2.35-.54-5.09-2.61-6.5C291.47,129,289.58,129.21,287.92,129.57ZM21.63,131.91c-.47,3.25-.95,6.5-1.42,9.75l20.34,2.86q.72-5,1.45-9.9l-3.14-.44c-.25,1.72-.49,3.43-.75,5.15l-6.57-.93c.24-1.66.48-3.33.73-5L29.13,133c-.23,1.67-.49,3.33-.73,5-1.45-.2-2.91-.4-4.36-.62.24-1.67.49-3.33.72-5ZM20.34,143.6c-.3,3.27-.61,6.54-.91,9.81l20.46,1.79.45-4.78-9.77-.85c.16-1.68.31-3.35.47-5l-3-.27c-.16,1.68-.32,3.36-.47,5l-4.54-.4c.14-1.68.32-3.36.44-5C22.43,143.79,21.38,143.69,20.34,143.6Zm255.2,1.91c.27,3.32.55,6.63.82,10l3.14-.26c-.12-1.73-.28-3.46-.41-5.19l17.32-1.51c-.12-1.59-.26-3.19-.38-4.78ZM19.09,161.78a137.36,137.36,0,0,0,22.08,71.65,139.19,139.19,0,0,0,47.28,44.91,138.52,138.52,0,0,0,125.25,6.47A141.23,141.23,0,0,0,284,215.89a138,138,0,0,0,13-54.12c-6.95,0-13.91,0-20.86,0a117.87,117.87,0,0,1-7.43,36.74,119.29,119.29,0,0,1-29,44,124.22,124.22,0,0,1-26.26,19A117.12,117.12,0,0,1,88.4,253.4,117.43,117.43,0,0,1,40,161.79C33,161.75,26.05,161.78,19.09,161.78Zm31.52,9.68a105.28,105.28,0,0,0,8.84,31.28c2-5.69,4.23-11.34,6.24-17C60.62,181,55.66,176.18,50.61,171.46Zm18.9,17.1q-3.41,10.37-6.85,20.72A108.15,108.15,0,0,0,132,262.9q9.93-6.43,19.86-12.9c.13-12.23.38-24.46.43-36.69-17-12-34-24.05-51.08-36Q85.35,183,69.51,188.56Zm89.1,26.2c0,11.93-.15,23.86-.18,35.79q8.26,7,16.55,14a108.81,108.81,0,0,0,32.58-10.87A110.28,110.28,0,0,0,249,216c-1-6.69-1.95-13.37-2.91-20.06-10.22-4.67-20.48-9.23-30.72-13.84Q187,198.4,158.61,214.76Zm91.29-22.82c.9,6,1.72,12,2.67,18a107.6,107.6,0,0,0,10.55-26.61ZM139.78,264.51a108.42,108.42,0,0,0,29.56.81q-6.71-5.7-13.39-11.42C150.55,257.43,145.15,260.94,139.78,264.51Z"/><path class="cls-1" d="M142.08,22.92c.73-.46,1.91-.27,2,.74.54,4.08,1,8.17,1.46,12.26a1.25,1.25,0,0,1-1.26,1.53c-.69.09-1.15-.59-1.18-1.21-.49-3.9-.91-7.8-1.39-11.7C141.65,24,141.49,23.25,142.08,22.92Z"/><path class="cls-1" d="M179.1,23.4c.83.14,2.16.26,2.14,1.4a8.49,8.49,0,0,1-.82,3.72c-.54.75-1.55.34-2.3.29C178.44,27,178.78,25.2,179.1,23.4Z"/><path class="cls-1" d="M115.84,28.9a1.14,1.14,0,0,1,1.69.84c1.26,3.87,2.52,7.75,3.72,11.64.43,1-.7,1.92-1.63,1.62-.6-.31-.75-1-1-1.6-1.16-3.71-2.39-7.4-3.54-11.11A1,1,0,0,1,115.84,28.9Z"/><path class="cls-1" d="M197.57,37.42c1.29-2.62,2.52-5.27,3.82-7.88-.64,2.83-1.36,5.64-2,8.46Z"/><path class="cls-1" d="M176.48,37.88q.56-3.15,1.14-6.3c.79.2,2.22.23,2.13,1.38a14.49,14.49,0,0,1-.77,4.17C178.58,38.13,177.36,38.13,176.48,37.88Z"/><path class="cls-1" d="M224.52,49.91c1.85-2.2,3.65-4.45,5.52-6.62-1.25,2.56-2.62,5.07-3.94,7.6Z"/><path class="cls-1" d="M238,66.31c3.15-3.71,6.28-7.44,9.43-11.15.42.44,1,.81,1.12,1.48a2.91,2.91,0,0,1-.86,1.8q-3.14,3.7-6.26,7.42a3.89,3.89,0,0,1-1.74,1.34C239,67.2,238.55,66.68,238,66.31Z"/><path class="cls-1" d="M69.36,55.68c.69-.45,1.3.34,1.72.8,2.5,3,5,6,7.52,9.05a1.3,1.3,0,0,1-.85,2.12c-.68,0-1.09-.62-1.49-1.07-2.49-3-5.07-6-7.54-9.1C68.12,56.84,68.73,56,69.36,55.68Z"/><path class="cls-1" d="M44.66,84.58c2.57,1.31,5.1,2.73,7.65,4.1-.35.51-.69,1-1,1.56Z"/><path class="cls-1" d="M36.31,98.52c.37-.59.66-1.5,1.51-1.47a6.48,6.48,0,0,1,3.37,1.66c.75.68.19,1.62-.21,2.31C39.43,100.17,37.87,99.35,36.31,98.52Z"/><path class="cls-1" d="M283.22,120.74l5.27-1.51c.21.81.72,2-.27,2.5a8.63,8.63,0,0,1-3.71,1C283.57,122.59,283.49,121.45,283.22,120.74Z"/><path class="cls-1" d="M274.35,123.28c2-.58,4.09-1.18,6.15-1.75a4.33,4.33,0,0,1,.25,2c-.52.72-1.5.84-2.28,1.14a5.92,5.92,0,0,1-3,.42A2.52,2.52,0,0,1,274.35,123.28Z"/><path class="cls-1" d="M26.65,124.25c.17-1,.87-2.11,2.05-1.78,3,.72,6,1.7,9,2.51a7.46,7.46,0,0,1,3,1.24c.49.61.12,1.39,0,2.05C36,126.9,31.3,125.59,26.65,124.25Z"/><path class="cls-1" d="M289.58,134.14c.7-.08,1.52-.5,2.16,0,.64.68.57,2.05-.53,2.19-4.06.84-8.15,1.63-12.23,2.38a1.21,1.21,0,0,1-1.48-1.22c-.13-.65.54-1.09,1.09-1.19C282.25,135.54,285.92,134.87,289.58,134.14Z"/><path class="cls-2" d="M146.38,3.66A154.6,154.6,0,1,1,98.81,15,154.78,154.78,0,0,1,146.38,3.66Zm.39,5.54A149,149,0,0,0,18.63,104.59a149.44,149.44,0,0,0,10.43,128.3,148.95,148.95,0,0,0,111.38,73,150.93,150.93,0,0,0,42.18-1.05A149,149,0,0,0,306.47,168.65c.41-4.76.35-9.53.35-14.3A149,149,0,0,0,183.57,11,151.72,151.72,0,0,0,146.77,9.2Z"/><path d="M152.15,39.34c.18-6.83.31-13.68.48-20.52,2.33,0,4.67.1,7,.09.49,4.84,1,9.68,1.43,14.51,1-4.8,1.79-9.62,2.7-14.42,2.29.05,4.59.08,6.88.12q-.26,10.27-.46,20.54c-1.41,0-2.82,0-4.22-.09.14-4.8.21-9.6.34-14.39,0-.9,0-1.8-.07-2.7-.94,5.71-2.25,11.35-3.33,17-1.4,0-2.81,0-4.21-.05L157,27.28a46.07,46.07,0,0,1-.57-5.12,49.7,49.7,0,0,0-.27,5.59q-.13,5.84-.26,11.65C154.66,39.4,153.4,39.37,152.15,39.34Z"/><path d="M141.83,19.5c1.91-.29,4.19-.32,5.67,1.13A5.92,5.92,0,0,1,149,24.45c.38,3.27.77,6.54,1.15,9.81A6.08,6.08,0,0,1,149,39a6.17,6.17,0,0,1-3.81,1.84,6.56,6.56,0,0,1-5.58-1.28,4.86,4.86,0,0,1-1.41-3.3c-.4-3.49-.83-7-1.23-10.47a5.63,5.63,0,0,1,.71-3.9A5.75,5.75,0,0,1,141.83,19.5Zm.25,3.42c-.59.33-.43,1.07-.38,1.62.48,3.9.9,7.8,1.39,11.7,0,.62.49,1.3,1.18,1.21a1.25,1.25,0,0,0,1.26-1.53c-.47-4.09-.92-8.18-1.46-12.26C144,22.65,142.81,22.46,142.08,22.92Z"/><path d="M174.87,19.77c2.37.39,4.74.8,7.1,1.26,1.62.35,3.49,1.11,4,2.85a7.2,7.2,0,0,1-1,5.59c-.75,1.11-2.16,1.19-3.36,1.34a3.15,3.15,0,0,1,2.69,2c.65,2.3-.18,4.76-1.17,6.84-.89,1.77-3.08,1.84-4.78,1.61-2.39-.36-4.75-.83-7.13-1.24C172.42,33.25,173.68,26.52,174.87,19.77Zm4.23,3.63c-.32,1.8-.66,3.6-1,5.41.75.05,1.76.46,2.3-.29a8.49,8.49,0,0,0,.82-3.72C181.26,23.66,179.93,23.54,179.1,23.4Zm-2.62,14.48c.88.25,2.1.25,2.5-.75a14.49,14.49,0,0,0,.77-4.17c.09-1.15-1.34-1.18-2.13-1.38Q177,34.73,176.48,37.88Z"/><path d="M123.72,23.56c1.56-.36,3.12-.73,4.68-1.08q1.92,8.46,3.83,16.93l5.07-1.16c.23,1,.47,2,.7,3.08l-9.76,2.25Q126,33.56,123.72,23.56Z"/><path d="M189.1,22.35c1.57.32,3.13.7,4.69,1.07q-2.35,10-4.72,20c-1.56-.36-3.12-.71-4.67-1.08C186,35.69,187.57,29,189.1,22.35Z"/><path d="M116.23,25.37a5.24,5.24,0,0,1,4.18.64,6.1,6.1,0,0,1,2.07,3.37c1,3.25,2.09,6.49,3.11,9.75.65,2.06.24,4.67-1.66,5.93-2.19,1.49-5.24,2.28-7.67.94a4.63,4.63,0,0,1-2.12-3c-1.08-3.4-2.17-6.78-3.25-10.18A5.45,5.45,0,0,1,111,28.6C112,26.67,114.22,25.79,116.23,25.37Zm-.39,3.53a1,1,0,0,0-.71,1.39c1.15,3.71,2.38,7.4,3.54,11.11.2.58.35,1.29,1,1.6.93.3,2.06-.63,1.63-1.62-1.2-3.89-2.46-7.77-3.72-11.64A1.14,1.14,0,0,0,115.84,28.9Z"/><path d="M190,43.76l9.71-18.49,6.25,2Q204,37.49,202,47.68c-1.52-.5-3-1-4.56-1.49.39-1.64.77-3.29,1.16-4.94q-1.24-.39-2.49-.81-1.17,2.28-2.29,4.57C192.52,44.61,191.24,44.18,190,43.76Zm7.62-6.34,1.79.58c.67-2.82,1.39-5.63,2-8.46C200.09,32.15,198.86,34.8,197.57,37.42Z"/><path d="M211,29.41c2,.88,4,1.78,6,2.67-1.06,4.84-2.17,9.68-3.18,14.53q3-6.63,6-13.28c1.19.54,2.4,1,3.57,1.63-2.84,6.24-5.64,12.49-8.45,18.75l-5.74-2.56c1.23-5.55,2.47-11.09,3.68-16.64-2.37,5-4.58,10.14-6.89,15.21-1.15-.52-2.3-1-3.43-1.54Q206.77,38.81,211,29.41Z"/><path d="M101.47,31c1.57-.65,3.55-.95,5,.17,1.66,1.09,2.14,3.11,3,4.8-1.52.66-3,1.34-4.54,2-.52-1.11-.91-2.28-1.53-3.33s-2.52.08-1.9,1.2c1.41,3.51,3,6.93,4.52,10.42.33.65.54,1.51,1.33,1.76.64,0,1.48-.37,1.38-1.13a36.52,36.52,0,0,0-1.73-4.21l4.54-2c.78,2,2.13,4,1.76,6.19a5.77,5.77,0,0,1-3.55,4.06,6.26,6.26,0,0,1-5.81.28c-1.61-.91-2.36-2.71-3.06-4.32-1.15-2.66-2.35-5.29-3.48-7.95-.61-1.61-.94-3.61.15-5.1C98.34,32.39,100,31.66,101.47,31Z"/><path d="M215.61,54.23q6.91-7.83,13.88-15.63,2.77,1.76,5.56,3.48Q230.7,51.53,226.33,61c-1.36-.85-2.7-1.71-4.06-2.54.76-1.52,1.57-3,2.31-4.54l-2.21-1.38c-1.1,1.29-2.22,2.57-3.3,3.87C217.9,55.69,216.77,54.94,215.61,54.23Zm8.91-4.32,1.58,1c1.32-2.53,2.69-5,3.94-7.6C228.17,45.46,226.37,47.71,224.52,49.91Z"/><path d="M82,42.14c1.08-.74,2.14-1.5,3.22-2.23,3.89,5.63,7.84,11.21,11.69,16.87-1.74,1.16-3.44,2.39-5.17,3.57-4.13-3.93-8.3-7.82-12.43-11.75,3.15,4.61,6.37,9.17,9.55,13.76l-3.1,2.17C81.88,58.92,78,53.31,74.07,47.69c1.82-1.25,3.59-2.56,5.45-3.76q5.3,5,10.65,10C87.51,50,84.71,46.09,82,42.14Z"/><path d="M232.32,65.43q6.63-7.89,13.3-15.75l4.8,4A7.07,7.07,0,0,1,252.88,57a5.56,5.56,0,0,1-1.37,4.63c-2,2.42-4.07,4.81-6.09,7.22A5.93,5.93,0,0,1,242.3,71a5.86,5.86,0,0,1-5.08-1.42Zm5.71.88c.52.37,1,.89,1.69.89a3.89,3.89,0,0,0,1.74-1.34q3.12-3.72,6.26-7.42a2.91,2.91,0,0,0,.86-1.8c-.07-.67-.7-1-1.12-1.48C244.31,58.87,241.18,62.6,238,66.31Z"/><path d="M69.8,51.7a4.55,4.55,0,0,1,4.82,1.56c2.43,2.77,4.74,5.65,7.1,8.47,1.42,1.64,2,4.21.79,6.13-1.44,2.21-4,4.1-6.72,3.82-1.54-.07-2.65-1.27-3.55-2.39q-3.17-3.83-6.34-7.63a5.21,5.21,0,0,1-1.35-5.18A8.83,8.83,0,0,1,69.8,51.7Zm-.44,4c-.63.32-1.24,1.16-.64,1.8,2.47,3.07,5,6.05,7.54,9.1.4.45.81,1,1.49,1.07a1.3,1.3,0,0,0,.85-2.12c-2.47-3-5-6-7.52-9.05C70.66,56,70.05,55.23,69.36,55.68Z"/><path d="M57,63.38c1.12-1.16,2.24-2.32,3.38-3.47q7.34,7.16,14.7,14.27c-1.09,1.17-2.24,2.29-3.33,3.46C66.82,72.93,62,68.11,57,63.38Z"/><path d="M242.11,74.42q7.41-7.14,14.85-14.27c2.29,2.36,4.58,4.72,6.82,7.12-.78.7-1.54,1.44-2.29,2.17-1.16-1.21-2.33-2.41-3.48-3.63-1.08,1-2.13,2-3.2,3,1.16,1.22,2.33,2.42,3.49,3.64L256,74.71c-1.18-1.18-2.26-2.49-3.53-3.57-1.62,1.46-3.15,3-4.75,4.53q1.78,1.89,3.59,3.76L249,81.62C246.72,79.22,244.41,76.83,242.11,74.42Z"/><path d="M51,69.49c1.07-1.24,2.6-2.38,4.34-2.12,2,.12,3.46,1.76,5,2.93-1,1.29-2.09,2.57-3.13,3.85-1-.74-1.85-1.59-2.87-2.25-.84-.54-2,.68-1.48,1.5A7.46,7.46,0,0,0,54.52,75c2.83,2.26,5.59,4.61,8.46,6.82.91.77,2.43-.66,1.57-1.57s-2.25-1.86-3.34-2.83c1-1.28,2.08-2.57,3.13-3.84,1.6,1.39,3.7,2.53,4.38,4.69a5.74,5.74,0,0,1-1.26,5.15,6.49,6.49,0,0,1-4.68,3c-1.68.13-3.17-.86-4.43-1.85-2.45-2-4.91-4-7.34-6-1.31-1.15-2.56-2.8-2.28-4.65C48.84,72.14,50,70.75,51,69.49Z"/><path d="M253.28,87.47,270,75.4c1.93,2.64,3.84,5.31,5.76,8-.86.62-1.72,1.25-2.58,1.86l-2.95-4.08c-1.23.89-2.47,1.77-3.69,2.68l2.94,4.08L267,89.69c-1-1.36-2-2.73-2.95-4.09-2.66,1.92-5.31,3.86-8,5.76C255.15,90.06,254.2,88.78,253.28,87.47Z"/><path d="M43.7,79.63c6.22,3,12.42,6,18.64,8.92-.84,1.37-1.75,2.71-2.63,4.06-1.48-.81-3-1.58-4.46-2.39l-1.44,2.21c1.27,1.12,2.51,2.26,3.8,3.35-.71,1.16-1.47,2.3-2.23,3.42-5.1-4.67-10.19-9.37-15.3-14C41.28,83.3,42.49,81.47,43.7,79.63Zm1,5,6.62,5.66c.34-.53.68-1,1-1.56C49.76,87.31,47.23,85.89,44.66,84.58Z"/><path d="M264,93.91l13.62-7.22,2.23,4.25c-4.61,2.43-9.2,4.88-13.81,7.31-.55.33-1.22.62-1.48,1.25a1.37,1.37,0,0,0,1.08,1.47,4.4,4.4,0,0,0,1.61-.55q6.87-3.66,13.75-7.29c.75,1.41,1.51,2.82,2.22,4.25-4.5,2.37-9,4.76-13.48,7.14a6.4,6.4,0,0,1-4.4.87,5.93,5.93,0,0,1-3.39-3,6.79,6.79,0,0,1-.91-5.6A5.87,5.87,0,0,1,264,93.91Z"/><path d="M34.72,95.45a6,6,0,0,1,3.1-3,5,5,0,0,1,4,.78,4.07,4.07,0,0,1,2.24,2.72,5.63,5.63,0,0,1-.32,2.63c.72-1.23,1.91-2.51,3.48-2.18,3,.64,5.28,3.39,8.44,3.41-.83,1.5-1.6,3-2.45,4.51-2.88-.56-5.07-2.85-8-3.36-.82.07-1.26.86-1.64,1.48l8.26,4.41c-.75,1.42-1.51,2.83-2.28,4.25-6-3.23-12.07-6.43-18.09-9.66Q33.11,98.44,34.72,95.45Zm1.59,3.07c1.56.83,3.12,1.65,4.67,2.5.4-.69,1-1.63.21-2.31a6.48,6.48,0,0,0-3.37-1.66C37,97,36.68,97.93,36.31,98.52Z"/><path d="M281.89,101.26l2.94-1.18c1.41,3.56,2.85,7.11,4.25,10.66l-2.94,1.18c-.41-1-.81-2-1.21-3q-8.08,3.26-16.16,6.51-.9-2.22-1.77-4.46l16.15-6.5C282.73,103.38,282.3,102.32,281.89,101.26Z"/><path d="M30.48,104l2.93,1.19c-.63,1.56-1.28,3.12-1.91,4.68l4.08,1.65q1-2.34,1.91-4.68l2.94,1.18c-.64,1.55-1.26,3.11-1.92,4.66,2,.89,4.1,1.67,6.14,2.52l2-4.83c1,.4,1.94.8,2.92,1.18-1.24,3.11-2.52,6.19-3.78,9.29l-19-7.7Q28.62,108.6,30.48,104Z"/><path d="M270.16,119.5c6.6-1.9,13.19-3.82,19.81-5.66.6,2.36,1.35,4.68,1.93,7,.39,1.62.43,3.66-1,4.82a7.15,7.15,0,0,1-5.44,1.46c-1.3-.21-1.94-1.45-2.6-2.44a3.19,3.19,0,0,1-.63,3.36c-1.74,1.58-4.28,1.86-6.52,1.95-1.9,0-3-1.76-3.52-3.34C271.46,124.32,270.86,121.89,270.16,119.5Zm13.06,1.24c.27.71.35,1.85,1.29,2a8.63,8.63,0,0,0,3.71-1c1-.5.48-1.69.27-2.5Zm-8.87,2.54a2.52,2.52,0,0,0,1.08,1.82,5.92,5.92,0,0,0,3-.42c.78-.3,1.76-.42,2.28-1.14a4.33,4.33,0,0,0-.25-2C278.44,122.1,276.4,122.7,274.35,123.28Z"/><path d="M27.26,117.91a7,7,0,0,1,4.06.09c3,.88,6.06,1.73,9.08,2.62a5.16,5.16,0,0,1,3.54,3.24,7.14,7.14,0,0,1-.07,4q-.88,3-1.75,6l-19.73-5.67c.67-2.26,1.3-4.54,2-6.8A5.11,5.11,0,0,1,27.26,117.91Zm-.61,6.34c4.65,1.34,9.31,2.65,14,4,.16-.66.53-1.44,0-2.05a7.46,7.46,0,0,0-3-1.24c-3-.81-5.95-1.79-9-2.51C27.52,122.14,26.82,123.26,26.65,124.25Z"/><path d="M287.92,129.57c1.66-.36,3.55-.59,5,.45,2.07,1.41,2.62,4.15,2.61,6.5a4.53,4.53,0,0,1-3.3,4.43c-2.93.75-5.93,1.19-8.89,1.81-2.1.4-4.42,1.09-6.44,0-1.78-.86-2.52-2.87-2.83-4.7a6.15,6.15,0,0,1,1.41-5.43c1.12-1.06,2.73-1.2,4.17-1.49Zm1.66,4.57c-3.66.73-7.33,1.4-11,2.15-.55.1-1.22.54-1.09,1.19A1.21,1.21,0,0,0,279,138.7c4.08-.75,8.17-1.54,12.23-2.38,1.1-.14,1.17-1.51.53-2.19C291.1,133.64,290.28,134.06,289.58,134.14Z"/><path d="M21.63,131.91l3.13.42c-.23,1.68-.48,3.34-.72,5,1.45.22,2.91.42,4.36.62.24-1.67.5-3.33.73-5l3.14.44c-.25,1.67-.49,3.34-.73,5l6.57.93c.26-1.72.5-3.43.75-5.15l3.14.44q-.73,4.95-1.45,9.9l-20.34-2.86C20.68,138.41,21.16,135.16,21.63,131.91Z"/><path d="M20.34,143.6c1,.09,2.09.19,3.13.26-.12,1.69-.3,3.37-.44,5l4.54.4c.15-1.68.31-3.36.47-5l3,.27c-.16,1.68-.31,3.35-.47,5l9.77.85-.45,4.78-20.46-1.79C19.73,150.14,20,146.87,20.34,143.6Z"/><path d="M275.54,145.51,296,143.72c.12,1.59.26,3.19.38,4.78L279.09,150c.13,1.73.29,3.46.41,5.19l-3.14.26C276.09,152.14,275.81,148.83,275.54,145.51Z"/><path class="cls-3" d="M132.29,52.69A107.83,107.83,0,0,1,207.08,61c1.63,6.65,3.36,13.27,4.95,19.93-4.94,7.23-9.78,14.53-14.64,21.81-22.9.06-45.81,0-68.71,0q-8.12-13-16.19-26c2.48-6.68,4.93-13.38,7.46-20A89.6,89.6,0,0,1,132.29,52.69Z"/><path class="cls-3" d="M90.37,73.68a109.06,109.06,0,0,1,24.61-15c-1.92,5-3.81,10.06-5.8,15.06C102.91,73.66,96.64,73.69,90.37,73.68Z"/><path class="cls-3" d="M214.76,65.24a108,108,0,0,1,19,14.8H218.59C217.33,75.1,216,70.18,214.76,65.24Z"/><path class="cls-3" d="M84.55,78.72c.29-.23.57-.62,1-.57h21.72q7.68,13.39,15.35,26.78a1.17,1.17,0,0,1,.1,1.2q-11.14,32.35-22.29,64.72Q84.72,175.94,69,181q-7.78-7.32-15.61-14.64c-1.13-1.13-2.42-2.11-3.45-3.33a107.79,107.79,0,0,1,15.18-60.25A110.89,110.89,0,0,1,84.55,78.72Z"/><path class="cls-3" d="M215.47,84.29c7.22,0,14.44,0,21.66,0,1.09-.19,1.53,1,2.21,1.61a107.41,107.41,0,0,1,26.83,65.23,109.45,109.45,0,0,1-1.68,26q-8.67,5.58-17.31,11.21-15.35-6.33-30.71-12.67c-5.75-22.39-11.43-44.8-17.19-67.2C204.67,100.39,210.1,92.36,215.47,84.29Z"/><path class="cls-3" d="M127.85,107.45q33.42,0,66.83,0,8.3,34.8,16.56,69.6Q184.12,192.69,157,208.32,131.19,190,105.36,171.71C112.82,150.28,120.37,128.87,127.85,107.45Z"/><path class="cls-3" d="M276.15,161.8c7-.06,13.91,0,20.86,0a138,138,0,0,1-13,54.12,140.75,140.75,0,0,1-30,41.78c-3.15-3.28-6.26-6.6-9.41-9.88-1.6-1.77-3.36-3.4-4.87-5.26a119.29,119.29,0,0,0,29-44A117.87,117.87,0,0,0,276.15,161.8Z"/><path class="cls-3" d="M50.61,171.46c5,4.72,10,9.53,15.08,14.24-2,5.7-4.2,11.35-6.24,17A105.28,105.28,0,0,1,50.61,171.46Z"/><path class="cls-3" d="M69.51,188.56q15.83-5.64,31.66-11.28c17,12,34,24,51.08,36-.05,12.23-.3,24.46-.43,36.69q-9.93,6.45-19.86,12.9a108.15,108.15,0,0,1-69.3-53.62Q66.11,198.93,69.51,188.56Z"/><path class="cls-3" d="M158.61,214.76q28.37-16.35,56.73-32.68c10.24,4.61,20.5,9.17,30.72,13.84,1,6.69,1.95,13.37,2.91,20.06a110.28,110.28,0,0,1-41.41,37.72A108.81,108.81,0,0,1,175,264.57q-8.31-7-16.55-14C158.46,238.62,158.59,226.69,158.61,214.76Z"/><path class="cls-3" d="M249.9,191.94l13.22-8.6A107.6,107.6,0,0,1,252.57,210C251.62,204,250.8,197.94,249.9,191.94Z"/><path class="cls-3" d="M139.78,264.51c5.37-3.57,10.77-7.08,16.17-10.61q6.7,5.7,13.39,11.42A108.42,108.42,0,0,1,139.78,264.51Z"/><path class="cls-4" d="M19.09,161.78c7,0,13.91,0,20.86,0a117.68,117.68,0,0,0,113.62,114c0,7-.09,13.92-.07,20.88a137.53,137.53,0,0,1-65-18.35,139.19,139.19,0,0,1-47.28-44.91A137.36,137.36,0,0,1,19.09,161.78Z"/><path class="cls-5" d="M213.49,261.56a124.22,124.22,0,0,0,26.26-19c1.51,1.86,3.27,3.49,4.87,5.26,3.15,3.28,6.26,6.6,9.41,9.88a140.35,140.35,0,0,1-40.33,27.14,138.52,138.52,0,0,1-60.2,11.88c0-7,.07-13.92.07-20.88A117,117,0,0,0,213.49,261.56Z"/></g></g></svg>