<svg xmlns="http://www.w3.org/2000/svg" viewBox="0 0 316.16 398.59"><defs><style>.cls-1{fill:#d3aa75;}.cls-2{fill:#ffcd00;}.cls-3{fill:#001a5d;}.cls-4{fill:#e5093b;}</style></defs><g id="Capa_2" data-name="Capa 2"><g id="Capa_1-2" data-name="Capa 1"><path class="cls-1" d="M281.63,30.75V0H34.52V30.75H0V246.47S8.12,375.79,157.08,398.59h2c149-22.8,157.08-152.12,157.08-152.12V30.75Zm-8-22.7v22.7H225.44V8.05Zm-56.2,0v22.7H167.69V8.05Zm-174.83,0H159.64v22.7H42.57Z"/><rect class="cls-2" x="42.57" y="8.05" width="117.07" height="22.77"/><rect class="cls-3" x="167.69" y="8.05" width="49.71" height="22.77"/><rect class="cls-4" x="225.44" y="8.05" width="48.15" height="22.77"/><path class="cls-3" d="M157.69,390.55c-32.3-5-60.22-15.67-83-31.65A155.77,155.77,0,0,1,30,310.51C11.16,278.78,8.28,249,8,246.17V38.8H308.12V246.17c-.23,2.74-3.1,32.58-21.93,64.34a155.77,155.77,0,0,1-44.73,48.39c-22.77,16-50.69,26.63-83,31.65Z"/><polygon class="cls-1" points="84.62 144.25 42.06 122.97 42.06 146.27 84.62 167.55 84.62 144.25"/><polygon class="cls-1" points="93.74 288.14 115.02 288.14 115.02 176.57 138.33 187.82 138.33 299.29 180.89 299.29 180.89 279.02 158.6 279.02 158.6 197.95 164.68 200.99 190.01 188.83 190.01 165.53 164.68 177.69 158.6 174.65 158.6 121.95 180.89 121.95 180.89 99.66 139.34 99.66 139.34 165.53 115.02 153.18 115.02 100.67 42.06 65.21 42.06 88.51 93.74 113.85 93.74 288.14"/><polygon class="cls-1" points="200.65 101.18 200.65 288.65 221.93 288.65 221.93 114.35 273.61 89.02 273.61 65.71 200.65 101.18"/><polygon class="cls-1" points="232.06 168.06 273.61 146.78 273.61 123.47 232.06 143.74 232.06 168.06"/><path class="cls-1" d="M252.33,231.39a94.75,94.75,0,1,1-189.49,0v-50L42.06,171.25v61.9a114.79,114.79,0,0,0,101.25,114l-.57.29c5.42,1,14.84,9.12,14.84,9.12s9.42-8.11,14.85-9.12l-.57-.29a114.79,114.79,0,0,0,101.24-114V171.94l-20.77,10.73Z"/></g></g></svg>