<svg xmlns="http://www.w3.org/2000/svg" xmlns:xlink="http://www.w3.org/1999/xlink" viewBox="0 0 381.79 381.79"><defs><style>.cls-1,.cls-2{fill:#fff;}.cls-1{fill-rule:evenodd;}.cls-3{mask:url(#mask);}.cls-4{fill:#0059a1;}.cls-5{fill:#fdfdfd;}.cls-6{mask:url(#mask-2-2);}.cls-7{fill:#ff010c;}.cls-8{mask:url(#mask-3);}.cls-9{mask:url(#mask-4-2);}.cls-10{mask:url(#mask-5);}.cls-11{mask:url(#mask-7);}.cls-12{fill:#f8ab00;}</style><mask id="mask" x="30.76" y="27.12" width="319.67" height="324.39" maskUnits="userSpaceOnUse"><g id="mask-2"><polygon id="path-1" class="cls-1" points="30.75 27.12 350.43 27.12 350.43 351.51 30.75 351.51 30.75 27.12"/></g></mask><mask id="mask-2-2" x="29.28" y="50.26" width="297.61" height="280.71" maskUnits="userSpaceOnUse"><g id="mask-4"><path id="path-3" class="cls-1" d="M50.4,190.62C50.4,268.13,112.29,331,188.65,331s138.24-62.84,138.24-140.35S265,50.26,188.65,50.26,50.4,113.1,50.4,190.62Z"/></g></mask><mask id="mask-3" x="41.86" y="50.26" width="293.57" height="280.71" maskUnits="userSpaceOnUse"><g id="mask-6"><path id="path-5" class="cls-1" d="M50.4,190.62C50.4,268.13,112.29,331,188.65,331s138.24-62.84,138.24-140.35S265,50.26,188.65,50.26,50.4,113.1,50.4,190.62Z"/></g></mask><mask id="mask-4-2" x="50.4" y="50.26" width="297.61" height="280.71" maskUnits="userSpaceOnUse"><g id="mask-8"><path id="path-7" class="cls-1" d="M50.4,190.62C50.4,268.13,112.29,331,188.65,331s138.24-62.84,138.24-140.35S265,50.26,188.65,50.26,50.4,113.1,50.4,190.62Z"/></g></mask><mask id="mask-5" x="50.4" y="50.26" width="297.61" height="280.71" maskUnits="userSpaceOnUse"><g id="mask-10"><path id="path-9" class="cls-1" d="M50.4,190.62C50.4,268.13,112.29,331,188.65,331s138.24-62.84,138.24-140.35S265,50.26,188.65,50.26,50.4,113.1,50.4,190.62Z"/></g></mask><mask id="mask-7" x="29.28" y="50.26" width="297.61" height="280.71" maskUnits="userSpaceOnUse"><g id="mask-14"><path id="path-13" class="cls-1" d="M50.4,190.62C50.4,268.13,112.29,331,188.65,331s138.24-62.84,138.24-140.35S265,50.26,188.65,50.26,50.4,113.1,50.4,190.62Z"/></g></mask></defs><g id="Capa_2" data-name="Capa 2"><g id="Capa_1-2" data-name="Capa 1"><g id="Page-1"><g id="Desktop-HD"><g id="Group-46"><path id="Fill-1" class="cls-2" d="M190.89,381.79C85.46,381.79,0,296.33,0,190.9S85.46,0,190.89,0s190.9,85.46,190.9,190.9S296.33,381.79,190.89,381.79Z"/><g id="Group-4"><g id="Group-6"><g id="Group-3"><g id="Fill-1-Clipped"><g class="cls-3"><path class="cls-4" d="M350.43,189.32c0,89.58-71.56,162.19-159.84,162.19S30.76,278.9,30.76,189.32s71.56-162.2,159.83-162.2,159.84,72.62,159.84,162.2"/></g></g></g><path id="Fill-4" class="cls-5" d="M337.88,189.32c0,83.45-66.67,151.1-148.9,151.1S40.07,272.77,40.07,189.32,106.74,38.22,189,38.22s148.9,67.65,148.9,151.1"/></g><g id="Group-25"><g id="Group-9"><g id="Fill-7-Clipped"><g class="cls-6"><polygon id="Fill-7" class="cls-7" points="322.85 78.17 41.84 285.45 29.28 267.89 310.29 60.61 322.85 78.17"/></g></g></g><g id="Group-12"><g id="Fill-10-Clipped"><g class="cls-8"><polygon id="Fill-10" class="cls-5" points="335.43 95.75 54.42 303.03 41.86 285.48 322.87 78.19 335.43 95.75"/></g></g></g><g id="Group-15"><g id="Fill-13-Clipped"><g class="cls-9"><polygon id="Fill-13" class="cls-4" points="348.01 113.33 67.01 320.62 54.44 303.06 335.45 95.78 348.01 113.33"/></g></g></g><g id="Group-18"><g id="Fill-16-Clipped"><g class="cls-10"><polygon id="Fill-16" class="cls-7" points="54.44 78.17 335.45 285.45 348.02 267.89 67.01 60.61 54.44 78.17"/></g></g></g><g id="Group-21"><g id="Fill-19-Clipped"><g class="cls-8"><polygon id="Fill-19" class="cls-5" points="41.86 95.75 322.87 303.03 335.43 285.48 54.42 78.19 41.86 95.75"/></g></g></g><g id="Group-24"><g id="Fill-22-Clipped"><g class="cls-11"><polygon id="Fill-22" class="cls-4" points="29.28 113.33 310.29 320.62 322.85 303.06 41.84 95.78 29.28 113.33"/></g></g></g></g><g id="Group-54"><path id="Fill-26" class="cls-5" d="M251.06,188.55c0,34.15-26.94,61.84-60.15,61.84s-60.15-27.69-60.15-61.84,26.93-61.84,60.15-61.84,60.15,27.68,60.15,61.84"/><path id="Fill-28" class="cls-5" d="M240.09,188.55c0,27.92-22,50.56-49.18,50.56s-49.18-22.64-49.18-50.56,22-50.56,49.18-50.56,49.18,22.63,49.18,50.56"/><polygon id="Fill-30" class="cls-12" points="190.91 139.39 201.82 173.91 237.12 173.91 208.56 195.25 219.47 229.76 190.91 208.43 162.35 229.76 173.25 195.25 144.7 173.91 180 173.91 190.91 139.39"/><path id="Fill-32" class="cls-4" d="M128.3,300.15a1.59,1.59,0,0,0,.37.34l.61.4a2.84,2.84,0,0,0,2.11.42,2.88,2.88,0,0,0,1.79-1.54,3.9,3.9,0,0,0,.53-1.42,2.5,2.5,0,0,0-.1-1.2,2.53,2.53,0,0,0-.61-1,4.87,4.87,0,0,0-1-.76l-.35-.21-.42-.22Zm.65-11.27,1.89.85a30.68,30.68,0,0,1,3,1.67,16.43,16.43,0,0,1,2.52,1.87,8.24,8.24,0,0,1,1.88,2.43,6.16,6.16,0,0,1,.61,3.05,8.28,8.28,0,0,1-1.23,3.74,8.61,8.61,0,0,1-2.27,2.7,5.73,5.73,0,0,1-2.53,1.06,6.23,6.23,0,0,1-2.6-.2,11,11,0,0,1-2.51-1.11c-.31-.19-.62-.4-.93-.62a5.35,5.35,0,0,1-.64-.51l-3.42,6c-.48-.18-.91-.35-1.28-.53s-.7-.36-1-.54a15.31,15.31,0,0,1-2-1.54Z"/><path id="Fill-34" class="cls-4" d="M146.57,304.22,142,310.59a8.42,8.42,0,0,0,.77.57,4.73,4.73,0,0,0,.8.43,6.64,6.64,0,0,0,.93.29,7.33,7.33,0,0,0,1,.17Zm-9.38,13.07c-.44-.09-.83-.19-1.19-.29s-.69-.22-1-.35-.68-.31-1.09-.52-.84-.48-1.33-.78l13.61-17.3c.49.13.94.26,1.36.39a11.44,11.44,0,0,1,1.24.44c.34.14.71.31,1.1.51l1.33.7-1.65,22.19a19,19,0,0,1-2.78-.85,11.23,11.23,0,0,1-1.06-.49c-.34-.18-.71-.39-1.09-.64l.45-4.25a11.53,11.53,0,0,1-1.56-.26,8.82,8.82,0,0,1-2.63-1.05,14.11,14.11,0,0,1-1.24-.83Z"/><path id="Fill-36" class="cls-4" d="M157.3,302.5l2.61.31a21.84,21.84,0,0,1,2.5.43,16.68,16.68,0,0,1,3,1,8.67,8.67,0,0,1,2.54,1.69,6.15,6.15,0,0,1,1.53,2.51,6.68,6.68,0,0,1,0,3.49,7.2,7.2,0,0,1-.65,1.87,7.06,7.06,0,0,1-.95,1.39,6.05,6.05,0,0,1-1.1,1,8.61,8.61,0,0,1-1.1.64l2.48,9.94a15.16,15.16,0,0,1-1.52-.16l-1.47-.27c-.37-.09-.81-.21-1.3-.36a11.07,11.07,0,0,1-1.27-.48l-2-10.4L161,315a3,3,0,0,0,.87-.41,5,5,0,0,0,1-.8,5.93,5.93,0,0,0,.87-1.13,4.44,4.44,0,0,0,.55-1.39,2.71,2.71,0,0,0-.33-2.3,3,3,0,0,0-1.81-1.11,4,4,0,0,0-.48-.08h-.27l-3.58,16.6a15.69,15.69,0,0,1-2.51-.29,15.29,15.29,0,0,1-2.46-.84Z"/><path id="Fill-38" class="cls-4" d="M181.11,312.24l-2.41,7.5c.32.12.63.22.91.3a4.36,4.36,0,0,0,.89.15,6.26,6.26,0,0,0,1,0,7.72,7.72,0,0,0,1-.15Zm-5,15.41c-.45,0-.85.08-1.22.09a7.6,7.6,0,0,1-1.07,0,10.31,10.31,0,0,1-1.2-.15c-.45-.08-1-.19-1.5-.32l7.77-20.77,1.41-.05c.44,0,.88,0,1.32,0s.76.07,1.19.14l1.48.25,5.07,21.63a19.65,19.65,0,0,1-2.9.08,10.94,10.94,0,0,1-1.15-.14c-.39-.06-.8-.15-1.23-.26l-.85-4.19a11.71,11.71,0,0,1-1.56.25,9,9,0,0,1-1.47,0,9.37,9.37,0,0,1-1.35-.2,11,11,0,0,1-1.42-.4Z"/><path id="Fill-40" class="cls-4" d="M201.94,316.46c.51-.12,1-.22,1.37-.29a9.78,9.78,0,0,1,1.12-.14c.33,0,.72,0,1.19,0s.92,0,1.36.07l.81,10.8a14.79,14.79,0,0,1-3.3,1.12,24.18,24.18,0,0,1-2.82.43,11.14,11.14,0,0,1-4.5-.47,8.77,8.77,0,0,1-3.36-2,9.34,9.34,0,0,1-2.17-3.32,15.1,15.1,0,0,1-.63-8.79,10.34,10.34,0,0,1,1.66-3.67,8.78,8.78,0,0,1,2.92-2.55,10.15,10.15,0,0,1,4.12-1.16,14.76,14.76,0,0,1,2.66,0,11.68,11.68,0,0,1,2.82.64,9.32,9.32,0,0,1-.26,2.41,13.39,13.39,0,0,1-.63,2l-1.08-.27a9.09,9.09,0,0,0-.93-.16,8.5,8.5,0,0,0-.87-.07,7.46,7.46,0,0,0-.93,0,4.31,4.31,0,0,0-3.48,1.9,7.69,7.69,0,0,0-.91,4.91,7.46,7.46,0,0,0,1.59,4.64,4.42,4.42,0,0,0,3.8,1.26,5.28,5.28,0,0,0,1-.16Z"/><path id="Fill-42" class="cls-4" d="M220.21,325.56a9.84,9.84,0,0,1-3.94.11,5.56,5.56,0,0,1-2.75-1.37,7.66,7.66,0,0,1-1.78-2.7,19.66,19.66,0,0,1-1.08-3.81l-2.23-11.94c.53-.19,1-.34,1.39-.44s.76-.2,1.12-.27.68-.12,1.08-.17.87-.08,1.43-.11l2.12,11.32a22.75,22.75,0,0,0,.58,2.46,5.38,5.38,0,0,0,.72,1.59,1.87,1.87,0,0,0,1,.75,3.15,3.15,0,0,0,1.47,0,3.37,3.37,0,0,0,1.39-.56,2,2,0,0,0,.68-1.09,5.61,5.61,0,0,0,.08-1.74c-.06-.7-.18-1.53-.36-2.51L219,303.76c.55-.19,1-.34,1.4-.45s.74-.19,1.06-.25.71-.13,1.12-.18.88-.09,1.45-.12l2.23,11.94a19.86,19.86,0,0,1,.37,4,7.66,7.66,0,0,1-.69,3.18,5.76,5.76,0,0,1-2.05,2.33,10.22,10.22,0,0,1-3.7,1.39"/><path id="Fill-44" class="cls-4" d="M234,304.65l.76,7.85c.34,0,.66-.06.95-.1a4.7,4.7,0,0,0,.87-.24,5.43,5.43,0,0,0,.88-.41,8,8,0,0,0,.86-.57Zm1.49,16.17q-.58.35-1.08.6a10.43,10.43,0,0,1-1,.43,11.38,11.38,0,0,1-1.15.36q-.66.17-1.5.33l-1.07-22.22c.45-.24.87-.45,1.26-.64s.8-.37,1.22-.53.72-.25,1.14-.37l1.45-.39,13.16,17.67a17.8,17.8,0,0,1-2.63,1.28,10.87,10.87,0,0,1-1.1.36q-.57.15-1.23.27l-2.42-3.48a14.48,14.48,0,0,1-1.33.88,9.28,9.28,0,0,1-2.64,1,12.63,12.63,0,0,1-1.47.22Z"/><path id="Fill-46" class="cls-4" d="M249,291.44a12.48,12.48,0,0,1,1.16-.8c.41-.26.84-.51,1.29-.74.29-.15.68-.32,1.17-.52s.91-.35,1.26-.47l.2,15.18,3.31,6.77a16,16,0,0,1-2.16,1.41,14.72,14.72,0,0,1-2.42,1l-3.31-6.77c-.91-.73-1.87-1.48-2.87-2.26s-2-1.57-3-2.35-2-1.57-3-2.36l-2.85-2.26a12.25,12.25,0,0,1,1.12-.76,14.33,14.33,0,0,1,1.38-.8,13.35,13.35,0,0,1,1.24-.56c.46-.18.87-.33,1.22-.45l6.79,5.75Z"/><path id="Fill-48" class="cls-4" d="M158.4,69l-4.11,16.19c.7.22,1.35.38,2,.51a9.21,9.21,0,0,0,1.9.19,12.82,12.82,0,0,0,2.06-.16,16.52,16.52,0,0,0,2.11-.47Zm-8.58,33.27c-.94.17-1.8.3-2.58.38a22,22,0,0,1-2.26.13,25.2,25.2,0,0,1-2.55-.16c-1-.11-2-.26-3.21-.48l13.72-45c1.07-.13,2.06-.23,3-.32s1.84-.13,2.78-.13c.78,0,1.63,0,2.55.13s2,.19,3.15.32L178,102.24a38.66,38.66,0,0,1-6.13.57c-.82,0-1.63,0-2.45-.13s-1.7-.21-2.64-.38l-2.33-8.76a26.28,26.28,0,0,1-3.27.76,19.33,19.33,0,0,1-3.1.25,19,19,0,0,1-2.88-.22,27.23,27.23,0,0,1-3.06-.66Z"/><path id="Fill-50" class="cls-4" d="M191.31,78.55a4.4,4.4,0,0,0,1,.19q.74.06,1.53.06a6,6,0,0,0,4.29-1.58,6.32,6.32,0,0,0,1.66-4.78,8.47,8.47,0,0,0-.53-3.19,5.18,5.18,0,0,0-1.44-2.08,5.26,5.26,0,0,0-2.14-1.1,10.34,10.34,0,0,0-2.57-.31h-.86a7.93,7.93,0,0,0-1,.06ZM180.7,57.25q1.41-.2,4.32-.54a64.4,64.4,0,0,1,7.33-.34,35.1,35.1,0,0,1,6.56.63,16.46,16.46,0,0,1,6,2.36,12.71,12.71,0,0,1,4.32,4.88,17.52,17.52,0,0,1,1.66,8.2,18.27,18.27,0,0,1-1.32,7.43,12.57,12.57,0,0,1-3.49,4.73,13.59,13.59,0,0,1-5,2.52,22,22,0,0,1-5.73.75c-.78,0-1.56,0-2.36-.09a11.35,11.35,0,0,1-1.68-.22v14.68c-1.07.21-2,.36-2.88.44s-1.66.13-2.39.13a31.39,31.39,0,0,1-5.34-.57Z"/><path id="Fill-52" class="cls-4" d="M214.11,57.12H240c.16.93.29,1.79.37,2.59a22.57,22.57,0,0,1,.12,2.26,30.12,30.12,0,0,1-.49,5H225v7.69h11.83a26,26,0,0,1,.55,4.91,26.29,26.29,0,0,1-.55,5H225v17.71a32.21,32.21,0,0,1-5.39.57,31.64,31.64,0,0,1-5.45-.57Z"/></g></g></g></g></g></g></g></svg>