<svg xmlns="http://www.w3.org/2000/svg" xmlns:xlink="http://www.w3.org/1999/xlink" viewBox="0 0 309.68 391.94"><defs><style>.cls-1{fill:none;}.cls-2{fill:#fff;}.cls-3{fill:#e2c060;}.cls-4{fill:url(#Degradado_sin_nombre_2);}.cls-5{fill:#e52323;}.cls-6{clip-path:url(#clip-path);}.cls-7{clip-path:url(#clip-path-2);}.cls-8{opacity:0.05;}</style><linearGradient id="Degradado_sin_nombre_2" x1="-782.51" y1="581.33" x2="-781.2" y2="581.33" gradientTransform="matrix(0, 242.31, 242.31, 0, -140704.99, 189626.23)" gradientUnits="userSpaceOnUse"><stop offset="0" stop-color="#ff0010"/><stop offset="0.06" stop-color="#ff0010"/><stop offset="0.55" stop-color="#dd102b"/><stop offset="0.95" stop-color="#a81c30"/><stop offset="1" stop-color="#a81c30"/></linearGradient><clipPath id="clip-path" transform="translate(0)"><path class="cls-1" d="M0,7.79V260.65s.32,23.55,28.39,47.42,88.71,54.52,88.71,54.52,30.75,18.17,37.74,29.35c7-11.18,37.74-29.35,37.74-29.35s60.64-30.65,88.71-54.52,28.39-47.42,28.39-47.42V7.79C263.91,2.84,211.11,0,154.84,0S45.77,2.84,0,7.79M123.66,351.48l-.36-.22-.39-.19c-.59-.3-59.6-30.23-86.16-52.82-22-18.72-23.73-36.17-23.85-37.88V19.43c43.78-4.27,92.57-6.52,141.94-6.52S253,15.16,296.77,19.43V260.37c-.11,1.71-1.83,19.16-23.84,37.88-26.59,22.61-85.58,52.52-86.17,52.82l-.38.19-.37.22c-5.53,3.27-20.18,12.24-31.17,21.76-11-9.52-25.65-18.49-31.18-21.76m81.5-16c19.59-10.74,48.31-27.43,64.43-41.13,19.88-16.92,21.86-32.4,22-34.15v-236c-27.24-2.54-56.48-4.3-86.45-5.25ZM18.06,24.13v236c.17,1.76,2.14,17.23,22,34.15,16.12,13.71,44.84,30.39,64.43,41.14V18.88c-30,.94-59.21,2.7-86.46,5.25"/></clipPath><clipPath id="clip-path-2" transform="translate(0)"><rect class="cls-1" y="160.56" width="309.67" height="243.19"/></clipPath></defs><g id="Capa_2" data-name="Capa 2"><g id="Capa_1-2" data-name="Capa 1"><path class="cls-2" d="M296.78,260.36c-.12,1.71-1.84,19.16-23.85,37.87-26.59,22.62-85.57,52.53-86.17,52.83l-.38.2-.36.21c-5.53,3.27-20.19,12.25-31.18,21.76-11-9.51-25.65-18.49-31.18-21.76l-.36-.21-.38-.2c-.59-.3-59.61-30.23-86.17-52.83-22-18.71-23.73-36.16-23.84-37.87V19.42c43.77-4.27,92.56-6.52,141.93-6.52S253,15.15,296.78,19.42Z" transform="translate(0)"/><path class="cls-3" d="M296.78,260.36c-.12,1.71-1.84,19.16-23.85,37.87-26.59,22.62-85.57,52.53-86.17,52.83l-.38.2-.36.21c-5.53,3.27-20.19,12.25-31.18,21.76-11-9.51-25.65-18.49-31.18-21.76l-.36-.21-.38-.2c-.59-.3-59.61-30.23-86.17-52.83-22-18.71-23.73-36.16-23.84-37.87V19.42c43.77-4.27,92.56-6.52,141.93-6.52S253,15.15,296.78,19.42ZM154.84,0C98.57,0,45.77,2.83,0,7.78V260.64s.33,23.56,28.39,47.43,88.71,54.51,88.71,54.51,30.75,18.17,37.74,29.36c7-11.19,37.74-29.36,37.74-29.36s60.65-30.65,88.71-54.51,28.39-47.43,28.39-47.43V7.78C263.91,2.83,211.11,0,154.84,0" transform="translate(0)"/><path class="cls-4" d="M205.15,335.44c19.59-10.74,48.3-27.43,64.42-41.13,19.89-16.92,21.86-32.39,22-34.15v-236c-27.24-2.55-56.48-4.31-86.44-5.25ZM18.05,24.12v236c.16,1.76,2.13,17.23,22,34.15C56.19,308,84.91,324.7,104.5,335.45V18.87c-30,.94-59.21,2.7-86.45,5.25" transform="translate(0)"/><path class="cls-2" d="M48.2,196V132.91H91.44v10.67H60.94v14.93H87.27v10.67H60.94V196Z" transform="translate(0)"/><path class="cls-5" d="M148,143.56v17.9h7q7.53,0,10.07-1a8.3,8.3,0,0,0,4-3.1,8.47,8.47,0,0,0,1.44-4.9,8.13,8.13,0,0,0-2-5.68,8.88,8.88,0,0,0-5.12-2.8,62.22,62.22,0,0,0-9.16-.43ZM135.24,196V132.89h20.44q11.61,0,15.14,1A16.52,16.52,0,0,1,179.9,140q3.66,4.76,3.66,12.29a20.63,20.63,0,0,1-2.11,9.76,17.34,17.34,0,0,1-5.36,6.22,18.42,18.42,0,0,1-6.6,3,73.11,73.11,0,0,1-13.21.9H148V196Z" transform="translate(0)"/><g class="cls-6"><g class="cls-7"><g class="cls-8"><path d="M0,384.33H309.67V160.55C130.09,165.22,37.34,208,0,231.17Z" transform="translate(0)"/></g></g></g><path class="cls-2" d="M225.8,196V132.91H269v10.67h-30.5v14.93h26.33v10.67H238.54V196Z" transform="translate(0)"/></g></g></svg>