<svg xmlns="http://www.w3.org/2000/svg" viewBox="0 0 255.58 422.28"><defs><style>.cls-1{fill:#fff;}.cls-2{fill:#e9ba01;}.cls-3{fill:#d31b26;}.cls-4{fill:#41b4e4;}.cls-5{fill:#283533;}</style></defs><g id="Capa_2" data-name="Capa 2"><g id="Capa_1-2" data-name="Capa 1"><path class="cls-1" d="M252.3,266.12C252.3,380.4,127.79,419,127.79,419S3.29,380.4,3.29,266.12V68.51h249V266.12"/><path class="cls-2" d="M127.79,422.28l-1-.16C125.55,421.73,0,381.49,0,266.12V68.51a3.28,3.28,0,0,1,3.29-3.28h249a3.28,3.28,0,0,1,3.28,3.28V266.12c0,115.37-125.55,155.61-126.82,156l-1,.16M6.57,71.8V266.12c0,105.2,109.66,145.46,121.22,149.41C139.35,411.58,249,371.32,249,266.12V71.8Z"/><polyline class="cls-2" points="27.64 0 21.91 17.69 3.29 17.69 18.42 28.59 12.56 46.28 27.76 35.38 42.77 46.28 37.04 28.59 52.04 17.64 33.49 17.64 27.64 0"/><polyline class="cls-2" points="94.09 0 88.37 17.69 69.75 17.69 84.88 28.59 79.02 46.28 94.22 35.38 109.22 46.28 103.5 28.59 118.5 17.64 99.95 17.64 94.09 0"/><polyline class="cls-2" points="160.89 0 155.17 17.69 136.55 17.69 151.68 28.59 145.83 46.28 161.02 35.38 176.03 46.28 170.3 28.59 185.3 17.64 166.75 17.64 160.89 0"/><polyline class="cls-2" points="227.88 0 222.15 17.69 203.53 17.69 218.66 28.59 212.82 46.28 228 35.38 243.02 46.28 237.28 28.59 252.29 17.64 233.74 17.64 227.88 0"/><polyline class="cls-2" points="168.66 361.62 127.34 346.37 86.92 361.62 86.92 100.11 127.16 115.31 168.66 100.11 168.66 361.62"/><path class="cls-3" d="M141.54,162.52h11.71l-17.19-30H119.54l-17.22,30h11.74s.79-2.55,1.87-5.42h23.74c1.09,2.87,1.87,5.42,1.87,5.42M127.7,137l.28-.34-.07.34s5.78,8.42,8.65,13.36H119C121.91,145.4,127.7,137,127.7,137Z"/><path class="cls-3" d="M140.77,174.83V198h-26V174.83H102.67v21.28c0,3.73,6.35,8.65,11.42,8.65h27.39c5.07,0,11.43-4.92,11.43-8.65V174.83H140.77"/><polyline class="cls-3" points="152.39 223.65 152.39 216.89 103.18 216.89 103.18 247.22 115.33 247.22 115.33 236.23 152.39 236.23 152.39 229.49 115.33 229.49 115.33 223.65 152.39 223.65"/><path class="cls-2" d="M64.89,147.62s4.52-1.63,4.52-6.43-4.44-9-4.44-9h-.08s-4.43,4.15-4.43,9S65,147.62,65,147.62h-.08"/><path class="cls-2" d="M66.74,164.36s4.17,2.38,7.83-.74,3.94-9.2,3.94-9.2l-.06-.06s-6-.7-9.7,2.43-2,7.62-2,7.62l-.05,0"/><path class="cls-2" d="M63.47,164.14s-4.08,2.53-7.86-.46-4.25-9.06-4.25-9.06l0-.06s6-.89,9.78,2.11,2.24,7.54,2.24,7.54l0-.07"/><path class="cls-2" d="M66.64,184.19s4.17,2.37,7.83-.74,3.94-9.2,3.94-9.2l0-.06s-6-.69-9.7,2.44-2,7.62-2,7.62l0-.06"/><path class="cls-2" d="M63.37,184s-4.08,2.54-7.85-.47-4.25-9-4.25-9l0-.07s6-.89,9.78,2.11S63.32,184,63.32,184l0-.07"/><path class="cls-2" d="M66.64,204s4.17,2.38,7.83-.75S78.41,194,78.41,194l0-.06s-6-.69-9.7,2.43a7.08,7.08,0,0,0-2,7.61l0,0"/><path class="cls-2" d="M63.37,203.75s-4.08,2.52-7.85-.47-4.25-9.06-4.25-9.06l0-.06s6-.89,9.78,2.1,2.23,7.54,2.23,7.54l0-.05"/><path class="cls-2" d="M66.64,223.79s4.17,2.37,7.83-.74,3.94-9.2,3.94-9.2l0-.06s-6-.69-9.7,2.44-2,7.62-2,7.62l0-.06"/><path class="cls-2" d="M63.37,223.58s-4.08,2.51-7.85-.48-4.25-9-4.25-9l0-.05s6-.9,9.78,2.09,2.23,7.55,2.23,7.55l0-.06"/><path class="cls-2" d="M66.64,243.62s4.17,2.38,7.83-.75,3.94-9.18,3.94-9.18l0-.06s-6-.69-9.7,2.43-2,7.62-2,7.62l0-.06"/><path class="cls-2" d="M63.37,243.41s-4.08,2.53-7.85-.47-4.25-9.06-4.25-9.06l0,0s6-.9,9.78,2.1,2.23,7.55,2.23,7.55l0-.07"/><rect class="cls-2" x="64.1" y="146.05" width="1.67" height="122.28"/><path class="cls-2" d="M190.71,147.62s4.52-1.63,4.52-6.43-4.45-9-4.45-9h-.07s-4.44,4.15-4.44,9,4.51,6.43,4.51,6.43h-.07"/><path class="cls-2" d="M192.55,164.36s4.17,2.38,7.83-.74,3.94-9.2,3.94-9.2l-.06-.06s-6-.7-9.7,2.43-2,7.62-2,7.62l0,0"/><path class="cls-2" d="M189.28,164.14s-4.09,2.53-7.86-.46-4.25-9.06-4.25-9.06l.05-.06s6-.89,9.77,2.11,2.24,7.54,2.24,7.54l.05-.07"/><path class="cls-2" d="M192.45,184.19s4.17,2.37,7.83-.74,3.94-9.2,3.94-9.2l-.05-.06s-6-.69-9.7,2.44-2,7.62-2,7.62l-.05-.06"/><path class="cls-2" d="M189.18,184s-4.09,2.54-7.85-.47-4.25-9-4.25-9l0-.07s6-.89,9.78,2.11,2.23,7.54,2.23,7.54l.05-.07"/><path class="cls-2" d="M192.45,204s4.17,2.38,7.83-.75,3.94-9.19,3.94-9.19l-.05-.06s-6-.69-9.7,2.43a7.08,7.08,0,0,0-2,7.61l-.05,0"/><path class="cls-2" d="M189.18,203.75s-4.09,2.52-7.85-.47-4.25-9.06-4.25-9.06l0-.06s6-.89,9.78,2.1,2.23,7.54,2.23,7.54l.05-.05"/><path class="cls-2" d="M192.45,223.79s4.17,2.37,7.83-.74,3.94-9.2,3.94-9.2l-.05-.06s-6-.69-9.7,2.44-2,7.62-2,7.62l-.05-.06"/><path class="cls-2" d="M189.18,223.58s-4.09,2.51-7.85-.48-4.25-9-4.25-9l0-.05s6-.9,9.78,2.09,2.23,7.55,2.23,7.55l.05-.06"/><path class="cls-2" d="M192.45,243.62s4.17,2.38,7.83-.75,3.94-9.18,3.94-9.18l-.05-.06s-6-.7-9.7,2.43-2,7.62-2,7.62l-.05-.06"/><path class="cls-2" d="M189.18,243.41s-4.09,2.53-7.85-.47-4.25-9-4.25-9l0-.07s6-.9,9.78,2.11,2.23,7.54,2.23,7.54l.05-.07"/><rect class="cls-2" x="189.9" y="146.05" width="1.67" height="122.28"/><rect class="cls-1" x="51.27" y="269.03" width="153.05" height="55.79"/><rect class="cls-4" x="51.27" y="275.25" width="153.05" height="6.11"/><rect class="cls-4" x="51.27" y="287.7" width="153.05" height="6.11"/><rect class="cls-4" x="51.27" y="300.17" width="153.05" height="6.1"/><rect class="cls-4" x="51.27" y="312.61" width="153.05" height="6.11"/><path class="cls-1" d="M92.41,297.17h0a35,35,0,1,1,35,35,35.07,35.07,0,0,1-35-35"/><path class="cls-5" d="M127.44,333.83a36.78,36.78,0,0,1-36.63-35.05h0v-3.26h0a36.66,36.66,0,1,1,36.63,38.31M94.06,297.17a33.38,33.38,0,1,0,33.38-33.38A33.49,33.49,0,0,0,94.06,297.17Z"/><path class="cls-5" d="M127.44,262.15a35,35,0,1,0,35,35,35,35,0,0,0-35-35m6.92,61.78-10.28-7.88,1.21-7.85,12.92-6.5,8.41,4.21-1.23,12.21A27.32,27.32,0,0,1,134.36,323.93Zm-31.44-13.38.88-10.5,9.6-2,10.7,10.05L122.89,316l-11.73,3.72A28.09,28.09,0,0,1,102.92,310.55Zm24.34-41.43a27.73,27.73,0,0,1,12.88,3.17l3,7.93-6.79,5.69-15.2-2.38-3.34-6.61,6.24-7.61A28.41,28.41,0,0,1,127.26,269.12ZM155,299.06l-7.66,5.9-8.5-4.24L137,286.91l6.77-5.68,9.83,6.64a28.07,28.07,0,0,1,1.55,9.12C155.14,297.68,155.1,298.37,155,299.06Zm-51.4-.18-4-6a27.9,27.9,0,0,1,4.48-11.5l12.65-3.8,3.05,6L113.08,297Zm-.38-18.24A28.61,28.61,0,0,0,98.66,292l-4.78.91a33.78,33.78,0,0,1,7.44-17.2Zm53,18.41c.05-.68.08-1.37.08-2.06a29.26,29.26,0,0,0-1.36-8.82l4.33-2.39a33.42,33.42,0,0,1,1.34,17.92Zm-11.85-31.16-4.31,3a29,29,0,0,0-12.81-3c-1,0-2.06.07-3.08.17l-4.11-4a34.25,34.25,0,0,1,7.37-.83A33.9,33.9,0,0,1,144.38,267.89Zm-46.88,45,5-.66a29.15,29.15,0,0,0,7.46,8.11l.23,5.92A34.13,34.13,0,0,1,97.5,312.91Zm35,17.7,2.4-5.59a29.2,29.2,0,0,0,11-5.78l5.67,1.54A33.72,33.72,0,0,1,132.5,330.61Z"/></g></g></svg>