<svg xmlns="http://www.w3.org/2000/svg" viewBox="0 0 320.78 378.21"><defs><style>.cls-1{fill:#510e26;}.cls-2{fill:#bb9952;}.cls-3{fill:#002c6a;}.cls-4{fill:#ed0505;}.cls-5{fill:#fff;}.cls-6{fill:#fdc500;}</style></defs><g id="Capa_2" data-name="Capa 2"><g id="Capa_1-2" data-name="Capa 1"><path class="cls-1" d="M160.39,0A368.53,368.53,0,0,0,82.85,8.23,364.53,364.53,0,0,0,11,31.76L6.35,33.82l-4.57,2S0,163.89,0,165.84a220.83,220.83,0,0,0,155.76,211l2.33.71,2.3.71,2.31-.71,2.32-.71a219.44,219.44,0,0,0,62.4-30.7,221.33,221.33,0,0,0,49.3-47.93,219.83,219.83,0,0,0,44.06-132.32c0-1.77-1.77-130-1.77-130l-4.57-2-4.61-2.06A363.9,363.9,0,0,0,237.94,8.23,368.69,368.69,0,0,0,160.39,0Z"/><path class="cls-2" d="M160.21,15.32a350.84,350.84,0,0,1,143.52,30.5s1.64,118.26,1.64,120.13c0,92.52-61.11,170.76-145.16,196.59C76.16,336.71,15.05,258.47,15.05,166c0-1.88,1.65-120.13,1.65-120.13a350.63,350.63,0,0,1,143.51-30.5m0-7.94a362.12,362.12,0,0,0-76.16,8.08A358.39,358.39,0,0,0,13.46,38.57L8.83,40.64S7.12,164.07,7.12,166A213.74,213.74,0,0,0,157.88,370.13l2.33.71,2.33-.71a212.47,212.47,0,0,0,60.39-29.71A214.43,214.43,0,0,0,270.66,294,212.72,212.72,0,0,0,313.3,166c0-1.65-1.63-125.27-1.63-125.27l-4.7-2.1a358.07,358.07,0,0,0-70.6-23.12,362.12,362.12,0,0,0-76.16-8.08Z"/><path class="cls-2" d="M94.41,208.82a132.42,132.42,0,0,0,19.55,37,134.1,134.1,0,0,0,46.25,39,134.1,134.1,0,0,0,46.25-39A132.4,132.4,0,0,0,233,166.22c0-2.35-.24-19-.62-46.29a255.53,255.53,0,0,0-29-6.64c.43,30.94.68,49.93.72,53.05a104.41,104.41,0,0,1-43.94,84.74,105.23,105.23,0,0,1-23.14-22.58,103.43,103.43,0,0,1-20.8-62.18c0-3.22.3-22.2.72-53a255.53,255.53,0,0,0-29,6.64c-.37,27.25-.6,43.86-.62,46.28A133,133,0,0,0,94.41,208.82Z"/><path class="cls-2" d="M131.3,292.62a155.85,155.85,0,0,1-34.71-33.74,154.18,154.18,0,0,1-30.93-92.77c0-.71,0-3.24.09-7.2q2.72-1.23,5.44-2.39t5.66-2.3c.1-7.23.24-17.6.43-30.9q-5.61,1.91-11.1,4.06c.2-14,.42-30.36.65-46.7a299.37,299.37,0,0,1,29.56-8q10.5-2.26,21.21-3.77L118,39.73Q104,41.5,90.3,44.46A328.51,328.51,0,0,0,38.22,60.31C37.87,85.84,36.78,164.9,36.78,166c0,2.86.07,5.7.2,8.54A184.16,184.16,0,0,0,153,337V305.44A154.13,154.13,0,0,1,131.3,292.62Z"/><path class="cls-2" d="M282.2,60.31a328.19,328.19,0,0,0-52.08-15.85q-13.69-3-27.7-4.73l.4,29.2q10.69,1.5,21.22,3.77a298.05,298.05,0,0,1,29.56,8c.22,16.35.45,32.71.64,46.7q-5.49-2.16-11.09-4.06c.18,13.3.32,23.67.42,30.9q2.84,1.11,5.66,2.3t5.43,2.39c.06,4,.09,6.52.1,7.21a155.32,155.32,0,0,1-87.3,139.32V337a184.42,184.42,0,0,0,79.47-60.78,182.86,182.86,0,0,0,36.51-101.67q.19-4.26.2-8.54C283.63,164.9,282.48,80.57,282.2,60.31Z"/><path class="cls-3" d="M131.71,114.48c-.14,10-.26,18.73-.36,26a231,231,0,0,1,57.72,0c-.1-7.3-.22-16-.36-26l-.64-47.22Q174.3,66,160.21,66t-27.85,1.27L132,96.8Z"/><path class="cls-4" d="M131.35,140.51c-.2,14.6-.32,23.55-.35,25.87a88.78,88.78,0,0,0,17.85,53.28,90.56,90.56,0,0,0,11.36,12.51,90.56,90.56,0,0,0,11.36-12.51,88.78,88.78,0,0,0,17.85-53.26c0-2.25-.15-11.21-.35-25.89a231,231,0,0,0-57.72,0Z"/><polygon class="cls-5" points="149.95 81.07 147.63 85.17 143.33 86.3 146.22 89.95 145.91 94.72 149.99 92.91 154.09 94.72 153.74 89.95 156.6 86.3 152.29 85.17 149.95 81.07"/><polygon class="cls-5" points="129.24 82.56 126.92 86.65 122.62 87.79 125.51 91.44 125.2 96.2 129.28 94.39 133.38 96.2 133.03 91.44 135.89 87.79 131.58 86.65 129.24 82.56"/><polygon class="cls-5" points="108.53 85.64 106.22 89.74 101.91 90.87 104.8 94.53 104.49 99.29 108.58 97.48 112.67 99.29 112.32 94.53 115.18 90.87 110.87 89.74 108.53 85.64"/><polygon class="cls-5" points="87.82 90.22 85.51 94.32 81.2 95.45 84.09 99.11 83.78 103.87 87.87 102.06 91.96 103.87 91.61 99.11 94.47 95.45 90.16 94.32 87.82 90.22"/><polygon class="cls-5" points="170.7 81.07 173.01 85.17 177.31 86.3 174.42 89.95 174.73 94.72 170.65 92.91 166.56 94.72 166.9 89.95 164.04 86.3 168.35 85.17 170.7 81.07"/><polygon class="cls-5" points="191.41 82.56 193.72 86.65 198.02 87.79 195.13 91.44 195.44 96.2 191.36 94.39 187.26 96.2 187.61 91.44 184.75 87.79 189.06 86.65 191.41 82.56"/><polygon class="cls-5" points="212.12 85.64 214.43 89.74 218.73 90.87 215.84 94.53 216.15 99.29 212.07 97.48 207.97 99.29 208.32 94.53 205.46 90.87 209.77 89.74 212.12 85.64"/><polygon class="cls-5" points="232.83 90.22 235.14 94.32 239.44 95.45 236.55 99.11 236.86 103.87 232.78 102.06 228.68 103.87 229.03 99.11 226.17 95.45 230.48 94.32 232.83 90.22"/><path class="cls-6" d="M160.21,66q14.08,0,27.86,1.27L187.26,8.4q-13.48-1-27-1t-27,1l-.81,58.86Q146.12,66,160.21,66Z"/></g></g></svg>