<svg xmlns="http://www.w3.org/2000/svg" viewBox="0 0 276.88 276.8"><defs><style>.cls-1{fill:#eccb9f;}.cls-2{fill:#589c70;}.cls-3{fill:#010101;}.cls-4{fill:#3055c7;}.cls-5{fill:#bb4042;}.cls-6{fill:#fcfdfd;}</style></defs><g id="Capa_2" data-name="Capa 2"><g id="EFFECTS"><path class="cls-1" d="M0,127.15c1.05.25.55-.67.58-.94.48-4.94,1.15-9.85,2.12-14.72A138.55,138.55,0,0,1,138.28,0a137.77,137.77,0,0,1,80.27,25.56A138.92,138.92,0,0,1,253.9,62.12,137.16,137.16,0,0,1,270.82,98a133.16,133.16,0,0,1,5.32,26.75c.06.64.14,1.29.24,1.92.05.28.2.54.5.17v3.89l-.23,0,.23.3V146l-.24.31h.24v3.89c-.93-.36-.57.49-.6.74-.33,3.32-.75,6.63-1.29,9.93a138.55,138.55,0,0,1-99.06,110.75,133.1,133.1,0,0,1-21.32,4.2,138,138,0,0,1-17.59,1,140.12,140.12,0,0,1-49.44-9.73,138.62,138.62,0,0,1-81-86.85A132,132,0,0,1,.74,151.44q-.08-.88-.24-1.77c0-.3-.21-.51-.5-.14v-3.25l.29-.07L0,146v-2.59a5.27,5.27,0,0,0,0-3.57v-2.92a5.33,5.33,0,0,0,0-3.57V131l.24-.31H0Zm269.8,13C270.89,67.43,212.21,8.39,140.4,7.37S9.28,63,7.14,134.33C4.92,207.92,63.52,268.27,136.36,269.39,209.65,270.52,269,211.94,269.8,140.16Z"/><path class="cls-2" d="M0,133.31a5.33,5.33,0,0,1,0,3.57Z"/><path class="cls-2" d="M0,139.8a5.27,5.27,0,0,1,0,3.57Z"/><path class="cls-3" d="M276.88,146.28h-.24l.24-.31Z"/><path class="cls-3" d="M276.88,131l-.23-.3.23,0Z"/><path class="cls-3" d="M0,130.72H.24L0,131Z"/><path class="cls-3" d="M0,146l.29.25-.29.07Z"/><path class="cls-4" d="M269.8,140.16c-.8,71.78-60.15,130.36-133.44,129.23C63.52,268.27,4.92,207.92,7.14,134.33,9.28,63,68.72,6.35,140.4,7.37S270.89,67.43,269.8,140.16Zm-57.41,85.2c1,.66,2,1.29,2.94,2,3.44,2.46,3.4,2.42,6.65-.25,1.05-.87.71-1.19-.16-1.8-3.87-2.75-7.62-5.68-11.59-8.28a15.41,15.41,0,0,1-5.76-6.92c-2.1-4.67-4.48-9.21-6.8-13.94-1.19,1-2.22,1.93-3.35,2.75-.84.61-.83,1.17-.38,2,.95,1.81,1.78,3.69,2.65,5.54l-.31.32c-1-.68-2-1.35-2.92-2-3.26-2.33-3.21-2.28-6.37.31-1.09.9-.82,1.25.15,1.94,4.7,3.33,9.36,6.75,14.05,10.1a5.31,5.31,0,0,1,1.74,2q3.15,6.56,6.39,13.07c2,4.13,2,4.1,5.42,1a1.18,1.18,0,0,0,.3-1.66c-1-2-1.92-4-2.88-6A1.06,1.06,0,0,0,212.39,225.36Zm-98-19.07a65.75,65.75,0,0,0,20,4.14c1.2.08.91-.82.91-1.45q.06-11.08.09-22.19c0-10.8,0-21.6.18-32.39,0-2.06-.25-3.31-2.49-4a2.26,2.26,0,0,0-2.74.56c-4.87,4.91-9.8,9.76-14.69,14.64a4.3,4.3,0,0,0-1.33,1.6,7.89,7.89,0,0,0-1.06.72c-7.51,7.44-15,14.91-22.52,22.31-1,.94-.88,1.45,0,2.29a64.2,64.2,0,0,0,10.39,7.67A54.39,54.39,0,0,0,114.37,206.29Zm48.21-39.07a11.93,11.93,0,0,0-.89-1.13c-4.59-4.64-9.26-9.21-13.77-14-1.59-1.66-2.9-2.71-5.23-1.25-.88.56-1.35.88-1.34,2,0,6.27,0,12.53,0,18.8,0,12.42-.06,24.84-.15,37.26,0,1.37.47,1.66,1.69,1.51,2-.26,4-.35,5.95-.65a54.87,54.87,0,0,0,13.74-3.52,13.09,13.09,0,0,0,1.4-.37,73,73,0,0,0,22-13.11c1-.89,1-1.38.07-2.33-5.28-5.23-10.48-10.56-15.76-15.79A105.17,105.17,0,0,0,162.58,167.22Zm0-56.85a1.7,1.7,0,0,0,.26-.18q12-11.91,24.07-23.82c.79-.78.3-1.19-.25-1.68a67.11,67.11,0,0,0-7.77-6.08,62.16,62.16,0,0,0-16.33-8.12c-.54-.23-1.06-.51-1.62-.69a74.91,74.91,0,0,0-17.61-3.43c-1.35-.1-1.75.14-1.75,1.56,0,17.93-.08,35.87-.25,53.8,0,2.38.13,4.21,2.9,4.65a1.4,1.4,0,0,1,.57.29c.68.54,1.19.4,1.78-.22,1.26-1.34,2.6-2.6,3.9-3.9Zm-48.24-.57a2.86,2.86,0,0,0,1,1.27c4.48,4.52,9,9,13.41,13.6,1.66,1.78,3,2.63,5.36,1.21,1-.61,1.48-1,1.48-2.21q0-26.88.13-53.75c0-3.66,0-3.71-3.71-3.38a62,62,0,0,0-17.61,3.92c-.36.1-.74.17-1.09.3A70.21,70.21,0,0,0,90.67,84.3c-.88.79-.79,1.26,0,2Q102,97.6,113.19,108.92A12.33,12.33,0,0,0,114.33,109.8ZM162.42,119c-3.34,3.27-6.6,6.64-10,9.8-1.78,1.63-3,3.12-1.25,5.44a.76.76,0,0,1,.1.31,1,1,0,0,0,1.12.87c3.38-.08,6.78.15,10.16-.13a6.32,6.32,0,0,0,1,.13q22.85,0,45.7.08c1.14,0,1.37-.5,1.32-1.47a69.09,69.09,0,0,0-1-8.36A71.75,71.75,0,0,0,192.75,90.8c-.77-.89-1.19-.85-2,0-4.1,4.14-8.28,8.2-12.41,12.32C173,108.4,167.73,113.72,162.42,119Zm-47.9,39.41c3.69-3.63,7.33-7.31,11.08-10.87,1.29-1.22,2-2.26.69-3.87a3.86,3.86,0,0,1-.56-1.5c-.17-.71-.59-.91-1.29-.9-3.34.05-6.68.06-10,.09-9.29,0-18.57,0-27.86-.05-6.15,0-12.3.23-18.45-.18-1.21-.08-1.78.38-1.68,1.7a74.6,74.6,0,0,0,2.92,16.36A71.51,71.51,0,0,0,84.26,186c.87,1,1.42,1.22,2.53.11C96,176.86,105.26,167.67,114.52,158.45Zm0-39.79a5,5,0,0,0-.4-.51q-7.25-7.29-14.49-14.58-6.49-6.55-13-13.15c-.77-.8-1.32-1-2,0-.55.73-1.2,1.38-1.79,2.09a71.11,71.11,0,0,0-16.31,40.64c-.17,2.21-.11,2.2,2.18,2.2,7,0,13.94-.11,20.9.06,8.32.21,16.63.14,24.94.07a57.32,57.32,0,0,1,6.94.06c2.87.36,4.7-.41,5.27-3.39a.41.41,0,0,1,.07-.15c.37-.49.21-.86-.19-1.25Q120.52,124.7,114.47,118.66Zm48,39.73a5,5,0,0,0,.39.52q13.8,13.91,27.58,27.83c.95,1,1.37.3,1.9-.31a72,72,0,0,0,18.08-42.61c.19-2.43.17-2.43-2.2-2.43q-21.94,0-43.91,0c-.59,0-1.18.06-1.77.09-3.44-.3-6.88-.06-10.32-.13a.88.88,0,0,0-1,.67,27.74,27.74,0,0,1-1.27,3,.93.93,0,0,0,.22,1.27Q156.35,152.3,162.46,158.39ZM115.73,25.76c.34,0,.39.08.44.06a6.75,6.75,0,0,0,.76-.25c2.27-.95,4.35-1.07,6.21,1A4.43,4.43,0,0,0,126,27.94c1.44.11,1.41.82,1.22,2-1,5.91-2.33,11.76-3.56,17.63-.19.91-.12,2-1.52,2.09s-2.77.9-4.07-1c-5.1-7.24-10.45-14.3-15.71-21.44-2.22-3-3.33-3.36-6.9-1.95Q43.23,46,23.6,98.61a108.3,108.3,0,0,0-6.15,26.78,7.92,7.92,0,0,0,4.43,8.14c2.72,1.32,3.13,1.09,3.34-1.88A111.72,111.72,0,0,1,51.77,66.1C62.34,53.54,74.86,43.41,90.11,37A8.89,8.89,0,0,1,101.45,40c2.75,3.68,5.41,7.43,8.21,11.07.91,1.19.7,1.52-.65,2A90.34,90.34,0,0,0,70,79.44a88.67,88.67,0,0,0-15.45,25,8,8,0,0,0,3.3,10.14c1.1.65,1.62.7,2.14-.75,11.64-32.51,34.48-51.5,68.68-56.7a1.44,1.44,0,0,0,1.43-1.38c.67-3.34,1.44-6.65,2.14-10,.16-.75.31-1.32,1.31-1.22,2.85.28,5.7.53,8.55.73.95.06,1.28.52,1.44,1.38.45,2.5,1,5,1.44,7.48.53,2.67.53,2.64,3.18,3,26.23,3.14,46.31,16.15,60.78,38.06a73.67,73.67,0,0,1,9.21,20.12c.46,1.59,1.06,1.52,2.21.82a8.14,8.14,0,0,0,3.75-4.88c.69-2.4,0-4.58-.94-6.74q-15.89-36.83-53.4-51c-.91-.35-1.8-.73-2.71-1.09-.61-.23-.68-.55-.29-1.09,3.22-4.4,6.28-9,10.21-12.77a8.14,8.14,0,0,1,9.14-1.86,50.84,50.84,0,0,1,6.63,3Q237,64.71,249.05,114.17a105.77,105.77,0,0,1,2.72,19.72c.06,1.24.48,1.39,1.58,1.13a8.15,8.15,0,0,0,6.16-8.59,92,92,0,0,0-2.11-13.11Q242,49.6,181.12,25.2c-3-1.21-4.34-.75-6.27,1.86L159.47,47.94c-1.77,2.41-1.77,2.38-4.63,1.68a1.32,1.32,0,0,1-1.15-1.15c-.63-3.12-1.36-6.22-1.93-9.36-1.21-6.69-2.19-13.44-5.1-19.69-.29-.61,0-1,.26-1.49a7.31,7.31,0,0,0,.76-4.85,11,11,0,0,1-5.39.66c-2.42-.21-4.83-.51-7.24-.82-3.68-.47-6.73.57-8.93,3.67a1.7,1.7,0,0,1-1.25.9C119.82,18,117.57,21.52,115.73,25.76ZM34.8,117.67a8.28,8.28,0,0,0,4,7.27c2.5,1.46,2.81,1.29,3.3-1.49q7.44-42.54,43.3-66.62c2.28-1.54,4.71-2.85,7-4.31A8.76,8.76,0,0,0,96,49c.85-1.76.27-3.71-1.36-5.42-1.37-1.45-2.41-.19-3.42.34Q50.81,64.95,37,108.36A53.48,53.48,0,0,0,34.8,117.67Zm207.31.23c-.1-.55-.23-1.51-.46-2.45a106.19,106.19,0,0,0-35.5-57.77,104.9,104.9,0,0,0-21.54-14,1.77,1.77,0,0,0-2.4.37c-2.16,2.24-2.21,4.79-.06,7a15.25,15.25,0,0,0,3.66,2.66A91.06,91.06,0,0,1,200,63.36c19.27,16.1,31,36.54,35,61.36.23,1.51.71,1.63,2,1.13A8.38,8.38,0,0,0,242.11,117.9ZM89.5,205.76A4,4,0,0,0,88,202.43c-1.51-1.31-3-2.63-4.52-3.93-2.63-2.28-4.67-2.15-6.94.46q-9.9,11.35-19.78,22.72c-3,3.41-3,3.39.55,6.2.66.53,1,.54,1.57-.11,1.23-1.5,2.54-2.94,3.82-4.41,1.8-2.07,1.77-2,3.83-.29.77.65,1,1.1.18,1.89a39.77,39.77,0,0,0-2.77,3.17c-.85,1-2.5,2-2.37,3.09s1.94,1.87,2.89,2.88c.68.73,1.11.68,1.78-.09q11.07-12.8,22.2-25.55A3.76,3.76,0,0,0,89.5,205.76Zm72.1,14.4a6.58,6.58,0,0,0,.62,2.5q5.19,14,10.4,28.08c1.57,4.25,1.56,4.23,5.78,2.39.69-.3.89-.57.6-1.3-.73-1.8-1.37-3.64-2-5.46-1.06-2.88-1.05-2.85,1.89-3.73.75-.23,1.07,0,1.31.66.47,1.38,1,2.74,1.51,4.1,1.57,4.24,1.56,4.21,5.76,2.38.72-.31.87-.58.6-1.3-4-10.72-7.94-21.46-11.95-32.17a3.81,3.81,0,0,0-5-2.38c-2.35.79-4.68,1.67-7,2.58A3.84,3.84,0,0,0,161.6,220.16ZM131.41,240h0c0,6.05,0,12.11,0,18.16,0,1.13.32,1.49,1.45,1.46,3-.07,6.06,0,9.08,0s4.68-1.73,4.69-4.77q0-14.75,0-29.5c0-3.39-1.66-5-5.11-5-2.75,0-5.51.07-8.26,0-1.38,0-1.87.26-1.84,1.76C131.47,228,131.41,234,131.41,240ZM91,246.16A5,5,0,0,0,94.26,251c1.34.56,2.71,1.05,4.08,1.55,3.53,1.29,6.11.1,7.45-3.47q5.16-13.79,10.31-27.59c1.43-3.81,1.41-3.77-2.48-5.23-1.05-.39-1.48-.25-1.86.84-1.41,4-2.93,7.89-4.4,11.84-2.11,5.66-4.26,11.31-6.31,17-.44,1.24-1,1.52-2.08.9a2.32,2.32,0,0,0-.76-.28c-1.4-.26-1.44-.94-1-2.18,3.33-8.77,6.59-17.57,9.87-26.37,1.36-3.65,1.33-3.61-2.36-5.05-1.11-.44-1.61-.37-2.07.88-3.68,10-7.45,20-11.19,30A5.76,5.76,0,0,0,91,246.16ZM138.5,130.92a7.44,7.44,0,1,0,7.4,7.44A7.44,7.44,0,0,0,138.5,130.92Z"/><path class="cls-1" d="M115.73,25.76c1.84-4.24,4.09-7.79,9.14-8.27a1.7,1.7,0,0,0,1.25-.9c2.2-3.1,5.25-4.14,8.93-3.67,2.41.31,4.82.61,7.24.82a11,11,0,0,0,5.39-.66,7.31,7.31,0,0,1-.76,4.85c-.25.49-.55.88-.26,1.49,2.91,6.25,3.89,13,5.1,19.69.57,3.14,1.3,6.24,1.93,9.36a1.32,1.32,0,0,0,1.15,1.15c2.86.7,2.86.73,4.63-1.68l15.38-20.88c1.93-2.61,3.27-3.07,6.27-1.86q60.74,24.48,76.28,88.12a92,92,0,0,1,2.11,13.11,8.15,8.15,0,0,1-6.16,8.59c-1.1.26-1.52.11-1.58-1.13a105.77,105.77,0,0,0-2.72-19.72q-12-49.42-56.32-74.51a50.84,50.84,0,0,0-6.63-3A8.14,8.14,0,0,0,177,38.5c-3.93,3.82-7,8.37-10.21,12.77-.39.54-.32.86.29,1.09.91.36,1.8.74,2.71,1.09q37.51,14.17,53.4,51c.93,2.16,1.63,4.34.94,6.74a8.14,8.14,0,0,1-3.75,4.88c-1.15.7-1.75.77-2.21-.82a73.67,73.67,0,0,0-9.21-20.12c-14.47-21.91-34.55-34.92-60.78-38.06-2.65-.32-2.65-.29-3.18-3-.48-2.5-1-5-1.44-7.48-.16-.86-.49-1.32-1.44-1.38-2.85-.2-5.7-.45-8.55-.73-1-.1-1.15.47-1.31,1.22-.7,3.33-1.47,6.64-2.14,10a1.44,1.44,0,0,1-1.43,1.38c-34.2,5.2-57,24.19-68.68,56.7-.52,1.45-1,1.4-2.14.75a8,8,0,0,1-3.3-10.14A88.67,88.67,0,0,1,70,79.44a90.34,90.34,0,0,1,39-26.35c1.35-.47,1.56-.8.65-2-2.8-3.64-5.46-7.39-8.21-11.07A8.89,8.89,0,0,0,90.11,37C74.86,43.41,62.34,53.54,51.77,66.1a111.72,111.72,0,0,0-26.55,65.55c-.21,3-.62,3.2-3.34,1.88a7.92,7.92,0,0,1-4.43-8.14A108.3,108.3,0,0,1,23.6,98.61Q43.19,46,95.46,25.27c3.57-1.41,4.68-1.07,6.9,1.95,5.26,7.14,10.61,14.2,15.71,21.44,1.3,1.86,2.6,1.07,4.07,1s1.33-1.18,1.52-2.09c1.23-5.87,2.54-11.72,3.56-17.63.19-1.14.22-1.85-1.22-2a4.43,4.43,0,0,1-2.86-1.41c-1.86-2-3.94-1.91-6.21-1a6.75,6.75,0,0,1-.76.25S116.07,25.81,115.73,25.76Zm25.74,12.53c1.8.1,1.95.07,1.79-.73-.84-4.32-1.24-8.77-3.09-12.84a5.84,5.84,0,0,0-4.06-3.42c-1.1-.26-1.71-.09-1.57,1.3a54.43,54.43,0,0,1-.48,13.85c-.14.89.15,1.15,1,1.22C137.29,37.85,139.54,38.1,141.47,38.29Z"/><path class="cls-5" d="M162.53,141.45c.59,0,1.18-.09,1.77-.09q22,0,43.91,0c2.37,0,2.39,0,2.2,2.43a72,72,0,0,1-18.08,42.61c-.53.61-1,1.28-1.9.31q-13.76-14-27.58-27.83a5,5,0,0,1-.39-.52Q162.49,149.92,162.53,141.45Z"/><path class="cls-2" d="M114.5,135.45c-8.31.07-16.62.14-24.94-.07-7-.17-13.93,0-20.9-.06-2.29,0-2.35,0-2.18-2.2A71.11,71.11,0,0,1,82.79,92.48c.59-.71,1.24-1.36,1.79-2.09.73-1,1.28-.77,2,0q6.44,6.61,13,13.15,7.23,7.31,14.49,14.58a5,5,0,0,1,.4.51C114.38,124.26,114.32,129.85,114.5,135.45Z"/><path class="cls-2" d="M114.52,158.45c-9.26,9.22-18.53,18.41-27.73,27.69-1.11,1.11-1.66.88-2.53-.11a71.51,71.51,0,0,1-14.91-26.8,74.6,74.6,0,0,1-2.92-16.36c-.1-1.32.47-1.78,1.68-1.7,6.15.41,12.3.13,18.45.18,9.29.08,18.57,0,27.86.05Q114.47,149.92,114.52,158.45Z"/><path class="cls-5" d="M162.42,119c5.31-5.32,10.59-10.64,15.91-15.94,4.13-4.12,8.31-8.18,12.41-12.32.82-.83,1.24-.87,2,0a71.75,71.75,0,0,1,16.73,34.91,69.09,69.09,0,0,1,1,8.36c.05,1-.18,1.47-1.32,1.47q-22.84-.07-45.7-.08a6.32,6.32,0,0,1-1-.13Q162.45,127.19,162.42,119Z"/><path class="cls-6" d="M114.37,70.46A62,62,0,0,1,132,66.54c3.71-.33,3.72-.28,3.71,3.38q-.08,26.88-.13,53.75c0,1.2-.46,1.6-1.48,2.21-2.36,1.42-3.7.57-5.36-1.21-4.36-4.64-8.93-9.08-13.41-13.6a2.86,2.86,0,0,1-1-1.27Q114.35,90.14,114.37,70.46Z"/><path class="cls-6" d="M162.57,110.37l-12.1,12.18c-1.3,1.3-2.64,2.56-3.9,3.9-.59.62-1.1.76-1.78.22a1.4,1.4,0,0,0-.57-.29c-2.77-.44-2.92-2.27-2.9-4.65.17-17.93.22-35.87.25-53.8,0-1.42.4-1.66,1.75-1.56a74.91,74.91,0,0,1,17.61,3.43c.56.18,1.08.46,1.62.69,0,6.62-.05,13.24,0,19.86S162.54,103.69,162.57,110.37Z"/><path class="cls-6" d="M162.55,206.26a54.87,54.87,0,0,1-13.74,3.52c-2,.3-4,.39-5.95.65-1.22.15-1.7-.14-1.69-1.51.09-12.42.11-24.84.15-37.26,0-6.27.06-12.53,0-18.8,0-1.09.46-1.41,1.34-2,2.33-1.46,3.64-.41,5.23,1.25,4.51,4.74,9.18,9.31,13.77,14a11.93,11.93,0,0,1,.89,1.13c0,1.19-.07,2.38-.07,3.56Q162.53,188.53,162.55,206.26Z"/><path class="cls-6" d="M114.33,167.22a4.3,4.3,0,0,1,1.33-1.6c4.89-4.88,9.82-9.73,14.69-14.64a2.26,2.26,0,0,1,2.74-.56c2.24.67,2.52,1.92,2.49,4-.14,10.79-.13,21.59-.18,32.39q0,11.1-.09,22.19c0,.63.29,1.53-.91,1.45a65.75,65.75,0,0,1-20-4.14q0-13.81,0-27.61C114.4,174.86,114.36,171,114.33,167.22Z"/><path class="cls-1" d="M34.8,117.67A53.48,53.48,0,0,1,37,108.36Q50.81,65,91.18,43.92c1-.53,2-1.79,3.42-.34C96.23,45.29,96.81,47.24,96,49a8.76,8.76,0,0,1-3.49,3.52c-2.34,1.46-4.77,2.77-7,4.31q-35.81,24.11-43.3,66.62c-.49,2.78-.8,3-3.3,1.49A8.28,8.28,0,0,1,34.8,117.67Z"/><path class="cls-1" d="M242.11,117.9a8.38,8.38,0,0,1-5.22,7.95c-1.25.5-1.73.38-2-1.13-4-24.82-15.68-45.26-35-61.36a91.06,91.06,0,0,0-14.17-9.66A15.25,15.25,0,0,1,182.15,51c-2.15-2.23-2.1-4.78.06-7a1.77,1.77,0,0,1,2.4-.37,104.9,104.9,0,0,1,21.54,14,106.19,106.19,0,0,1,35.5,57.77C241.88,116.39,242,117.35,242.11,117.9Z"/><path class="cls-5" d="M162.57,110.37q0-10-.06-20c0-6.62,0-13.24,0-19.86a62.16,62.16,0,0,1,16.33,8.12,67.11,67.11,0,0,1,7.77,6.08c.55.49,1,.9.25,1.68q-12,11.89-24.07,23.82A1.7,1.7,0,0,1,162.57,110.37Z"/><path class="cls-2" d="M114.37,70.46q0,19.68,0,39.34a12.33,12.33,0,0,1-1.14-.88q-11.25-11.3-22.52-22.57c-.79-.79-.88-1.26,0-2a70.21,70.21,0,0,1,22.61-13.54C113.63,70.63,114,70.56,114.37,70.46Z"/><path class="cls-2" d="M114.33,167.22c0,3.82.07,7.64.07,11.46q0,13.8,0,27.61a54.39,54.39,0,0,1-13.18-6.08,64.2,64.2,0,0,1-10.39-7.67c-.93-.84-1-1.35,0-2.29,7.54-7.4,15-14.87,22.52-22.31A7.89,7.89,0,0,1,114.33,167.22Z"/><path class="cls-5" d="M162.55,206.26q0-17.74,0-35.48c0-1.18.05-2.37.07-3.56a105.17,105.17,0,0,1,7.64,7.44c5.28,5.23,10.48,10.56,15.76,15.79,1,1,1,1.44-.07,2.33a73,73,0,0,1-22,13.11A13.09,13.09,0,0,1,162.55,206.26Z"/><path class="cls-6" d="M89.5,205.76a3.76,3.76,0,0,1-1.1,2.7Q77.3,221.23,66.2,234c-.67.77-1.1.82-1.78.09-1-1-2.75-1.66-2.89-2.88s1.52-2.06,2.37-3.09A39.77,39.77,0,0,1,66.67,225c.8-.79.59-1.24-.18-1.89-2.06-1.75-2-1.78-3.83.29-1.28,1.47-2.59,2.91-3.82,4.41-.54.65-.91.64-1.57.11-3.51-2.81-3.53-2.79-.55-6.2Q66.61,210.33,76.5,199c2.27-2.61,4.31-2.74,6.94-.46,1.51,1.3,3,2.62,4.52,3.93A4,4,0,0,1,89.5,205.76ZM71,219.6a2,2,0,0,0,1.09-.87q4.74-5.43,9.47-10.88c1.8-2.07,1.76-2-.21-3.84-.88-.81-1.32-.63-2,.2-3.32,3.9-6.72,7.75-10.07,11.64-.35.4-1.21.85-.78,1.4A19.21,19.21,0,0,0,71,219.6Z"/><path class="cls-6" d="M161.6,220.16a3.84,3.84,0,0,1,2.49-3.65c2.31-.91,4.64-1.79,7-2.58a3.81,3.81,0,0,1,5,2.38c4,10.71,8,21.45,11.95,32.17.27.72.12,1-.6,1.3-4.2,1.83-4.19,1.86-5.76-2.38-.51-1.36-1-2.72-1.51-4.1-.24-.71-.56-.89-1.31-.66-2.94.88-2.95.85-1.89,3.73.67,1.82,1.31,3.66,2,5.46.29.73.09,1-.6,1.3-4.22,1.84-4.21,1.86-5.78-2.39q-5.19-14-10.4-28.08A6.58,6.58,0,0,1,161.6,220.16Zm9.31-.25a10.91,10.91,0,0,1-1.61.58c-1.54.29-1.61,1-1.09,2.36,1.7,4.33,3.26,8.7,4.87,13.06,1,2.73,1,2.69,3.76,1.57.8-.32.94-.64.64-1.43-1.92-5.1-3.79-10.23-5.69-15.34C171.65,220.33,171.6,219.81,170.91,219.91Z"/><path class="cls-6" d="M131.41,240c0-6,.06-12,0-18,0-1.5.46-1.81,1.84-1.76,2.75.11,5.51,0,8.26,0,3.45,0,5.11,1.64,5.11,5q0,14.74,0,29.5c0,3-1.67,4.74-4.69,4.77s-6.05,0-9.08,0c-1.13,0-1.45-.33-1.45-1.46.06-6,0-12.11,0-18.16Zm5.56-.12h-.06v11.33c0,3.12,0,3.08,3.13,2.84.8-.07,1-.39,1-1.1q0-13,0-26.06c0-.74-.22-1.12-1-1.06a7,7,0,0,1-1.45,0c-1.25-.17-1.68.27-1.66,1.59C137,231.55,137,235.71,137,239.86Z"/><path class="cls-6" d="M91,246.16a5.76,5.76,0,0,1,.48-2.27c3.74-10,7.51-20,11.19-30,.46-1.25,1-1.32,2.07-.88,3.69,1.44,3.72,1.4,2.36,5.05-3.28,8.8-6.54,17.6-9.87,26.37-.47,1.24-.43,1.92,1,2.18a2.32,2.32,0,0,1,.76.28c1.1.62,1.64.34,2.08-.9,2-5.68,4.2-11.33,6.31-17,1.47-3.95,3-7.87,4.4-11.84.38-1.09.81-1.23,1.86-.84,3.89,1.46,3.91,1.42,2.48,5.23q-5.14,13.8-10.31,27.59c-1.34,3.57-3.92,4.76-7.45,3.47-1.37-.5-2.74-1-4.08-1.55A5,5,0,0,1,91,246.16Z"/><path class="cls-6" d="M196.59,206.48c-.87-1.85-1.7-3.73-2.65-5.54-.45-.87-.46-1.43.38-2,1.13-.82,2.16-1.76,3.35-2.75,2.32,4.73,4.7,9.27,6.8,13.94a15.41,15.41,0,0,0,5.76,6.92c4,2.6,7.72,5.53,11.59,8.28.87.61,1.21.93.16,1.8-3.25,2.67-3.21,2.71-6.65.25-1-.69-2-1.32-2.94-2-.07-.07-.18-.22-.2-.2-.21.11-.13.25,0,.39,1,2,1.88,4,2.88,6a1.18,1.18,0,0,1-.3,1.66c-3.39,3.15-3.39,3.18-5.42-1q-3.24-6.51-6.39-13.07a5.31,5.31,0,0,0-1.74-2c-4.69-3.35-9.35-6.77-14.05-10.1-1-.69-1.24-1-.15-1.94,3.16-2.59,3.11-2.64,6.37-.31,1,.69,1.94,1.36,2.92,2,.12.12.27.35.45.16S196.77,206.6,196.59,206.48Z"/><path class="cls-6" d="M138.5,130.92a7.44,7.44,0,1,1-7.51,7.35A7.41,7.41,0,0,1,138.5,130.92Z"/><path class="cls-6" d="M114.52,158.45q0-8.52-.1-17c3.34,0,6.68,0,10-.09.7,0,1.12.19,1.29.9a3.86,3.86,0,0,0,.56,1.5c1.31,1.61.6,2.65-.69,3.87C121.85,151.14,118.21,154.82,114.52,158.45Z"/><path class="cls-6" d="M162.53,141.45q0,8.48-.07,16.94-6.12-6.09-12.25-12.17A.93.93,0,0,1,150,145a27.74,27.74,0,0,0,1.27-3,.88.88,0,0,1,1-.67C155.65,141.39,159.09,141.15,162.53,141.45Z"/><path class="cls-6" d="M114.5,135.45c-.18-5.6-.12-11.19,0-16.79q6.06,6,12.12,12.06c.4.39.56.76.19,1.25a.41.41,0,0,0-.07.15c-.57,3-2.4,3.75-5.27,3.39A57.32,57.32,0,0,0,114.5,135.45Z"/><path class="cls-6" d="M162.42,119q0,8.14.08,16.29c-3.38.28-6.78,0-10.16.13a1,1,0,0,1-1.12-.87.76.76,0,0,0-.1-.31c-1.73-2.32-.53-3.81,1.25-5.44C155.82,125.68,159.08,122.31,162.42,119Z"/><path class="cls-4" d="M141.47,38.29c-1.93-.19-4.18-.44-6.43-.62-.83-.07-1.12-.33-1-1.22a54.43,54.43,0,0,0,.48-13.85c-.14-1.39.47-1.56,1.57-1.3a5.84,5.84,0,0,1,4.06,3.42c1.85,4.07,2.25,8.52,3.09,12.84C143.42,38.36,143.27,38.39,141.47,38.29Z"/><path class="cls-4" d="M71,219.6a19.21,19.21,0,0,1-2.53-2.35c-.43-.55.43-1,.78-1.4,3.35-3.89,6.75-7.74,10.07-11.64.71-.83,1.15-1,2-.2,2,1.82,2,1.77.21,3.84q-4.73,5.44-9.47,10.88A2,2,0,0,1,71,219.6Z"/><path class="cls-4" d="M170.91,219.91c.69-.1.74.42.88.8,1.9,5.11,3.77,10.24,5.69,15.34.3.79.16,1.11-.64,1.43-2.76,1.12-2.75,1.16-3.76-1.57-1.61-4.36-3.17-8.73-4.87-13.06-.52-1.33-.45-2.07,1.09-2.36A10.91,10.91,0,0,0,170.91,219.91Z"/><path class="cls-4" d="M137,239.86c0-4.15.06-8.31,0-12.46,0-1.32.41-1.76,1.66-1.59a7,7,0,0,0,1.45,0c.79-.06,1,.32,1,1.06q0,13,0,26.06c0,.71-.18,1-1,1.1-3.14.24-3.13.28-3.13-2.84V239.86Z"/><path class="cls-4" d="M196.59,206.48c.18.12.29.32.14.48s-.33,0-.45-.16Z"/><path class="cls-4" d="M212.16,225.55c-.1-.14-.18-.28,0-.39,0,0,.13.13.2.2A1.06,1.06,0,0,1,212.16,225.55Z"/></g></g></svg>