<svg xmlns="http://www.w3.org/2000/svg" viewBox="0 0 263.28 282.32"><defs><style>.cls-1{fill:#c48038;}.cls-2{fill:#fff;}.cls-3{fill:#f0da46;}</style></defs><g id="Capa_2" data-name="Capa 2"><g id="EFFECTS"><path class="cls-1" d="M131.64,0c72.51,0,131.64,45.16,131.64,100.54,0,51.14-50.43,93.57-115.26,99.76v19.43H196.4v32.76H148v29.83H115.26V252.49H66.88V219.73h48.38V200.3C50.44,194.11,0,151.68,0,100.54,0,45.16,59.14,0,131.64,0Zm0,17.07C68.52,17.07,17,54.57,17,100.56s51.48,83.49,114.6,83.49,114.6-37.51,114.6-83.49S194.76,17.07,131.64,17.07Z"/><path class="cls-2" d="M83.05,238.21l3.1.48a8.12,8.12,0,0,1-2.72,3.93A6.94,6.94,0,0,1,79.17,244a5.54,5.54,0,0,1-4.29-1.68,7,7,0,0,1-1.54-4.89,10.84,10.84,0,0,1,1-4.75,7.64,7.64,0,0,1,2.88-3.3,7.42,7.42,0,0,1,4-1.15,5.75,5.75,0,0,1,3.93,1.33,5.44,5.44,0,0,1,1.76,3.61l-3,.29a3.23,3.23,0,0,0-.94-1.93,2.77,2.77,0,0,0-1.86-.59,4.06,4.06,0,0,0-2.39.78A5.32,5.32,0,0,0,77,234.16a9.17,9.17,0,0,0-.66,3.36,4.14,4.14,0,0,0,.86,2.82,2.7,2.7,0,0,0,2.15,1,3.45,3.45,0,0,0,2.19-.79,4.65,4.65,0,0,0,1.48-2.34Zm5.23-.48a10.87,10.87,0,0,1,.4-2.85,10.24,10.24,0,0,1,1.58-3.49,7.65,7.65,0,0,1,6.39-3.19,6,6,0,0,1,4.48,1.76,6.39,6.39,0,0,1,1.71,4.66,10.47,10.47,0,0,1-1.11,4.67,8.43,8.43,0,0,1-3,3.47A7.88,7.88,0,0,1,94.39,244a6.1,6.1,0,0,1-3.51-1,5.36,5.36,0,0,1-2-2.4,7.57,7.57,0,0,1-.59-2.88Zm3-.07a3.79,3.79,0,0,0,.94,2.63,3.12,3.12,0,0,0,2.47,1.06,4,4,0,0,0,2.39-.83A6.09,6.09,0,0,0,99,238a8.17,8.17,0,0,0,.75-3.31,4,4,0,0,0-1-2.82,3.13,3.13,0,0,0-2.42-1A4.27,4.27,0,0,0,92.73,233a8.34,8.34,0,0,0-1.41,4.69Zm12.23,6,3.13-15.24h5.12a17,17,0,0,1,2.32.11,4.8,4.8,0,0,1,1.87.62,3,3,0,0,1,1.16,1.25,3.66,3.66,0,0,1,.4,1.72,3.58,3.58,0,0,1-.69,2.2,4.24,4.24,0,0,1-2.14,1.41,3.46,3.46,0,0,1,1.8,1.15,2.94,2.94,0,0,1,.64,1.87,4.85,4.85,0,0,1-.76,2.6,4.25,4.25,0,0,1-2.11,1.77,10.2,10.2,0,0,1-3.69.54Zm4.94-9.08h2.34a8.1,8.1,0,0,0,2.28-.23,1.9,1.9,0,0,0,1-.75,1.92,1.92,0,0,0,.35-1.11,1.4,1.4,0,0,0-.33-1,1.68,1.68,0,0,0-.93-.5,12.58,12.58,0,0,0-1.62-.06h-2.39l-.74,3.61Zm-1.36,6.63h3a8,8,0,0,0,2.51-.25,2.17,2.17,0,0,0,1.4-2,1.6,1.6,0,0,0-.55-1.25,2.74,2.74,0,0,0-1.84-.49H108Zm14.68,2.45h-3.09l3.14-15.24h6.64a7.83,7.83,0,0,1,2.67.36,3,3,0,0,1,1.54,1.32,4.36,4.36,0,0,1,.59,2.31,4.56,4.56,0,0,1-1.15,3.21,5.42,5.42,0,0,1-3.45,1.57,6.26,6.26,0,0,1,1.11,1.42,38.78,38.78,0,0,1,2.3,5H128.8q-.41-1.29-1.56-4a4.8,4.8,0,0,0-1.35-2,2.86,2.86,0,0,0-1.53-.3H123.1l-1.29,6.31Zm1.76-8.59h1.64a11,11,0,0,0,3.29-.31,2.65,2.65,0,0,0,1.27-.94,2.34,2.34,0,0,0,.46-1.35,1.37,1.37,0,0,0-.67-1.25,3.89,3.89,0,0,0-1.76-.25h-3.39l-.84,4.1Zm10.19,8.59,3.12-15.24H148l-.53,2.55h-8l-.71,3.46h7.74L146,237h-7.74l-.94,4.14H146l-.54,2.54Zm14,0,3.14-15.24H154l-2.61,12.7H159l-.52,2.54Zm13.66-6a10.87,10.87,0,0,1,.4-2.85,10.24,10.24,0,0,1,1.58-3.49,7.93,7.93,0,0,1,2.69-2.33,7.83,7.83,0,0,1,3.7-.86,6,6,0,0,1,4.48,1.76,6.39,6.39,0,0,1,1.71,4.66,10.47,10.47,0,0,1-1.11,4.67,8.43,8.43,0,0,1-3,3.47,7.86,7.86,0,0,1-4.32,1.21,6.14,6.14,0,0,1-3.51-1,5.43,5.43,0,0,1-2-2.4A7.57,7.57,0,0,1,161.44,237.73Zm3-.07a3.79,3.79,0,0,0,.94,2.63,3.12,3.12,0,0,0,2.47,1.06,4,4,0,0,0,2.39-.83,6.09,6.09,0,0,0,1.9-2.54,8.17,8.17,0,0,0,.75-3.31,4,4,0,0,0-1-2.82,3.13,3.13,0,0,0-2.42-1,4.27,4.27,0,0,0-3.67,2.15,8.34,8.34,0,0,0-1.41,4.69Zm22.05,2.67H180.6l-1.8,3.37h-3.16l8.46-15.24h3.42L190,243.7H187Zm-.38-2.53-.87-6.13-3.61,6.13Z"/><path class="cls-3" d="M121,182.23A82.38,82.38,0,1,0,50,89.93,82.54,82.54,0,0,0,121,182.23Z"/><path d="M131.71,184.63A84.13,84.13,0,0,1,48.26,89.71,83,83,0,0,1,59,58.16a84.12,84.12,0,0,1,153.62,20,83.84,83.84,0,0,1-8.41,64.81,84.65,84.65,0,0,1-50.18,38.64A82.83,82.83,0,0,1,131.71,184.63Zm-.17-164.78A80.62,80.62,0,0,0,67.77,149.72a80.1,80.1,0,0,0,53.48,30.82h0A80.68,80.68,0,0,0,142,20.53,82.35,82.35,0,0,0,131.54,19.85Z"/><path d="M154.18,170.75H109.11v-3.41h45.07Zm38.45-27.49-3.29-.9,13.11-47.63,3.29.9Zm-122,0L57.55,95.63l3.28-.9,13.11,47.63Zm89.23-1.39L146.69,121l2.88-1.82,13.2,20.88Zm-56.49,0-2.88-1.82,13.19-20.88,2.88,1.82Zm2.54-50.94L76.32,85.25,77,81.9l29.62,5.68Zm51.41,0-.65-3.35,30.88-6,.65,3.34Zm-24-21.25h-3.41V39h3.41ZM75.16,56.47,73.1,53.75l32.27-24.47L107.43,32Zm112.73,0L155.85,32l2.07-2.71,32,24.45Z"/><path d="M107,22l-1.83,9.67,26.52,9.8,26.52-9.8-1.83-9.7A82.18,82.18,0,0,0,107,22Zm54.57,155.3a83.06,83.06,0,0,0,38-30.06l-6.81-10-32,2.72L152.58,169l8.94,8.27Zm52-85.44A82.34,82.34,0,0,0,198.83,53l-11.66,1L184.55,84.3l18.5,16.24,10.51-8.71ZM64.42,53A81.76,81.76,0,0,0,50,89.93c-.09.63-.16,1.26-.23,1.9l10.51,8.71L79.05,84,76.11,54,64.42,53Zm-.6,94.2a82.54,82.54,0,0,0,37.92,30.12l9-8.3-8.06-29.11-32-2.72-6.79,10Zm49.89-24.48L104,88.12l27.61-18.63,27.61,18.63-9.68,34.58Z"/><path d="M102.12,179.27l-1-.38a84,84,0,0,1-21.8-12.58,84.87,84.87,0,0,1-16.91-18.17l-.66-1,8-11.79L104,138.3l8.65,31.25ZM65.89,147.16a80.44,80.44,0,0,0,35.48,28.16l7.41-6.86-7.46-27L71.46,139Zm95.25,32.09-10.48-9.7,8.65-31.25,34.22-2.91,8,11.83-.67,1a84.86,84.86,0,0,1-38.75,30.68Zm-6.64-10.79,7.38,6.83a80.87,80.87,0,0,0,35.54-28.1L191.83,139,162,141.49Zm-3.64-44.06H112.42l-10.36-37,29.58-20,29.58,20ZM115,121h33.28l9-32.15L131.64,71.54,106,88.85ZM60.26,102.78,47.93,92.55l.1-.9c.08-.76.15-1.37.23-1.94A83.36,83.36,0,0,1,63,52l.56-.8,14.08,1.2,3.17,32.29ZM51.52,91.1l8.68,7.2,17.07-15L74.56,55.56l-9.31-.8A80.46,80.46,0,0,0,51.64,90.15C51.6,90.45,51.56,90.76,51.52,91.1ZM203,102.78,182.77,85,185.6,52.4l14.06-1.19.56.79a84.25,84.25,0,0,1,15,39.65l.1.9Zm-16.7-19.19L203.08,98.3l8.68-7.2A80.82,80.82,0,0,0,198,54.77l-9.24.78ZM131.64,43.25,103.18,32.74l2.28-12.08,1-.31a83.12,83.12,0,0,1,36-3.2,84,84,0,0,1,14.37,3.17l1,.3,2.29,12.12ZM107.06,30.54l24.58,9.08,24.58-9.08-1.37-7.27A81.26,81.26,0,0,0,142,20.53a79.83,79.83,0,0,0-33.6,2.77Z"/></g></g></svg>