<svg xmlns="http://www.w3.org/2000/svg" viewBox="0 0 247.41 319.33"><defs><style>.cls-1,.cls-2,.cls-3,.cls-4{fill-rule:evenodd;}.cls-2{fill:#c48038;}.cls-3{fill:#faf148;}.cls-4{fill:#fff;}</style></defs><g id="Capa_2" data-name="Capa 2"><g id="EFFECTS"><path class="cls-1" d="M123.66,50.81c34.05,0,65,10.64,87.37,27.74s36.38,40.8,36.38,66.87c0,23.93-11.75,45.83-31,62.52S170,236.22,139.58,239.25v19H208.9V299H139.58v20.34H107.83V299H38.47V258.28h69.36v-19c-30.41-3-57.42-14.53-76.81-31.31S0,169.35,0,145.42C0,119.35,13.91,95.7,36.38,78.55s53.28-27.74,87.28-27.74Zm0,22c-28,0-53.48,8.19-71.94,21.36s-29.79,31.35-29.79,51.28,11.38,38.14,29.79,51.31,43.91,21.41,71.94,21.41,53.57-8.19,72-21.41,29.8-31.34,29.8-51.31-11.42-38.1-29.8-51.28-44-21.36-72-21.36Z"/><path class="cls-2" d="M210.33,79.45c22.18,16.94,35.93,40.27,35.93,66,0,23.57-11.58,45.21-30.65,61.66-19.31,16.74-46.28,28.2-76.68,31.06l-.5.08v21.2h69.32v38.43H138.43v20.33H109V297.89H39.61V259.38H109V238.23l-.53-.09c-30.36-2.86-57.37-14.32-76.69-31.06C12.73,190.63,1.14,169,1.14,145.42c0-25.7,13.75-49,35.89-66S89.94,52,123.66,52s64.45,10.52,86.67,27.5ZM51.07,93.24c-18.7,13.38-30.28,31.84-30.28,52.18s11.58,38.87,30.28,52.21,44.32,21.61,72.59,21.61,54-8.27,72.68-21.61,30.28-31.84,30.28-52.21S215,106.62,196.34,93.24,152,71.64,123.66,71.64s-54,8.26-72.59,21.6Z"/><path class="cls-1" d="M178.7,106.79s.08.12.12.16a105.48,105.48,0,0,0,6.1-13.87,40.94,40.94,0,0,0,2.58-11.26c.33-4.17-.21-8.18-.58-15.1l-.12-2-1.84.9-3.64,1.72a92.46,92.46,0,0,0-9.45-25.5,70.63,70.63,0,0,0-21.73-24A95.82,95.82,0,0,0,114.21,2.64C102.26.19,90.31-.18,78.85.06H77.5V11.52c0,4.17-2.33,8.47-5.08,12.83A44,44,0,0,0,69.57,19l-.33-.57L52.87,16.8a9.11,9.11,0,0,0-1.47-.12c-4.83,0-9.17,3.89-12.24,10.15-2.91,6-4.7,14.2-4.7,23.2s1.8,17.27,4.7,23.25c3.07,6.26,7.41,10.15,12.24,10.15a7.68,7.68,0,0,0,1.43-.13l1-.1,0,3.91c0,5.77-1.06,10.68-3.31,14.44A17.3,17.3,0,0,1,41,109.17a11.52,11.52,0,0,0-4,2.12,4.9,4.9,0,0,0-1.8,3.85v7.49A2.84,2.84,0,0,0,36.71,125a6.84,6.84,0,0,0,2.86.82h0c5.63.41,11.76.79,18.31,1.15a69.4,69.4,0,0,0,10.83,64.53,69.44,69.44,0,1,0,110-84.75Zm-1.33-1.67-.3-.36C177.17,104.88,177.28,105,177.37,105.12Zm-1.59-1.88-.07-.09Z"/><path class="cls-3" d="M153,80.76q12.64-5.87,25.17-12l.66-.31a91,91,0,0,0-9.29-25.39,68,68,0,0,0-20.92-23A92.75,92.75,0,0,0,113.72,5.34C102.43,3,91.17,2.6,80.25,2.77v8.75c0,5.42-3.18,10.65-6.54,15.88.34.92.67,1.86,1,2.82h4.71l.41.66c.28.49.53,1,.82,1.47h3.72c1.59,0,5.85,2.66,8.84,6.38,2,2.54,3.64,5.57,3.64,8.72v9a11.7,11.7,0,0,1-1.43,6.14A11.08,11.08,0,0,1,92.2,66s-.25.2-.54.41a9.3,9.3,0,0,0-3.6,4L82.25,84.28a13.58,13.58,0,0,1-3.31,5,8.38,8.38,0,0,1-5.65,2H61.59V82.44l-5,.49V87.1c0,6.26-1.14,11.62-3.64,15.84a19.94,19.94,0,0,1-11.09,8.8,8.67,8.67,0,0,0-3,1.59,2.29,2.29,0,0,0-.9,1.8v7.49s.08,0,.21.08a3.29,3.29,0,0,0,1.55.41h0c9.09.65,19.31,1.23,30.4,1.76s23,1,35.44,1.43l47.08-29.64a9.12,9.12,0,0,1-3.33-1.5,7.45,7.45,0,0,1-1-.91c-10.13,5.81-17.73,10.21-23.78,14a98.81,98.81,0,0,0-15.38,11.3,1.64,1.64,0,0,1-1.16.62,1.71,1.71,0,0,1-1.17-.67,1.8,1.8,0,0,1-.61-1.19v0a1.6,1.6,0,0,1,.66-1.09,101.83,101.83,0,0,1,15.88-11.74c6.08-3.83,13.67-8.21,23.79-14a7,7,0,0,1-.36-2.68c.21-2.9,2.22-5.93,6.8-8Z"/><path class="cls-1" d="M46,114.81a154.43,154.43,0,0,0,25.46,3.43c8.71.5,17.67.41,27.17.17.69,0,1.35,0,1.39,1.31s-.62,1.39-1.31,1.39c-9.58.29-18.62.37-27.42-.12a158.34,158.34,0,0,1-25.9-3.52c-.66-.16-1.31-.33-1-1.64s1-1.19,1.63-1Z"/><path class="cls-3" d="M159.92,93.12q4.92-2.24,9.82-4.5c6.51-3,11.37-5.2,15.22-7.08l-.65-12.6c-1.39.61-3.07,1.47-5,2.37-6.42,3.07-15.14,7.24-25.2,11.91C150.59,84.85,149,87,148.91,89a3.89,3.89,0,0,0,.45,2.16A5.12,5.12,0,0,0,150.92,93c2,1.47,5.27,1.88,9,.16Zm17,11.48a101.27,101.27,0,0,0,5.39-12.42,47.9,47.9,0,0,0,2-7.29c-3.48,1.64-7.86,3.64-13.47,6.22-1.59.74-3.31,1.52-5.47,2.5a70.21,70.21,0,0,1,11.54,11ZM51.4,19.42c-3.73,0-7.16,3.28-9.78,8.64-2.75,5.6-4.42,13.38-4.42,22s1.67,16.41,4.42,22c2.61,5.32,6.05,8.63,9.78,8.63s7.2-3.31,9.78-8.63c2.74-5.61,4.46-13.38,4.46-22s-1.72-16.37-4.46-22c-2.58-5.37-6.06-8.64-9.78-8.64Z"/><path class="cls-3" d="M67.6,21l-8.55-.86a24.62,24.62,0,0,1,5,7.65c2.66,5.85,4.3,13.71,4.3,22.22a55.57,55.57,0,0,1-4.3,22.34A24.72,24.72,0,0,1,59,79.94l8.63-.86a48.57,48.57,0,0,0,5.28-12.89,65.08,65.08,0,0,0,2-16.12,65.4,65.4,0,0,0-2-16.16A47.85,47.85,0,0,0,67.6,21Zm9.45,38.05a41.33,41.33,0,0,0,2.83-7.85,25.24,25.24,0,0,0-2-18.25H75.46a.54.54,0,0,1,.08.28,66.68,66.68,0,0,1,2.09,16.82,71.38,71.38,0,0,1-.58,9Z"/><path class="cls-3" d="M64.33,88.54h9a5.55,5.55,0,0,0,3.84-1.35,10.94,10.94,0,0,0,2.58-4l5.81-13.88A12.15,12.15,0,0,1,90,64.19a4.26,4.26,0,0,0,.54-.37,7.81,7.81,0,0,0,3.52-7.32v-9c0-2.41-1.31-4.87-3-7-2.54-3.11-5.69-5.37-6.71-5.37H81.8a28.78,28.78,0,0,1,.74,16.74,50.06,50.06,0,0,1-7.12,15.63A50.6,50.6,0,0,1,69.6,81.09l-.36.57-.66,0-4.25.45v6.39Z"/><path class="cls-1" d="M50.66,22.82C57.08,22.82,62.32,35,62.32,50S57.08,77.08,50.66,77.08,39,64.88,39,50s5.23-27.13,11.66-27.13Z"/><path class="cls-3" d="M50.66,25.56c-4.91,0-8.92,11-8.92,24.39s4,24.39,8.92,24.39,8.92-11,8.92-24.39-4-24.39-8.92-24.39Z"/><path class="cls-4" d="M174.45,177.54l5.48,6.22a65.74,65.74,0,0,0,9.61-39.37l-6.26,2.17-8.83,31ZM64,146.56l-6.18-2.13a66,66,0,0,0,9.62,39.21l5.36-6.1-8.8-31Zm37.24-6-16-5.2-17.68,11,8.51,29.91,26,2.79,7.57-10.89-8.39-27.62ZM137.45,168l7.74,11.09,26-2.79,8.51-29.91-17.63-11-15.92,5.16L137.45,168Zm.12,35.92,5-22.5-8-11.42h-22l-8,11.42,5.08,22.5Zm-22.42,10.68a65.79,65.79,0,0,0,26.52-1.92l-3.73-5.28H109.3l-3.68,5.24A62,62,0,0,0,115.15,214.61Zm-9.29-85.52-20.67-.81,1,3.8,17.55,5.68L122,127v-7.75l-15.31,9.63-.78.25ZM125.42,127l18.21,10.76,17.48-5.64,5.15-20.59-14.07-11.31L125.42,117V127ZM157.7,96.72l-2.4,1.51,13.5,10.85,6.14-1.47a66.52,66.52,0,0,0-13.15-12.32l-.72.32a15.48,15.48,0,0,1-3.37,1.11Z"/><path class="cls-1" d="M182.47,289V268.51h3.88v16.9h8.31V289Zm-37.36-6.71,3.76-.41a5.21,5.21,0,0,0,1.39,3,4.12,4.12,0,0,0,2.83.95,4,4,0,0,0,2.78-.86,2.59,2.59,0,0,0,1-2,2.21,2.21,0,0,0-.41-1.27,3.33,3.33,0,0,0-1.39-.89c-.45-.17-1.51-.46-3.11-.91a9.87,9.87,0,0,1-4.38-2,5.58,5.58,0,0,1-1.76-4.14,5.71,5.71,0,0,1,.82-2.94,5.52,5.52,0,0,1,2.42-2.09,8.7,8.7,0,0,1,3.76-.73,7.68,7.68,0,0,1,5.44,1.71,6.28,6.28,0,0,1,1.93,4.54l-3.89.21a3.7,3.7,0,0,0-1.06-2.29,3.55,3.55,0,0,0-2.46-.7,4.18,4.18,0,0,0-2.62.74,1.51,1.51,0,0,0-.61,1.27,1.57,1.57,0,0,0,.57,1.26,10,10,0,0,0,3.56,1.36,17.32,17.32,0,0,1,4.17,1.51,5.48,5.48,0,0,1,2.13,2.09,6.67,6.67,0,0,1,.74,3.27,6.31,6.31,0,0,1-.9,3.31,5.73,5.73,0,0,1-2.58,2.34,10.61,10.61,0,0,1-4.17.74,7.13,7.13,0,0,1-7.94-7.08ZM129.56,289V268.34h13.7v3.48H133.4v4.59h9.17v3.47H133.4v5.61h10.23V289ZM65.68,281.4l3.76,1.26a9.16,9.16,0,0,1-2.86,5,8.54,8.54,0,0,1-11.38-1.19,11.3,11.3,0,0,1-2.45-7.69c0-3.4.82-6.1,2.45-8A8.34,8.34,0,0,1,61.71,268a7.77,7.77,0,0,1,5.73,2.25,8.84,8.84,0,0,1,2,3.81l-3.85,1a4.42,4.42,0,0,0-1.39-2.54,4,4,0,0,0-2.66-.94,4.18,4.18,0,0,0-3.43,1.68c-.9,1.06-1.35,2.86-1.35,5.32,0,2.62.45,4.46,1.3,5.56a4.2,4.2,0,0,0,3.4,1.68,3.72,3.72,0,0,0,2.66-1.06,5.73,5.73,0,0,0,1.6-3.31Zm115,7.57h-4.22l-1.68-4.71h-7.65l-1.6,4.71h-4.09l7.45-20.63H173Zm-7.13-8.14-2.66-7.66-2.57,7.66ZM110.81,289V268.34H119a13.26,13.26,0,0,1,4.46.57,4.35,4.35,0,0,1,2.21,2,6.09,6.09,0,0,1,.86,3.23,5.75,5.75,0,0,1-1.27,3.85,5.88,5.88,0,0,1-3.81,1.88,8.21,8.21,0,0,1,2.09,1.76,26.5,26.5,0,0,1,2.21,3.36l2.34,4h-4.63l-2.82-4.5a27,27,0,0,0-2-3,2.8,2.8,0,0,0-1.15-.86,5.71,5.71,0,0,0-2-.21h-.78V289Zm3.85-11.91h2.86a13.54,13.54,0,0,0,3.48-.25,2.08,2.08,0,0,0,1.11-.86,3,3,0,0,0,.37-1.55,2.68,2.68,0,0,0-.49-1.68,2.24,2.24,0,0,0-1.48-.82c-.32,0-1.27-.08-2.82-.08h-3Zm-22.59-8.72h7.69a21.52,21.52,0,0,1,3.4.21,4.09,4.09,0,0,1,2,.86,4.25,4.25,0,0,1,1.48,1.72,4.67,4.67,0,0,1,.61,2.41,5,5,0,0,1-.74,2.66,4.55,4.55,0,0,1-2,1.8,5.14,5.14,0,0,1,2.7,1.88,5.25,5.25,0,0,1,.94,3.11,6.45,6.45,0,0,1-.61,2.74,5.38,5.38,0,0,1-1.68,2.13,5.16,5.16,0,0,1-2.58,1c-.65,0-2.21.13-4.66.13H92.07V268.34ZM96,280v5.52h3.56a16.9,16.9,0,0,0,2.66-.12,2.42,2.42,0,0,0,1.43-.82,2.64,2.64,0,0,0,.53-1.76,2.67,2.67,0,0,0-.4-1.55,2.49,2.49,0,0,0-1.23-1,14.37,14.37,0,0,0-3.44-.28Zm0-8.19v4.75H98.5c1.51,0,2.45,0,2.82,0a2.4,2.4,0,0,0,1.55-.74,2.34,2.34,0,0,0,.58-1.64,2.42,2.42,0,0,0-.5-1.55,2.06,2.06,0,0,0-1.47-.69,25.05,25.05,0,0,0-3.31-.09Zm-24.68,7a14.3,14.3,0,0,1,.86-5.28,9.3,9.3,0,0,1,1.8-2.82,7.44,7.44,0,0,1,2.46-1.89,10.25,10.25,0,0,1,4.13-.81,8.61,8.61,0,0,1,6.8,2.82c1.71,1.92,2.53,4.54,2.53,7.9s-.82,5.93-2.49,7.81a8.61,8.61,0,0,1-6.75,2.83,8.79,8.79,0,0,1-6.84-2.83C72.1,284.63,71.28,282.05,71.28,278.78Zm4-.12a8.14,8.14,0,0,0,1.52,5.28,4.89,4.89,0,0,0,7.61,0,8.45,8.45,0,0,0,1.51-5.41,8,8,0,0,0-1.47-5.27,4.66,4.66,0,0,0-3.85-1.76,4.74,4.74,0,0,0-3.84,1.8c-1,1.14-1.48,2.94-1.48,5.32Z"/></g></g></svg>