<svg xmlns="http://www.w3.org/2000/svg" viewBox="0 0 241.83 233.35"><defs><style>.cls-1{fill:#43669e;}.cls-1,.cls-2,.cls-3,.cls-4,.cls-6{fill-rule:evenodd;}.cls-3{fill:#ddb988;}.cls-4,.cls-5{fill:#fff;}.cls-6{fill:#b0382e;}</style></defs><g id="Capa_2" data-name="Capa 2"><g id="EFFECTS"><path class="cls-1" d="M218.18,14.92S167.37,28.53,118.29,0C69.21,28.53,18.4,14.92,18.4,14.92S-.89,58.37,17.24,117.19c23.13,75.06,101.05,116.16,101.05,116.16s77.92-41.1,101.05-116.16c18.13-58.82-1.16-102.27-1.16-102.27Z"/><path class="cls-2" d="M80.9,52.38s-2.65-6.73,1.18-8.2,3.54-11.7,19.46-7.31,22.1,1.75,29.77,7.9,13.85,15.8,12.38,24c0,0,3.24-.88,2.95,3.8s3.53,9.07,1.17,14.93c0,0,4.13-.59,13,21.94S182.3,146,182.3,146H77.37s4.71-8.78,20-13.46c0,0,3.78-6.7,1.77-10-1.35-2.18-14.32.5-22.7-.42-4.54-.5-6.51-1.33-6.19-7.1.12-2.14,1.73-2.8,1.81-7,.05-2.6-2.11-.41-2.1-5.87,0-.7,0-1.49.13-2.51,0,0,4.14-4.9,1.05-7.38,0,0-5.16.29-5.75-3.15s7.37-11.78,8.32-14.63,1.7-6.14,1.7-6.14.07-5.56,3.76-8.56c0,0-4.13-4.83,1.69-7.46Z"/><path class="cls-3" d="M79.72,60.86s-3.53,4.1-3.53,7-1.77,7.61-1.77,7.61-8,11.71-8,13.17,3,2.34,3.83,2.34a9.8,9.8,0,0,1,4.72.59c1.77.88,1.77-2.93,1.77-2.93s2.69,3.77,2.69,5.23a8.3,8.3,0,0,0-6.82-1.42s2.06,2-.3,6.72c0,0,3.25,0,8.26,3.52l.29,1.16s-6.78-1.75-9.72-1.75c0,0-.89,2.63,1.47,3.22,0,0,5.3.88,2.95,3.51,0,0-3.54,2.63-4.13,6.44s.3,5.85,6.78,5.85,14.44-.29,19.16-1.17,11.79-7.32,11.79-7.32-9.73,15.8-9.14,27.8a6.79,6.79,0,0,1-2.65-5.56s-11.5,3.51-17.39,10h75.16s-23.28-10.53-30.95-25.75l-.59,3.8s-5-5.55-5.89-15.5l-5-.88-4.13-6.73h5.31s.59-2.34-3.84-4.68c0,0,2.66-1.76-2.65-8.49,0,0,2.65-4.68-3.24-10.53S94.46,65.54,79.72,60.86Z"/><path class="cls-2" d="M91.81,72.27a12.36,12.36,0,0,0-7.37-5c-4.72-.88-6.48.58-6.48.58S75,74.61,82.67,78.42c0,0,.89-6.15,2.36-5.27a4.55,4.55,0,0,0,3,.59S87.39,69.93,91.81,72.27Zm8.84,19-9.73,10.83s4.43-5.56-.59-9.07C90.34,93.05,93.28,90.41,100.65,91.29Z"/><path class="cls-4" d="M115.39,87.78s3.54,3.22,5.6,14.63l.3-4.39,6.48,6.44L120.7,86.9S121.58,91.88,115.39,87.78Zm-35.67-29s20.64,8.49,34.49,15.51S133.08,86,141.33,94.22L139,86s4.42,2.34,6.78.87-1.18-16.68-1.18-16.68.3,4.39-9.14-.29-42.86-27-51.58-24.29c-4.71,1.47-.88,6.73-.88,6.73s-6.49,1.76-3.25,6.44Z"/><path class="cls-3" d="M82.67,186.24s27.27,23.56,36.11,24.43c0,0,28.15-16.09,34.63-24.72Z"/><path class="cls-5" d="M118.29,211.76l-.39-.2a192.57,192.57,0,0,1-34.75-23.81,181.2,181.2,0,0,1-27.93-29.52A136.07,136.07,0,0,1,34,117.14a174.11,174.11,0,0,1-6.87-33.46,151.28,151.28,0,0,1-.43-26c1.05-14.34,3.9-22.59,4-22.93L31,34l.74.14a136.11,136.11,0,0,0,28,1.34c15-.73,37.36-4.12,58.13-16.2l.44-.25.44.25c20.79,12.09,43.11,15.48,58.18,16.2a135.48,135.48,0,0,0,28-1.34l.74-.14.25.71c.12.34,3,8.59,4,22.93a151.42,151.42,0,0,1-.43,26,174.16,174.16,0,0,1-6.87,33.45,136.07,136.07,0,0,1-21.24,41.09,181.63,181.63,0,0,1-27.93,29.52,192.57,192.57,0,0,1-34.75,23.81ZM32.13,36a102.37,102.37,0,0,0-3.7,21.85c-.94,13-.46,33.81,7.23,58.74,9.8,31.81,31.83,55.49,48.59,69.76a194.33,194.33,0,0,0,34,23.41,194.33,194.33,0,0,0,34-23.41c16.75-14.27,38.79-37.95,48.59-69.76,7.69-24.93,8.17-45.7,7.23-58.74A101.41,101.41,0,0,0,204.44,36a141.67,141.67,0,0,1-27.61,1.24,144.64,144.64,0,0,1-28.1-4.06,118.44,118.44,0,0,1-30.44-12.12A118.65,118.65,0,0,1,87.84,33.21a144.42,144.42,0,0,1-28.09,4.06A141.86,141.86,0,0,1,32.13,36Z"/><path class="cls-6" d="M241,186.09V145.28H.88v40.81Z"/><path class="cls-5" d="M241.83,187H0V144.4H241.83ZM1.76,185.22H240.08V146.15H1.76Z"/><path class="cls-4" d="M28.82,159.37a5,5,0,0,0-5.12-4.71c-4.3,0-7.15,3.14-7.15,10.44s2.56,10.44,6.54,10.44a5.9,5.9,0,0,0,6-5.08l5.69,1.25c-.24,1.45-2.19,8.43-12.11,8.43-7.55,0-12.54-5.16-12.54-15s5.56-15,13.56-15c6,0,9.47,3.15,10.76,8.15l-5.64,1.16Zm8.23,5.73c0-9.88,5.57-15,13.57-15s13.56,5.16,13.56,15-5.56,15-13.56,15-13.57-5.16-13.57-15Zm20.71,0c0-7.3-2.84-10.44-7.14-10.44s-7.15,3.14-7.15,10.44,2.84,10.44,7.15,10.44S57.76,172.4,57.76,165.1ZM68,150.75h6.09v23.94H85.58v4.76H68ZM87,165.1c0-9.88,5.56-15,13.56-15s13.57,5.16,13.57,15-5.57,15-13.57,15S87,175,87,165.1Zm20.71,0c0-7.3-2.84-10.44-7.15-10.44s-7.15,3.14-7.15,10.44,2.85,10.44,7.15,10.44S107.67,172.4,107.67,165.1Zm39.11-5.73a5,5,0,0,0-5.12-4.71c-4.31,0-7.15,3.14-7.15,10.44s2.56,10.44,6.54,10.44a5.91,5.91,0,0,0,6-5.08l5.69,1.25c-.25,1.45-2.2,8.43-12.11,8.43-7.55,0-12.55-5.16-12.55-15s5.57-15,13.57-15c6,0,9.46,3.15,10.76,8.15l-5.64,1.16ZM155,165.1c0-9.88,5.56-15,13.57-15s13.56,5.16,13.56,15-5.56,15-13.56,15S155,175,155,165.1Zm20.71,0c0-7.3-2.84-10.44-7.14-10.44s-7.15,3.14-7.15,10.44,2.84,10.44,7.15,10.44S175.72,172.4,175.72,165.1ZM186,150.75h6.1v23.94h11.49v4.76H186Zm19,14.35c0-9.88,5.57-15,13.57-15s13.56,5.16,13.56,15-5.56,15-13.56,15S204.91,175,204.91,165.1Zm20.72,0c0-7.3-2.85-10.44-7.15-10.44s-7.15,3.14-7.15,10.44,2.84,10.44,7.15,10.44S225.63,172.4,225.63,165.1ZM123,167.27v-3.52H119.5v3.52ZM149,122a48.65,48.65,0,0,0,15.92,16.67S157.84,127.72,149,122Z"/></g></g></svg>