<svg xmlns="http://www.w3.org/2000/svg" viewBox="0 0 228.2 242.05"><defs><style>.cls-1{fill:#b90101;}.cls-2{fill:#fefdfd;}.cls-3{fill:#fffefe;}.cls-4{fill:#ba0303;}</style></defs><g id="Capa_2" data-name="Capa 2"><g id="EFFECTS"><path class="cls-1" d="M40.3,18.51h39c.58,0,.65-.11.68-.73,0-.25,0-.51,0-.76V11.71c0-.21,0-.43,0-.65,0-.75.08-.81.79-.83H98.36c1.44,0,1.34.1,1.34-1.36v-8c0-.81,0-.83.87-.85h26.55c1.47,0,1.36-.11,1.37,1.33,0,2.53,0,5.06,0,7.58,0,1.41-.1,1.32,1.27,1.32h18a.39.39,0,0,1,.42.4c0,.29,0,.58,0,.87v5.63c0,.29,0,.58,0,.87s.13.46.45.48.87,0,1.3,0h75.76c.57,0,1.24-.23,1.67.18s.21,1,.27,1.57c.14,1.21.22,2.44.28,3.67.24,4.76.33,9.52.2,14.29-.09,3.21-.21,6.42-.42,9.63-.25,3.63-.58,7.26-1,10.89q-1.32,12.06-3.8,23.94-2.52,12-6.19,23.77a250.54,250.54,0,0,1-13,33.13,245.46,245.46,0,0,1-15,26.85A247.41,247.41,0,0,1,173,188.3q-4.9,6.07-10.18,11.83-5.6,6.12-11.56,11.88-8,7.67-16.51,14.68-9.48,7.77-19.57,14.71c-1.24.86-.88.86-2.12,0q-9.72-6.71-18.89-14.17Q88.9,223,83.87,218.43c-4.19-3.78-8.28-7.65-12.21-11.69Q63,197.9,55.24,188.3a247.56,247.56,0,0,1-20.24-29,246.58,246.58,0,0,1-15.58-30.93q-4.29-10.25-7.65-20.83A252.12,252.12,0,0,1,5.33,83q-1.44-6.82-2.5-13.73c-.45-3-.82-5.93-1.18-8.91-.29-2.47-.54-5-.78-7.42-.13-1.3-.2-2.6-.28-3.89-.14-2.34-.3-4.69-.4-7S.05,37.47,0,35.2C0,31.77.11,28.34.22,24.91c.06-1.87.26-3.74.4-5.61a1.24,1.24,0,0,1,0-.33c0-.3.18-.42.52-.44s.72,0,1.08,0ZM167.87,178.3c.49,0,.64-.44.88-.73,2-2.47,4-5,5.85-7.65a222.46,222.46,0,0,0,32.51-67.06,195.53,195.53,0,0,0,4.95-21.49c.09-.58.06-.62-.52-.64H183.48c-.25,0-.51,0-.76,0a.31.31,0,0,0-.31.36c.07.82.16,1.65.23,2.48.37,4.78.6,9.58.66,14.38a231.74,231.74,0,0,1-1.22,27.25q-.6,5.7-1.51,11.37a172.65,172.65,0,0,1-4,18.4,133.68,133.68,0,0,1-8.28,22.5c-.14.28-.2.63-.48.82.09,0,.15,0,.13.1a.17.17,0,0,1-.13.08C167.76,178.42,167.73,178.34,167.87,178.3Zm-107.62.11,0-.06v.06a2.76,2.76,0,0,0-.38-1c-.59-1.32-1.21-2.62-1.78-3.94a153.09,153.09,0,0,1-10.21-35.58c-.63-3.77-1.14-7.56-1.57-11.36s-.73-7.55-1-11.33c-.24-3.6-.33-7.21-.39-10.82-.1-4.91,0-9.81.28-14.72q.18-4,.57-8c.1-1,.07-1-.87-.94H17.16a6.37,6.37,0,0,0-.76,0,.29.29,0,0,0-.27.38c.15.89.3,1.77.46,2.66a196.2,196.2,0,0,0,5.77,23.3,223.49,223.49,0,0,0,26.69,56.2,168.33,168.33,0,0,0,10.25,14.1A5.42,5.42,0,0,0,60.25,178.41ZM114,228.13a2.3,2.3,0,0,0,.35-.17l.51-.4A117.84,117.84,0,0,0,142,197.81a131.82,131.82,0,0,0,18-46.56c.75-3.94,1.34-7.9,1.8-11.88.32-2.83.57-5.68.76-8.52.23-3.24.31-6.49.35-9.74.07-4.77-.07-9.54-.38-14.29s-.76-9.21-1.41-13.79c-.54-3.75-1.15-7.49-2-11.19-.29-1.3-.15-1.1-1.38-1.11H69.79c-.24,0-.43.07-.48.34s-.11.42-.16.63c-.71,3.24-1.3,6.51-1.78,9.79s-.85,6.44-1.17,9.68c-.37,3.84-.63,7.7-.74,11.56a185.56,185.56,0,0,0,.33,19.16c.2,2.71.43,5.4.75,8.09q.78,6.56,2.09,13a138.72,138.72,0,0,0,7,23.85,118.6,118.6,0,0,0,35.05,48.56C111.79,226.36,112.93,227.25,114,228.13ZM157.27,73.8a.74.74,0,0,0,0-.21c-.07-.35-.15-.7-.23-1a305.28,305.28,0,0,0-15.25-46.4,2.84,2.84,0,0,1-.27-1.25c0-.58,0-1.16,0-1.74,0-.43-.09-.51-.5-.52s-.57,0-.86,0H124.36a.36.36,0,0,1-.38-.42c0-1,0-2,0-2.92,0-1.55,0-3.11,0-4.66,0-.74,0-.74-.79-.75H104.54a.32.32,0,0,0-.32.35v.86q0,3.2,0,6.39c0,1.26.15,1.15-1.16,1.15H88c-.29,0-.58,0-.87,0s-.45.1-.46.44c0,.58,0,1.16,0,1.74a3.33,3.33,0,0,1-.3,1.46c-.62,1.42-1.23,2.85-1.81,4.28A316,316,0,0,0,71.08,72.88c-.08.31-.12.63-.19,1h85.86A.79.79,0,0,0,157.27,73.8ZM52.68,41.34c-.24-.63-.44-1.17-.66-1.7a11.42,11.42,0,0,0-5.58-6,12.24,12.24,0,0,0-2.41-1,19.37,19.37,0,0,0-11.21.1,14,14,0,0,0-9.75,9.89,20.77,20.77,0,0,0-.15,11.54A14.14,14.14,0,0,0,33.19,64.57a18.58,18.58,0,0,0,10.27,0,12.29,12.29,0,0,0,8-6.36,17.75,17.75,0,0,0,1.11-2.58,1,1,0,0,0,.11-.71A51.66,51.66,0,0,0,45.91,53c-.07.2-.15.4-.21.61a10.85,10.85,0,0,1-1,2.38,7,7,0,0,1-4.62,3.47,9.13,9.13,0,0,1-2.9.16,7.76,7.76,0,0,1-4.86-2.12,7.86,7.86,0,0,1-2.2-3.91,22.19,22.19,0,0,1-.37-8.28,11.34,11.34,0,0,1,.77-2.92,7.53,7.53,0,0,1,5-4.46,9,9,0,0,1,4.92-.15,6.81,6.81,0,0,1,5,4.36c0,.14.08.28.13.41.13.34.19.37.57.29l5.81-1.27C52.15,41.52,52.35,41.45,52.68,41.34Zm154.2,0a11.82,11.82,0,0,0-6.67-7.88,11.65,11.65,0,0,0-1.92-.72,19.32,19.32,0,0,0-10.79,0,14.12,14.12,0,0,0-10.24,10.21,20.74,20.74,0,0,0-.35,10.29,14.28,14.28,0,0,0,10.85,11.44,18.56,18.56,0,0,0,10.16-.15,12.1,12.1,0,0,0,7.15-5.28,15.67,15.67,0,0,0,1.7-3.61c.08-.23.26-.45.13-.71,0,0-.06-.06-.09-.07L200.49,53a.3.3,0,0,0-.42.22,13.07,13.07,0,0,1-.91,2.42,7,7,0,0,1-4.31,3.72,8.71,8.71,0,0,1-5.93-.29,7.51,7.51,0,0,1-4.49-5.23,20.92,20.92,0,0,1-.56-7.52,14,14,0,0,1,.59-3.07,7.61,7.61,0,0,1,4-4.77,8.84,8.84,0,0,1,5.16-.84,6.91,6.91,0,0,1,6.21,4.95c.12.34.2.37.57.29l4.22-.94A15.11,15.11,0,0,0,206.88,41.34Z"/><path class="cls-2" d="M114,228.13c-1.1-.88-2.24-1.77-3.35-2.69a118.6,118.6,0,0,1-35.05-48.56,138.72,138.72,0,0,1-7-23.85q-1.32-6.48-2.09-13c-.32-2.69-.55-5.38-.75-8.09a185.56,185.56,0,0,1-.33-19.16c.11-3.86.37-7.72.74-11.56.32-3.24.7-6.46,1.17-9.68s1.07-6.55,1.78-9.79c0-.21.12-.42.16-.63s.24-.34.48-.34h87.9c1.23,0,1.09-.19,1.38,1.11.83,3.7,1.44,7.44,2,11.19.65,4.58,1.11,9.17,1.41,13.79s.45,9.52.38,14.29c0,3.25-.12,6.5-.35,9.74-.19,2.84-.44,5.69-.76,8.52-.46,4-1,7.94-1.8,11.88a131.82,131.82,0,0,1-18,46.56,117.84,117.84,0,0,1-27.06,29.75l-.51.4A2.3,2.3,0,0,1,114,228.13ZM70.11,123.78c.18-.13.42-.22.49-.47.58-.48,1.15-1,1.74-1.45a6.43,6.43,0,0,1,1.75-1c.19-.07.39-.2.58,0a33.29,33.29,0,0,0-3,8.28,55.49,55.49,0,0,0-1.13,6.26,69.45,69.45,0,0,0-.55,7.76c0,.1-.09.29.18.33.15-.35.31-.71.46-1.07a13,13,0,0,1,2-3.32,7.16,7.16,0,0,1,2.62-2,.75.75,0,0,1,.62-.08l0,0c.15.31-.06.55-.16.81a37.71,37.71,0,0,0-2.16,8.81,33.36,33.36,0,0,0,0,8.53,30.28,30.28,0,0,0,1.9,7.43c.06.16.1.35.36.36.1-.33.2-.67.31-1a21.88,21.88,0,0,1,2.84-6A13.33,13.33,0,0,1,82,152.55a10.08,10.08,0,0,1,2.88-1.48c.34-.11.47,0,.41.37a27,27,0,0,0,.64,11.27,30.74,30.74,0,0,0,8,13.93,44.09,44.09,0,0,0,11.43,8.3c.13.07.25.14.38,0-.11-.17-.22-.36-.33-.54a25.36,25.36,0,0,1-2.57-5.48,10.7,10.7,0,0,1-.55-3.51,4.43,4.43,0,0,1,4.38-4.46A12.62,12.62,0,0,1,109,171a13,13,0,0,1,8.16,4.71,19.05,19.05,0,0,1,3.65,7.77,7.44,7.44,0,0,1,.07,3,3.37,3.37,0,0,1-1.75,2.6c-.11.05-.3,0-.26.25,0,0,.11.1.17.1a22.9,22.9,0,0,0,5.89-.72A5.65,5.65,0,0,0,128.1,187a.18.18,0,0,1,.33.07,10.92,10.92,0,0,1,.17,3.65,5.73,5.73,0,0,1-2.09,3.91s0,.12-.07.21a2,2,0,0,0,.43,0,13.32,13.32,0,0,0,4.87-2.52,9.9,9.9,0,0,0,3.3-5.1,12.45,12.45,0,0,0,.4-3.64c0-.46,0-.49.49-.48l.65,0a15.35,15.35,0,0,0,6-1,8.63,8.63,0,0,0,5.08-5.17c0-.09,0-.14-.08-.19a1.94,1.94,0,0,0-.75.3,10.43,10.43,0,0,1-3.74,1,4.13,4.13,0,0,1-4.26-2.37,2.36,2.36,0,0,1-.26-.93,1.34,1.34,0,0,1,.72-1.35,4.07,4.07,0,0,1,1.44-.43c.18,0,.4.06.58-.16-.54-.3-1-.57-1.53-.86a6,6,0,0,1-2-1.9,2.2,2.2,0,0,1-.43-1.58,5.87,5.87,0,0,0,3.42-1,3.76,3.76,0,0,0,1.56-3.05l-1.12.35a7.22,7.22,0,0,1-6.4-1,9.66,9.66,0,0,1-2.19-2.09,18.25,18.25,0,0,1-2.76-5.12,3.51,3.51,0,0,1-.14-2,1.35,1.35,0,0,1,1.88-1.19,6.42,6.42,0,0,1,1.3.52c.15.07.29.26.46.08l-.6-1.51a2.74,2.74,0,0,1-.17-1.06,1.4,1.4,0,0,1,1.07-1.45,3.8,3.8,0,0,1,.95-.18,43.85,43.85,0,0,0,5.25-.7,16.57,16.57,0,0,0,3.53-1,5,5,0,0,0,1.31-.75,1.34,1.34,0,0,0,.21-2,4.9,4.9,0,0,0-1.11-1,19,19,0,0,0-2.65-1.47,22.87,22.87,0,0,1-5.11-3.43,8,8,0,0,1-1.73-2.06,2.44,2.44,0,0,1,.74-3.51,6.59,6.59,0,0,1,2.55-1.14,31,31,0,0,1,4.29-.62,9.85,9.85,0,0,1,2.48.19,4.2,4.2,0,0,1,1.21.44,2.06,2.06,0,0,1,1.16,1.93,4.7,4.7,0,0,1-.16,1.29,10.37,10.37,0,0,1-.92,2.07l-.43.75a.24.24,0,0,0,.23.36,15.37,15.37,0,0,0,6.93-1.45c.28-.14.56-.31.84-.48a7,7,0,0,0,3-7.35,2.33,2.33,0,0,1-.07-.53.53.53,0,0,1,.55-.54,1.72,1.72,0,0,1,.74.12.52.52,0,0,0,.6-.11,6.56,6.56,0,0,0,1.83-2.38,3,3,0,0,0-.45-3.16,4.26,4.26,0,0,0-2.6-1.6,28.2,28.2,0,0,1-8.42-3,16.94,16.94,0,0,1-4.06-3,10.8,10.8,0,0,1-3.14-6,4.63,4.63,0,0,0-.88-2.06,13.08,13.08,0,0,0-2.5-2.54,19.78,19.78,0,0,0-3.6-2.19,31.23,31.23,0,0,0-7.17-2.36c-1.2-.25-2.42-.43-3.63-.63a.66.66,0,0,1-.58-.39,10.88,10.88,0,0,0-4.61-4.6A17,17,0,0,0,113.83,93c-1-.25-2-.41-3-.63a5.37,5.37,0,0,1-3.75-2.52s-.11-.08-.17-.12h-.09a1.85,1.85,0,0,0-.27.19,3.82,3.82,0,0,0-1,3.69c.07.35.17.69.26,1a2.47,2.47,0,0,1-1.11,0,42.13,42.13,0,0,0-10.33.88,25.56,25.56,0,0,0-7.08,2.61,16.18,16.18,0,0,0-4.53,3.65c-.1.11-.3.21-.15.47A17.37,17.37,0,0,1,86.52,101a8.1,8.1,0,0,1,4.13,0,4.66,4.66,0,0,1-.5.25,27.45,27.45,0,0,0-4,2.2,38.16,38.16,0,0,0-7.76,6.87,50.77,50.77,0,0,0-7.91,12.49,3,3,0,0,0-.15.51c-.23.1-.11.37-.24.52l0-.08Z"/><path class="cls-3" d="M157.27,73.8a.79.79,0,0,1-.52.1H70.89c.07-.39.11-.71.19-1A316,316,0,0,1,84.55,30.55c.58-1.43,1.19-2.86,1.81-4.28a3.33,3.33,0,0,0,.3-1.46c0-.58,0-1.16,0-1.74,0-.34.1-.43.46-.44s.58,0,.87,0h15.06c1.31,0,1.16.11,1.16-1.15q0-3.19,0-6.39v-.86a.32.32,0,0,1,.32-.35h18.64c.78,0,.79,0,.79.75,0,1.55,0,3.11,0,4.66,0,1,0,1.95,0,2.92a.36.36,0,0,0,.38.42h15.82c.29,0,.58,0,.86,0s.49.09.5.52c0,.58,0,1.16,0,1.74a2.84,2.84,0,0,0,.27,1.25,305.28,305.28,0,0,1,15.25,46.4c.08.35.16.7.23,1A.74.74,0,0,1,157.27,73.8ZM99.94,48.54V63.37c0,.29,0,.58,0,.87s.09.42.47.44h12.67c1,0,2.09,0,3.14-.11a15.73,15.73,0,0,0,3.72-.68,11.75,11.75,0,0,0,6.1-4.08,15.09,15.09,0,0,0,2.87-6.35,25.2,25.2,0,0,0,0-9.79,14.31,14.31,0,0,0-2.9-6.33,11.88,11.88,0,0,0-7.46-4.41,29.1,29.1,0,0,0-4.75-.4H100.87c-1,0-.93,0-.93,1Z"/><path class="cls-2" d="M60.26,178.41a5.16,5.16,0,0,1-1-1,168.33,168.33,0,0,1-10.25-14.1,223.49,223.49,0,0,1-26.69-56.2,196.2,196.2,0,0,1-5.77-23.3c-.16-.89-.31-1.77-.46-2.66a.29.29,0,0,1,.27-.38,6.37,6.37,0,0,1,.76,0H44.89c.94,0,1,0,.87.94q-.39,4-.57,8c-.24,4.91-.38,9.81-.28,14.72.06,3.61.15,7.22.39,10.82.24,3.78.54,7.56,1,11.33s.94,7.59,1.57,11.36a153.09,153.09,0,0,0,10.21,35.58c.57,1.32,1.19,2.62,1.78,3.94a2.76,2.76,0,0,1,.38,1Z"/><path class="cls-2" d="M167.84,178.31c.29-.19.35-.54.49-.82a133.68,133.68,0,0,0,8.28-22.5,172.65,172.65,0,0,0,4-18.4q.92-5.67,1.51-11.37A231.74,231.74,0,0,0,183.3,98c-.06-4.8-.29-9.6-.66-14.38-.07-.83-.16-1.66-.23-2.48a.31.31,0,0,1,.31-.36c.25,0,.51,0,.76,0h28.06c.58,0,.61.06.52.64a195.53,195.53,0,0,1-4.95,21.49,222.46,222.46,0,0,1-32.51,67.06c-1.86,2.62-3.81,5.18-5.85,7.65-.24.29-.39.73-.88.73Z"/><path class="cls-2" d="M52.68,41.34c-.33.11-.53.18-.74.23l-5.81,1.27c-.38.08-.44,0-.57-.29-.05-.13-.08-.27-.13-.41a6.81,6.81,0,0,0-5-4.36,9,9,0,0,0-4.92.15,7.53,7.53,0,0,0-5,4.46,11.34,11.34,0,0,0-.77,2.92,22.19,22.19,0,0,0,.37,8.28,7.86,7.86,0,0,0,2.2,3.91,7.76,7.76,0,0,0,4.86,2.12,9.13,9.13,0,0,0,2.9-.16A7,7,0,0,0,44.69,56a10.85,10.85,0,0,0,1-2.38c.06-.21.14-.41.21-.61a51.66,51.66,0,0,1,6.73,1.91,1,1,0,0,1-.11.71,17.75,17.75,0,0,1-1.11,2.58,12.29,12.29,0,0,1-8,6.36,18.58,18.58,0,0,1-10.27,0A14.14,14.14,0,0,1,22.92,54.26a20.77,20.77,0,0,1,.15-11.54,14,14,0,0,1,9.75-9.89A19.37,19.37,0,0,1,44,32.73a12.24,12.24,0,0,1,2.41,1,11.42,11.42,0,0,1,5.58,6C52.24,40.17,52.44,40.71,52.68,41.34Z"/><path class="cls-2" d="M206.88,41.34a15.11,15.11,0,0,1-2.28.56l-4.22.94c-.37.08-.45,0-.57-.29a6.91,6.91,0,0,0-6.21-4.95,8.84,8.84,0,0,0-5.16.84,7.61,7.61,0,0,0-4,4.77,14,14,0,0,0-.59,3.07,20.92,20.92,0,0,0,.56,7.52A7.51,7.51,0,0,0,188.92,59a8.71,8.71,0,0,0,5.93.29,7,7,0,0,0,4.31-3.72,13.07,13.07,0,0,0,.91-2.42.3.3,0,0,1,.42-.22l6.32,1.87s.05.05.09.07c.13.26-.05.48-.13.71a15.67,15.67,0,0,1-1.7,3.61,12.1,12.1,0,0,1-7.15,5.28,18.56,18.56,0,0,1-10.16.15,14.28,14.28,0,0,1-10.85-11.44,20.74,20.74,0,0,1,.35-10.29A14.12,14.12,0,0,1,187.5,32.71a19.32,19.32,0,0,1,10.79,0,11.65,11.65,0,0,1,1.92.72A11.82,11.82,0,0,1,206.88,41.34Z"/><path class="cls-2" d="M167.87,178.3c-.14,0-.11.12,0,.19a.17.17,0,0,0,.13-.08c0-.08,0-.12-.14-.1Z"/><polygon class="cls-2" points="60.21 178.41 60.21 178.35 60.26 178.41 60.21 178.41"/><path class="cls-1" d="M70.36,123.3a3,3,0,0,1,.15-.51,50.77,50.77,0,0,1,7.91-12.49,38.16,38.16,0,0,1,7.76-6.87,27.45,27.45,0,0,1,4-2.2,4.66,4.66,0,0,0,.5-.25,8.1,8.1,0,0,0-4.13,0,17.37,17.37,0,0,0-3.87,1.33c-.15-.26,0-.36.15-.47a16.18,16.18,0,0,1,4.53-3.65,25.56,25.56,0,0,1,7.08-2.61,42.13,42.13,0,0,1,10.33-.88,2.47,2.47,0,0,0,1.11,0c-.09-.35-.19-.69-.26-1a3.82,3.82,0,0,1,1-3.69,1.85,1.85,0,0,1,.27-.19H107c.06,0,.14.07.17.12a5.37,5.37,0,0,0,3.75,2.52c1,.22,2,.38,3,.63a17,17,0,0,1,4.41,1.74,10.88,10.88,0,0,1,4.61,4.6.66.66,0,0,0,.58.39c1.21.2,2.43.38,3.63.63a31.23,31.23,0,0,1,7.17,2.36,19.78,19.78,0,0,1,3.6,2.19,13.08,13.08,0,0,1,2.5,2.54,4.63,4.63,0,0,1,.88,2.06,10.8,10.8,0,0,0,3.14,6,16.94,16.94,0,0,0,4.06,3,28.2,28.2,0,0,0,8.42,3,4.26,4.26,0,0,1,2.6,1.6,3,3,0,0,1,.45,3.16,6.56,6.56,0,0,1-1.83,2.38.52.52,0,0,1-.6.11,1.72,1.72,0,0,0-.74-.12.53.53,0,0,0-.55.54,2.33,2.33,0,0,0,.07.53,7,7,0,0,1-3,7.35c-.28.17-.56.34-.84.48a15.37,15.37,0,0,1-6.93,1.45.24.24,0,0,1-.23-.36l.43-.75a10.37,10.37,0,0,0,.92-2.07,4.7,4.7,0,0,0,.16-1.29,2.06,2.06,0,0,0-1.16-1.93,4.2,4.2,0,0,0-1.21-.44,9.85,9.85,0,0,0-2.48-.19,31,31,0,0,0-4.29.62,6.59,6.59,0,0,0-2.55,1.14,2.44,2.44,0,0,0-.74,3.51,8,8,0,0,0,1.73,2.06,22.87,22.87,0,0,0,5.11,3.43,19,19,0,0,1,2.65,1.47,4.9,4.9,0,0,1,1.11,1,1.34,1.34,0,0,1-.21,2,5,5,0,0,1-1.31.75,16.57,16.57,0,0,1-3.53,1,43.85,43.85,0,0,1-5.25.7,3.8,3.8,0,0,0-.95.18,1.4,1.4,0,0,0-1.07,1.45,2.74,2.74,0,0,0,.17,1.06l.6,1.51c-.17.18-.31,0-.46-.08a6.42,6.42,0,0,0-1.3-.52,1.35,1.35,0,0,0-1.88,1.19,3.51,3.51,0,0,0,.14,2,18.25,18.25,0,0,0,2.76,5.12,9.66,9.66,0,0,0,2.19,2.09,7.22,7.22,0,0,0,6.4,1l1.12-.35a3.76,3.76,0,0,1-1.56,3.05,5.87,5.87,0,0,1-3.42,1,2.2,2.2,0,0,0,.43,1.58,6,6,0,0,0,2,1.9c.49.29,1,.56,1.53.86-.18.22-.4.14-.58.16a4.07,4.07,0,0,0-1.44.43,1.34,1.34,0,0,0-.72,1.35,2.36,2.36,0,0,0,.26.93,4.13,4.13,0,0,0,4.26,2.37,10.43,10.43,0,0,0,3.74-1,1.94,1.94,0,0,1,.75-.3c.11.05.11.1.08.19a8.63,8.63,0,0,1-5.08,5.17,15.35,15.35,0,0,1-6,1l-.65,0c-.45,0-.5,0-.49.48a12.45,12.45,0,0,1-.4,3.64,9.9,9.9,0,0,1-3.3,5.1,13.32,13.32,0,0,1-4.87,2.52,2,2,0,0,1-.43,0c0-.09,0-.18.07-.21a5.73,5.73,0,0,0,2.09-3.91,10.92,10.92,0,0,0-.17-3.65.18.18,0,0,0-.33-.07,5.65,5.65,0,0,1-3.15,1.78,22.9,22.9,0,0,1-5.89.72c-.06,0-.12-.06-.17-.1,0-.21.15-.2.26-.25a3.37,3.37,0,0,0,1.75-2.6,7.44,7.44,0,0,0-.07-3,19.05,19.05,0,0,0-3.65-7.77A13,13,0,0,0,109,171a12.62,12.62,0,0,0-2.38-.12,4.43,4.43,0,0,0-4.38,4.46,10.7,10.7,0,0,0,.55,3.51,25.36,25.36,0,0,0,2.57,5.48c.11.18.22.37.33.54-.13.17-.25.1-.38,0a44.09,44.09,0,0,1-11.43-8.3,30.74,30.74,0,0,1-8-13.93,27,27,0,0,1-.64-11.27c.06-.35-.07-.48-.41-.37A10.08,10.08,0,0,0,82,152.55a13.33,13.33,0,0,0-3.12,3.28,21.88,21.88,0,0,0-2.84,6c-.11.33-.21.67-.31,1-.26,0-.3-.2-.36-.36a30.28,30.28,0,0,1-1.9-7.43,33.36,33.36,0,0,1,0-8.53,37.71,37.71,0,0,1,2.16-8.81c.1-.26.31-.5.16-.81.15,0,0,.14.07,0s0-.09,0-.09.06,0,0,.08a.75.75,0,0,0-.62.08,7.16,7.16,0,0,0-2.62,2,13,13,0,0,0-2,3.32c-.15.36-.31.72-.46,1.07-.27,0-.18-.23-.18-.33a69.45,69.45,0,0,1,.55-7.76,55.49,55.49,0,0,1,1.13-6.26,33.29,33.29,0,0,1,3-8.28c-.19-.23-.39-.1-.58,0a6.43,6.43,0,0,0-1.75,1c-.59.47-1.16,1-1.74,1.45Zm64-7.25c.22,0,.61-.1,1-.19a.16.16,0,0,0,.06-.26,3.29,3.29,0,0,0-.41-.33c-1.14-.82-2.27-1.64-3.42-2.44-.19-.14-.38-.42-.64-.31s-.22.49-.22.76a2.08,2.08,0,0,0,.51,1.28A3.69,3.69,0,0,0,134.31,116.05Z"/><path class="cls-4" d="M70.36,123.3h.24c-.07.25-.31.34-.49.47v0C70.25,123.67,70.13,123.4,70.36,123.3Z"/><polygon class="cls-4" points="70.11 123.78 70.16 123.74 70.12 123.82 70.11 123.78"/><path class="cls-4" d="M99.94,48.54v-15c0-1,0-1,.93-1h12.89a29.1,29.1,0,0,1,4.75.4A11.88,11.88,0,0,1,126,37.34a14.31,14.31,0,0,1,2.9,6.33,25.2,25.2,0,0,1,0,9.79,15.09,15.09,0,0,1-2.87,6.35,11.75,11.75,0,0,1-6.1,4.08,15.73,15.73,0,0,1-3.72.68c-1,.07-2.09.11-3.14.11H100.42c-.38,0-.46-.09-.47-.44s0-.58,0-.87Zm7.1,0v9.52c0,.29,0,.58,0,.87a.28.28,0,0,0,.26.29,3.11,3.11,0,0,0,.43,0c2.38,0,4.76,0,7.14-.07a11.07,11.07,0,0,0,1.82-.25A5.69,5.69,0,0,0,121,55.27a13.17,13.17,0,0,0,.74-2.82,28.75,28.75,0,0,0,.16-6.15,11.4,11.4,0,0,0-1-4.29,6.4,6.4,0,0,0-4.24-3.57,11,11,0,0,0-1.81-.31c-2.38-.21-4.76-.16-7.14-.16a3,3,0,0,0-.43,0,.27.27,0,0,0-.26.29c0,.28,0,.57,0,.86Z"/><path class="cls-2" d="M134.31,116.05a3.69,3.69,0,0,1-3.13-1.49,2.08,2.08,0,0,1-.51-1.28c0-.27-.11-.62.22-.76s.45.17.64.31c1.15.8,2.28,1.62,3.42,2.44a3.29,3.29,0,0,1,.41.33.16.16,0,0,1-.06.26C134.92,116,134.53,116,134.31,116.05Z"/><path class="cls-2" d="M75.82,137c.08-.12-.13-.07,0-.08s.08,0,0,.09.08,0-.07,0Z"/><path class="cls-2" d="M107,48.55V39.14c0-.29,0-.58,0-.86a.27.27,0,0,1,.26-.29,3,3,0,0,1,.43,0c2.38,0,4.76,0,7.14.16a11,11,0,0,1,1.81.31A6.4,6.4,0,0,1,120.94,42a11.4,11.4,0,0,1,1,4.29,28.75,28.75,0,0,1-.16,6.15,13.17,13.17,0,0,1-.74,2.82,5.69,5.69,0,0,1-4.34,3.67,11.07,11.07,0,0,1-1.82.25c-2.38.11-4.76.06-7.14.07a3.11,3.11,0,0,1-.43,0,.28.28,0,0,1-.26-.29c0-.29,0-.58,0-.87Z"/></g></g></svg>