<svg xmlns="http://www.w3.org/2000/svg" viewBox="0 0 192.74 337.74"><defs><style>.cls-1,.cls-2,.cls-3,.cls-4,.cls-5,.cls-6{fill-rule:evenodd;}.cls-2{fill:#fff;}.cls-3{fill:#ebd847;}.cls-4{fill:#f1ebd7;}.cls-5{fill:#b0382e;}.cls-6{fill:#faf148;}</style></defs><g id="Capa_2" data-name="Capa 2"><g id="EFFECTS"><path class="cls-1" d="M149,132.08c6.93-13.49,2-17.74,2.56-29.91L179,63.23c-3.87-2.71-7.7-5.5-11.41-8.45-8.1-6.42-15.16-12.89-21.86-19C126.13,17.8,109.81,2.81,80.53,1,68.41.21,56.72-.46,46.07.41c-10.81.92-20.54,3.39-28.56,9l-1.44,1q2.66,4,5.43,7.93L1.68,32.84,0,34.12l1.6,1.32c10.33,8.49,17.51,14.63,26.24,23.77a60.9,60.9,0,0,0,5.62,5.15,18.59,18.59,0,0,0,3.52,2,10.58,10.58,0,0,1,2.91,1.79c2.47,2.84,6.22,11.37,9.65,19.15.64,1.51,1.28,3,1.44,3.27l.83,2,0,3.27c-2.83,2.23-5.42,4.58-6.86,7.14a8,8,0,0,0,.72,9.41,25.92,25.92,0,0,0,2.43,2.67,36.8,36.8,0,0,0-3.43,9.22A19.67,19.67,0,0,0,39,132.09H13.84V281c2.31,13.24,8.62,24,18.07,31.46,9.29,7.34,21.66,11.45,36.26,11.45h8.57A33.39,33.39,0,0,1,91.42,327c5.19,2.52,8.58,6.18,11.89,10.73,3.23-4.55,6.62-8.21,11.81-10.73a33.47,33.47,0,0,1,14.67-3.07h8.62c14.56,0,26.92-4.11,36.22-11.45,9.45-7.46,15.75-18.22,18.07-31.46l0-.25V132.08Z"/><path class="cls-2" d="M147.45,134.91c-1.11,1.9-2.29,3.77-3.54,5.59-.95,5.14-1.44,12.48-3.27,17.07-1.11,2.71-2.67,4.34-4.11,6.86-8.49,15.31-16.11,16.67-24.33,17.31a80.37,80.37,0,0,1-20.58-.84c-9.21-1.75-17,1.8-26.48.92-6.42-.6-10.09-1.79-17.59-8.38-4.07-3.59-6.82-5.86-8.46-10.53-1.83-5.42-2-12.09-2-17.95a40.83,40.83,0,0,1,1.07-10.05H16.63V280.66c2.24,12.48,8.14,22.61,17,29.63S54.24,321.1,68.17,321.1h8.57a36.08,36.08,0,0,1,15.92,3.39A31,31,0,0,1,103.31,333a29.77,29.77,0,0,1,10.61-8.54,35.83,35.83,0,0,1,15.87-3.39h8.62c13.92,0,25.64-3.87,34.46-10.81s14.84-17.15,17-29.63V134.91Z"/><path class="cls-1" d="M28.92,230.64v48.9c1.79,8.94,6.06,16.16,12.36,21.1,6.66,5.31,15.8,8.22,26.89,8.22h8.57a48.61,48.61,0,0,1,19.47,3.83V230.64Zm148.74-4.55v-79H145.87c-1.12,6.9-2.16,13.36-3.27,16.67-5.63,16.55-22.18,20-30.4,20.62-.6.08-1.23.12-1.87.16v41.52Z"/><path class="cls-3" d="M110.33,312.69a48.56,48.56,0,0,1,19.46-3.83h8.62c11.05,0,20.18-2.91,26.88-8.22,6.27-4.95,10.57-12.16,12.37-21.1v-48.9H110.33v82.05ZM36.5,147.12H28.92v79H96.21V184.25c-1.54-.18-3.07-.41-4.59-.68a87.25,87.25,0,0,1-23.69-1.19c-1.08,0-2.16,0-3.23-.12-6.42-.6-9.93-1.64-17.43-8.26-4.07-3.55-7-6.1-8.62-10.81S36.54,152.42,36.5,147.12Z"/><path class="cls-2" d="M47.9,110.7a38.41,38.41,0,0,0,7.26,6.74c2.16,1.52,4.27,2.67,5.67,2.71s2.75-1.31,3.87-3a38.07,38.07,0,0,0,3-5.74c.4-.92.8-2,1.15-3.07.48-1.28,1-2.55,1.56-3.83a24.47,24.47,0,0,1,4.07-6.14,20,20,0,0,1,5.42-4.27,49.79,49.79,0,0,1,12.09-4.27,116.47,116.47,0,0,1,12.12-2c2.28-.28,4.71-.56,7.1-.8,8.9-.92,16.44-1.68,18.59-4.83a4.85,4.85,0,0,0-1.44-1,12.27,12.27,0,0,0-2.51-.87c-.84.28-1.71.63-2.67,1a60.73,60.73,0,0,1-10.21,3.31c-7.26,1.6-16.08,2.76-23.46,3.67-5,.64-9.25,1.2-11.8,1.72-1.2.28-1.84.4-2.52.52C68.36,91.91,59,93.79,53.92,97.74c-2.79,2.11-5.26,4.31-6.54,6.58a5.41,5.41,0,0,0,.52,6.38Zm78.82,34.9c-1.59,2.19-4.27,6.34-2.11,8.78a14.41,14.41,0,0,0,3.43,3.47,2.62,2.62,0,0,0,3-.12c2.35-2,3.51-5.07,4.07-10.09.16-1.32,2.47-5.11,5.11-4.83s1.79,3.19,1.63,4.51c-.44,3.11-1.36,8.06-3.43,11.68-1.72,2.88-4.23,4.79-7.42,4.79a15.22,15.22,0,0,1-8.93-3.23c-5-3.83-5.07-9.29-2.76-14.72a27.46,27.46,0,0,1,2.52-4.94c1.31-2,4.22-3.63,6.42-1.84,2.11,2.15-.28,4.83-1.48,6.54Z"/><path class="cls-4" d="M105.58,83.22c-5.47.92-11.37,1.67-16.47,2.31s-9.41,1.2-12,1.76c-.36.08-1.39.28-2.47.52-6.22,1.23-14.68,3-20.42,6.38l.08-3.67A25,25,0,0,1,59.11,87a27,27,0,0,1,5.67-2.36c8.93-2.71,25.45-2.31,40.8-1.43Zm44,18.54c-11.25-.87-21.9-6-27.72-13.24A27,27,0,0,0,128,86.81,102.36,102.36,0,0,1,137.33,92,88.33,88.33,0,0,1,149.62,101.76ZM62.94,122.55c-.57,1.29-1.19,2.55-1.87,3.79-4.15.23-8.62.27-12.61,1.35-.72-.16-1.27-1.15-1.59-2.07a28,28,0,0,1,3-8.9,44.49,44.49,0,0,0,3.71,3c2.55,1.84,5.18,3.2,7.18,3.28a4.64,4.64,0,0,0,2.23-.44Zm50.18-32.91c4.15,12.09,7.46,32.07,3.23,42.72-4.43,11.21-15.2,25.57-26.09,26.76-.75.08-2.75-.32-4.82-.39-4.63-.16-6.27-.6-6.23-2.4,0-1.07.64-2.11,2.92-3.19,1.43-.68,1.11-1.31-.68-1.23-3.35,0-6.38-.12-9.33-.16a105.92,105.92,0,0,1-13.05-.92c-2.71-.4-2.87.64-1.35,1s2.63,1.11,2.51,2c-.16,1.24-2.23,1.67-4.15,1.71s-4.35-2.15-4.39-4.82c0-2,1.84-3.71,4.23-5a23.87,23.87,0,0,1,10.77-3c7.46.2,15.64,8.22,21.94,8.26,3,0,5.47-1.36,8.62-3.51,2.35-1.64,5.1-3.83,8.73-6.54-6.14.2-12.68-2.12-16-4.79-2-1.71-2.72-3.59-4-5.18a9.3,9.3,0,0,0-4.47-2.92c1-1.19,1.67-2.15,1.83-5.5a32.59,32.59,0,0,1,3,3.23c2.32,2.67,4.59,5.26,7.62,5.62a1.37,1.37,0,0,0,1.72-1.27,1.49,1.49,0,0,0-1.4-1.72c-1.87-.2-4.66-2.87-6.58-5.11-2.83-3.27-4.23-6.62-9.41-5.78-.72.12-1.48.4-1.32,1.64a1.42,1.42,0,0,0,1.64,1.35,2.6,2.6,0,0,1,1.35.24,8.19,8.19,0,0,1-.6,4.71c-1.19,2.63-3,.8-6.06.52a70.73,70.73,0,0,0-8.65.12c1.87-4.51,2.51-8.3,5.58-13.56.48-1.12.88-2.16,1.24-3.23.44-1.24.91-2.48,1.44-3.6a22.69,22.69,0,0,1,3.58-5.46c.44-.44.88-.92,1.36-1.32-.92.8-.2,2.4,1.08,2.92,2.91,1.15,6.94,3.47,6.94,8.77.08.8,1.71,1.28,2,.4a3.41,3.41,0,0,1,1.76-2.19c.64-.24,1,.08,1.71.16,2.28.32,2.36.79,2.2,2.67a9.41,9.41,0,0,0,1.75,5.42,8.46,8.46,0,0,0,5,3.47c2.63.68,7.62.36,2.91-2.63a15.15,15.15,0,0,1-4-3.15c-.28-.4-3.83-7.54-1.72-6.66a27.48,27.48,0,0,0,9.14,1.79c1.75-.08,3.11-.36,3.23-1.39s-2.19-3-4.91-3.2c-3.43-.35-8.21-.47-9.73-.87-2.31-.64-4.23-1.6-5.07-3.15,1.32-1.64,9.42-2.4,11.21-2.16,3.35.44,5.19,1.76,8.1,2.08.76.08,1.43,0,1.75-.76.53-1.24-2.74-3.83-5.34-5.46a7.45,7.45,0,0,0-3.31-1.08c-3.63,0-5.86.8-8.66,1.6A18.54,18.54,0,0,0,87.79,98c-1.23.8-4.78.4-8.17.4a2.52,2.52,0,0,0-1.72.52,17.74,17.74,0,0,1,3.31-2.32,47,47,0,0,1,11.37-4c4.07-.91,8.21-1.51,11.81-2,2.55-.32,4.82-.56,7-.8.56,0,1.12-.08,1.68-.16Zm17.27,56.2a11.6,11.6,0,0,0,.84-5.19c-.2-2.75-1.6-3-3.11-4.86a9.88,9.88,0,0,1-2.32-6.94,26.26,26.26,0,0,1,3-10.13c2.12-4,5.35-7.22,9.78-7.34a19.73,19.73,0,0,1,5.06.32c6.06,1.51,10.41,6.22,5.11,16A43.27,43.27,0,0,1,130.39,145.84Z"/><path class="cls-1" d="M134.14,133.6c.56-.56.92-.84,1.52-1.44,1.71-1.6,3.59-3.35,5.1-5.06a8.44,8.44,0,0,0,2.32-5.75c0-1.87-1.08-3-3.31-3-1.28,0-1.76,1.24-2.24,2.59A7.82,7.82,0,0,1,134.9,125c-.6.36-1.28.92-2.07-.23s0-1.88.6-2.28a5.68,5.68,0,0,0,1.47-2.55c.83-2.32,1.67-4.51,4.9-4.43a6.67,6.67,0,0,1,4.51,1.55,5.66,5.66,0,0,1,1.84,4.23,9.52,9.52,0,0,1-.84,3.91,14.5,14.5,0,0,1-2.43,3.75c-1.6,1.84-3.55,3.67-5.27,5.31-.63.56-.87.84-1.39,1.31s-1.36,1.32-2.35.28-.21-1.76.27-2.23Z"/><path class="cls-5" d="M150.41,98.06,166.25,75.6a125.92,125.92,0,0,1-14.76-9.29,184.67,184.67,0,0,1-16.71-13.77,107.79,107.79,0,0,0-31.27-19.62,103.6,103.6,0,0,0-35.26-7.78c-8.5-.28-14.6.32-19.55,1.72A40.54,40.54,0,0,0,37.34,32.2l1.83,2.35L25.25,51.35c1.6,1.91,3.27,3.77,5,5.58a43.13,43.13,0,0,0,5.23,4.79,18.45,18.45,0,0,0,2.95,1.67,12.38,12.38,0,0,1,4,2.59c2.83,3.2,6.66,12,10.17,20,.16.36.32.72.52,1.19A30.52,30.52,0,0,1,63.82,81.5C75.54,78,99,79.39,117,80.62c.27-.08.51-.2.79-.28,1.46-.48,2.9-1,4.31-1.63.4-.16.76-.32,1.4-.56s1.07-.4,1.39-.52l1.6,0A13.14,13.14,0,0,1,128,78a9.62,9.62,0,0,1,1.6.68,6.09,6.09,0,0,1,1.2.68,7,7,0,0,1,1,.87l1.55,1.64-1.28,1.87a6.89,6.89,0,0,1-.83,1c3,1.55,5.5,3,7.89,4.47a84,84,0,0,1,11.29,8.82Z"/><path class="cls-5" d="M170.72,69.26,174.39,64c-12.09-8.57-21.82-17.55-30.91-25.84C124.37,20.64,108.46,6,80.33,4.28c-12-.76-23.53-1.43-34-.56C36.73,4.52,28,6.6,20.86,11.1L27.8,20a48.67,48.67,0,0,1,13.92-6.78c6.42-1.92,14.72-2.91,26.57-2.16,9.69.68,16.59,1.4,22.89,3a70.86,70.86,0,0,1,18.67,7.85c15.15,8.66,26,18.63,36,27.73C154.16,57.25,161.86,64.27,170.72,69.26ZM23.41,21,5.35,34.24l6.82,5.66a75,75,0,0,1,9-7.9,42.23,42.23,0,0,1,7.38-4.31c-1.74-2.2-3.45-4.43-5.11-6.7Z"/><path class="cls-6" d="M167.81,73.41l1.35-2c-9-5.1-16.75-12.17-25.17-19.86-9.81-9-20.62-18.91-35.46-27.4a68,68,0,0,0-18-7.58c-6.06-1.52-12.88-2.24-22.45-2.88-11.49-.75-19.47.2-25.61,2a45.6,45.6,0,0,0-13,6.34l6.27,8A42.26,42.26,0,0,1,48,24.3c5.23-1.47,11.57-2.15,20.34-1.79a104.15,104.15,0,0,1,36.14,8,110.3,110.3,0,0,1,32.11,20.1,180.21,180.21,0,0,0,16.51,13.56A124.18,124.18,0,0,0,167.81,73.41ZM14.24,41.58,23,48.76l5.66-6.62,5.86-7.06q-2.16-2.56-4.27-5.19a37.46,37.46,0,0,0-7.54,4.27,71.78,71.78,0,0,0-8.45,7.42Z"/><path class="cls-1" d="M66,65.07c0-.48,0-1-.08-1.44-.43.4-1,.76-1.43,1.16q-3.55,2.8-7,5.78a5.3,5.3,0,0,1-3.75-2.47,10,10,0,0,1-1.4-4.51,2.5,2.5,0,0,1,1.36-2.47,14.59,14.59,0,0,1,3.31-1c1.63-.44,3.79-1,5.9-1.59.44-.12.88-.28,1.28-.4a9.77,9.77,0,0,0-2.95-3.15c-2.8-2-4.71-4.35-5.31-7.34-5.46-2.67-10.73-6.11-10.65-9.78a4.5,4.5,0,0,1,1-2.91,7.37,7.37,0,0,1,3.39-2.15c2.39,2.43,4.82,4.83,7.38,7.1a21,21,0,0,1,1.31-2.44A17.9,17.9,0,0,1,65.05,31a20,20,0,0,1,9.26-2.27,24,24,0,0,1,9.85,2.15,16.7,16.7,0,0,1,7.14,5.55,8.3,8.3,0,0,1,1.32,3.39q4.6-2.51,9-5.31a8.35,8.35,0,0,1,3.63,7.34c-.28,1.28-3.07,2.2-7.18,3.55-2,.64-4.27,1.4-6.66,2.28A16.76,16.76,0,0,1,90.18,50,17.39,17.39,0,0,1,87,53.46a25.52,25.52,0,0,1-3.59,2.43,3.29,3.29,0,0,0-1.27,1.84,2.23,2.23,0,0,1,.32.2c2.23,1.31,4.14,2.43,5.78,3.35,5.18,3,7.66,4.39,7,6.5-.32.92-1.44,1.63-2.75,2.19A15.18,15.18,0,0,1,88,71.05c-2.27-1.16-5-5.1-7.06-7.06-.11.92-.26,1.84-.44,2.75a5.72,5.72,0,0,1-1.91,3.51,6.46,6.46,0,0,1-4.67,1.24,9.73,9.73,0,0,1-5.42-2A5.53,5.53,0,0,1,66,65.07Z"/><path class="cls-2" d="M92.34,45c1.83-.64,3.59-1.2,5.1-1.68,3.39-1.11,5.75-1.87,5.75-1.91a5.55,5.55,0,0,0-.6-2.63,6.77,6.77,0,0,0-1-1.6q-4.32,2.67-8.81,5.07c0,.19,0,.43,0,.63A19.15,19.15,0,0,1,92.34,45ZM54.61,63.55a7.1,7.1,0,0,0,1,3.4A3.31,3.31,0,0,0,57,68.14c2.19-1.87,4.31-3.55,6.18-5.06.84-.68,1.64-1.32,2.35-1.92a6.14,6.14,0,0,0-.32-1c-.51.16-1.07.32-1.63.47L57.6,62.2a15,15,0,0,0-2.79.84.45.45,0,0,0-.2.51Zm26.68-2.23q3.79,3.57,7.22,7.5a16.16,16.16,0,0,0,3.15-.88c.76-.31,1.4-.63,1.44-.83.16-.44-1.84-1.56-5.95-3.91-1.59-.92-3.47-2-5.62-3.27a7.61,7.61,0,0,0-.24,1.39ZM47.5,37.87c0,2.39,3.83,4.94,8.26,7.21a12.57,12.57,0,0,1,.52-3q-3.63-3.24-7.06-6.7a3.47,3.47,0,0,0-1.16.92A2.44,2.44,0,0,0,47.5,37.87Z"/><path class="cls-2" d="M67,58a12.87,12.87,0,0,0-4.31-5.1c-2.39-1.64-4-3.68-4.39-6.07s.32-4.9,2.24-8a15.54,15.54,0,0,1,5.74-5.55,16.65,16.65,0,0,1,8-2,21.77,21.77,0,0,1,8.85,2,14.36,14.36,0,0,1,6.07,4.59,7.44,7.44,0,0,1,1,4.91,12.61,12.61,0,0,1-2.07,5.9,14.74,14.74,0,0,1-2.71,2.91,28,28,0,0,1-3.23,2.2c-2.6,1.51-3.19,5.66-3.67,9.41-.14,1-.31,2.08-.52,3.11a3.45,3.45,0,0,1-1,2.12A4.2,4.2,0,0,1,74,69a7.33,7.33,0,0,1-4-1.43A3.38,3.38,0,0,1,68.53,65,17.48,17.48,0,0,0,67,58ZM75,40.86a4,4,0,0,0,4,5.38c2.39,0,4.94-2.43,5-5.38Zm-11.81,0c-.48,3.31,1.52,5.78,4.59,5.78,2.71,0,4.9-2.47,4.9-5.5v-.28Zm8.54,11.49c.48,1.27,1.15,1.47,2.55,1.31s1.28-1.63.8-2.87-1.64-2-2.56-1.71S71.2,51.11,71.68,52.35ZM69.8,58.09a5.32,5.32,0,0,0-.56,2.75A3.7,3.7,0,0,0,73.07,64a4.19,4.19,0,0,0,3.71-2.11c.64-1.2.32-2.4-.36-3.83Z"/></g></g></svg>