<svg xmlns="http://www.w3.org/2000/svg" viewBox="0 0 220.17 226.81"><defs><style>.cls-1{fill:#eec315;}.cls-2{fill:#fff;}.cls-3{fill:#2a375f;}</style></defs><g id="Capa_2" data-name="Capa 2"><g id="EFFECTS"><path class="cls-1" d="M212.53,114c-3.77-9.44-7.41-18.21-7.42-32.07a64.32,64.32,0,0,1,6.09-26.17,75.6,75.6,0,0,1,4.2-7.95c.57-.94,1-1.66,1.37-2.15l.5-.72.74-1L179.81.05l-16,14C158.84,11.45,135.87,0,110.08,0S61.32,11.45,56.38,14.06l-16-14L2.16,44l.74,1,.5.72C5.71,49.09,15.08,64.17,15.06,82c0,13.86-3.65,22.63-7.42,32.07S0,133.5,0,149.2c0,20.9,9.06,34,21.07,42.6a58.67,58.67,0,0,0,21,9.78c8.31,2.09,18.56,3.16,32.84,3.66,9.53.33,18.06,5.26,24.19,10.2a67.4,67.4,0,0,1,7.2,6.74c.84.91,1.49,1.67,1.93,2.2l.49.6.15.2,1.24,1.63,1.24-1.63s.21-.28.65-.8c3-3.72,16.64-18.62,33.32-19.14,14.28-.5,24.52-1.57,32.84-3.66a58.67,58.67,0,0,0,21-9.78c12-8.57,21.11-21.7,21.07-42.6C220.18,133.5,216.3,123.44,212.53,114Z"/><path class="cls-2" d="M209.63,115.18C205.88,105.8,202,96.39,202,82c0-18.53,9.37-33.78,12.06-37.8L179.51,4.45l-15.32,13.4-1-.55s-.37-.21-1.1-.59-1.82-.94-3.21-1.61c-2.79-1.33-6.8-3.11-11.7-4.88-9.8-3.56-23.12-7.11-37.14-7.1C85.55,3.1,63.16,14,58,16.71c-.73.38-1.1.59-1.1.59l-1,.55L40.65,4.45,6.12,44.16c2.68,4,12,19.27,12.05,37.8,0,14.43-3.88,23.84-7.64,33.22s-7.4,18.83-7.41,34c0,20,8.39,31.85,19.77,40.07a55.54,55.54,0,0,0,19.91,9.29c8,2,18,3.07,32.19,3.56,10.56.39,19.61,5.74,26,10.89a69.18,69.18,0,0,1,9.06,8.77,70.09,70.09,0,0,1,9.07-8.77c6.42-5.15,15.47-10.5,26-10.89,14.18-.49,24.23-1.56,32.19-3.56a55.62,55.62,0,0,0,19.91-9.29c11.38-8.22,19.73-20.08,19.77-40.07C217,134,213.39,124.59,209.63,115.18Z"/><path class="cls-1" d="M176.8,14.41,179,12.52l26.81,30.83L167.29,77a65.94,65.94,0,0,0-30.41-27.68Z"/><path class="cls-3" d="M8.83,149.2c.05-14.26,3.28-22.49,7-31.89S23.93,97.43,23.89,82A73,73,0,0,0,17,52.14c-1.33-2.94-2.67-5.44-3.81-7.41l28-32.21,14.06,12.3,4.48-2.55h0a113.26,113.26,0,0,1,15.59-6.84c9.34-3.37,21.89-6.62,34.74-6.6,13.06,0,25.81,3.34,35.19,6.76,4.69,1.7,8.54,3.41,11.19,4.67,1.32.63,2.34,1.15,3,1.5l.15.08L130.88,47A65.73,65.73,0,0,0,44.4,109.3a66.34,66.34,0,0,0,1.15,12.29L9,153.56C8.89,152.16,8.83,150.71,8.83,149.2Z"/><path class="cls-1" d="M37.18,190.76a50.94,50.94,0,0,1-11-6.13,40.65,40.65,0,0,1-12.44-13.71,39.06,39.06,0,0,1-3.85-10.6l37.13-32.46a65.81,65.81,0,0,0,23.38,33.82Z"/><path class="cls-3" d="M75.81,196.45l-.61,0c-14-.48-23.69-1.54-31-3.39l-.71-.19L75.3,165l.51.33Z"/><path class="cls-3" d="M107.23,210.79c-.83-.73-1.7-1.48-2.63-2.23a62,62,0,0,0-12.64-8,46,46,0,0,0-10.44-3.44V168.47a65.25,65.25,0,0,0,25.71,6.45Z"/><path class="cls-3" d="M67.68,151.71a60,60,0,1,1,42.4,17.57A59.76,59.76,0,0,1,67.68,151.71Z"/><path class="cls-3" d="M138.64,197.16a45.93,45.93,0,0,0-10.43,3.44,63.81,63.81,0,0,0-15.27,10.19V174.92a65.16,65.16,0,0,0,25.7-6.45Z"/><path class="cls-3" d="M170.06,194.25A190.45,190.45,0,0,1,145,196.41l-.63,0v-31.1a66,66,0,0,0,25.71-29.22Z"/><path class="cls-3" d="M194,184.63A49.75,49.75,0,0,1,176,193l-.2,0V109.3a65.5,65.5,0,0,0-5.81-27L202.4,53.89A72,72,0,0,0,196.28,82c0,15.47,4.32,26.06,8.05,35.35s7,17.63,7,31.89c0,9.2-1.92,16.11-5,21.72A40.65,40.65,0,0,1,194,184.63Z"/><path class="cls-1" d="M110.08,150.84a41.44,41.44,0,0,1-33-16.28,57.1,57.1,0,0,0,5.63-18.51H132.5v-13.5H82.74a57.12,57.12,0,0,0-5.63-18.5,41.53,41.53,0,0,1,70.66,7.78L160,86.15a55.06,55.06,0,0,0-98.69-2.42,45.71,45.71,0,0,1,7.76,18.8,42,42,0,0,1,0,13.55,45.82,45.82,0,0,1-7.76,18.8A55.06,55.06,0,0,0,160,132.45l-12.26-5.68A41.54,41.54,0,0,1,110.08,150.84Z"/></g></g></svg>