<svg xmlns="http://www.w3.org/2000/svg" viewBox="0 0 277.11 300.01"><defs><style>.cls-1,.cls-2,.cls-3,.cls-4,.cls-5{fill-rule:evenodd;}.cls-2{fill:#5578b7;}.cls-3{fill:#fff;}.cls-4{fill:#dbca4d;}.cls-5{fill:#9f4431;}</style></defs><g id="Capa_2" data-name="Capa 2"><g id="EFFECTS"><path class="cls-1" d="M138.55,297.77a123.24,123.24,0,0,1-21.88-6.22C65.35,271.7,28.8,219.66,12.16,154.79,0,107.47-1.13,54.63,9.34,3.46c28.83,16.84,76,27.86,129.21,27.86s100.39-11,129.21-27.86c10.48,51.17,9.32,104-2.82,151.33-16.63,64.87-53.18,116.91-104.5,136.76a123.35,123.35,0,0,1-21.89,6.22Z"/><path class="cls-2" d="M154.07,31c10.69-.44,21.07-1.32,31-2.6V278.85a132.33,132.33,0,0,1-24.68,12.69c-2.11.82-4.24,1.58-6.36,2.27Zm62.08-8.18a227,227,0,0,0,31-9.54v190.9a204.61,204.61,0,0,1-31,47.6ZM123,293.81q-3.21-1.05-6.36-2.26A132.8,132.8,0,0,1,92,278.84V28.4c10,1.28,20.36,2.16,31.05,2.6V293.81Zm-62.09-42a205.21,205.21,0,0,1-31-47.61V13.28a229.27,229.27,0,0,0,31,9.54Z"/><path class="cls-3" d="M138.55,60.74c44.92,0,81.56,36.35,81.56,80.92s-36.64,80.92-81.56,80.92S57,186.23,57,141.66,93.62,60.74,138.55,60.74Z"/><path class="cls-1" d="M144.09,150.89h-1.68V132.45h1.68v7h3.36v-7h1.68v18.44h-1.68v-8.11h-3.36v8.11Zm6.69-7V132.45h1.85v11.43a9.89,9.89,0,0,0,.17,2.59c.17,1.1.67,1.84,1.34,1.84s1.18-.74,1.35-1.84a8.28,8.28,0,0,0,.34-2.59V132.45h1.68v11.43a28.71,28.71,0,0,1-.34,4.43c-.51,2.22-1.51,2.95-3,2.95-1.34,0-2.35-.74-2.85-2.95A15.56,15.56,0,0,1,150.78,143.88Zm11.74-7-1,7h2l-1-7Zm-3.87,14,2.86-18.44h2l3,18.44H164.7L164,147.2h-3l-.51,3.69ZM167.2,142c0-3.32.33-5.9,1.17-7.38.68-1.84,1.51-2.58,2.69-2.58,1.34,0,2.35,1.1,3,3.32a11.57,11.57,0,0,1,.5,3.32h-1.68l-.51-2.21c-.33-.74-.67-1.11-1.34-1.11-1.35,0-2,2.58-2,6.64s.84,5.9,2,5.9c.67,0,1-.37,1.34-1.1a9.88,9.88,0,0,0,.51-2.22h1.68c-.34,4.06-1.51,6.64-3.53,6.64a3.2,3.2,0,0,1-2.86-2.21,20.35,20.35,0,0,1-1-7Zm10.39,8.85H175.9V132.45h1.69v7H181v-7h1.68v18.44H181v-8.11h-3.36v8.11ZM186,132.45v18.44h-1.85V132.45Zm6.24,5.9c0-1.84-.5-2.58-1.34-2.58h-1.51v5.53h1.51C191.7,141.3,192.2,140.19,192.2,138.35Zm1.69,0c0,4.43-1,5.9-2.86,5.9h-1.68v6.65H187.5V132.45h3.7c1.68,0,2.69,1.84,2.69,5.9Zm4.7-1.48-1,7h2l-1-7Zm-3.86,14,2.86-18.44h2l3,18.44h-1.85l-.67-3.69h-3l-.5,3.69Zm8.2-18.44h6.73v3.32h-2.53V150.9h-1.68V135.77h-2.52v-3.32Zm11.46,15.86c1.34,0,2.35-2.58,2.35-6.64s-1-6.27-2.35-6.27-2.19,2.21-2.19,6.27.84,6.64,2.19,6.64Zm4-6.64c0,3.32-.33,5.9-1.34,7.75a3,3,0,0,1-2.69,1.84,3.18,3.18,0,0,1-2.69-1.84,19,19,0,0,1-1.34-7.75c0-3.32.5-5.9,1.34-7.38.67-1.47,1.51-2.21,2.69-2.21a2.87,2.87,0,0,1,2.69,2.21C218.08,135.77,218.42,138.35,218.42,141.67Z"/><path class="cls-4" d="M138.55,62.29a39.92,39.92,0,0,0,40,39.69,39.92,39.92,0,0,0-40,39.69,39.93,39.93,0,0,0-40-39.69,39.93,39.93,0,0,0,40-39.69Z"/><path class="cls-5" d="M98.54,102a39.93,39.93,0,0,0,40,39.69,39.93,39.93,0,0,0-40,39.69,39.93,39.93,0,0,0-40-39.69A39.93,39.93,0,0,0,98.54,102Z"/><path class="cls-2" d="M138.55,141.67a39.92,39.92,0,0,0,40,39.69,39.92,39.92,0,0,0-40,39.69,39.93,39.93,0,0,0-40-39.69,39.93,39.93,0,0,0,40-39.69Z"/><path d="M138.55,300l-.4-.08a125,125,0,0,1-22.28-6.33,138.17,138.17,0,0,1-36.21-21,169.53,169.53,0,0,1-30-31.28,219.51,219.51,0,0,1-23.35-39.71A274.35,274.35,0,0,1,10,155.34a326.51,326.51,0,0,1-10-74.73A352.83,352.83,0,0,1,7.18,3L7.8,0l2.65,1.55C40,18.81,87.88,29.11,138.55,29.11s98.57-10.3,128.1-27.56L269.31,0l.61,3A352.84,352.84,0,0,1,277,80.61a326.51,326.51,0,0,1-10,74.73,276.12,276.12,0,0,1-16.26,46.32,219,219,0,0,1-23.36,39.71,169.16,169.16,0,0,1-30,31.28,138.07,138.07,0,0,1-36.22,21A124.86,124.86,0,0,1,139,299.93ZM10.91,6.88C1.16,56.67,2.32,107.56,14.3,154.24c17.25,67.27,54.85,116.57,103.17,135.25a120.52,120.52,0,0,0,21.08,6,120.62,120.62,0,0,0,21.09-6c48.31-18.68,85.92-68,103.17-135.25,12-46.68,13.14-97.57,3.39-147.36-14.27,7.86-32.66,14.4-53.43,19a320.4,320.4,0,0,1-35.42,5.66,371.84,371.84,0,0,1-38.8,2,372.12,372.12,0,0,1-38.8-2,320.21,320.21,0,0,1-35.41-5.66C43.57,21.28,25.18,14.74,10.91,6.88Z"/></g></g></svg>