<svg xmlns="http://www.w3.org/2000/svg" xmlns:xlink="http://www.w3.org/1999/xlink" viewBox="0 0 251.43 323.15"><defs><style>.cls-1{fill:none;}.cls-2{clip-path:url(#clip-path);}.cls-3{fill:#779fd5;}.cls-4{fill:#42403f;}.cls-5{fill:#fff;}</style><clipPath id="clip-path" transform="translate(0)"><rect class="cls-1" width="251.43" height="323.16"/></clipPath></defs><g id="Capa_2" data-name="Capa 2"><g id="EFFECTS"><g class="cls-2"><path class="cls-3" d="M246.05,171.05c-2.38,34.92-15.42,69.39-38.29,96.06a157.27,157.27,0,0,1-59.2,43.16,21.24,21.24,0,0,1-4.43,1.57,9.42,9.42,0,0,1-1.81.94c-5.48,1.92-11,3.8-16.6,5.22A165.49,165.49,0,0,1,77,296.52,155.73,155.73,0,0,1,39.83,262.4a161.17,161.17,0,0,1-27.06-51.79,172.17,172.17,0,0,1-7.68-45.86q0-79.83,0-159.64,120.6,0,241.2,0,0,75.36,0,150.69c-.09,5.08.21,10.18-.27,15.25ZM0,0V167.69a181.14,181.14,0,0,0,11.72,55.36,165.35,165.35,0,0,0,27.06,46.2,163.24,163.24,0,0,0,35.63,31.64,171.38,171.38,0,0,0,47.35,21.34c1.57.38,3.16,1.18,4.81.84A171.17,171.17,0,0,0,180,298.93a162.59,162.59,0,0,0,36.41-34.37,165.15,165.15,0,0,0,23.3-41.49,180.22,180.22,0,0,0,11.72-55.74V0Z" transform="translate(0)"/></g><path class="cls-4" d="M234.26,214.48a156.26,156.26,0,0,1-23.59,43.81,151.18,151.18,0,0,1-39.76,36.08,159.76,159.76,0,0,1-45.19,19.24,159.05,159.05,0,0,1-46.81-20.3A151,151,0,0,1,39.4,256.46C19.87,230.4,9.26,198.12,8,165.69q0-78,0-156.06,117.73,0,235.5,0,0,74,0,148a164.93,164.93,0,0,1-9.2,56.88Z" transform="translate(0)"/><path class="cls-5" d="M68.49,54.3C68.1,55.45,67.54,57.09,66,57c-1.22,0-2.87.27-3.51-1.08-1.48-2.64-1.3-5.81-1.35-8.75.1-3.72-.31-7.51.6-11.16a5.37,5.37,0,0,1,1.3-2.54c1.08-.64,2.54-.37,3.74-.19,2.3,1.31,2.26,4.37,2.42,6.68-.11,4.79.45,9.68-.75,14.36Zm6.27,6.82c3-3.48,3.76-8.19,4-12.62A52.13,52.13,0,0,0,78,35.42,13.72,13.72,0,0,0,73.89,28c-2-1.85-4.79-2.38-7.42-2.42-2.88,0-6,0-8.49,1.52-3.21,1.9-4.87,5.53-5.59,9a46.73,46.73,0,0,0-.4,15c.59,3.85,1.79,7.92,4.8,10.58,2.75,2.5,6.74,2.93,10.27,2.44a44.72,44.72,0,0,0,7.28,6.53C76.54,69.27,78.8,68,81,66.48c-2.14-1.71-4.63-3.07-6.21-5.36Z" transform="translate(0)"/><path class="cls-5" d="M143.38,55a4.93,4.93,0,0,1-1.46,2,30.13,30.13,0,0,1-3.16-.13A3.65,3.65,0,0,1,137,54.36c-.89-3.22-.59-6.6-.64-9.89,0-3.1-.2-6.3.83-9.27a2.73,2.73,0,0,1,2.45-2.1c1.32-.12,3.11-.07,3.7,1.37,1.35,2.67,1,5.77,1.09,8.66-.07,4,.34,8.1-1,11.91ZM150,61.1c.76-1.55,2.09-2.81,2.53-4.52,1.7-5.35,1.61-11.1,1.23-16.66-.35-3.82-1.15-7.87-3.68-10.9a9.5,9.5,0,0,0-6.87-3.37c-4.1-.33-8.8-.25-11.91,2.85-4.23,4.27-4.69,10.73-4.57,16.41-.15,5.58.47,11.79,4.46,16.05,2.77,3,7.19,3.76,11.1,3.21a36.59,36.59,0,0,0,7.17,6.55c2.19-1.47,4.49-2.74,6.65-4.23-2-1.78-4.86-2.89-6.11-5.39Z" transform="translate(0)"/><path class="cls-5" d="M174.34,25.77c0,8.61,0,17.22,0,25.83-.13,1.76-.26,4-2,5a6.4,6.4,0,0,1-3.5,0c-1.61-1.07-1.86-3.19-1.91-5,0-8.55,0-17.1,0-25.66-3.12,0-6.22,0-9.33,0-.17,8.26.06,16.52,0,24.78-.08,3.34.33,7,2.48,9.64A11,11,0,0,0,168,64.2c3.83.26,8.15.46,11.33-2.1,3.36-2.7,4.33-7.27,4.45-11.38,0-8.31,0-16.62,0-24.93-3.13,0-6.27,0-9.41,0Z" transform="translate(0)"/><path class="cls-5" d="M47.65,26c-3.2,0-6.41,0-9.61,0,0,12.66,0,25.32,0,38,3.21,0,6.42,0,9.63,0q0-19,0-37.94Z" transform="translate(0)"/><path class="cls-5" d="M99.12,26q0,11.75,0,23.47a21.76,21.76,0,0,1-.39,5c-.33,1-.93,2.38-2.19,2.37s-3,.34-3.73-1c-1.15-1.92-1-4.26-1-6.41,0-7.81,0-15.62,0-23.43-3.12,0-6.24,0-9.35,0-.05,8.27,0,16.55,0,24.82.08,3.44.62,7.12,2.82,9.88,2,2.59,5.46,3.59,8.64,3.65s6.79.24,9.57-1.72c3.67-2.48,5-7.16,5.08-11.38,0-8.41,0-16.81,0-25.22-3.13,0-6.27,0-9.41,0Z" transform="translate(0)"/><path class="cls-5" d="M113.26,26c0,12.66-.06,25.32,0,38,3.16,0,6.32,0,9.48,0,.07-12.64,0-25.29,0-37.93-3.18-.08-6.37,0-9.56-.05Z" transform="translate(0)"/><path class="cls-5" d="M210.81,56.65c-4.38,0-8.77,0-13.16,0,0-3,0-6,0-9.06H209.1c0-2.45,0-4.9,0-7.35-3.81.07-7.62,0-11.44,0,0-2.32,0-4.63,0-6.94,4.11,0,8.22,0,12.32,0,.74-2.43,1.34-4.89,1.94-7.35-7.82,0-15.64,0-23.47,0,0,12.65,0,25.3,0,38,8.13,0,16.25,0,24.38,0-.63-2.43-1.38-4.81-2-7.23Z" transform="translate(0)"/><path class="cls-5" d="M26,78.63q99.72,0,199.43,0,0,39.72,0,79.42c.33,20-3.86,39.9-11.23,58.43a113.79,113.79,0,0,1-11.75,22.39c-8.46,12.36-18.54,23.93-30.84,32.55h-.33l.81-.45c-3.92-7.13-6.23-15.35-5.23-23.53A8,8,0,0,1,168,245.1c.06,4.19.2,8.83,3.05,12.19,1.29,1.64,3.38,2.23,5.36,2.49-1.64-3.07-4.13-6.43-2.88-10.11,1.12-3.92,5.81-4.5,8.3-7.21,3.24-3.51,3.64-8.53,3.79-13.06a17.81,17.81,0,0,1,3.33,5.89,20.05,20.05,0,0,1,.69,6.37A17.22,17.22,0,0,0,192.06,229a21.45,21.45,0,0,0-4-8.47c-.91-1.14-1.86-2.25-2.73-3.41,2.27.23,4.52.84,6.81.86.74,0,1.8-.16,1.82-1.08a33.44,33.44,0,0,0-3.78-3,25.81,25.81,0,0,1-8.26-11.91,16.87,16.87,0,0,1,.61-9.84,19.6,19.6,0,0,1,6.18,6.21c1.05,1.66,1.07,3.66,1.2,5.55a10.52,10.52,0,0,0,1-4.5c-.41-6.82-2.93-13.33-6.16-19.28a21.51,21.51,0,0,0,2.3-8.07c.38-3.45-.82-6.78-1.26-10.16-2.1,2-3.91,4.47-6.63,5.73-1.49.78-3.22.64-4.86.62.16-4.08,2-7.86,2.26-11.94a18.65,18.65,0,0,0-1-7l-.53,0c-1.07,2-2.24,4.24-4.51,5-2.58.54-4.81-1-7.17-1.73.31,2,1.25,4.21.35,6.25-.18.8-.85,1.68-.33,2.48a15.9,15.9,0,0,1,2,6.66c0,3,.38,6.07-1,8.83-1,0-2.21.23-2.87-.72-2.33-2.74-3.51-6.62-6.94-8.28a29.58,29.58,0,0,1-.36,5.48c-.83,0-1.66-.09-2.48-.16a43.89,43.89,0,0,0,1.87,6.37c2.35,5.93,1.69,12.47.62,18.6-2,10.77-6.34,20.89-10,31.17-1.75,5.32-4,10.48-5.73,15.81-1,3.07-2,6.12-3,9.17a147.85,147.85,0,0,0-6.34,27.75,57.72,57.72,0,0,0-.73,9.19l.64,0h.08c-.94.08-1.89.1-2.83.15,0-.53-.06-1.05-.08-1.58a72.76,72.76,0,0,0-18.16-7.45c-2.56-.44-5.56-1.15-7.83.54l-.28.11-.25.09c-4.26-2.18-8.4-4.59-12.56-6.95C72.48,267.86,60.7,255.33,51,241.75a110.33,110.33,0,0,1-12.6-22.46A152.85,152.85,0,0,1,26,161.67q0-41.52,0-83Z" transform="translate(0)"/><path class="cls-3" d="M79.33,98.8a26,26,0,0,1,6-14c-1.56,4-3,8.26-2.91,12.65a26.59,26.59,0,0,0,6.3,17.23c1.37,1.68,3.31,2.72,4.78,4.27,1.27,1.43,1.38,3.43,1.67,5.22.62,3.78.18,7.69,1.19,11.4.06.81,1,.82,1.55,1.06,1.55-3.44,1.8-7.29,2.17-11a28.14,28.14,0,0,0-.67-10.81c-.66-2.47-2.27-4.51-3.23-6.84a11.47,11.47,0,0,1,5.3,4.27c1.31,2.06,1.2,4.76,2.76,6.68,1.07,1.1,2.74.63,4,.06a13.28,13.28,0,0,0,5.85-6.33c1.27-3.36-.16-7-2.66-9.43a12.84,12.84,0,0,1,4.93,2.75c1.71,1.48,1.44,4,2.44,5.86,1.88.07,2.48-2.11,2.4-3.61.12-2.53-1.64-4.51-2.64-6.68,2.18,1.33,4.5,2.85,5.55,5.28.56,2.2-.45,4.33-1.26,6.32l.74-.34c1.43-2.56,4-4.18,5.59-6.61a30.35,30.35,0,0,0,5-11.7c.66-3.07.28-6.22.24-9.34a16.17,16.17,0,0,1,4,12.74,23.13,23.13,0,0,1-4,10c-1.8,3-4.09,5.72-5.33,9-1.5,3.88-2.47,8-4.41,11.69-2.4.79-5,1.38-7,2.91a34.35,34.35,0,0,0-5.73,6.31c-3.69,4-6.1,9.06-10,12.93-1.16,1.06-2.84,1.28-3.92,2.43a48.39,48.39,0,0,0-4,4.72c-1.75,2.25-3.87,4.18-5.55,6.48a3.93,3.93,0,0,0-.52,1.69c1.76-.05,3.17-1.45,5-1.08a4.76,4.76,0,0,0,4.8-2.2,41.59,41.59,0,0,1,7.63-9.54c-1.15.26-2.32.47-3.49.62a102.7,102.7,0,0,1,11.54-15.73c1.74-2,3.23-4.4,5.71-5.56,2-1.1,4.42-1.36,6.54-2.3,3.24-4.86,5.46-10.28,8-15.53,1.8-3.56,3.67-7.21,6.63-10,1.54-1.44,3.47-2.75,5.66-2.72a8.82,8.82,0,0,1,3.18.76c-1.74,1.43-4.06,2.42-4.93,4.65-.49,1.19-.57,3,.77,3.67,1.89-.17,2.13-2.36,2.93-3.68,7.07-4,16.54-2.7,22.48,2.79a4.59,4.59,0,0,1,1.21,1.79c-4.89-1.14-10.35-.7-14.52,2.3a3,3,0,0,0-1.42,3.27,7.33,7.33,0,0,0,5.57,4.81c3.18.67,6.23,3.29,6.18,6.76-1.51-1.27-3.21-2.71-5.33-2.44-2.87-.41-5.06,3.82-2.85,5.8,1.72,1.26,4.25,1.14,5.56,3,2.18,2.33,2.1,5.72,1.51,8.64-1.22-1.25-2.21-2.78-3.79-3.65a10.75,10.75,0,0,0-4-1.08,47.74,47.74,0,0,1,4.8,4.74,32.29,32.29,0,0,1,4.07,7.51c-2-.95-5.16-2.09-6.4.44.27,2.18,1.75,4.29.79,6.52a5.14,5.14,0,0,0-3.36,1.11,5.54,5.54,0,0,1,3.93,3.68,21.1,21.1,0,0,1,.71,11.36,19.65,19.65,0,0,0-7.06-8.55,4.43,4.43,0,0,0-2.61-.49,12.74,12.74,0,0,0-1.12,4.11c-1.06,0-2.13,0-3.18-.09.16,3.39,1.61,6.86.46,10.21-1.18,1.27-3,.36-4.29-.33-4.72-2.9-7.3-8.11-9.3-13.08-1.87-4.6-2.08-10.18-6-13.68-3.73-3.86-9.42-5-14.58-4.29a49.21,49.21,0,0,0-6.27,1.21c-.45.75-.89,1.52-1.32,2.3,2.79-.63,5.64-1.36,8.52-.94,4,.49,8.4,2,10.89,5.38,1.38,1.69,1.17,4,1,6-2.29,3.94-6.81,5.7-11,7a23.64,23.64,0,0,1-9,.88c-1.67-.11-3.2-1.06-4.9-1-1.8,1-3.33,2.41-5.08,3.49-1.46.79-1.65,2.52-2.14,3.94A81.84,81.84,0,0,1,90,190c-1.71,3.1-4,6-4.6,9.56a8.07,8.07,0,0,0,2.23,6.95A23.81,23.81,0,0,0,90.48,197a5.26,5.26,0,0,1,.44-1.56c2.56-5.43,4.42-11.17,7.25-16.47a11.56,11.56,0,0,1,7.61-5.94c4.43-1.18,9.06-.71,13.59-.93,1.94-.21,4-.51,5.56-1.83s2-3.62,3.79-4.77a9.31,9.31,0,0,1,2.17-.24c0,1.83.25,3.74-.46,5.48a10,10,0,0,1-8.79,6.8,29.51,29.51,0,0,0-11.92,2.62,21.82,21.82,0,0,0-7.93,6.4c-4.52,5.94-4.41,14.17-9.26,19.92-2.61,2.93-5.6,5.88-9.47,7-1.66.41-4.09.78-4.89-1.2-.94-1.71.67-3.35,2-4.19,1.66-1.18,3.71-.18,5.51,0a64.11,64.11,0,0,0-5.35-4.09c-2.91-.42-6.5.12-8.45,2.55-1.28,2.45,1,4.57,2.59,6.2-3.71-.41-6.82-2.94-9.07-5.78a21.55,21.55,0,0,1-3.12-4.79c-.32-.88.35-1.63.77-2.33a30.6,30.6,0,0,1,4.29,1.65c4.47,1.07,9.85-2.35,10-7.15.25-1.72-1.42-3.05-1.14-4.74A2.21,2.21,0,0,1,79,188.33a4.88,4.88,0,0,0,2.23,2.17c.85-1.39,1.28-3.32.06-4.64-.67-1.18-2.44-.93-3.3-.1a13.43,13.43,0,0,0-3.2,4.1c-.34,1.51,1.41,2.57,1.23,4.08-.22,3.23-3.33,5.74-6.43,6-2.39.3-4-2.2-6.29-2.15-1,0-1.75.78-2.49,1.36-1.85-1.16-1.67-3.51-1.32-5.39,2.38-3.7,7.49-4,10-7.5,1.82-2.37,3.75-4.66,5.58-7,1.38-1.79,3.25-3.28,4.09-5.44,0-.78-.24-1.88-1.09-2.17-1.27,0-2.56.75-3.8.16a6.09,6.09,0,0,1-2.93-2.7c1.78-1.49,3.58-3,5.31-4.5,1.88-1.73,2.26-4.39,3-6.7a58.32,58.32,0,0,1,2.13-6.3c1.66-2.5,4.25-4.23,5.9-6.75.52-.89.29-2,.35-3-.09-3.72-.18-7.85-2.73-10.83-3.6-4.69-10-6.2-15.66-5.21.63-3.68,4.06-6.26,7.5-7.17,2-.68,4,.29,5.94.3A38.09,38.09,0,0,1,79.33,98.8Z" transform="translate(0)"/><path class="cls-3" d="M175.07,149.27l.53,0a18.65,18.65,0,0,1,1,7c-.21,4.08-2.1,7.86-2.26,11.94,1.64,0,3.37.16,4.86-.62,2.72-1.26,4.53-3.7,6.63-5.73.44,3.38,1.64,6.71,1.26,10.16a21.51,21.51,0,0,1-2.3,8.07c3.23,6,5.75,12.46,6.16,19.28a10.52,10.52,0,0,1-1,4.5c-.13-1.89-.15-3.89-1.2-5.55a19.6,19.6,0,0,0-6.18-6.21,16.87,16.87,0,0,0-.61,9.84,25.81,25.81,0,0,0,8.26,11.91,33.44,33.44,0,0,1,3.78,3c0,.92-1.08,1.1-1.82,1.08-2.29,0-4.54-.63-6.81-.86.87,1.16,1.82,2.27,2.73,3.41a21.45,21.45,0,0,1,4,8.47,17.22,17.22,0,0,1-2.42,12.69,20.05,20.05,0,0,0-.69-6.37,17.81,17.81,0,0,0-3.33-5.89c-.15,4.53-.55,9.55-3.79,13.06-2.49,2.71-7.18,3.29-8.3,7.21-1.25,3.68,1.24,7,2.88,10.11-2-.26-4.07-.85-5.36-2.49-2.85-3.36-3-8-3.05-12.19a8,8,0,0,0-1.14,2.33c-1,8.18,1.31,16.4,5.23,23.53l-.81.45h.5c-6.9,4.89-14.5,8.62-22,12.53-6.55,3.22-13.34,6.39-20.68,7.16l-.64,0a57.72,57.72,0,0,1,.73-9.19,147.85,147.85,0,0,1,6.34-27.75c1-3.05,2.06-6.1,3-9.17,1.75-5.33,4-10.49,5.73-15.81,3.65-10.28,8-20.4,10-31.17,1.07-6.13,1.73-12.67-.62-18.6a43.89,43.89,0,0,1-1.87-6.37c.82.07,1.65.12,2.48.16a29.58,29.58,0,0,0,.36-5.48c3.43,1.66,4.61,5.54,6.94,8.28.66.95,1.88.69,2.87.72,1.34-2.76,1-5.88,1-8.83a15.9,15.9,0,0,0-2-6.66c-.52-.8.15-1.68.33-2.48.9-2,0-4.2-.35-6.25,2.36.7,4.59,2.27,7.17,1.73,2.27-.74,3.44-3,4.51-5Z" transform="translate(0)"/><path class="cls-3" d="M130.89,175.06c.39-2,1.86-3.58,2.88-5.3a38.07,38.07,0,0,0,6.55,8.74c.16.27.91.87.34,1.09a24.19,24.19,0,0,1-5.47.81c-.76-.9-1.26-2-2.07-2.83a17.05,17.05,0,0,1-2.23-2.51Z" transform="translate(0)"/><path class="cls-3" d="M136.42,182.49c2.72-.53,5.64-1.43,8.33-.27,1.94.86,3.91,1.87,6.11,1.68.52-.43,1-.84,1.57-1.26a20.5,20.5,0,0,1,.58,8.21c-4.6-1.42-9.71-3.78-14.44-1.5-.75-2.28-1.6-4.53-2.15-6.86Z" transform="translate(0)"/><path class="cls-3" d="M138.89,191.2a14,14,0,0,1,5.25-.69c3.1.13,5.78,1.83,8.73,2.56-.39,3.25-1.19,6.45-1.52,9.72-2.68-.88-5.2-2.47-8.12-2.37-1.55-.24-3.1.59-4.59.36a53.81,53.81,0,0,0,.25-9.58Z" transform="translate(0)"/><path class="cls-3" d="M137.55,203.74a10.66,10.66,0,0,1,7.44-1,30.3,30.3,0,0,1,5.36,2.07c-.82,3.6-2.08,7.08-3,10.65-2.31-.83-4.11-2.62-6.43-3.42-1.63-.62-3.4-.42-5.12-.45.51-2.1,1.58-4,1.89-6.18-.14-.2-.4-.6-.53-.8.13-.29.28-.57.43-.85Z" transform="translate(0)"/><path class="cls-3" d="M132.88,217.46c.78-1.73,1.82-3.93,4.06-3.9,3.72-.54,6.41,2.5,9.58,3.82-1.62,4.47-3.15,9-5,13.38-3.28-3.38-7.28-6.78-12.29-6.63.79-2.37,2.47-4.28,3.58-6.48L132,216.5l.88,1Z" transform="translate(0)"/><path class="cls-3" d="M127.66,226.55c2-.26,4.3-.41,6.16.63a21.31,21.31,0,0,1,6.2,5,2.2,2.2,0,0,1,.19,2.34c-1.66,4.73-3.47,9.41-5.06,14.16-3.67-3.27-7.2-7-12-8.62a25,25,0,0,0-6.37-1c2.28-3.3,5.12-6.14,7.71-9.18,1-1.1,1.67-2.73,3.14-3.32Z" transform="translate(0)"/><path class="cls-3" d="M114.05,242.84c1.1-2.13,3.83-1.67,5.79-1.49,6,1,10.79,5.39,14.33,10.09-1.22,5.2-3.14,10.23-4.38,15.42L129,267a31.76,31.76,0,0,0-9.27-7.38,19.83,19.83,0,0,0-13.69-1.53,97.24,97.24,0,0,1,8-15.27Z" transform="translate(0)"/><path class="cls-5" d="M202.1,247.81c.18-2.63,2.56-4.19,4.48-5.61.37.59.69,1.23,1,1.84a5.08,5.08,0,0,0-3.9,3.35,1,1,0,0,0,1,1.29c1.47-1.13,2.4-2.91,4.12-3.71a2.7,2.7,0,0,1,3.25,3.31c-.53,2.47-2.66,4-4.64,5.34-.41-.7-.82-1.39-1.24-2.07l1.19.11c1.26-.84,2.71-1.84,3-3.44a.92.92,0,0,0-1.11-1.23c-1.37,1-2.22,2.6-3.71,3.45a2.55,2.55,0,0,1-3.47-2.63Z" transform="translate(0)"/><path class="cls-5" d="M47.61,248c.58-.48,1.17-1,1.75-1.45a15.37,15.37,0,0,0,2.58,3.63,17,17,0,0,0,3.23,3.54q-.84.61-1.68,1.26a11.68,11.68,0,0,0-2-2.92c-2,1.67-4.22,3-5.84,5-.52-.66-1-1.31-1.58-1.94,2.27-1.21,4.06-3.14,6.13-4.65l-1.85-2.32-.78-.19Z" transform="translate(0)"/><path class="cls-5" d="M199.81,249.78c.5.46,1,.91,1.56,1.36-1.73,1.33-3,3.17-4.44,4.75l1.59,1.43c1-1.12,2.28-2.06,2.69-3.56.53.45,1.08.9,1.63,1.33a12.3,12.3,0,0,0-3.13,3.3c.64.51,1.28,1,1.92,1.57,1.27-1.8,3.24-3.16,4-5.26.53.46,1.06.92,1.61,1.36-2.28,1.93-4,4.41-6,6.6a11.56,11.56,0,0,0-2.26-2.32,39.38,39.38,0,0,0-4.69-3.78c1.38-1.42,2.59-3,3.94-4.45a7.07,7.07,0,0,0,1.56-2.33Z" transform="translate(0)"/><path class="cls-5" d="M53,258.14a15.3,15.3,0,0,0,3.15-3c.51.62,1,1.23,1.56,1.84-2.35,1.59-4.35,3.64-6.62,5.36,0,.23-.17.68-.22.9-.58-.71-1.16-1.42-1.77-2.11a23.9,23.9,0,0,0,3.9-3Z" transform="translate(0)"/><path class="cls-5" d="M191.28,260.09c.54-.49,1.08-1,1.63-1.49a45.13,45.13,0,0,0,6.46,6.43c-.5.52-1,1-1.49,1.57-2.77-.66-5.66-.28-8.49-.45a48.9,48.9,0,0,0,4.58,4.41c-.56.51-1.11,1-1.65,1.55a16.12,16.12,0,0,0-2.84-3.22,20.22,20.22,0,0,0-3.6-3.26l1.94-2.05c.14.16.42.47.55.64,2.47,0,4.94.08,7.4.13a31.17,31.17,0,0,0-4.49-4.26Z" transform="translate(0)"/><path class="cls-5" d="M59.06,258.9c2.09,2,3.9,4.43,6.36,6-.52.45-1,.92-1.56,1.39-1.11-1.85-2.91-3.12-4.33-4.73l-1.59,1.5a14.82,14.82,0,0,0,3.38,3c-.48.43-.94.86-1.39,1.31a27.06,27.06,0,0,0-3-3.27c-.62.57-1.22,1.16-1.82,1.75,1.61,1.52,2.93,3.43,4.9,4.52-.49.48-1,1-1.43,1.47a59.8,59.8,0,0,0-6.32-6.61c1.09-.14,1.75-1.1,2.48-1.81a50,50,0,0,0,4.29-4.57Z" transform="translate(0)"/><path class="cls-3" d="M105,260.78c3.07-1.11,6.46-1.92,9.69-.94a29.68,29.68,0,0,1,13.2,8.68c.51.63,1.35,1.31,1,2.24a102.25,102.25,0,0,0-2.52,17.05c-5.35-2.75-10.56-5.92-16.36-7.63a18.46,18.46,0,0,0-9.59-.27c.22-4.92,1.91-9.57,3.1-14.31q.64-2.44,1.52-4.82Z" transform="translate(0)"/><path class="cls-5" d="M69.56,273.79a18.4,18.4,0,0,1-3.83-2.92c.51-.62,1-1.22,1.54-1.84a31.22,31.22,0,0,1,3.43,3.06,1.47,1.47,0,0,1-1.14,1.7Zm2.58-2.39c-1.58-1.89-3.74-3.19-5.47-4.94a45.61,45.61,0,0,1-6.06,7c.63.55,1.27,1.11,1.9,1.68a12.64,12.64,0,0,1,2.29-3.1l1.88,1.62c-.25,1.41,0,3-.87,4.22.79.63,1.56,1.28,2.29,2a30.71,30.71,0,0,1,.19-4.79c.87.22,1.86.76,2.72.23,1.35-.68,2.2-2.63,1.13-3.91Z" transform="translate(0)"/><path class="cls-5" d="M186.72,273.88c-.05,2.64-3.87,4.19-5.6,2-1.73-1.63-.79-4.66,1.38-5.36a3.26,3.26,0,0,1,4.22,3.33Zm-4.21-5.08c-2.24.86-4.42,3-4.17,5.56a4.81,4.81,0,0,0,3.54,4.27c2.9.68,5.93-1.59,6.7-4.33.82-3.35-2.77-6.75-6.07-5.5Z" transform="translate(0)"/><path class="cls-5" d="M174.12,284.2c-.48-.71-1-1.42-1.42-2.13a19.26,19.26,0,0,1,3.91-2.25c-.37-.55-.73-1.11-1.08-1.66a20.19,20.19,0,0,1-3.56,2.67l-1.27-1.74c1.84-1.16,3.5-2.82,5.68-3.34-.41-.6-.8-1.2-1.19-1.8-2.09,2-4.75,3.33-7.17,4.93a25.8,25.8,0,0,1,2.92,4.15,21.54,21.54,0,0,1,2.15,3.69c2.48-1.59,4.8-3.58,7.56-4.65-.39-.57-.75-1.15-1.1-1.72-1.59,1.59-3.67,2.51-5.43,3.85Z" transform="translate(0)"/><path class="cls-5" d="M79.09,280.89a27.69,27.69,0,0,1-4.2-2.64c.44-.69.9-1.36,1.34-2,1.28.89,2.54,1.78,3.78,2.71a3.44,3.44,0,0,1-.92,2ZM81.18,278c-1.79-1.68-4-2.85-5.88-4.4a23,23,0,0,1-2.8,4.5,19.67,19.67,0,0,1-2.44,3.17c.66.45,1.3.94,1.93,1.44a16.3,16.3,0,0,1,2-3.28l2,1.48c-.06,1.42.16,2.9-.43,4.24.79.58,1.57,1.16,2.34,1.76-.14-1.59-.14-3.18-.13-4.78.83.14,1.69.53,2.5.12,1.49-.73,2.23-3,.86-4.25Z" transform="translate(0)"/><path class="cls-3" d="M100.31,282.75c2.27-1.69,5.27-1,7.83-.54a72.76,72.76,0,0,1,18.16,7.45c0,.53,0,1,.08,1.58-9.52.57-18.34-3.9-26.57-8.11l0-.18.25-.09.28-.11Z" transform="translate(0)"/><path class="cls-5" d="M87.21,287.34A19.09,19.09,0,0,1,84.52,286c1-.71,2-1.43,3-2.13-.07,1.14-.12,2.3-.26,3.44Zm2.07-4.08c.18-.16.53-.49.71-.67-.87-.46-1.73-.95-2.56-1.49-.19,1.14-1.3,1.64-2.12,2.27a67.72,67.72,0,0,1-5.86,4c.8.42,1.61.87,2.39,1.34.13-.92,1-1.4,1.64-1.89,1.15.71,2.33,1.38,3.56,2a3.08,3.08,0,0,1-.6,2.5,25.18,25.18,0,0,1,2.69,1.49c-.32-3.16.24-6.33.15-9.5Z" transform="translate(0)"/><path class="cls-5" d="M162.4,286.7c-.41-.71-.83-1.41-1.25-2.11a35.17,35.17,0,0,1,4.17-2.18,12.2,12.2,0,0,1,1.1,1.8,33.21,33.21,0,0,1-4,2.49Zm2.38-5.73c-2.2.86-4.15,2.25-6.26,3.3a30.11,30.11,0,0,1,2.67,4.43,15.27,15.27,0,0,1,1.76,3.72c.71-.43,1.44-.85,2.17-1.24a16.16,16.16,0,0,1-2.05-3.12c1.59-1,3.49-1.66,4.74-3.11,1.32-1.88-.82-4.85-3-4Z" transform="translate(0)"/><path class="cls-5" d="M156.34,285.37c-.86.47-1.73.91-2.62,1.33a37.42,37.42,0,0,1,0,6.35c-1.58-1.37-3.56-2.3-4.86-4l-2.92,1.44c.2.09.58.29.78.4,1.09,2.64,2.82,5,3.48,7.85.71-.4,1.43-.75,2.17-1.08-1.44-1.62-2-3.76-3.09-5.61,2,1.32,3.88,2.81,5.83,4.2.19-2.4.25-4.8.51-7.19.83,1.92,2.07,3.69,2.49,5.76.74-.36,1.49-.71,2.24-1.05a36.81,36.81,0,0,1-2.54-4.81,11.51,11.51,0,0,1-1.43-3.62Z" transform="translate(0)"/><path class="cls-5" d="M104.43,297.92c-1.7.44-3.22-.73-4.69-1.39.86-1.83,1.6-3.71,2.49-5.51,1.6.63,3.91,1.09,4.3,3.07a4.05,4.05,0,0,1-2.1,3.83Zm2.9-6.06c-1.93-1.49-4.35-2.11-6.47-3.27a42.73,42.73,0,0,1-3.79,8.52c2.11.79,4.08,2,6.26,2.57,4,.91,6.89-5.1,4-7.82Z" transform="translate(0)"/><path class="cls-5" d="M111,293a85,85,0,0,0,8.37,2.16c-.17.61-.35,1.21-.51,1.84-1.94-1.06-4.17-1.27-6.24-1.94-.15.72-.3,1.44-.45,2.18a16.84,16.84,0,0,0,4.33.83c-.18.61-.36,1.24-.52,1.86a18.48,18.48,0,0,0-4.3-1.27l-.63,2.37c2.18.5,4.28,1.43,6.53,1.47-.23.73-.45,1.46-.68,2.19-.14-.18-.45-.53-.6-.71-2.65-.6-5.24-1.44-7.89-2a7.75,7.75,0,0,0,1-2.57c.52-2.12,1.23-4.2,1.56-6.37Z" transform="translate(0)"/><path class="cls-5" d="M127,296.73c2.32-2.17,5.72-1.62,8.42-.6-.29.6-.56,1.19-.82,1.81-2.21-2.55-7.8-.94-6.88,2.83.84,3.44,5.85,2.93,7.34.25.4.51.83,1,1.25,1.53-2.16,1.38-4.62,2.93-7.32,2.07-3.37-.77-4.62-5.62-2-7.89Z" transform="translate(0)"/><path class="cls-5" d="M140.4,298.78c.1-1.21.21-2.42.31-3.62.86.83,1.7,1.7,2.52,2.57l-2.83,1Zm3.51-3.13c-1-1-2.24-1.82-2.71-3.19-.93.39-1.86.74-2.79,1.1l.72.41c-.3,3.19-.48,6.39-1.07,9.54.86-.33,1.74-.64,2.62-.92-.66-.65-.44-1.58-.45-2.41,1.32-.49,2.66-1,4-1.5.59.6,1.34,1.16,1.27,2.1,1-.4,2-.76,3.05-1.1-1.82-1-3.1-2.66-4.61-4Z" transform="translate(0)"/></g></g></svg>