<svg xmlns="http://www.w3.org/2000/svg" viewBox="0 0 252.28 252.26"><defs><style>.cls-1{fill:#f6f2f2;}.cls-2{fill:#842d3d;}.cls-3{fill:#962c30;}.cls-4{fill:#fcfcfc;}.cls-5{fill:#f4eeee;}.cls-6{fill:#5b9f78;}.cls-7{fill:#2b2860;}.cls-8{fill:#5f9f7b;}.cls-9{fill:#28265f;}.cls-10{fill:#629d7f;}.cls-11{fill:#2c2b61;}.cls-12{fill:#231e57;}.cls-13{fill:#9a363b;}.cls-14{fill:#a2484c;}</style></defs><g id="Capa_2" data-name="Capa 2"><g id="EFFECTS"><path class="cls-1" d="M252.28,126.11A126.33,126.33,0,0,1,126,252.26c-69.3,0-126-56.62-126-125.85A126.2,126.2,0,0,1,126.25,0C195.61-.06,252.23,56.6,252.28,126.11Zm-31-76.46c-.31-.46-.59-.94-.94-1.37A122.24,122.24,0,0,0,9.91,164.08,112.32,112.32,0,0,0,29.74,201a8.23,8.23,0,0,0,.55,1c32.19,41.71,91.27,57.71,140.35,38,58.16-23.34,89.2-84.28,73.7-144.86A115.06,115.06,0,0,0,221.3,49.65Z"/><path class="cls-2" d="M29.74,201A112.32,112.32,0,0,1,9.91,164.08,122.24,122.24,0,0,1,220.36,48.28c.35.43.63.91.94,1.37-3.19,4.59-8.06,7.46-12.44,10.45-4.19,2.85-7.48,6.77-12,9.19-3.3,1.74-6,4.58-9,6.94-.33-.33-.68-.63-1-1-19-21.59-42.82-30.94-71.42-27.55C70.56,53,38.82,98.08,48.53,142.27A86.1,86.1,0,0,0,62.92,174.1c-2.21,1.53-4.51,3-6.62,4.6-7.92,6.21-15.45,12.92-23.75,18.65A6.43,6.43,0,0,0,29.74,201ZM161.11,30.45c.51,3.55,1,6.35,1.29,9.17.18,1.91,1.62,2.17,2.89,2.51,1.55.42,1.44-1.15,1.79-2,1.42-3.34,2.74-6.72,4.11-10.08.51-1.25,1.45-2.41-.73-3.27s-2.11.68-2.57,1.79c-.8,1.94-1.55,3.91-2.36,6-.94-.81-.61-1.71-.72-2.48-.28-2.22-.55-4.43-.77-6.66-.17-1.75-1.68-1.89-2.83-2.24-1.36-.42-1.33,1-1.64,1.76-1.56,3.69-3,7.44-4.56,11.1-.61,1.41-.2,1.94,1.08,2.48s1.86.2,2.3-1C159.16,35.38,160,33.26,161.11,30.45ZM106.5,26.8a5.15,5.15,0,0,1,1.15.66c1.62,1.92,3.28,3.82,4.79,5.82,1,1.38,2.3,1,3.53.68,1.55-.41.83-1.62.69-2.55-.6-3.77-1.27-7.53-1.87-11.29-.21-1.3-.41-2.31-2.21-2s-1.57,1.32-1.42,2.62c.25,2,1.16,4,.64,6.48-2-2.53-3.78-4.68-5.5-6.86-1.07-1.38-2.36-.67-3.58-.42-.88.19-.77.9-.66,1.57.75,4.31,1.51,8.62,2.22,12.93.21,1.23.79,1.48,2,1.2s2-.27,1.66-1.84C107.37,31.56,107,29.32,106.5,26.8Zm29.39,1.28c-.15,4.19,1.73,6.32,5.62,7,3.52.63,6.25-.87,7.16-4.17a32.11,32.11,0,0,0,1-5.76c.27-3.46-1.7-5.82-5.19-6.46-3.94-.72-6.7.75-7.63,4.26C136.33,24.83,136.12,26.79,135.89,28.08ZM89.27,41c5.16,0,8-4.12,6.18-8.92-1-2.52-2.07-5-3-7.5-.48-1.29-1-1.76-2.44-1.09s-1.7,1.08-1,2.47c1,2,1.71,4.11,2.54,6.18.72,1.8,1.94,3.82-.72,5s-3.29-1.09-4-2.89c-.89-2.15-1.82-4.29-2.61-6.47-.46-1.27-1.07-1.49-2.29-1s-1.87,1-1.2,2.44c1.23,2.7,2.21,5.52,3.44,8.23C85.08,39.65,86.68,41.11,89.27,41Zm38.8-15.54h.24c0-2-.06-4.08,0-6.12.06-1.4-.37-2-1.87-2-1.32,0-1.8.44-1.82,1.76q-.06,6.26-.29,12.5c0,1.42.43,1.94,1.9,2,1.62.06,1.84-.75,1.83-2C128.05,29.58,128.07,27.54,128.07,25.5Zm14.46-8.39c3,1.37,4.39-.57,6.11-2.2C145.61,13.31,144.11,15.07,142.53,17.11Z"/><path class="cls-3" d="M29.74,201a6.43,6.43,0,0,1,2.81-3.68c8.3-5.73,15.83-12.44,23.75-18.65,2.11-1.65,4.41-3.07,6.62-4.6.38.41.77.8,1.13,1.22,20.71,24.47,46.92,34.32,78.39,28.21,42.18-8.2,69.85-50.45,61.43-92.63a83.56,83.56,0,0,0-16.05-34.67c3-2.36,5.7-5.2,9-6.94,4.56-2.42,7.85-6.34,12-9.19,4.38-3,9.25-5.86,12.44-10.45a115.06,115.06,0,0,1,23,45.48c15.5,60.58-15.54,121.52-73.7,144.86C121.56,259.7,62.48,243.7,30.29,202A8.23,8.23,0,0,1,29.74,201Zm153.12,17.63c-1.4-.76-2.56-1.5-3.81-2.06-1.43-.64-1.9-1.3-1.09-2.93,1-2,0-3.83-1.34-5.34a4.33,4.33,0,0,0-5.06-1.3c-1.89.75-3.67,1.77-5.53,2.6-1.23.55-1.36,1.21-.71,2.38,2,3.65,4,7.35,5.87,11.07.62,1.21,1.18,1.64,2.54.87s1.58-1.39.76-2.6c-.41-.61-.73-1.29-1.08-1.94-.22-.41-.52-.85-.15-1.27a1.12,1.12,0,0,1,1.52-.11,14.93,14.93,0,0,1,2.15,1.29C178.92,221,180.74,220.81,182.86,218.66Zm-25.19-5.48c-2.66.82-5.33,1.63-8,2.48-1,.33-.76,1.08-.52,1.83.63,1.95,1.16,3.92,1.84,5.85.91,2.6.76,6.67,2.89,7.43s5.38-1.25,8.14-2c1.14-.32,1.79-.73,1.25-2.15-.47-1.27-1-1.54-2.26-1s-2.5.74-3.72,1.19-1.5-.39-1.86-1.32c-.42-1.08,0-1.54,1-1.82s2-.6,2.94-.89,1.45-.7,1-1.8c-.35-.95-.62-1.79-1.92-1.35-1,.34-2,.57-2.92.94s-1.52.13-1.88-.9-.19-1.73,1-2,2.5-.73,3.73-1.14a1.15,1.15,0,0,0,.82-1.72C158.92,214,158.92,213,157.67,213.18Zm-37.17,5.38c-1.48-.59-2,.4-2.52,1.67-1.55,4-3.2,8-4.73,12-.24.63-1.3,1.67,0,2.07,1,.32,2.35.77,3.29-.57,2.2-3.16,4.76-3,6.92.46.79,1.26,2,.93,3,.77,1.31-.22.56-1.27.36-2-1.15-4.12-2.38-8.23-3.47-12.37C123,219,122.23,218.27,120.5,218.56ZM75,220.83c-.85,2.12,1,2.69,2.28,2.93,1.4.27,1-1.42,1.21-2.25.86-4.1,1.5-8.24,2.38-12.33.31-1.45-.3-2-1.39-2.6s-1.79-1.22-3-.13c-3.48,3.22-7,6.34-10.61,9.48-.75.66-.84,1.14.12,1.63,1.13.58,2.23,1.64,3.39.09.92-1.24,1.93-.88,2.86-.11S75.6,218.39,75,220.83Zm111.58-24c-1.55-.1-3.45,2.35-2.94,3.78q2.19,6.15,4.5,12.28c.25.68.24,2.13,1.33,1.64s2.69-1.08,2-2.81c-.54-1.38-.66-2.38.78-3.29s2.52-2.76,4.71-.91c1.22,1,2.08-.65,2.94-1.33.68-.54,0-1-.43-1.26q-6.11-3.9-12.23-7.76C187,197.07,186.74,197,186.56,196.87ZM103,232.53c.73-.5,2.68.41,2.79-1.47s-1.19-2.4-3-2.11a3.1,3.1,0,0,1-3.37-1.48c-.58-1,.48-6.53,1.5-7.44,1.69-1.5,3.32-.69,4.82.36,1.34,1,1.82-.3,2.5-.89,1.06-.92.07-1.45-.53-1.95-4.42-3.7-9.86-2-11.26,3.49a29,29,0,0,1-.73,3C94,228.46,96.92,232.35,103,232.53Zm33.93,1.75c2.28-.29,4.68-.67,7.08-.88,1.43-.13,1.27-1,1.25-2,0-1.25-.61-1.62-1.78-1.42-1,.18-2.05.16-3,.4-1.42.36-2,0-2.11-1.55-.26-3-.79-5.9-1.09-8.86-.14-1.32-.4-2.06-2-1.81-1.39.21-2,.63-1.74,2.12.61,4.14,1.13,8.29,1.65,12.45C135.22,233.82,135.45,234.62,136.89,234.28Zm-74.8-40a11.9,11.9,0,0,0-.91.82c-2.88,3.43-5.72,6.88-8.62,10.3-.71.83-.63,1.39.21,2.06,1.89,1.52,3.77,3.05,5.57,4.68,1,.93,1.55.39,2.24-.4s1-1.53-.06-2.29c-.69-.49-1.26-1.14-2-1.56-1.93-1.14-1.65-2.23-.27-3.7,1.91-2,3.61-4.27,5.39-6.43.39-.47,1.15-.95.55-1.64A18.56,18.56,0,0,0,62.09,194.24Z"/><path class="cls-4" d="M187.82,76.23a83.56,83.56,0,0,1,16.05,34.67c8.42,42.18-19.25,84.43-61.43,92.63-31.47,6.11-57.68-3.74-78.39-28.21-.36-.42-.75-.81-1.13-1.22a86.1,86.1,0,0,1-14.39-31.83C38.82,98.08,70.56,53,115.41,47.7c28.6-3.39,52.4,6,71.42,27.55C187.14,75.6,187.49,75.9,187.82,76.23ZM112.54,89.08l-.07.59c0,7.08-.15,14.16-.14,21.25,0,7.64.1,15.28.16,22.92l-.06,1.15c-.07,8.46-.11,16.93-.21,25.4,0,1.92,1.23,1.72,2.45,1.72,8.85,0,17.7,0,26.55,0,1.86,0,2.77-.45,2.6-2.5a40.93,40.93,0,0,1,0-5.86c.12-1.86-.59-2.43-2.4-2.4-5,.09-10.07-.12-15.1.09-2.69.11-3.47-.68-3.45-3.4.07-6.79.4-13.59-.17-20.38,0-2.13.15-4.26.16-6.39q0-15.19,0-30.39c0-.81.52-2.28-.81-2.27C118.87,88.67,115.65,87.93,112.54,89.08Zm-8.24.57c.07-.48.06-1-.55-1q-4.56-.06-9.12,0c-.61,0-.63.54-.55,1-.06,1.11-.16,2.22-.16,3.34q0,25.31,0,50.61c0,2.68-.32,5.21-2.35,7.21-6.09,3-10.36.41-10.59-6.33,0-.84,0-1.68,0-2.52,0-17,0-33.94,0-50.91,0-1.87-.36-2.73-2.43-2.55a42.08,42.08,0,0,1-6.15,0c-1.6-.09-2,.47-2,2.06,0,18.46,0,36.92.08,55.39,0,6.83,3.39,11.84,9.55,14.89s11.92,2.46,17.31-1.39c5.89-4.22,8-10.2,6.93-17.32a.35.35,0,0,0,0-.45l.07-.58c.06-11.41.15-22.82.17-34.22C104.48,101.14,104.36,95.4,104.3,89.65Zm67.12-.45c-10.25-4.25-25.15,1.91-23.57,18.34,0,13.23-.08,26.47,0,39.71a14.83,14.83,0,0,0,1.8,7c3.45,6.49,10.94,9.72,18.9,8.12,7.24-1.44,12.68-7.84,13.35-15.68.49-5.64.49-5.64-5.17-5.64h-.84c-4.38,0-4.38,0-4.64,4.32-.23,3.64-2,6-5,6.5-4.58.84-7.63-1.35-7.67-6.06-.14-13.52-.06-27,0-40.56a10.43,10.43,0,0,1,.55-2.73c.73-2.59,2.54-3.77,5.16-3.92,3.62-.19,6.08,2,6.9,5.94.35,1.69-.85,4.06.86,4.92,1.51.76,3.65.26,5.51.3.93,0,1.86,0,2.79,0s1.59-.31,1.66-1.41C182.39,100.8,179.89,92.46,171.42,89.2Z"/><path class="cls-1" d="M161.11,30.45c-1.09,2.81-2,4.93-2.72,7.08-.44,1.21-1,1.55-2.3,1s-1.69-1.07-1.08-2.48c1.6-3.66,3-7.41,4.56-11.1.31-.74.28-2.18,1.64-1.76,1.15.35,2.66.49,2.83,2.24.22,2.23.49,4.44.77,6.66.11.77-.22,1.67.72,2.48.81-2.06,1.56-4,2.36-6,.46-1.11.47-2.63,2.57-1.79s1.24,2,.73,3.27c-1.37,3.36-2.69,6.74-4.11,10.08-.35.81-.24,2.38-1.79,2-1.27-.34-2.71-.6-2.89-2.51C162.14,36.8,161.62,34,161.11,30.45Z"/><path class="cls-1" d="M106.5,26.8c.5,2.52.87,4.76,1.39,7,.37,1.57-.61,1.58-1.66,1.84s-1.74,0-2-1.2c-.71-4.31-1.47-8.62-2.22-12.93-.11-.67-.22-1.38.66-1.57,1.22-.25,2.51-1,3.58.42,1.72,2.18,3.47,4.33,5.5,6.86.52-2.51-.39-4.48-.64-6.48-.15-1.3-.43-2.33,1.42-2.62s2,.73,2.21,2c.6,3.76,1.27,7.52,1.87,11.29.14.93.86,2.14-.69,2.55-1.23.32-2.49.7-3.53-.68-1.51-2-3.17-3.9-4.79-5.82A5.15,5.15,0,0,0,106.5,26.8Z"/><path class="cls-1" d="M135.89,28.08c.23-1.29.44-3.25.94-5.12.93-3.51,3.69-5,7.63-4.26,3.49.64,5.46,3,5.19,6.46a32.11,32.11,0,0,1-1,5.76c-.91,3.3-3.64,4.8-7.16,4.17C137.62,34.4,135.74,32.27,135.89,28.08Zm10-2.84a2.64,2.64,0,0,0-2.25-3.17,2.53,2.53,0,0,0-3.3,2.11,34.4,34.4,0,0,0-.77,4.63c-.17,1.68.83,2.57,2.38,2.87a2.46,2.46,0,0,0,3.12-2C145.46,28.26,145.64,26.79,145.92,25.24Z"/><path class="cls-1" d="M89.27,41c-2.59.07-4.19-1.39-5.17-3.55-1.23-2.71-2.21-5.53-3.44-8.23-.67-1.48,0-1.93,1.2-2.44s1.83-.29,2.29,1c.79,2.18,1.72,4.32,2.61,6.47.74,1.8,1.31,4.09,4,2.89s1.44-3.18.72-5C90.68,30.11,89.94,28,89,26c-.68-1.39-.28-1.87,1-2.47s2-.2,2.44,1.09c.95,2.52,2.07,5,3,7.5C97.28,36.92,94.43,41,89.27,41Z"/><path class="cls-5" d="M128.07,25.5c0,2,0,4.08,0,6.12,0,1.27-.21,2.08-1.83,2-1.47,0-2-.57-1.9-2q.23-6.24.29-12.5c0-1.32.5-1.75,1.82-1.76,1.5,0,1.93.59,1.87,2-.08,2,0,4.08,0,6.12Z"/><path class="cls-5" d="M142.53,17.11c1.58-2,3.08-3.8,6.11-2.2C146.92,16.54,145.5,18.48,142.53,17.11Z"/><path class="cls-5" d="M182.86,218.66c-2.12,2.15-3.94,2.31-5.93.66a14.93,14.93,0,0,0-2.15-1.29,1.12,1.12,0,0,0-1.52.11c-.37.42-.07.86.15,1.27.35.65.67,1.33,1.08,1.94.82,1.21.5,1.88-.76,2.6s-1.92.34-2.54-.87c-1.91-3.72-3.86-7.42-5.87-11.07-.65-1.17-.52-1.83.71-2.38,1.86-.83,3.64-1.85,5.53-2.6a4.33,4.33,0,0,1,5.06,1.3c1.39,1.51,2.31,3.37,1.34,5.34-.81,1.63-.34,2.29,1.09,2.93C180.3,217.16,181.46,217.9,182.86,218.66Zm-11.05-3.44c1.24-.84,3-1.08,2.77-2.89-.13-1.16-.86-2.21-2.22-1.92-1.08.22-2.74.35-2.56,1.88A3.38,3.38,0,0,0,171.81,215.22Z"/><path class="cls-5" d="M157.67,213.18c1.25-.2,1.25.82,1.55,1.55a1.15,1.15,0,0,1-.82,1.72c-1.23.41-2.47.83-3.73,1.14s-1.41.9-1,2,.89,1.28,1.88.9,2-.6,2.92-.94c1.3-.44,1.57.4,1.92,1.35.42,1.1-.09,1.53-1,1.8s-2,.62-2.94.89-1.37.74-1,1.82c.36.93.52,1.82,1.86,1.32s2.52-.71,3.72-1.19,1.79-.23,2.26,1c.54,1.42-.11,1.83-1.25,2.15-2.76.77-5.94,2.8-8.14,2s-2-4.83-2.89-7.43c-.68-1.93-1.21-3.9-1.84-5.85-.24-.75-.49-1.5.52-1.83C152.34,214.81,155,214,157.67,213.18Z"/><path class="cls-5" d="M120.5,218.56c1.73-.29,2.47.46,2.87,2,1.09,4.14,2.32,8.25,3.47,12.37.2.72,1,1.77-.36,2-1,.16-2.22.49-3-.77-2.16-3.45-4.72-3.62-6.92-.46-.94,1.34-2.27.89-3.29.57-1.31-.4-.25-1.44,0-2.07,1.53-4,3.18-8,4.73-12C118.48,219,119,218,120.5,218.56Zm0,4c-.66,1.78-1.09,2.86-1.46,4-.2.57-.81,1.34,0,1.69a3.63,3.63,0,0,0,2.41.12c.85-.28.26-1.13.14-1.7C121.37,225.51,121,224.41,120.53,222.57Z"/><path class="cls-1" d="M75,220.83c.62-2.44-1.64-2.39-2.72-3.29s-1.94-1.13-2.86.11c-1.16,1.55-2.26.49-3.39-.09-1-.49-.87-1-.12-1.63,3.56-3.14,7.13-6.26,10.61-9.48,1.17-1.09,2-.37,3,.13s1.7,1.15,1.39,2.6c-.88,4.09-1.52,8.23-2.38,12.33-.17.83.19,2.52-1.21,2.25C76,223.52,74.13,223,75,220.83Zm2.5-11c-1.49,1.42-2.37,2.22-3.2,3.06-.41.42-1.38.78-.88,1.47a3.75,3.75,0,0,0,2.06,1.28c1.2.27.83-1,1-1.53A41.59,41.59,0,0,0,77.48,209.85Z"/><path class="cls-1" d="M186.56,196.87c.18.09.44.2.67.34q6.12,3.87,12.23,7.76c.44.28,1.11.72.43,1.26-.86.68-1.72,2.37-2.94,1.33-2.19-1.85-3.24,0-4.71.91s-1.32,1.91-.78,3.29c.68,1.73-1,2.36-2,2.81s-1.08-1-1.33-1.64q-2.31-6.12-4.5-12.28C183.11,199.22,185,196.77,186.56,196.87Zm1,4.73,0-.12.08.08c-.16,1.3.74,2.25,1.12,3.37.19.56.24,1.56,1,1.35a3.52,3.52,0,0,0,1.93-1.46c.59-1-.59-1.2-1.1-1.52C189.62,202.69,188.91,201.53,187.55,201.6Z"/><path class="cls-5" d="M103,232.53c-6-.18-9-4.07-7.29-8.5a29,29,0,0,0,.73-3c1.4-5.5,6.84-7.19,11.26-3.49.6.5,1.59,1,.53,1.95-.68.59-1.16,1.84-2.5.89-1.5-1-3.13-1.86-4.82-.36-1,.91-2.08,6.43-1.5,7.44a3.1,3.1,0,0,0,3.37,1.48c1.82-.29,3.13.23,3,2.11S103.69,232,103,232.53Z"/><path class="cls-5" d="M136.89,234.28c-1.44.34-1.67-.46-1.8-1.52-.52-4.16-1-8.31-1.65-12.45-.22-1.49.35-1.91,1.74-2.12,1.62-.25,1.88.49,2,1.81.3,3,.83,5.9,1.09,8.86.13,1.53.69,1.91,2.11,1.55,1-.24,2-.22,3-.4,1.17-.2,1.75.17,1.78,1.42,0,1,.18,1.84-1.25,2C141.57,233.61,139.17,234,136.89,234.28Z"/><path class="cls-1" d="M62.09,194.24a18.56,18.56,0,0,1,2.13,1.84c.6.69-.16,1.17-.55,1.64-1.78,2.16-3.48,4.39-5.39,6.43-1.38,1.47-1.66,2.56.27,3.7.71.42,1.28,1.07,2,1.56,1.06.76.8,1.45.06,2.29s-1.2,1.33-2.24.4c-1.8-1.63-3.68-3.16-5.57-4.68-.84-.67-.92-1.23-.21-2.06,2.9-3.42,5.74-6.87,8.62-10.3A11.9,11.9,0,0,1,62.09,194.24Z"/><path class="cls-6" d="M171.42,89.2c8.47,3.26,11,11.6,10.49,19.13-.07,1.1-.68,1.42-1.66,1.41s-1.86,0-2.79,0c-1.86,0-4,.46-5.51-.3-1.71-.86-.51-3.23-.86-4.92-.82-3.92-3.28-6.13-6.9-5.94-2.62.15-4.43,1.33-5.16,3.92a10.43,10.43,0,0,0-.55,2.73c0,13.52-.11,27,0,40.56,0,4.71,3.09,6.9,7.67,6.06,3-.55,4.79-2.86,5-6.5.26-4.32.26-4.32,4.64-4.32h.84c5.66,0,5.66,0,5.17,5.64-.67,7.84-6.11,14.24-13.35,15.68-8,1.6-15.45-1.63-18.9-8.12a14.83,14.83,0,0,1-1.8-7c0-13.24,0-26.48,0-39.71A289.91,289.91,0,0,0,171.42,89.2Z"/><path class="cls-7" d="M80.05,160.85c-6.17-3-9.52-8.06-9.56-14.89-.12-18.47,0-36.93-.08-55.39,0-1.59.42-2.15,2-2.06a42.08,42.08,0,0,0,6.15,0c2.07-.18,2.44.68,2.43,2.55C81,108,81,125,81,142c0,.84,0,1.68,0,2.52.23,6.74,4.5,9.29,10.59,6.33.13.16.26.33.4.49Z"/><path class="cls-8" d="M122.7,127.69c.57,6.79.24,13.59.17,20.38,0,2.72.76,3.51,3.45,3.4,5-.21,10.07,0,15.1-.09,1.81,0,2.52.54,2.4,2.4a40.93,40.93,0,0,0,0,5.86c.17,2.05-.74,2.52-2.6,2.5-8.85-.06-17.7,0-26.55,0-1.22,0-2.47.2-2.45-1.72.1-8.47.14-16.94.21-25.4l.87-.35Z"/><path class="cls-7" d="M104.23,141.69a.35.35,0,0,1,0,.45L92,151.3c-.14-.16-.27-.33-.4-.49,2-2,2.36-4.53,2.35-7.21q0-25.3,0-50.61c0-1.12.1-2.23.16-3.34H104.3c.06,5.75.18,11.49.17,17.24,0,11.4-.11,22.81-.17,34.22-.06,0-.17.11-.16.16A2.1,2.1,0,0,0,104.23,141.69Z"/><path class="cls-9" d="M122.7,127.69l-9.4,6.94-.81-.79c-.06-7.64-.16-15.28-.16-22.92,0-7.09.09-14.17.14-21.25.06-.06.17-.11.17-.17a2.13,2.13,0,0,0-.1-.42c3.11-1.15,6.33-.41,9.49-.44,1.33,0,.81,1.46.81,2.27q.06,15.2,0,30.39C122.85,123.43,122.75,125.56,122.7,127.69Z"/><path class="cls-10" d="M92,151.3l12.31-9.16c1.06,7.12-1,13.1-6.93,17.32C92,163.31,86.1,163.91,80,160.85Z"/><path class="cls-11" d="M171.42,89.2a289.91,289.91,0,0,1-23.57,18.34C146.27,91.11,161.17,85,171.42,89.2Z"/><path class="cls-12" d="M104.3,89.65H94.08c-.08-.49-.06-1,.55-1q4.56-.06,9.12,0C104.36,88.63,104.37,89.17,104.3,89.65Z"/><path class="cls-12" d="M112.49,133.84l.81.79-.87.36Z"/><path class="cls-12" d="M104.23,141.69a2.1,2.1,0,0,1-.09-.42c0-.05.1-.11.16-.16Z"/><path class="cls-12" d="M112.54,89.08a2.13,2.13,0,0,1,.1.42c0,.06-.11.11-.17.17Z"/><path class="cls-2" d="M145.92,25.24c-.28,1.55-.46,3-.82,4.45a2.46,2.46,0,0,1-3.12,2c-1.55-.3-2.55-1.19-2.38-2.87a34.4,34.4,0,0,1,.77-4.63,2.53,2.53,0,0,1,3.3-2.11A2.64,2.64,0,0,1,145.92,25.24Z"/><path class="cls-13" d="M171.81,215.22a3.38,3.38,0,0,1-2-2.93c-.18-1.53,1.48-1.66,2.56-1.88,1.36-.29,2.09.76,2.22,1.92C174.77,214.14,173.05,214.38,171.81,215.22Z"/><path class="cls-14" d="M120.53,222.57c.49,1.84.84,2.94,1.07,4.07.12.57.71,1.42-.14,1.7a3.63,3.63,0,0,1-2.41-.12c-.79-.35-.18-1.12,0-1.69C119.44,225.43,119.87,224.35,120.53,222.57Z"/><path class="cls-14" d="M77.48,209.85a41.59,41.59,0,0,1-1,4.28c-.19.56.18,1.8-1,1.53a3.75,3.75,0,0,1-2.06-1.28c-.5-.69.47-1,.88-1.47C75.11,212.07,76,211.27,77.48,209.85Z"/><path class="cls-14" d="M187.55,201.6c1.36-.07,2.07,1.09,3,1.7.51.32,1.69.55,1.1,1.52a3.52,3.52,0,0,1-1.93,1.46c-.8.21-.85-.79-1-1.35-.38-1.12-1.28-2.07-1.12-3.37Z"/><polygon class="cls-14" points="187.61 201.56 187.53 201.48 187.55 201.6 187.61 201.56"/></g></g></svg>