<svg xmlns="http://www.w3.org/2000/svg" viewBox="0 0 271.02 251.03"><defs><style>.cls-1{fill:#b01a1d;}.cls-2{fill:#fff;}.cls-3{fill:#222221;}</style></defs><g id="Capa_2" data-name="Capa 2"><g id="EFFECTS"><path d="M267.29,79.48c-4.2-10.72-12.26-16.57-23.3-17,.27-4.93.43-10,.43-15.13a121,121,0,0,0-.81-13,81.08,81.08,0,0,0-2.32-11.65l-1.79-6.14L219.36,22c-.22.06-20.53,5.54-35.4,5.54-19.27,0-37.14-15.85-37.32-16L133.87,0,121.1,11.55c-.18.16-18,16-37.32,16C68.93,27.56,48.6,22.08,48.4,22L28.24,16.57l-1.79,6.14a80.29,80.29,0,0,0-2.31,11.65,120.46,120.46,0,0,0-.82,13,268.09,268.09,0,0,0,1.61,29.37l-4.23.55-.57.19C6.77,81.92,0,95.94,0,119.12c0,13.08,2.16,22.65,6.59,29.25,6,8.93,16.43,13.45,31,13.45H38L44,161l.15,0a42,42,0,0,0,5.15-1.23,230.9,230.9,0,0,0,23.86,37.82c24.84,32,50.05,47.1,51.11,47.73l9.65,5.71,9.66-5.71c1.05-.63,26.27-15.75,51.11-47.73a232.47,232.47,0,0,0,29.85-50.68l19.37-.53.4-.06c10.74-1.7,18.66-7.91,22.9-18,2.59-6.11,3.86-13.88,3.86-23.75C271,93.86,269.8,85.64,267.29,79.48Z"/><path class="cls-1" d="M237.13,35.15A74.61,74.61,0,0,0,235,24.53l-14,3.78c-.21.06-21.35,5.78-37.11,5.78-22,0-41.5-17.53-41.69-17.7l-8.4-7.6-8.39,7.6c-.2.17-19.7,17.7-41.7,17.7-15.76,0-36.89-5.72-37.1-5.78l-14-3.78a74.61,74.61,0,0,0-2.1,10.62,115.77,115.77,0,0,0-.76,12.21c0,69.34,26.32,117.79,48.41,146.23,24.07,31,48.26,45.51,49.28,46.11l6.33,3.75,6.33-3.75c1-.6,25.21-15.12,49.28-46.11,22.09-28.44,48.42-76.89,48.42-146.23A112.59,112.59,0,0,0,237.13,35.15Z"/><path class="cls-2" d="M132.08,23.6c-.22.21-22.33,20.27-48.3,20.27-17.11,0-39.46-6-39.68-6.12a2.66,2.66,0,0,0-3.24,1.81,33.16,33.16,0,0,0-1.23,7.8c0,66.57,25.21,113,46.36,140.23,22.94,29.54,45.58,43.13,46.54,43.69a2.65,2.65,0,0,0,2.69,0c.95-.56,23.59-14.15,46.54-43.69,21.14-27.23,46.35-73.66,46.35-140.23a32.92,32.92,0,0,0-1.23-7.79,2.64,2.64,0,0,0-3.23-1.82c-.23.07-22.57,6.12-39.69,6.12-26,0-48.08-20.06-48.3-20.27A2.65,2.65,0,0,0,132.08,23.6ZM133.87,29C139.81,34,160,49.15,184,49.15c14.46,0,31.86-4,38.42-5.61a19.86,19.86,0,0,1,.45,3.82c0,65-24.52,110.25-45.1,136.8C158.47,209,139,222.54,133.87,225.89c-5.15-3.35-24.6-16.88-43.86-41.73-20.57-26.55-45.1-71.84-45.1-136.8a20.68,20.68,0,0,1,.45-3.82c6.57,1.64,24,5.61,38.42,5.61C107.79,49.15,127.93,34,133.87,29Z"/><path class="cls-2" d="M261.54,81.82c-3.39-8.63-9.48-13-18.27-13.15-.07,1-.13,2-.21,2.9,6.12-.22,10.68,3,13.66,9.8,2.46,5.53,3.73,12.7,3.73,21.6,0,7.89-.82,14.16-2.55,18.79a18.91,18.91,0,0,1-7.53,10c-3,1.91-7.17,3.26-12.53,3.9l-17.52.64L34,134.83c-2.09-.28-3.18,1-3.18,3.63a8.2,8.2,0,0,0,2.54,6,8.45,8.45,0,0,0,6,2.45,15.14,15.14,0,0,0,4.54-1.09,19.45,19.45,0,0,1-2.45-5.72H54.14l159.65.91,29.5-.82c8.62-1.36,14.7-6.08,18.15-14.25,2.27-5.36,3.36-12.43,3.36-21.33C264.8,94.8,263.71,87.17,261.54,81.82Z"/><path class="cls-2" d="M244.83,80a7.24,7.24,0,0,0-2.51-1.45c-.18,1.55-.34,3.11-.54,4.63h-5.61c-.08.15-.15.31-.23.46l-8.64-.81.2.35L36.71,81.46,22.1,83.36C11.48,86.9,6.21,98.88,6.21,119.12c0,11.71,1.82,20.25,5.54,25.78,4.81,7.17,13.43,10.71,25.87,10.71l5.35-.72c1.46-.27,2.66-.54,3.63-.81-.48-1-.94-2-1.41-3l-9,1.21c-10.61,0-17.78-4-21.69-12-2.63-5.35-3.9-13.52-3.9-24.5a80.84,80.84,0,0,1,.72-11.71,25.26,25.26,0,0,1,3.64-10.17c4.26-6.62,12.43-9.26,24.41-7.9l118.36-.45,84.59,1c3.09-.27,4.63-1.45,4.63-3.36C246.92,82.18,246.19,81.09,244.83,80Z"/><path class="cls-3" d="M39.34,146.9a8.45,8.45,0,0,1-6-2.45,8.2,8.2,0,0,1-2.54-6c0-2.64,1.09-3.91,3.18-3.63l186.33,1.45,17.52-.64c5.36-.64,9.53-2,12.53-3.9a18.91,18.91,0,0,0,7.53-10c1.73-4.63,2.55-10.9,2.55-18.79,0-8.9-1.27-16.07-3.73-21.6-3-6.77-7.54-10-13.66-9.8,0-.29,0-.59.07-.88a3,3,0,0,0-2.21,1.55c-.65,1.31-.55,5.07-.25,6.57a22.65,22.65,0,0,0,1.27,3c.13-1.08.25-2.18.38-3.27A7.24,7.24,0,0,1,244.83,80c1.36,1.09,2.09,2.18,2.09,3.18,0,1.91-1.54,3.09-4.63,3.36l-84.59-1L39.34,86c-12-1.36-20.15,1.28-24.41,7.9a25.26,25.26,0,0,0-3.64,10.17,80.84,80.84,0,0,0-.72,11.71c0,11,1.27,19.15,3.9,24.5,3.91,8,11.08,12,21.69,12l9-1.21.69,1.48C46.18,150,45,148,43.47,146A14.2,14.2,0,0,1,39.34,146.9Z"/><path class="cls-2" d="M42.16,93.8h2.08c.46,1.91-.09,3.27-1.45,4.08a5.1,5.1,0,0,1-2.81.73l-5.72-1.45A1.52,1.52,0,0,0,33,97.7l-.82,1.36H29.9c-.27-2.08.27-3.44,1.45-4.17l3.36-.64,4.81,1,1.36-.36,1.28-1.09Zm7.53,6.9H42.43c.27.72.36,2.72.36,6l-.18,5.44-9.35-10.34,1-1.09H24.55L26,101.79v18.7l-1.18,1.08a34.6,34.6,0,0,0,6.9.1,72.7,72.7,0,0,1-.09-13.44L42.88,121l-.91.54h7.45l-1.18-1.08V102.33l1.45-1.63Z"/><path class="cls-2" d="M57.4,101.79v14.06c0,2.27,1.55,4,4.54,5a20.06,20.06,0,0,0,6.36,1,19.19,19.19,0,0,0,6.35-1c3.36-1.18,5-3.18,5-6.18V102c0-.82.27-1.27.91-1.36H73.38l.18,13.07c-.45,2.17-2.09,3.27-5,3.27-3.54,0-5.36-1.18-5.36-3.64V101.79l1.45-1.09H56l1.45,1.09Z"/><path class="cls-2" d="M87.45,100.52H104a6.53,6.53,0,0,1,4.08,1.54,5.07,5.07,0,0,1,2,4,5.45,5.45,0,0,1-.46,2.27l-2.9,2.64L109.5,113a4.78,4.78,0,0,1,1.55,3,5.63,5.63,0,0,1-2.09,4.08,4.58,4.58,0,0,1-3.54,1.64H88.35V101.61c0-.46-.18-.64-.45-.73l-.45-.36Zm6.63,8.26h8.53a1.73,1.73,0,0,0,0-3.45H94.08Zm0,8.26h9.39a2,2,0,0,0,0-4H94.08Z"/><path class="cls-2" d="M124.57,100.7H116.4a1,1,0,0,0,.73.27l.27.64v20.06h21.15V117h-15V102c.09-.82.36-1.18,1-1.27Z"/><path class="cls-2" d="M164.05,100.24c-.09.18-.36.28-.82.28H143.54l.45.36.45.73v20.15h18.79c.82.09,1.27.36,1.27,1v-7L163.42,117H150.17v-4h7.89l1.18,1v-5.26h-9.07v-3.45h13.06c.82,0,1.27.36,1.37,1V99.61l-.55.63Z"/><path class="cls-2" d="M195.09,100.7H188a67.13,67.13,0,0,1,.09,11.43l-9.34-10.34.9-1.09H170l1.45,1.63v18.16l-1.26,1.08,7,.1a74.43,74.43,0,0,1-.09-13.44L188.38,121a1.84,1.84,0,0,1-1,.54h7.53l-1.18-1.08v-18.7l1.36-1.09Z"/><path class="cls-2" d="M203.17,113.59a20.23,20.23,0,0,0-3.08,7.07l11.25,1.19c7.9,0,11.89-2.36,11.89-7.08,0-3.54-2.36-5.81-7-6.63l-5.63-.63a12,12,0,0,1-4.35-1l.45-.73a8.15,8.15,0,0,1,4.63-1.36l4.81,1a14.1,14.1,0,0,1,3.9,1.9,29.17,29.17,0,0,0,2.64-5.71l-11.53-1.09a15.55,15.55,0,0,0-6.17,1.09c-2.64,1.18-4,3.08-4,5.71a4.13,4.13,0,0,0,2.53,4,19.85,19.85,0,0,0,5.63,1.18l5.63.64c1.72.26,2.63.9,2.63,1.9,0,1.54-1.81,2.36-5.53,2.36l-4.45-.73c-2.27-.72-3.63-1.72-4.27-3.08Z"/><path class="cls-2" d="M228.59,100.52l.45.36.46.73v20.15h18.87c.82.09,1.18.36,1.27,1V115.5l-.72.81-.46.73H235.21v-4h8l1.18,1v-5.26h-9.17v-3.45h13.16l.91.54.36.37V99.61l-.45.63-.82.28Z"/></g></g></svg>