<svg xmlns="http://www.w3.org/2000/svg" viewBox="0 0 188.38 275.29"><defs><style>.cls-1{fill:#363789;}.cls-2{fill:#60a9e8;}.cls-3{fill:#fff;}.cls-4{fill:#65a25c;}.cls-5{fill:#faf148;}</style></defs><g id="Capa_2" data-name="Capa 2"><g id="EFFECTS"><path d="M183.91,53.67c-.28-1.15-.47-2.19-.75-3.23a10.6,10.6,0,0,1-.4-1.39Q171.35,8.75,137.84.74c-13.24-3.19-18.62,4-16,21.56.88,4.62-.2,7.61-3.07,9-7.37,3.63-12.95,0-16.82-11-.48-1-.79-3.95-.87-9.09a15.12,15.12,0,0,0-.48-3.27c-.88-3-3-4.46-6.38-4.46s-5.42,1.47-6.3,4.46h-.08c-5.22-1.47-7.53.76-6.93,6.86,1.43-2.24,3-3,4.82-2.12s2.11,3.35.76,7.62c-3.87,11-9.45,14.67-16.82,11-2.87-1.4-4-4.39-3.07-9C69.16,4.72,63.78-2.45,50.54.74,28.22,6.08,13.35,22.18,5.7,49.05c-.08.47-.28.87-.36,1.39-.32,1-.6,2.07-.88,3.23-.87,3.59-1.55,7.25-2.23,11.12a54.5,54.5,0,0,1,8.41-11.36,48,48,0,0,0-.59,9.25h.11a56.64,56.64,0,0,1,6.66-9.45,25.73,25.73,0,0,0,.4,7.81h.08A24,24,0,0,1,23,53.11,12.51,12.51,0,0,0,23.08,60h.12A28.88,28.88,0,0,1,29,53.23,9.88,9.88,0,0,0,29.3,59h.08a21.35,21.35,0,0,1,5.42-5.58,8.16,8.16,0,0,0,.16,5h.12a21.36,21.36,0,0,1,6-4.62,8.19,8.19,0,0,0-.2,4.22H41a14.19,14.19,0,0,1,6.73-3.66,4.54,4.54,0,0,0,0,3.51h.2A12.93,12.93,0,0,1,55,55.14,4.32,4.32,0,0,0,55.45,58h.2a20.62,20.62,0,0,1,7.13-1.71,2.3,2.3,0,0,0,.2,2.31h.4a38,38,0,0,1,7.81-.67c2.51,0,3.11.75,1.76,2.23a23.63,23.63,0,0,0-4.47,8.49,22.86,22.86,0,0,0-.68,3.39,18.82,18.82,0,0,1,6.5-5,5.16,5.16,0,0,0-.2,3.19c2-2.19,4.07-3.55,6.1-3.94-.88,1.23-.88,2.31,0,3.06a13.5,13.5,0,0,1,4-2.59l-1.64,6.1c-8.41,1.44-14.39,3.67-17.86,6.86H0V219.37l94.19,55.92,94.19-55.92V79.78H123.77c-3.63-3.19-9.49-5.42-17.9-6.86l-1.64-6.1a14.23,14.23,0,0,1,4,2.59c.88-.75.88-1.83,0-3.06,2,.39,4.07,1.75,6.1,3.94a5.16,5.16,0,0,0-.2-3.19,17.06,17.06,0,0,1,6.46,5,22.84,22.84,0,0,0-.64-3.39,23.63,23.63,0,0,0-4.47-8.49c-1.35-1.48-.75-2.23,1.84-2.23a38.89,38.89,0,0,1,7.81.67h.32a2.3,2.3,0,0,0,.2-2.31h.08A20.2,20.2,0,0,1,132.81,58h.12a4.32,4.32,0,0,0,.48-2.87,13.57,13.57,0,0,1,7.14,2.72h.12a4.54,4.54,0,0,0,0-3.51h.08A13.8,13.8,0,0,1,147.4,58h.12a8.19,8.19,0,0,0-.2-4.22h.08a23.91,23.91,0,0,1,6,4.62,7.88,7.88,0,0,0,.2-5,23.21,23.21,0,0,1,5.5,5.58,9.88,9.88,0,0,0,.32-5.78A32.61,32.61,0,0,1,165.3,60a12.51,12.51,0,0,0,.08-6.86A25.36,25.36,0,0,1,171.16,61a25.73,25.73,0,0,0,.4-7.81,59.08,59.08,0,0,1,6.78,9.45,47.93,47.93,0,0,0-.6-9.25,54.5,54.5,0,0,1,8.41,11.36c-.68-3.86-1.36-7.53-2.24-11.12ZM101.24,66a1.79,1.79,0,0,1,.76.2l2,6.93a8.78,8.78,0,0,0-5.34,6.66H89.84a8.94,8.94,0,0,0-5.3-6.66l1.84-6.93a1.79,1.79,0,0,1,.75-.2c-.87.76-.87,1.79-.2,3.07,1.64-2,4.07-3,7.26-3.19,3.19.2,5.62,1.23,7.25,3.19C102.12,67.78,102.12,66.75,101.24,66Zm19.22,13.79H100.57A6.8,6.8,0,0,1,104.39,75c.2-.08.4-.2.6-.28.52.08,1,.2,1.48.28C112.53,76.11,117.27,77.75,120.46,79.78ZM84,75a6.76,6.76,0,0,1,3.86,4.74H67.92c3.19-2,7.93-3.67,14.11-4.74.48-.08.84-.2,1.36-.28C83.55,74.84,83.75,75,84,75Z"/><path class="cls-1" d="M137.48,2.69c-5.7-1.44-9.69-.68-12,2.23-2.31,3.27-2.91,9-1.71,17.1,1,5.7-.4,9.37-4.19,11-4.34,2.24-8.21,2.12-11.6-.12-3.19-2-5.78-6-7.89-11.95-.48-1.28-.88-4.47-1-9.77a21.84,21.84,0,0,0-.4-2.71A4.06,4.06,0,0,0,94.19,5.4c-2.43-.12-3.87,1-4.42,3.07a2.78,2.78,0,0,1-.68,1,2.05,2.05,0,0,1-1.2.35h-.56c-1.75-.47-3-.47-3.78.12-.08.08-.16.28-.28.36a4.85,4.85,0,0,1,3.19.6c3,1,3.58,4.27,1.83,9.93V21c-2.11,6-4.74,10-7.81,12-3.39,2.24-7.34,2.36-11.68.12h.08c-3.75-1.63-5.22-5.3-4.15-11h-.12c1.2-8.13.6-13.83-1.63-17.1Q59.4.55,51,2.69q-32.34,7.83-43.49,47c-.08.47-.28.83-.4,1.35v-.12C6.86,52,6.58,53,6.38,54.19A6.31,6.31,0,0,0,5.9,55.9,49.5,49.5,0,0,1,9.29,52a2.17,2.17,0,0,1,1.07-.56,1.4,1.4,0,0,1,1.24.28,2.1,2.1,0,0,1,.76.87,1.38,1.38,0,0,1,.2,1.16,13.12,13.12,0,0,0-.36,2.11A39.85,39.85,0,0,1,15.39,52a2,2,0,0,1,1-.6,1.66,1.66,0,0,1,1.16.12,1.24,1.24,0,0,1,.87.76,2.56,2.56,0,0,1,.28,1.19,11.27,11.27,0,0,0-.08,1.6,17,17,0,0,1,3.07-3.27,2.38,2.38,0,0,1,1.08-.6,1.29,1.29,0,0,1,1.16.32,1.76,1.76,0,0,1,.87,1,2.41,2.41,0,0,1,.08,1.19c-.08.36-.16.72-.28,1.12,1-1.08,2-2,3.07-3a2.31,2.31,0,0,1,1.2-.48,1.26,1.26,0,0,1,1.15.28,2.14,2.14,0,0,1,.76,1,2.31,2.31,0,0,1,.12,1.15,3.52,3.52,0,0,0-.2.6,31.43,31.43,0,0,1,2.91-2.43,1.56,1.56,0,0,1,1.16-.36,1.42,1.42,0,0,1,1,.36,2.49,2.49,0,0,1,.8.87,2.32,2.32,0,0,1,.08,1.16.94.94,0,0,0-.08.48A15.58,15.58,0,0,1,40.18,52a1.07,1.07,0,0,1,.88-.2,1.28,1.28,0,0,1,1.15.32,2.75,2.75,0,0,1,.68,1,1.64,1.64,0,0,1,.12,1,13.17,13.17,0,0,1,4.34-1.63h.36a1.23,1.23,0,0,1,1.16.39,2,2,0,0,1,.68,1,1.69,1.69,0,0,1,.12.76,17.31,17.31,0,0,1,5.1-1.32,2.52,2.52,0,0,1,1.15.28,1.8,1.8,0,0,1,.88.84,1.91,1.91,0,0,1,.12,1.07,21.4,21.4,0,0,1,5.78-1.07h.08a1.93,1.93,0,0,1,1.28.52,2.18,2.18,0,0,1,.67,1v.6A51.92,51.92,0,0,1,71.19,56c2,.08,3.31.48,3.79,1.36,1.23,1,1,2.31-.48,4l-.12.12a19.49,19.49,0,0,0-3.07,5,11.36,11.36,0,0,1,2.31-1.16,1.2,1.2,0,0,1,1.44,0,1.32,1.32,0,0,1,.87.8,8.88,8.88,0,0,1,3.87-1.68,1.87,1.87,0,0,1,1.43.28,1.38,1.38,0,0,1,.8,1,8.64,8.64,0,0,1,1.44-.8v.08a6.53,6.53,0,0,1,2.59-.83H85.9a7,7,0,0,1,1-.2,1.29,1.29,0,0,1,1.16.27,2.15,2.15,0,0,1,.8.88,14.1,14.1,0,0,1,5.22-1.27h.16a14.1,14.1,0,0,1,5.22,1.27,1.88,1.88,0,0,1,.88-.88,1.18,1.18,0,0,1,1.15-.27,8.19,8.19,0,0,1,1,.2h-.08a6.2,6.2,0,0,1,2.59.83V65a6.73,6.73,0,0,1,1.36.8,1.37,1.37,0,0,1,.79-1,1.87,1.87,0,0,1,1.44-.28,9,9,0,0,1,3.86,1.68,1.3,1.3,0,0,1,1-.8,1.26,1.26,0,0,1,1.48,0,15.19,15.19,0,0,1,2.19,1.16,20.79,20.79,0,0,0-3.11-5V61.4c-1.59-1.71-1.79-3.06-.56-4,.48-.88,1.76-1.28,3.75-1.36h.12a51.8,51.8,0,0,1,6.38.48,1.08,1.08,0,0,1,.12-.6,1.45,1.45,0,0,1,.63-1,1.6,1.6,0,0,1,1.2-.52h.08a23.22,23.22,0,0,1,5.9,1.07,1.24,1.24,0,0,1,.08-1.07,1.38,1.38,0,0,1,.8-.84,2.3,2.3,0,0,1,1.15-.28,19.25,19.25,0,0,1,5.22,1.32.85.85,0,0,1,0-.76,2,2,0,0,1,.68-1,1.2,1.2,0,0,1,1.16-.39h.47a13.92,13.92,0,0,1,4.35,1.63,1,1,0,0,1,.08-1,2.31,2.31,0,0,1,.68-1,1.07,1.07,0,0,1,1.07-.32h.08a1,1,0,0,1,.88.2,17.8,17.8,0,0,1,3.59,2.31.78.78,0,0,1-.12-.48,1.7,1.7,0,0,1,.12-1.16,1.52,1.52,0,0,1,.67-.87,1.56,1.56,0,0,1,1.16-.36,1.44,1.44,0,0,1,1,.36c1.07.87,2,1.67,2.91,2.43a1.55,1.55,0,0,1-.08-.6,1.4,1.4,0,0,1,.08-1.15,1.38,1.38,0,0,1,.79-1,1.14,1.14,0,0,1,1.16-.28,2.07,2.07,0,0,1,1,.48,35,35,0,0,1,3.1,3c-.11-.4-.11-.76-.19-1.12a2,2,0,0,1,.08-1.19,1.38,1.38,0,0,1,.79-1,1.29,1.29,0,0,1,1.16-.32,2.38,2.38,0,0,1,1.15.6,18.73,18.73,0,0,1,3,3.27,11.27,11.27,0,0,0-.08-1.6,2.56,2.56,0,0,1,.28-1.19,1.28,1.28,0,0,1,.88-.76,1.83,1.83,0,0,1,1.24-.12,2.21,2.21,0,0,1,1,.6,39.85,39.85,0,0,1,3.19,3.94c-.08-.67-.16-1.43-.28-2.11a1.55,1.55,0,0,1,.12-1.16,1.82,1.82,0,0,1,.84-.87,1.18,1.18,0,0,1,1.15-.28,2.16,2.16,0,0,1,1.08.56,49.5,49.5,0,0,1,3.39,3.86c-.12-.67-.28-1.23-.4-1.71-.26-1.11-.56-2.21-.88-3.31l.12.12a10.57,10.57,0,0,1-.4-1.35q-11.11-39.16-43.44-47Z"/><path class="cls-2" d="M186.43,132.39V81.69H2v50.7Z"/><path class="cls-3" d="M2,134.35v83.94l59.79,35.56V134.35Z"/><path class="cls-4" d="M124.52,255.08V134.35H63.66V255l30.53,18.06Z"/><path class="cls-5" d="M186.43,134.35h-60V253.93l60-35.64Z"/><path d="M125.68,96.68V94h-3v26h3ZM137.84,94h-3v26h3V99.67L148,120h2.87V94H148v20.57L137.84,94Zm21.24,1.16a4,4,0,0,0-1,2.9v5.9a4.18,4.18,0,0,0,1,3,4,4,0,0,0,2.91,1h6.3a1.8,1.8,0,0,1,1.23.48,3.15,3.15,0,0,1,.28,1.55v5.34a3,3,0,0,1-.28,1.52,1.63,1.63,0,0,1-1.23.48H161V113.1h-2.83V120h10.73a4.28,4.28,0,0,0,3-1.08,5.07,5.07,0,0,0,1-3v-6.38a4.58,4.58,0,0,0-1-2.9,4,4,0,0,0-3-1.16h-6.18a1.77,1.77,0,0,1-1.24-.36,3.91,3.91,0,0,1-.32-1.67V98.79a4.38,4.38,0,0,1,.32-1.71,1.27,1.27,0,0,1,1.24-.4h7v4.07h2.79V94H162a3.76,3.76,0,0,0-2.91,1.16ZM20.29,94A4.19,4.19,0,0,0,17,95.4a3.93,3.93,0,0,0-1.16,3.39v16.54A3.87,3.87,0,0,0,17,118.68,4.32,4.32,0,0,0,20.29,120h6.1a4.39,4.39,0,0,0,3.27-1.28,5.21,5.21,0,0,0,1.27-3.35V98.79a5.28,5.28,0,0,0-1.27-3.39A4.27,4.27,0,0,0,26.39,94Zm-1.24,3.11a1.27,1.27,0,0,1,1.24-.4h6.1a.87.87,0,0,1,1,.4,3.3,3.3,0,0,1,.48,1.71v16.54a2.29,2.29,0,0,1-.48,1.52,1.08,1.08,0,0,1-1,.48h-6.1a1.66,1.66,0,0,1-1.24-.48,3,3,0,0,1-.32-1.52V98.79A4.35,4.35,0,0,1,19.05,97.08Zm17-3.19H34.2v10H36ZM60,94H57v11.4H48.11V94H45.2v26h2.91V108H57v12h3Zm12.16,0H69.28v26h2.87V94Zm10.36,4.82a3.3,3.3,0,0,1,.36-1.71,1.19,1.19,0,0,1,1.19-.4h7.62V101h3V94H83.47a3.86,3.86,0,0,0-3,1.16A3.55,3.55,0,0,0,79.6,98v17.85a3.65,3.65,0,0,0,.88,3,4.13,4.13,0,0,0,3,1.08h11.2V105.37H86.58V108h5.1v9.37H84.06a1.56,1.56,0,0,1-1.19-.48,2.31,2.31,0,0,1-.36-1.52V98.79Zm18.62-3.66a4,4,0,0,0-1,2.9v17.86a4.13,4.13,0,0,0,1,3A4,4,0,0,0,104,120h11.21V105.37h-8V108h5.15v9.37h-7.66a1.52,1.52,0,0,1-1.23-.48,1.79,1.79,0,0,1-.32-1.52V98.79a2.42,2.42,0,0,1,.32-1.71,1.19,1.19,0,0,1,1.23-.4h7.66V101h2.87V94H104a3.72,3.72,0,0,0-2.9,1.16Z"/></g></g></svg>