<svg xmlns="http://www.w3.org/2000/svg" viewBox="0 0 215.57 242.72"><defs><style>.cls-1{fill:#fff;}.cls-2{fill:#b0382e;}.cls-3{fill:#548961;}</style></defs><g id="Capa_2" data-name="Capa 2"><g id="EFFECTS"><path d="M210.1,10.54l-.6-2.44-2.23,1c-19.45,8.71-37.48,13.17-53.9,12.16S122.17,14,109.21,1.42L107.79,0l-1.42,1.42C93.41,14,78.61,20.26,62.2,21.28S27.76,17.83,8.31,9.12l-2.23-1-.41,2.44A228.37,228.37,0,0,0,0,58.35v3a188.18,188.18,0,0,0,13.58,69.29c15.4,38.7,45.18,75.78,93,111.23l1.22.81,1.21-.81c48-35.45,77.6-72.53,93.2-111.23A189.21,189.21,0,0,0,215.57,61V59a232.94,232.94,0,0,0-5.47-48.42Z"/><path class="cls-1" d="M67.88,55.72V24.79c-1.75.23-3.5.43-5.27.54-16.62,1-34.45-3.25-53.7-11.55A228.42,228.42,0,0,0,4.06,61.67c20.08-5.58,41.47-6.74,63.82-6ZM9.05,103.36a179.27,179.27,0,0,0,8.17,25.7C27.48,154.49,44,179.37,67.88,203.45V96.72c-20.6-.84-40.47,1-58.83,6.64Z"/><path class="cls-2" d="M150.13,113.66c-.67,0-1.35-.12-2-.18v89.59c23.77-24,40.18-48.71,50.24-74A178,178,0,0,0,206,105.44c-18.49,5.8-39.14,8.81-55.89,8.22Zm3.65-39.3c16.84.58,38.37-5.08,57.72-11.31a227.07,227.07,0,0,0-4.84-49.27c-19.25,8.3-37.08,12.56-53.49,11.55-1.71-.11-3.39-.3-5.06-.52V73.9c1.9.22,3.79.38,5.67.46Z"/><path class="cls-3" d="M107.79,237.45a.2.2,0,0,0,.2-.2c6.69-4.86,13-9.93,18.84-14.79,6.08-5.27,12-10.53,17.23-15.6V113c-22.66-3.11-46.4-15.36-72.13-16.15V207.43c.31.31.64.61,1,.92,5.18,4.8,10.53,9.74,16.26,14.52s12.15,9.72,18.64,14.58Zm36.27-164.1V24.16A71.6,71.6,0,0,1,107.79,5.67,71.7,71.7,0,0,1,71.93,24.1V56c25.69,1.94,49.58,13.76,72.13,17.38Z"/><path class="cls-1" d="M158.64,107.58l-2.23-24.31,4.26-.4,9.52,15.8-1.42-16.61,4.26-.21,2,24.32-4.05.4-9.73-16.21,1.63,16.82-4.26.4Zm-12.36-.4,2-24.31,4.25.4-2.22,24.31Zm-18.43-4.05,5.47-19.25-5.88-1.82L128.66,78l15.4,4.26-1.22,4.25-5.47-1.62-5.67,19.45-3.85-1.21ZM106,89,110,90a3.44,3.44,0,0,0,.4,3.24A3.57,3.57,0,0,0,113.06,95a6,6,0,0,0,3.24.2,4.22,4.22,0,0,0,1.62-2,1.52,1.52,0,0,0-.21-1.62,3.58,3.58,0,0,0-1-1.42c-.6-.4-1.42-1-2.43-1.62a9,9,0,0,0-1.82-1,15.47,15.47,0,0,1-2.64-2.44,5.42,5.42,0,0,1-1-2.83,6.8,6.8,0,0,1,0-2.84,11,11,0,0,1,1.42-2.63A6.44,6.44,0,0,1,112.45,75a6.65,6.65,0,0,1,2.83-.81,8,8,0,0,1,3.65.41q4,1.22,4.86,3.64a9.65,9.65,0,0,1,0,5.88l-3.85-1a3.14,3.14,0,0,0-.2-3,4.5,4.5,0,0,0-2.63-1.62c-2.23-.61-3.45-.21-4,1.21a2.74,2.74,0,0,0,.2,2.23,6.52,6.52,0,0,0,2.43,2.23,18.91,18.91,0,0,1,4.25,3,8,8,0,0,1,1.83,7.29,10.27,10.27,0,0,1-2.23,3.45,6.17,6.17,0,0,1-3.24,1.62,10.22,10.22,0,0,1-4.87-.2A6.94,6.94,0,0,1,109,98.06a11.72,11.72,0,0,1-2.22-2.23,8,8,0,0,1-1.22-3A12.56,12.56,0,0,1,106,89ZM83.68,91.58l5.47-23.91,14.38,3.24-1,4.26L92.39,72.94l-1,4.86L100.49,80l-1,4.25-9.11-2L89,88.13l10.53,2.44-1,4.45L83.68,91.58ZM64,90.57l1.82-24.52,4.25.2L68.68,86.31l9.73.61L78,91.37l-14-.8Zm114.67,3a19.05,19.05,0,0,1-.4-5.87,12.37,12.37,0,0,1,1.82-5.47,8.11,8.11,0,0,1,5.27-3.45,8,8,0,0,1,4.86.21,11.51,11.51,0,0,1,4.46,3.44A17.13,17.13,0,0,1,198,89.15a23,23,0,0,1,.61,4.86,16,16,0,0,1-.61,4.46,9.26,9.26,0,0,1-2.23,3.44,10.92,10.92,0,0,1-4.05,2,12.43,12.43,0,0,1-3.85,0,6.9,6.9,0,0,1-3.85-1.42,12.81,12.81,0,0,1-3-3.45,14.68,14.68,0,0,1-2.23-5.47ZM186,83.47a4.79,4.79,0,0,0-2.43,2,8.54,8.54,0,0,0-1,3.45,15.36,15.36,0,0,0,.4,4.25,10,10,0,0,0,1.63,3.65,7.58,7.58,0,0,0,2.63,2.43,4.48,4.48,0,0,0,3.24.2,4,4,0,0,0,2.23-1.22,4.11,4.11,0,0,0,1.21-2,6,6,0,0,0,.41-2.64,7.74,7.74,0,0,0-.41-3,16.93,16.93,0,0,0-1-3,12.56,12.56,0,0,0-1.82-2.44,7.65,7.65,0,0,0-2.43-1.41,4,4,0,0,0-2.64-.21ZM39.1,91l6.49-24.51,5.06-.21,7.5,24.52H53.69L52.07,85.7,45,85.91,43.77,91Zm7.09-9.32h4.66l-2.42-8.92ZM20.26,94,16.61,69.9l9.33-1.62a4.32,4.32,0,0,1,3.24.61,6.16,6.16,0,0,1,2.43,2.63A8.17,8.17,0,0,1,33,75.17a9.12,9.12,0,0,1-.21,4,5.27,5.27,0,0,1-1.42,3,4.51,4.51,0,0,1-3,1.62l-5.27.81,1.42,8.71L20.26,94Zm2.23-13.78,3.85-.61a2.39,2.39,0,0,0,2-1.21,5.64,5.64,0,0,0,.4-2.64,4.67,4.67,0,0,0-1.21-2.43,2.29,2.29,0,0,0-2.23-.61l-4,.61,1.21,6.89Z"/></g></g></svg>