<svg xmlns="http://www.w3.org/2000/svg" viewBox="0 0 153.49 435.25"><defs><style>.cls-1{fill:#3a4995;}.cls-2{fill:#fff;}.cls-3{fill:#b0382e;}</style></defs><g id="Capa_2" data-name="Capa 2"><g id="EFFECTS"><path class="cls-1" d="M0,0,76.75,435.25,153.49,0Z"/><path class="cls-2" d="M144.16,7.83l-12.87,73H80.66v-73ZM129.91,88.65,80.66,368V88.65ZM72.83,368,23.58,88.65H72.83V368ZM22.2,80.82,9.33,7.83h63.5v73Z"/><path class="cls-3" d="M59.2,129.5c-.61-.71-1.18-1.56-1.89-1.56s-4.81,2.89-11,2.89c-8.59,0-10.15-5.17-10.15-10.07v-15c0-4.7,0-5.27-2.24-5.61L32.83,100V98.77H45.74V100l-1.14.14c-2.24.34-2.24.91-2.24,5.61v12.74c0,6.61,2,9.6,7.71,9.6a12.13,12.13,0,0,0,6.81-2.33v-20c0-4.7,0-5.27-2.24-5.61L53.5,100V98.77H66.41V100l-1.14.14C63,100.47,63,101,63,105.74v24.48a12.49,12.49,0,0,1-2.7.61L59.2,129.5Zm56-8.3a28.26,28.26,0,0,1-1.86,8.51,23.74,23.74,0,0,1-10,1.88c-8.93,0-17.69-3.83-17.69-16.24,0-11.42,8.85-16.53,17.83-16.53,5.08,0,8,1.13,9.88,2.16a28.76,28.76,0,0,1,.81,7.71l-1.71.24c-.38-2-1.43-8.33-9.12-8.33-6.7,0-10.78,5.66-10.78,14,0,1.57,0,15.18,11,15.18,8.45,0,9.83-8.47,9.92-8.9l1.72.29ZM60.84,59.29A28,28,0,0,1,59,67.8a23.7,23.7,0,0,1-10,1.88c-5.86,0-11.65-1.65-14.93-6.29a16.73,16.73,0,0,1-2.76-10,15.66,15.66,0,0,1,4.51-11.62c3.41-3.34,8.35-4.91,13.32-4.91s8,1.13,9.88,2.16a28.76,28.76,0,0,1,.81,7.71L58.13,47A11.07,11.07,0,0,0,55.34,41,8.66,8.66,0,0,0,49,38.69,9.57,9.57,0,0,0,40.77,43a17.28,17.28,0,0,0-2.54,9.69c0,1,0,6.66,2.68,10.78A9.3,9.3,0,0,0,49.2,67.9a9.16,9.16,0,0,0,8.1-4.29A13.34,13.34,0,0,0,59.13,59l1.71.29ZM89.05,69h7a77.67,77.67,0,0,0,9.65-.31c6.1-.78,10-2.88,12.37-5.32a14.58,14.58,0,0,0,4.07-10.24c0-7.37-2.89-11.24-6.62-13.27s-8.29-2.22-11.63-2.22H89.05v1.22c.82.11,2.28.18,2.83.78s.55,1.85.55,5V62a19.52,19.52,0,0,1-.23,4.37c-.38,1.31-2,1.29-3.15,1.43V69Zm9.53-29.15a21.28,21.28,0,0,1,3.91-.43c3.66,0,6.7,1,8.89,2.94,2.48,2.24,3.88,5.79,3.88,10.72a16.7,16.7,0,0,1-2.49,9.56,10.16,10.16,0,0,1-6,4.16,15.39,15.39,0,0,1-8.16-.34V39.82Z"/><path class="cls-3" d="M103.38,132.87c-12.06,0-19-6.39-19-17.52,0-12.3,9.6-17.81,19.11-17.81,5.59,0,8.66,1.32,10.49,2.32l.51.28.24,1.08a29.7,29.7,0,0,1,.73,7.47v1.11l-4,.56-.26-1.33c-.64-3.33-2.11-7.15-7.83-7.15s-9.51,4.89-9.51,12.75c0,3.26.7,13.9,9.7,13.9,6.6,0,8.29-6,8.65-7.79l.29-1.29,4.09.68-.12,1.2a29.9,29.9,0,0,1-2,8.91l-.21.46-.47.2A25.24,25.24,0,0,1,103.38,132.87Zm10-7.79a11.11,11.11,0,0,1-4.46,4.71,20.19,20.19,0,0,0,3.45-1.07A19.23,19.23,0,0,0,113.39,125.08ZM97.3,101C91.74,102.76,87,107.11,87,115.35c0,9.68,5.69,13.24,11.13,14.42-4.9-2.68-6.77-9.07-6.77-15.14C91.32,108.26,93.54,103.43,97.3,101Zm11.55-.39a9.41,9.41,0,0,1,4,4.81,22.16,22.16,0,0,0-.54-3.6A15,15,0,0,0,108.85,100.63Zm-49,31.57-1.6-1.86-.31-.38a7.41,7.41,0,0,0-.64-.7l-.8.36a23.11,23.11,0,0,1-10.12,2.49c-7.59,0-11.43-3.82-11.43-11.35v-15a18.07,18.07,0,0,0-.2-4c0-.11-.08-.2-.94-.33l-2.23-.28V97.49H47v3.63l-2.26.28c-.84.13-.88.22-.92.33a18.12,18.12,0,0,0-.2,4v12.74c0,7,2.36,8.32,6.43,8.32a10.32,10.32,0,0,0,5.53-1.74V105.74a18.12,18.12,0,0,0-.2-4c0-.11-.07-.2-.94-.33l-2.24-.28V97.49H67.69v3.63l-2.26.28c-.84.13-.87.22-.91.33a18.07,18.07,0,0,0-.2,4v25.37l-.84.31a14.06,14.06,0,0,1-3,.68ZM36.7,100c.78,1,.78,2.76.78,5.7v15c0,4.1,1,8.79,8.88,8.79a17.92,17.92,0,0,0,2.82-.22c-7.15-.42-8.1-6-8.1-10.85V105.74c0-2.94,0-4.68.78-5.7ZM57.76,126.7a4.12,4.12,0,0,1,2.13,1.64l.28.33.68.79c.33-.05.62-.11.91-.18V105.74c0-2.94,0-4.68.78-5.7H57.37c.79,1,.79,2.76.79,5.7v20.69ZM49,71c-5.08,0-12-1.19-16-6.83a18.19,18.19,0,0,1-3-10.69,17,17,0,0,1,4.89-12.53c3.48-3.4,8.53-5.28,14.22-5.28S57.82,37,59.64,38l.52.28.23,1.08a29.21,29.21,0,0,1,.73,7.47v1.11l-4,.56-.26-1.33a9.7,9.7,0,0,0-2.39-5.24A7.48,7.48,0,0,0,49,40a8.31,8.31,0,0,0-7.18,3.79,16,16,0,0,0-2.32,9c0,1.88.24,6.65,2.47,10.09a8,8,0,0,0,7.22,3.8,7.92,7.92,0,0,0,7-3.71,11.9,11.9,0,0,0,1.63-4.09l.28-1.28,4.09.68-.12,1.2a29.88,29.88,0,0,1-2,8.91l-.21.46-.48.2A25.16,25.16,0,0,1,49,71ZM43,39.11a15.65,15.65,0,0,0-6.27,3.62A14.39,14.39,0,0,0,32.6,53.44a15.67,15.67,0,0,0,2.52,9.21,13.69,13.69,0,0,0,8.63,5.23,10.69,10.69,0,0,1-3.91-3.67C37.33,60.34,37,55.35,37,52.73a18.47,18.47,0,0,1,2.76-10.4A11,11,0,0,1,43,39.11ZM59,63.19c-.2.39-.42.76-.65,1.12a10.52,10.52,0,0,1-3.76,3.55,19.07,19.07,0,0,0,3.4-1A19,19,0,0,0,59,63.19ZM54.46,38.72a8.55,8.55,0,0,1,1.77,1.33,10.13,10.13,0,0,1,2.22,3.38,22.47,22.47,0,0,0-.54-3.5A15,15,0,0,0,54.46,38.72ZM99,70.26H87.77V66.62l1.12-.14.48,0c.79-.08,1.51-.17,1.59-.47a20.46,20.46,0,0,0,.18-4V44.64a17,17,0,0,0-.22-4.17,6.33,6.33,0,0,0-1.66-.33l-.37,0L87.78,40V36.33h16.14c3.9,0,8.4.28,12.24,2.37,4.84,2.64,7.29,7.48,7.29,14.4A15.78,15.78,0,0,1,119,64.23c-3,3.06-7.43,5-13.11,5.69A53.1,53.1,0,0,1,99,70.26ZM92.9,67.7h5.49l-.16,0-.93-.26V38.89H92.94c.77,1,.77,2.33.77,5.75V62a18.77,18.77,0,0,1-.29,4.73A2.81,2.81,0,0,1,92.9,67.7Zm15.55-28.6a11.91,11.91,0,0,1,3.79,2.28c2.85,2.58,4.3,6.51,4.3,11.67a17.89,17.89,0,0,1-2.72,10.28,11.53,11.53,0,0,1-2.69,2.79,15.7,15.7,0,0,0,6.06-3.68,13.27,13.27,0,0,0,3.7-9.34c0-6-1.94-10-6-12.15A17.43,17.43,0,0,0,108.45,39.1ZM99.86,65.44a13.41,13.41,0,0,0,6.56.1,8.94,8.94,0,0,0,5.29-3.66A15.37,15.37,0,0,0,114,53.05c0-4.41-1.16-7.7-3.46-9.77-1.92-1.73-4.62-2.61-8-2.61a16,16,0,0,0-2.63.23Z"/></g></g></svg>