<svg xmlns="http://www.w3.org/2000/svg" viewBox="0 0 342.59 449.38"><defs><style>.cls-1{fill:#363789;}.cls-1,.cls-2,.cls-3{fill-rule:evenodd;}.cls-2{fill:#fff;}.cls-3{fill:#b0382e;}</style></defs><g id="Capa_2" data-name="Capa 2"><g id="EFFECTS"><path class="cls-1" d="M171.3,449.38c-36-17.66-73.21-45.07-102.74-76.64C41.86,344.19,21,311.05,9.35,271.64A240.49,240.49,0,0,1,0,218.49c13.92-7.87,45.45-23.84,56.75-52l20.12,0c-7.1-3.94-26.92-26.71-26.45-54.73C51,76,72,65,71.66,35.47A81,81,0,0,0,63.39,0C77.68,6.76,87.18,12.62,108,12.68c24.68.07,32.08-9.73,63.27-10.23,31.18.5,38.58,10.31,63.27,10.23C255.42,12.62,264.91,6.76,279.2,0a80.82,80.82,0,0,0-8.26,35.47C270.56,65,291.58,76,292.18,111.74c.46,28-19.36,50.79-26.46,54.73l20.13,0c11.29,28.21,42.82,44.17,56.74,52a240.38,240.38,0,0,1-9.35,53.15c-11.67,39.42-32.51,72.55-59.2,101.1C244.5,404.31,207.34,431.72,171.3,449.38Z"/><path class="cls-2" d="M171.3,439.76c-47.45-25.49-94-62.13-125-109.21C25.81,299.36,12.11,263.6,9.51,223.48,22.43,216,50.1,201.71,62.18,174.72l16.39-.05L85,169l0-7.1c-7.19-3.94-26.25-24.88-25.82-51.49C59.61,81.55,80.46,67.08,80.36,36c0-3.6-.13-12.44-2-19.78,10,3.93,21.73,5.2,30.86,5.19,22,0,40.24-10.19,62.07-10.31,21.82.14,40,10.31,62.06,10.33,9.13,0,20.89-1.26,30.86-5.19-1.86,7.35-2,16.18-2,19.78-.1,31.06,20.76,45.53,21.23,74.43.42,26.61-18.64,47.55-25.82,51.48l-.05,7.11,6.43,5.63,16.4,0c12.07,27,39.74,41.29,52.66,48.77-2.6,40.12-16.29,75.88-36.81,107.06-31,47.08-77.53,83.73-125,109.2Z"/><path class="cls-1" d="M171.3,425.63C128.37,403.3,84.39,367.22,55.21,321.86,37.42,294.2,25.13,263.09,22,229.54c7.76-4.26,29.78-15.42,45.15-39.6l104.2,23.69,104.19-23.7c15.37,24.18,37.39,35.34,45.15,39.6C312.24,318.09,240.4,389.67,171.3,425.63Z"/><path class="cls-2" d="M142.4,382.92,103.81,345.2l0-89.7H88.34V225.37l72.59,0,0,30.15H146.81v76.06c0,10.84,6.48,17.19,17.78,17.08l13.43,0c11.3.12,17.79-6.24,17.79-17.08l0-76.05H181.65V225.34h72.59v30.14h-15.5l0,89.7L200.2,382.91Z"/><path class="cls-3" d="M171.3,65.6c-26.22-18.52-46.59-24.79-64.74-27.14C121,28.36,148.1,17.82,171.3,18.93c23.19-1.11,50.25,9.43,64.74,19.53C217.88,40.81,197.51,47.08,171.3,65.6Z"/><path class="cls-3" d="M171.3,188.43l-42.83-9.71c7.14-4.49,21-23.67,20-43.49a61.54,61.54,0,0,1-34.94,11.58c-20.52.08-39.38-11.06-39.39-37.71,0-23.48,19.2-29.47,18.76-49.7a40.82,40.82,0,0,0-2-11.23c37.36-1,62.46,17.63,80.35,36.94,17.88-19.31,43-37.89,80.34-36.94a40.77,40.77,0,0,0-2,11.23c-.44,20.23,18.78,26.22,18.76,49.7,0,26.65-18.87,37.79-39.4,37.71a61.53,61.53,0,0,1-34.93-11.58c-1,19.83,12.88,39,20,43.49Z"/><path class="cls-2" d="M122.57,79c13.79,0,25,10.95,25,24.37s-11.25,24.36-25,24.36-25-10.94-25-24.36S108.78,79,122.57,79ZM220,79c-13.79,0-25,10.95-25,24.37s11.25,24.36,25,24.36,25-10.94,25-24.36S233.82,79,220,79Z"/><path class="cls-3" d="M171.3,194,87.6,174.91,82.17,180H74.59l-3.07,4.63,99.78,22.72,99.77-22.74L268,180h-7.58L255,174.89,171.3,194Z"/></g></g></svg>