<svg xmlns="http://www.w3.org/2000/svg" viewBox="0 0 252.77 277.8"><defs><style>.cls-1{fill:#e6c843;}.cls-1,.cls-2,.cls-3{fill-rule:evenodd;}.cls-3{fill:#b0382e;}</style></defs><g id="Capa_2" data-name="Capa 2"><g id="EFFECTS"><path class="cls-1" d="M87.47,224.81l15.65-21.95c-6.78-3-14.71-5.84-21.48-8.87-.7,10.74-.23,21.71-2.1,32.21-2.8,4.9-8.17,11.21-14.94,9.81-4.67,5.84-8.64,8.4-16.34,7.23-.24,11,0,15.88-11.67,19.38l-5.14-.93-2.1-.94c-2.34,10.51-3.74,14-14.71,17.05C3.9,274.76-1,270.09.17,258.42a275.54,275.54,0,0,0,5.6-35.72l.47-9.1V60c.7-21.25,16.34-38.52,32.45-50.66,13.54-7.47,22.87-5.6,32,6.53l2.1,6.31.7,6.3v50h27.78V43.65C90.51,41.09,84.68,33.85,77,26.15c5.84-3.27,11.67-5.61,16.11-11C100.78,4.9,104.75.23,118.29,0c19.38.46,30.35,9.57,32.92,28.48l.46,4.9V78.44h27.55v-50c1.4-12.84,5.14-18.91,17.51-23.58,7,0,11,.94,17.51,4.44C229.41,21,243.42,36.42,246.45,56c1.64,54.16-1.87,109.48.47,163.41.23,10.73,2.1,21.71,4.2,32.44,3.73,13.78,1.87,22.18-13.07,25.92-11-3-12.14-6.54-14.48-17-9.33,4.2-16.81,0-18.67-9.81l-.24-7.71c-7.93,1.17-11.67-1.39-16.34-7.23-6.77,1.4-11.9-4.67-14.94-9.81-1.87-10.5-1.4-21.47-2.1-32.21-7.23,3.27-14.94,5.84-22.41,8.64l17.5,22.18h-16.8l17,28h-15.4l14,24H87.71l13.77-24H86.08l17.27-28Z"/><path class="cls-2" d="M244,259.73a197.18,197.18,0,0,1-6.29-49.17V60.23c0-18.83-17.93-35.32-28.62-43.47-4.64-3.39-9.89-4.16-14-2.05C190.55,17,188,22.17,188,29V87.19H142.69V36c0-10.62-1.27-22.29-16.37-26.25-5.81-1.51-16.62-1.91-20.9,3.39l-2.66,3.64c-2.73,3.91-5.82,8.35-11.23,11l-.43.21.33.35c4.93,5.14,10.86,7.67,18.58,8V87.19H64.49V29c0-6.72-2.6-11.89-7.12-14.19-4.16-2.11-9.39-1.36-14,2C32.78,24.85,15,41.25,15,60.23V210.56A208.52,208.52,0,0,1,8.7,259.74a7,7,0,0,0,1.5,7.06,5.69,5.69,0,0,0,5.44,1.73,5.43,5.43,0,0,0,3.78-4.18c6.36-25.82,7-57.24,7.59-87.63l.36-16.34c.1-2.31,1.06-3.35,1.9-3.33s1.83,1.17,1.83,3.33c.13,15.29-.28,31.06-.68,46.31l-.72,40.76a6.36,6.36,0,0,0,5.85,6.2c2.1,0,3.4-1.4,3.49-3.85,2-36.55,3.07-69.39,3.27-97.59a3.06,3.06,0,0,1,.54-1.91,1.42,1.42,0,0,1,1.11-.55c.9,0,1.85.86,1.85,2.45v77.74c0,3.28,2.73,5,5.44,5,2.55,0,5.3-1.56,5.3-5v-84.5c0-1.93,1-2.81,1.87-2.81s1.86.88,1.86,2.81v74.69c0,4.83,2.85,7.06,5.5,7.09s5.58-2.16,5.71-7.08l1.79-37.92,0-1q12.35,5.3,25,9.85l.31-.62a49.31,49.31,0,0,1-20.86-52.85l.11-.43H72V98.86h38.28v3.41l.46-.16A47.92,47.92,0,0,1,126,99.8a45.4,45.4,0,0,1,16.91,2.77l.48.19V99.09H181.2v37.82h-7.09l.1.44a50.92,50.92,0,0,1,1.16,12.05,49,49,0,0,1-22.49,41.49l.31.63c7.84-2.68,16.2-6,26.17-10.32l1.61,39c.13,4.91,3.11,7.11,5.82,7.07s5.62-2.26,5.62-7.09V145.44c0-1.93.91-2.81,1.75-2.81s1.76.88,1.76,2.81l.23,84.5a4.88,4.88,0,0,0,5.18,5c2.64,0,5.32-1.71,5.32-5V152.21c0-1.6.95-2.46,1.85-2.46a1.46,1.46,0,0,1,1.11.55,3,3,0,0,1,.54,1.91c.48,34.25,2,70.14,3.27,97.59.09,2.45,1.43,3.89,3.57,3.85a6.44,6.44,0,0,0,6-6.2l-.74-38.82c-.45-15.89-.92-32.32-.66-48.25,0-2.14.88-3.31,1.72-3.33s1.67,1,1.78,3.34l.35,15.89c.61,30.54,1.25,62.13,7.83,88.07a5.25,5.25,0,0,0,3.52,4.15,5.68,5.68,0,0,0,5.45-1.6,7.2,7.2,0,0,0,1.75-7.17Z"/><path class="cls-2" d="M150.9,244.06l-17.27-28h14.56l-14.11-18-.21,0a43.29,43.29,0,0,1-7.87.7,50.06,50.06,0,0,1-8.35-.7l-.22,0-12.89,18h14.29l-17.27,28h15l-13.78,24.05h47s-13.2-23-13.77-24.05Z"/><path class="cls-3" d="M125.76,190.72A41.79,41.79,0,1,0,84,148.94,41.94,41.94,0,0,0,125.76,190.72Z"/><path class="cls-2" d="M101.36,115.18v-7.45H80.59v20.55h9a42.53,42.53,0,0,1,11.8-13.1Zm71.21-7.45H151.78v8.53a42.34,42.34,0,0,1,10.4,12h10.39Z"/><path class="cls-1" d="M126,155.47c0,5.84-1.41,10.27-3.74,12.84-2.57,2.8-6.3,4.2-11.44,4.2-3.27,0-6.31-.46-8.17-1.63a11,11,0,0,1-5.37-5.37,25.62,25.62,0,0,1-1.87-10V128.86h7.7v25.21a19.08,19.08,0,0,0,.71,5.6,7.77,7.77,0,0,0,2.33,3.51,7.21,7.21,0,0,0,4.44,1.4c2.79,0,4.9-.94,6.06-2.81a14.37,14.37,0,0,0,1.87-7.7V128.86H126v26.61Zm26.6,16.11H131.83V128.86H152.6v7.7H139.53v8.88H152.6v7.7H139.53v10.5H152.6Zm-36.41-154c-5.75,0-9.92,2-9.92,4.78,0,2.38,4.45,4.32,9.92,4.32,5.25,0,9.69-2,9.69-4.32C125.88,19.68,121.71,17.63,116.19,17.63Z"/></g></g></svg>